<?xml version="1.0" encoding="utf-8"?>
<!-- Generator: Adobe Illustrator 25.2.0, SVG Export Plug-In . SVG Version: 6.00 Build 0)  -->
<svg version="1.1" id="Слой_1" xmlns:svgjs="http://svgjs.com/svgjs"
	 xmlns="http://www.w3.org/2000/svg" xmlns:xlink="http://www.w3.org/1999/xlink" x="0px" y="0px" viewBox="0 0 512 512"
	 style="enable-background:new 0 0 512 512;" xml:space="preserve">
<style type="text/css">
	.st0{fill:#2E8B57;}
</style>
<g>
	<g>
		<g>
			<path class="st0" d="M362.6,172.6l-5.5-18c-7-20.5-29.2-31.4-49.7-24.5c-11.5,3.9-20.6,13-24.5,24.5l-5.5,18
				c-4.6,15.2-5.6,31.3-2.8,46.9c2.5,13.2,10.9,24.5,22.7,30.8l-6.1,137.2c-0.8,7.7,1.7,15.3,6.8,21c11.1,12.1,30,13,42.1,1.9
				c0.7-0.6,1.3-1.2,1.9-1.9c5-5.5,7.5-13,6.8-20.4l-6.2-137.7c11.8-6.3,20.2-17.6,22.7-30.7C368.1,203.8,367.2,187.8,362.6,172.6z
				 M348.6,216.5c-1.8,9.5-8.6,17.2-17.7,20.4c-3.5,1.3-5.7,4.7-5.5,8.4l6.5,144.1c0.3,2.8-0.6,5.6-2.6,7.7
				c-5.1,5.1-13.4,5.1-18.6,0c-2-2.3-2.9-5.3-2.5-8.3l6.4-143.5c0.2-3.7-2.1-7.1-5.5-8.4c-9.1-3.2-15.9-10.9-17.7-20.4
				c-2.3-13-1.5-26.3,2.3-39l5.5-18c4.2-11.5,17-17.3,28.4-13.1c6.1,2.2,10.8,7,13.1,13.1l5.5,18
				C350.1,190.2,350.9,203.5,348.6,216.5z"/>
		</g>
	</g>
	<g>
		<g>
			<path class="st0" d="M230.4,128c-4.7,0-8.5,3.8-8.5,8.5v73.3l-23.1,23.1c-1.7,1.7-2.6,4.1-2.5,6.5l7.5,149.3
				c0.2,3.2-1,6.4-3.2,8.7c-4.7,4.7-12.3,4.7-17,0.1c0,0-0.1-0.1-0.1-0.1c-2.2-2.3-3.4-5.5-3.2-8.7l7.5-149.3
				c0.1-2.4-0.8-4.8-2.5-6.5l-23.1-23.1v-73.3c0-4.7-3.8-8.5-8.5-8.5c-4.7,0-8.5,3.8-8.5,8.5v76.8c0,2.3,0.9,4.4,2.5,6l22.9,22.9
				l-7.3,145.6c-0.8,15.9,11.5,29.4,27.4,30.2s29.4-11.5,30.2-27.4c0-0.9,0-1.9,0-2.8l-7.3-145.6l22.9-22.9c1.6-1.6,2.5-3.8,2.5-6
				v-76.8C238.9,131.8,235.1,128,230.4,128z"/>
		</g>
	</g>
	<g>
		<g>
			<path class="st0" d="M179.2,128c-4.7,0-8.5,3.8-8.5,8.5v68.3c0,4.7,3.8,8.5,8.5,8.5c4.7,0,8.5-3.8,8.5-8.5v-68.3
				C187.7,131.8,183.9,128,179.2,128z"/>
		</g>
	</g>
	<g>
		<g>
			<path class="st0" d="M204.8,128c-4.7,0-8.5,3.8-8.5,8.5v68.3c0,4.7,3.8,8.5,8.5,8.5c4.7,0,8.5-3.8,8.5-8.5v-68.3
				C213.3,131.8,209.5,128,204.8,128z"/>
		</g>
	</g>
	<g>
		<g>
			<path class="st0" d="M256,0C114.6,0,0,114.6,0,256s114.6,256,256,256s256-114.6,256-256C511.8,114.7,397.3,0.2,256,0z M256,494.9
				C124,494.9,17.1,388,17.1,256S124,17.1,256,17.1S494.9,124,494.9,256C494.8,387.9,387.9,494.8,256,494.9z"/>
		</g>
	</g>
	<g>
		<g>
			<path class="st0" d="M283.7,416.2c-0.5-4.7-4.6-8.1-9.3-7.7c-0.1,0-0.2,0-0.3,0l0,0c-12,1.4-24.2,1.4-36.2,0
				c-4.7-0.5-8.9,2.8-9.5,7.5c-0.5,4.7,2.8,8.9,7.5,9.5c13.3,1.6,26.8,1.6,40.1,0C280.7,425,284.2,420.9,283.7,416.2z"/>
		</g>
	</g>
	<g>
		<g>
			<path class="st0" d="M386.6,146c-3-3.6-8.4-4.1-12-1.1c0,0,0,0,0,0c-3.6,3-4.1,8.4-1,12c51.5,61.1,47.5,151.4-9.1,207.8
				c-3.3,3.3-3.3,8.7,0,12.1c3.3,3.3,8.7,3.3,12.1,0C439.3,314.3,443.7,213.9,386.6,146z"/>
		</g>
	</g>
	<g>
		<g>
			<g>
				<path class="st0" d="M198.8,112.8C198.8,112.8,198.8,112.8,198.8,112.8C198.8,112.8,198.8,112.8,198.8,112.8L198.8,112.8z"/>
				<path class="st0" d="M296.3,90.1c-33.3-8-68.3-5.8-100.4,6.2c-4.4,1.7-6.6,6.6-5,11c1.3,3.3,4.4,5.5,8,5.5c1,0,2-0.2,3-0.6
					c28.9-10.8,60.4-12.7,90.5-5.5c4.6,1.1,9.2-1.7,10.3-6.3C303.6,95.8,300.8,91.2,296.3,90.1z"/>
			</g>
		</g>
	</g>
	<g>
		<g>
			<path class="st0" d="M147.2,364.4c-28.8-28.7-44.9-67.7-44.8-108.4c-0.1-32.5,10.2-64.1,29.4-90.4c2.8-3.8,2.1-9.1-1.7-11.9
				c-3.8-2.8-9.1-2.1-11.9,1.7c-0.1,0.1-0.1,0.1-0.1,0.2C68.6,223.4,75.9,317,135.1,376.5c3.3,3.3,8.7,3.3,12.1,0
				C150.5,373.1,150.5,367.7,147.2,364.4z"/>
		</g>
	</g>
</g>
</svg>
