<?xml version="1.0" encoding="utf-8"?>
<!-- Generator: Adobe Illustrator 25.2.0, SVG Export Plug-In . SVG Version: 6.00 Build 0)  -->
<svg version="1.1" id="Слой_1" xmlns:svgjs="http://svgjs.com/svgjs"
	 xmlns="http://www.w3.org/2000/svg" xmlns:xlink="http://www.w3.org/1999/xlink" x="0px" y="0px" viewBox="0 0 512 512"
	 style="enable-background:new 0 0 512 512;" xml:space="preserve">
<style type="text/css">
	.st0{fill:#2E8B57;}
</style>
<g>
	<g>
		<path class="st0" d="M224,200c4.4,0,8-3.6,8-8s-3.6-8-8-8h-16c-4.4,0-8,3.6-8,8s3.6,8,8,8H224z"/>
		<path class="st0" d="M288,200h16c4.4,0,8-3.6,8-8s-3.6-8-8-8h-16c-4.4,0-8,3.6-8,8S283.6,200,288,200z"/>
		<path class="st0" d="M456,344c26.5,0,48-21.5,48-48c0.1-13.3-5.5-26.1-15.3-35.1c9.8-53.8,9.8-109.4-0.1-169.7
			c9.8-9,15.4-21.8,15.4-35.2c0-26.5-21.5-48-48-48c-13.5,0-26.4,5.7-35.4,15.6c-109.5-10.1-219.6-10.1-329.1,0
			c-17.9-19.6-48.2-21-67.8-3.1C13.7,29.6,8,42.5,8,56c-0.1,13.3,5.4,25.9,15.1,35c-9.7,44.8-9.6,99,0.3,169.7
			c-19.5,18-20.7,48.3-2.7,67.8C29.8,338.4,42.6,344,56,344c13.5,0.1,26.4-5.6,35.5-15.6c13.3,1.2,26.7,2.3,40.2,3.3l-4.1,1
			c-29.5,6.9-50.2,28.5-54.6,56.1c-19.2,1-38.3,2.1-57.4,3.4c-4.2,0.3-7.5,3.8-7.5,8v96c0,4.4,3.6,8,8,8s8-3.6,8-8v-88.5
			c154.5-9.9,309.5-9.9,464,0V496c0,4.4,3.6,8,8,8s8-3.6,8-8v-96c0-4.2-3.3-7.7-7.5-8c-19.1-1.3-38.2-2.4-57.4-3.4
			c-4.4-27.5-25.1-49.1-54.6-56.1l-4.1-1c13.4-0.9,26.8-2,40.2-3.3C429.6,338.4,442.5,344.1,456,344z M380.8,348.2
			c21.7,5.1,37.4,20.2,41.8,39.7c-110.9-5.1-222.5-5.1-333.3,0c4.5-19.4,20.1-34.6,41.8-39.7l57.3-13.5c7.4,0.3,14.9,0.5,22.1,0.7
			c8.5,25.1,35.8,38.6,60.9,30.1c14.1-4.8,25.3-15.9,30.1-30.1c7.3-0.2,14.7-0.4,22.1-0.7L380.8,348.2z M160,152v-24
			c0-39.7,32.3-72,72-72h48c39.7,0,72,32.3,72,72v24h-8v-21.2c1-2.4,0.8-5.2-0.5-7.4c-0.2-0.3-4-6.3-11.3-2.6
			c-0.5,0.3-1.3,0.7-2.3,1.2c-1.8,1-4.5,2.4-7.6,4.2c-7.4,4.1-24.7,13.6-37.3,20l2.5-7.5c1.4-4.2-0.9-8.7-5.1-10.1
			c-1.6-0.5-3.4-0.5-5.1,0c-0.7,0.2-71.1,23.6-101.5,23.6H160z M168,168v48h-8c-4.4,0-8-3.6-8-8v-32c0-4.4,3.6-8,8-8H168z M360,176
			v32c0,4.4-3.6,8-8,8h-8v-48h8C356.4,168,360,171.6,360,176z M184,167.6c24.9-2.1,62.6-12.9,83.4-19.2l-3,9.1
			c-1.4,4.2,0.9,8.7,5.1,10.1c0.8,0.3,1.7,0.4,2.5,0.4c5,0,14.8-4,56-26.7V224c0,39.8-32.2,72-72,72s-72-32.2-72-72l0,0V167.6z
			 M288,306v14c0,2-0.2,4.1-0.6,6.1c0,0,0,0,0,0v0c-3.4,17.3-20.2,28.7-37.5,25.3c-12.8-2.5-22.8-12.5-25.3-25.4c-0.4-2-0.6-4-0.6-6
			v-14C244.6,314,267.4,314,288,306z M325.1,318.6l-21.1-5v-15.9c22.6-14.7,37.2-38.9,39.6-65.7h8.4c13.2,0,24-10.8,24-24v-32
			c0-6.8-2.9-13.3-8-17.9V128c-0.1-48.6-39.4-87.9-88-88h-48c-48.6,0.1-87.9,39.4-88,88v30.1c-5.1,4.5-8,11-8,17.9v32
			c0,13.2,10.8,24,24,24h8.4c2.5,26.8,17.1,51,39.6,65.7v15.9l-21.1,5c-32.6-1.3-65.6-3.5-98.1-6.6c-2.8-0.3-5.5,0.9-7.2,3.1
			c-10.6,14.1-30.7,17-44.8,6.4s-17-30.7-6.4-44.8c1.8-2.4,4-4.6,6.4-6.4c2.3-1.8,3.5-4.6,3.1-7.5c-10.6-73.4-10.6-128.4-0.1-173
			c0.7-3.1-0.4-6.3-3-8.2c-14.1-10.6-17-30.7-6.4-44.8s30.7-17,44.8-6.4c2.4,1.8,4.6,4,6.4,6.4c1.7,2.2,4.4,3.4,7.2,3.2
			C200,29.4,312,29.4,423.2,40c2.8,0.3,5.5-0.9,7.1-3.2c10.6-14.1,30.7-17,44.8-6.4c14.1,10.6,17,30.7,6.4,44.8
			c-1.8,2.4-4,4.6-6.4,6.4c-2.4,1.8-3.6,4.8-3.1,7.7c10.6,61.8,10.6,118.5,0,173.1c-0.6,3,0.6,6.1,3,7.9c14.1,10.6,17,30.7,6.4,44.8
			s-30.7,17-44.8,6.4c-2.4-1.8-4.6-4-6.4-6.4c-1.7-2.2-4.4-3.4-7.1-3.1C390.7,315.1,357.7,317.4,325.1,318.6z"/>
		<path class="st0" d="M226.8,244.6c5,7,16.1,11.4,29.2,11.4c13,0,24.2-4.4,29.2-11.4c2.6-3.6,1.8-8.6-1.8-11.2
			c-3.6-2.6-8.6-1.8-11.2,1.8c0,0.1-0.1,0.1-0.1,0.2c-1,1.4-6.5,4.6-16.1,4.6s-15.1-3.2-16.1-4.6c-2.5-3.6-7.5-4.6-11.1-2.1
			c-3.6,2.5-4.6,7.5-2.1,11.1C226.8,244.5,226.8,244.6,226.8,244.6L226.8,244.6z"/>
	</g>
</g>
</svg>
