<?xml version="1.0" encoding="utf-8"?>
<!-- Generator: Adobe Illustrator 25.2.0, SVG Export Plug-In . SVG Version: 6.00 Build 0)  -->
<svg version="1.1" id="Слой_1" xmlns:svgjs="http://svgjs.com/svgjs"
	 xmlns="http://www.w3.org/2000/svg" xmlns:xlink="http://www.w3.org/1999/xlink" x="0px" y="0px" viewBox="0 0 512 512"
	 style="enable-background:new 0 0 512 512;" xml:space="preserve">
<style type="text/css">
	.st0{fill:#2E8B57;}
</style>
<g>
	<path class="st0" d="M509.9,215.4L424.2,104c-3.2-4.1-9-5.1-13.3-2.3l-55.3,35.2h-72.2c-0.9,0-1.9,0.2-2.8,0.5l-55.9,16.1
		l-58.1-15.9l-56.4-35.9c-4.3-2.7-10-1.8-13.2,2.2L2.2,221.3c-3.4,4.2-2.8,10.4,1.3,13.9l49.7,42.8L97.7,338
		c-13,13.9-12.8,35.8,0.8,49.4c6,6,13.7,9.4,21.5,10.2c-0.3,1.8-0.4,3.6-0.4,5.4c0,9.5,3.7,18.4,10.4,25.1
		c6.7,6.7,15.6,10.4,25.1,10.4c0.1,0,0.3,0,0.4,0c0,0.2,0,0.5,0,0.7c0,9.5,3.7,18.4,10.4,25.1c6.7,6.7,15.6,10.4,25.1,10.4
		c1.9,0,3.7-0.2,5.5-0.4c0.8,7.9,4.2,15.6,10.2,21.6c6.9,6.9,16,10.4,25.1,10.4s18.2-3.5,25.1-10.4l5.4-5.4l2.3,1.8
		c6.9,6.6,15.8,10,24.7,10c9.1,0,18.2-3.5,25.1-10.4c7.1-7.1,10.5-16.4,10.4-25.6c9.3,0.1,18.6-3.3,25.6-10.4
		c7.1-7.1,10.5-16.4,10.4-25.6c9.7,0.2,18.8-3.6,25.6-10.4c7.1-7.1,10.5-16.4,10.4-25.6c9.3,0.1,18.6-3.3,25.6-10.4
		c12-12,13.6-30.7,4.7-44.4l32.5-68.2l48.9-42.1C512.6,225.6,513.2,219.6,509.9,215.4z M107,123.4l40.6,25.8L59.3,256.7L24,226.3
		L107,123.4z M112.7,351.4l12.2-12.2c0.4-0.4,0.8-0.7,1.2-1.1c2.4-2,5.3-3.1,8.4-3.4c0.1,0,0.2,0,0.3,0c0.4,0,0.9-0.1,1.3-0.1
		c4.2,0.1,8.1,1.8,11,4.8c5.7,6,5.4,15.8-0.7,21.8l-11.9,11.9c-6,6-15.8,6-21.8,0C106.7,367.1,106.7,357.4,112.7,351.4z
		 M144.2,413.9c-2.9-2.9-4.5-6.8-4.5-10.9s1.6-8,4.5-10.9l23.7-23.7c4.5-4.5,11.7-5.8,17.5-3c6,2.9,9.4,9.4,8.5,15.9
		c-0.5,3.5-2.1,6.8-4.6,9.3L166,413.9c-2.9,2.9-6.8,4.5-10.9,4.5S147.1,416.8,144.2,413.9z M180.1,450c-2.9-2.9-4.5-6.8-4.5-10.9
		s1.6-8,4.5-10.9l23.7-23.7c4.9-4.9,12.7-5.9,18.6-2.4c5.4,3.2,8.3,9.4,7.4,15.6c-0.5,3.4-2.1,6.6-4.6,9L201.8,450
		c-2.9,2.9-6.8,4.5-10.9,4.5S183,453,180.1,450z M220.9,481.6c-6-6-6-15.8,0-21.8l12.2-12.2c0.4-0.4,0.8-0.7,1.2-1c0,0,0,0,0,0
		c2-1.6,4.3-2.7,6.8-3.2c0.1,0,0.1,0,0.2,0c0.4-0.1,0.9-0.1,1.3-0.2c0.2,0,0.4,0,0.5,0c0.4,0,0.7,0,1.1,0c4.2,0.1,8.1,1.8,11,4.8
		c0.4,0.4,0.7,0.8,1,1.2c4.6,6,4,15-1.7,20.7l-11.8,11.8C236.7,487.6,226.9,487.6,220.9,481.6z M408.2,369.6c-6,6-15.8,6-21.8,0
		c-0.2-0.2-0.4-0.4-0.7-0.6l-64.6-65.2c-3.9-3.9-10.3-4-14.2-0.1c-3.9,3.9-4,10.3-0.1,14.2l65.3,65.9c0,0,0,0,0,0c6,6,6,15.8,0,21.8
		c-2.9,2.9-6.8,4.5-10.9,4.5c-4.1,0-8-1.6-10.9-4.5l-43.7-44.1c-3.9-3.9-10.3-4-14.2-0.1c-3.9,3.9-4,10.3-0.1,14.2l43,43.4
		c0.2,0.3,0.5,0.5,0.7,0.8c6,6,6,15.8,0,21.8c-6,6-15.8,6-21.8,0l-23.8-24.1c-3.9-3.9-10.3-4-14.2-0.1c-3.9,3.9-4,10.3-0.1,14.2
		l23.2,23.4c0.2,0.3,0.5,0.5,0.7,0.8c6,6,6,15.8,0,21.8c-6,6-15.8,6-21.8,0c-0.7-0.7-1.5-1.2-2.3-1.8c-0.7-0.5-0.8-0.8-0.5-1.6
		c0.3-0.8,0.8-1.5,1.2-2.4c0.4-0.9,0.7-1.8,1-2.8c1.5-5,2-10.3,1.3-15.4c-1.3-9.9-6.8-18.8-15-24.4c-4.4-3-9.6-5-14.9-5.8
		c2.6-11.4-0.5-23.8-8.6-32.3c-6.6-7-15.6-11-25.3-11.1c-0.4,0-0.7,0-1.1,0c0.2-9.2-3.1-18.4-9.5-25.1c-6.7-7-15.6-11-25.3-11.1
		c-2.9,0-5.8,0.3-8.6,0.9c-1.2-8.3-5.4-16-11.7-21.5c-6.3-5.5-14.2-8.5-22.7-8.6c-8.9-0.1-17.6,3.2-24.2,9.1l-38.8-52.3l92.8-113.1
		l29.6,8.1l-38.6,68.2c-4.7,8.2-5.9,17.8-3.3,26.9c2.5,9.1,8.5,16.7,16.7,21.4c0.5,0.3,1,0.6,1.6,0.8c0,0,0.1,0,0.1,0.1
		c1.4,0.7,2.8,1.3,4.3,1.8c6.7,2.3,14,2.6,21,0.6c9.1-2.5,16.7-8.5,21.4-16.7l25.1-44.3l44.8,3.2l119.4,119.4
		C414.2,353.8,414.2,363.6,408.2,369.6z M412.3,323.5l-112-112c-0.2-0.2-0.4-0.4-0.7-0.6c-1.6-1.3-3.6-2.2-5.7-2.3l-54.9-3.9
		c-3.8-0.3-7.6,1.8-9.4,5.1l-28.2,49.8c-2,3.6-5.3,6.2-9.3,7.2c-4,1.1-8.1,0.6-11.7-1.4c-3.6-2-6.2-5.3-7.2-9.3s-0.6-8.1,1.4-11.7
		l37.7-66.5l15.3-4.4c0.1,0,0.2-0.1,0.3-0.1l57-16.5h68.9l86,109.3L412.3,323.5z M452.8,250.5l-79.5-101.1l40.6-25.8l74.3,96.5
		L452.8,250.5z"/>
	<path class="st0" d="M310.2,118c2.6,0,5.1-1,7.1-2.9l68.6-68.6c3.9-3.9,3.9-10.3,0-14.2s-10.3-3.9-14.2,0l-68.6,68.6
		c-3.9,3.9-3.9,10.3,0,14.2C305,117.1,307.6,118,310.2,118z"/>
	<path class="st0" d="M194.7,115.1c2,2,4.5,2.9,7.1,2.9c2.6,0,5.1-1,7.1-2.9c3.9-3.9,3.9-10.3,0-14.2l-68.6-68.6
		c-3.9-3.9-10.3-3.9-14.2,0s-3.9,10.3,0,14.2L194.7,115.1z"/>
	<path class="st0" d="M256,118c5.5,0,10-4.5,10-10V51.2c0-5.5-4.5-10-10-10s-10,4.5-10,10V108C246,113.5,250.5,118,256,118z"/>
	<path class="st0" d="M246.7,14.9c1.6,3.9,5.6,6.4,9.8,6.2c4.1-0.2,7.8-3,9.1-7c1.3-4-0.1-8.5-3.4-11c-3.4-2.6-8.1-2.7-11.7-0.4
		C246.5,5.3,244.9,10.5,246.7,14.9z"/>
</g>
</svg>
