<svg xmlns="http://www.w3.org/2000/svg" viewBox="0 0 188.59 66.83"><defs><style>.cls-1{isolation:isolate;}.cls-2,.cls-3,.cls-4,.cls-5,.cls-6{fill:#0653ff;}.cls-2,.cls-5{opacity:0.5;}.cls-2,.cls-4{mix-blend-mode:multiply;}.cls-3{stroke:#087c32;stroke-linecap:round;stroke-linejoin:round;stroke-width:0.25px;}.cls-5{mix-blend-mode:screen;}.cls-6{opacity:0.7;mix-blend-mode:color-dodge;}</style></defs><g class="cls-1"><g id="Слой_2" data-name="Слой 2"><g id="Layer_1" data-name="Layer 1"><path class="cls-2" d="M99.18,18.1l2.53-15.62s-38.58-8-72.42,4.82-31.4,28.93.6,41.64S59.93,59.55,73,62s53.47,4.87,89.42-14.45,22.1-42-51-46C104.9,12.39,99.18,18.1,99.18,18.1Z"/><path class="cls-2" d="M97.74,18.16,100.08,4S64.42-3.31,33.14,8.37s-29,26.29.54,37.82S61.45,55.82,73.5,58.07s49.41,4.41,82.64-13.15S176.57,6.78,109,3.13A82.71,82.71,0,0,1,97.74,18.16Z"/><path class="cls-3" d="M148.2,35.64c3.34-1.31,7.14-.79,10.65-1.17,2.77-.29,5.52-.78,8.27-1.21,11.32-14.08-6.91-27.57-59-30.46A81.65,81.65,0,0,1,97.27,17.5L99.5,3.64S65.25-3.47,35.18,7.9c-28.39,10.78-28,24.08-4,35a.39.39,0,0,1,.25-.16C37.21,42,43,41.28,48.74,40.34c.33-.05.61.41.25.59-3.23,1.69-6.41,3.48-9.5,5.41C64,56,62.91,54.32,74,56.44c11.58,2.21,47.5,4.32,79.45-12.81a67,67,0,0,0,7-4.31c-4.05-1.06-8.28-1.61-12.23-3A.33.33,0,0,1,148.2,35.64Z"/><path class="cls-4" d="M148.2,35.64c3.34-1.31,7.14-.79,10.65-1.17,2.77-.29,5.52-.78,8.27-1.21,11.32-14.08-6.91-27.57-59-30.46A81.65,81.65,0,0,1,97.27,17.5L99.5,3.64S65.25-3.47,35.18,7.9c-28.39,10.78-28,24.08-4,35a.39.39,0,0,1,.25-.16C37.21,42,43,41.28,48.74,40.34c.33-.05.61.41.25.59-3.23,1.69-6.41,3.48-9.5,5.41C64,56,62.91,54.32,74,56.44c11.58,2.21,47.5,4.32,79.45-12.81a67,67,0,0,0,7-4.31c-4.05-1.06-8.28-1.61-12.23-3A.33.33,0,0,1,148.2,35.64Zm-20-2.11a110.76,110.76,0,0,0,13.93,3.12c2.26.31,4.89.59,6.82,1.9s.41,3.16-1,4.11c-3.2,2.19-7.09,2.69-10.74,3.77-4.13,1.21-7.73,3.7-11.86,5A35.29,35.29,0,0,1,112,52.68c-5.22-.36-10.69-.86-15.85.33-3.93.91-8,2.59-12.1,2.3-2.45-.16-5.78-.92-4.75-4a63,63,0,0,1,3.08-7.49,22,22,0,0,1,2.12-4.12,2.49,2.49,0,0,1,.15-.28c.59-1.08,1.31-2.09,2-3.12-2.44,2.28-4.82,4.6-7.12,7-2.71,2.83-5.3,5.93-9.17,7.17s-8.51,1.77-12.29.64-6.49-4.68-10.44-4.65c-1,0-4.64.74-3.45-1.2.65-1,17.67-9.13,20.64-10.37,1-.42,2-.81,3-1.2q-5.35.66-10.69,1.44c-3.75.55-7.51,1.12-11.27,1.65-3.32.47-7,1.39-10.32,1s-6.73-2.52-9.11-4.94c-2.23-2.27-4.53-5.23-5.23-8.4-.78-3.47,2.34-5.24,5.25-6,4.72-1.26,9.78-1.27,14.63-1.23,2.32,0,4.64.08,7,.12.79,0,1.6,0,2.4,0-7.52-1.66-15.34-1.25-23-1.44a.32.32,0,0,1-.17-.6c6.1-4.59,13.41-7,20.82-8.42A199.31,199.31,0,0,1,71.47,3.37a71.65,71.65,0,0,1,13.66.14c2.44.28,5.75.44,7.88,1.85,1.62,1.08,1.62,3.51,1.6,5.23,0,4.07-.8,8.23,0,12.27a.33.33,0,0,1,0,.1,143.3,143.3,0,0,1,13.09-12,15.8,15.8,0,0,1,6.85-3.63c3.15-.6,6.75-.1,9.93.17a102.21,102.21,0,0,1,21.63,4.29,85.37,85.37,0,0,1,9.11,3.32c2.07.92,4.26,2,5.3,4.14a.33.33,0,0,1-.28.49c-4.94,0-9.86.35-14.79.67,4.79.32,9.57.95,14.32,1.71,1.58.24,4,.84,4,2.92a4.68,4.68,0,0,1-3.33,4.44,35.9,35.9,0,0,1-4.26.52l-5.77.73c-3.83.48-7.68.95-11.54,1.21-4.68.33-9.38.47-14.07.57C125.91,32.84,127,33.22,128.19,33.53Z"/><path class="cls-5" d="M152.32,23.52c-.88-.68-2.9-.6-4-.73a51.84,51.84,0,0,0-5.29-.17c-3.36-.08-6.71-.21-10.07-.18-.67,0-4.82.8-5.79.22a12.94,12.94,0,0,1,2.88-.47,26.54,26.54,0,0,0,2.94-.5c2.54-.47,5.08-1,7.59-1.66,2.35-.58,4.63-1.39,6.94-2.08a13,13,0,0,1,2.76-.57,2.2,2.2,0,0,0,1.18-.31c.56-.42,0-.81-.38-1-1.66-.85-3.75-1.1-5.53-1.64a64.32,64.32,0,0,0-6.83-1.71c-2.48-.48-5-.6-7.49-1-8.36-1.39-19.46-2.79-26.16,3.71-1.66,1.6-3.49,3-5.09,4.66a48.87,48.87,0,0,1-6.16,5.24c-.9.66-1.72,1.44-2.62,2.09-.2.15-1.31,1.31-1.44.38,0-.22.06-.45,0-.67-.43-2.47-.11-5-.35-7.54-.09-.91-.25-1.81-.4-2.74a22.62,22.62,0,0,0-.35-3.22,6.58,6.58,0,0,0-.21-1.13.09.09,0,0,0,0-.05c-.22-1.12-.47-2.21-.68-3.25-.45-2.16-1.7-3.93-3.88-2.63-1.34.8-2.89,1.67-4.48,1.24-1.34-.37-2.59-1-3.94-1.36a19.57,19.57,0,0,0-8-.11c-3.27.5-6.56,1-9.82,1.62S51.17,9.45,48,10.25c-1.72.44-4.38,1-5.55,2.41-.06.07-.21.31-.09.39,1.24.75,3.16.88,4.56,1.23,2.1.53,4.24.74,6.31,1.4A30.92,30.92,0,0,1,59,18.45a21.28,21.28,0,0,1,3.65,2.17c-.22-.09-.43-.19-.67-.27a28.32,28.32,0,0,0-3.39-.7A43.6,43.6,0,0,0,51,19.21a76,76,0,0,0-13.55,1.27c-2,.39-5.08.75-6.4,2.59-1.49,2.1.34,4.92,1.71,6.61,2.42,3,5.75,3.6,9.38,4a19.14,19.14,0,0,0,5.27-.51c2.31-.42,4.61-.87,6.93-1.24a106.37,106.37,0,0,1,14.46-1.46c2.28-.06,4.56.08,6.83.06l3.68-.05c.37,0,.95-.09,1.48-.11-1.61.63-3.37,1-5,1.58-2.49.93-4.9,2-7.4,3A55.44,55.44,0,0,0,56.86,40.6C56,41.17,54.23,41.79,54,43s2.85,2.1,3.74,2.36c4.19,1.22,9.1,2.34,13.26.58,3.92-1.67,7.23-5,10.21-7.94,1.66-1.62,3.33-3.23,5-4.86a34.39,34.39,0,0,1,3.22-2.68c.41-.32.8-.66,1.22-1s1-.45.61.32a40.79,40.79,0,0,0-1.74,5.39c-.71,2.45-1.5,4.88-2.23,7.31a11,11,0,0,0-.53,5.78C87.08,49.85,89.84,50,91,50a60.86,60.86,0,0,0,10.9-1.44c3.82-.72,7.51-2.65,11.45-2.22s7.56,1.57,11.39.64c3.35-.81,5.79-4,8.76-5.5.15-.08.36-.3.33-.49-.19-1.37-2.47-2.1-3.51-2.59a45.58,45.58,0,0,1-6.48-3.86c-2.13-1.51-4.23-3-6.48-4.36-.73-.44-1.48-.81-2.23-1.17.58,0,1.15-.09,1.73-.15a46.83,46.83,0,0,1,5.56-.25,70.65,70.65,0,0,1,10.39.68c3,.48,6.11,1.13,9.13.28a44.24,44.24,0,0,0,7.74-3.19C150.16,26.14,153.5,24.44,152.32,23.52Z"/><path class="cls-6" d="M35.76,57.53C27.33,54.44,19.27,51.6,11.7,46.64a28.57,28.57,0,0,1-8.89-9.47,15,15,0,0,1-1.43-4A9.89,9.89,0,0,1,2,27.28c.22-.63,1-1.8.93-2.48,0,.16.23-.1.23-.17l0-.37c0-.17-.23,0-.26.09-1.57,3-3.54,6.45-2.78,10A20.84,20.84,0,0,0,6.93,45.5c7.51,6.79,18.75,10.58,28.47,12.65C35.62,58.19,36,57.62,35.76,57.53Z"/><path class="cls-6" d="M181,18.31c-.14-.08-.43.29-.3.39,3.41,2.59,5.17,4.72,6.1,9,1.26,5.67-.4,10.51-4,14.94-5.76,7-14.85,11.15-22.57,15.58-.18.1-.53.79-.14.59,8.93-4.58,18.57-9.18,24.78-17.36a18.61,18.61,0,0,0,3.78-11.25C188.62,24.53,185.83,20.7,181,18.31Z"/><path class="cls-6" d="M173.31,45.93C156.21,56.17,136,61.29,116.87,66.24c-.19.06-.55.66-.24.59,4.48-.91,8.88-1.67,13.41-2.32,5.35-.78,10.75-3.11,15.79-5,9.57-3.6,19-7.12,27.43-13.15C173.37,46.26,173.58,45.76,173.31,45.93Z"/></g></g></g></svg>