<svg xmlns="http://www.w3.org/2000/svg" viewBox="0 0 113.74 114.02"><defs><style>.cls-1{isolation:isolate;}.cls-2{fill:#04883b;}.cls-3{fill:#009f48;}.cls-4{fill:#317939;}.cls-5{fill:#63a43c;}.cls-6,.cls-9{fill:#95c11f;}.cls-6{mix-blend-mode:multiply;}.cls-7{fill:#ff1800;}.cls-8{fill:#fff3a2;}.cls-10{fill:#fcfcf5;}.cls-11{fill:#282717;}.cls-12{fill:#fff;}.cls-13{fill:#1f4b14;}.cls-14{fill:#595616;}</style></defs><g class="cls-1"><g id="Слой_2" data-name="Слой 2"><g id="Layer_1" data-name="Layer 1"><path class="cls-2" d="M39.15,84.3,27.23,66.37a3.23,3.23,0,0,0-6.42-.68l5.12,18.79L5.15,87.58a3.21,3.21,0,0,0-2,4.1c.42,1.22,3.3.54,3.77.37l19.88-5L10.92,96.94A3.22,3.22,0,0,0,12,101.37a3.16,3.16,0,0,0,1.36.47c1.19.12,1.1-.91,1.77-2L31.64,89.17s-10.1,17.6-8.56,18.5C26.08,109.47,39.15,84.3,39.15,84.3Z"/><path class="cls-3" d="M8.91,89.83A4.3,4.3,0,1,1,5.08,85.1,4.29,4.29,0,0,1,8.91,89.83Z"/><path class="cls-3" d="M15.45,99.4a3.74,3.74,0,1,1-3.34-4.1A3.76,3.76,0,0,1,15.45,99.4Z"/><path class="cls-3" d="M27.14,105.85a3.3,3.3,0,1,1-2.94-3.63A3.3,3.3,0,0,1,27.14,105.85Z"/><path class="cls-4" d="M23.86,109.13h0a2.55,2.55,0,0,1-.39,0,3.62,3.62,0,1,1,.76-7.21,1.26,1.26,0,0,1,.27,0c1.94-4.12,4.89-9.44,6.19-11.76l-15,9.66A4.07,4.07,0,1,1,12.15,95a3.58,3.58,0,0,1,.95.24l11.75-7.27L8.42,92a4.57,4.57,0,0,1-4.26,2,4.64,4.64,0,1,1,4.27-7.24L25.52,84.2l-5-18.42a.53.53,0,0,1,0-.13,3.56,3.56,0,0,1,7.1.63L39.43,84.11a.34.34,0,0,1,0,.34c-.07.14-7.16,13.76-12.06,20.18a3.76,3.76,0,0,1,.09,1.25A3.62,3.62,0,0,1,23.86,109.13Zm0-6.59a3,3,0,0,0-3,2.66,2.93,2.93,0,0,0,.65,2.17,3,3,0,0,0,5.15-2.71.33.33,0,0,1,.06-.3c4.56-5.94,11.16-18.43,12-20L27,66.55a.28.28,0,0,1-.05-.22,2.9,2.9,0,0,0-5.76-.67l5.1,18.73a.32.32,0,0,1,0,.27.34.34,0,0,1-.23.15L8.32,87.44A.33.33,0,0,1,8,87.29a3.94,3.94,0,0,0-2.94-1.86,4,4,0,1,0-.82,7.91,3.9,3.9,0,0,0,3.71-1.78.35.35,0,0,1,.2-.14l18.62-4.65a.33.33,0,0,1,.38.19.34.34,0,0,1-.13.42l-13.7,8.47a.35.35,0,0,1-.3,0,3.41,3.41,0,0,0-.93-.25,3.37,3.37,0,0,0-3.75,3,3.41,3.41,0,0,0,3,3.75,3.38,3.38,0,0,0,3.7-2.83.34.34,0,0,1,.15-.22L31.47,88.9a.31.31,0,0,1,.4,0,.32.32,0,0,1,.06.4c0,.08-4.43,7.73-6.94,13.12a.35.35,0,0,1-.39.19,2.36,2.36,0,0,0-.43-.09A1.67,1.67,0,0,0,23.86,102.54Z"/><path class="cls-5" d="M24.86,61.69s-9-17.61-12.9-9.1-1.49,35,16.75,34.78C33.7,87.3,34.19,76.55,24.86,61.69Z"/><path class="cls-5" d="M24.86,61.69s-9-17.61-12.9-9.1-1.49,35,16.75,34.78C33.7,87.3,34.19,76.55,24.86,61.69Z"/><path class="cls-4" d="M28.46,87.71C22.75,87.71,18,85,14.75,80c-5.58-8.66-5.56-22.08-3.1-27.51.76-1.67,1.78-2.52,3-2.52,4.45,0,10.22,11.13,10.46,11.61,7.3,11.63,8.56,20.56,6.56,24.25a3.39,3.39,0,0,1-3,1.92ZM14.69,50.6c-1,0-1.78.69-2.43,2.12-2.41,5.3-2.42,18.4,3,26.88C18.48,84.54,22.91,87,28.46,87h.24a2.71,2.71,0,0,0,2.43-1.57c1.84-3.4.58-12.24-6.55-23.61C24.5,61.72,18.74,50.6,14.69,50.6Z"/><path class="cls-6" d="M20.5,56.51a43.21,43.21,0,0,0,3,15.55,31.94,31.94,0,0,0,8.47,12.16C33,80,31.2,71.78,24.86,61.69a54.56,54.56,0,0,0-4.28-6.82C20.54,55.42,20.51,56,20.5,56.51Z"/><path class="cls-2" d="M74.88,84.3,86.81,66.37a3.2,3.2,0,0,1,2.86-3.55,3.23,3.23,0,0,1,3.55,2.87L88.1,84.48l20.78,3.1a3.21,3.21,0,0,1,2,4.1c-.43,1.22-3.31.54-3.78.37l-19.87-5,15.91,9.85a3.21,3.21,0,0,1-1,4.43,3.12,3.12,0,0,1-1.36.47c-1.19.12-1.09-.91-1.76-2L82.39,89.17s10.1,17.6,8.57,18.5C88,109.47,74.88,84.3,74.88,84.3Z"/><path class="cls-3" d="M104.82,90.13a4.31,4.31,0,1,0,3.83-4.73A4.31,4.31,0,0,0,104.82,90.13Z"/><path class="cls-3" d="M98.29,99.69a3.74,3.74,0,1,0,3.34-4.1A3.75,3.75,0,0,0,98.29,99.69Z"/><path class="cls-3" d="M86.89,105.85a3.3,3.3,0,1,0,2.94-3.63A3.3,3.3,0,0,0,86.89,105.85Z"/><path class="cls-4" d="M90.18,109.13a3.63,3.63,0,0,1-3.62-3.25,3.51,3.51,0,0,1,.09-1.25c-4.9-6.42-12-20-12.06-20.18a.32.32,0,0,1,0-.34L86.46,66.28a3.5,3.5,0,0,1,.78-2.49,3.56,3.56,0,0,1,6.31,1.86.53.53,0,0,1,0,.13l-5,18.42,17,2.54a4.59,4.59,0,0,1,3.09-1.67,4.63,4.63,0,1,1,1,9.22l-.48,0h0A4.61,4.61,0,0,1,105,91.89l-15.86-4,12,7.41a4,4,0,0,1,.43-.08A4.07,4.07,0,1,1,98,99.73s0-.09,0-.14L83.34,90.18c1.31,2.32,4.25,7.63,6.19,11.76a1.17,1.17,0,0,1,.27,0,3.62,3.62,0,1,1,.75,7.21A2.3,2.3,0,0,1,90.18,109.13ZM75.27,84.32c.85,1.61,7.44,14.1,12,20a.36.36,0,0,1,0,.3,3,3,0,0,0,5.15,2.71,2.88,2.88,0,0,0,.64-2.17,2.94,2.94,0,0,0-3.26-2.64,2.7,2.7,0,0,0-.41.08.35.35,0,0,1-.41-.18c-2.51-5.39-6.9-13-6.94-13.12a.34.34,0,0,1,.06-.4.32.32,0,0,1,.41,0l15.9,10.23a.39.39,0,0,1,.15.28v.13a.24.24,0,0,0,0,.12,3.4,3.4,0,0,0,3.74,3,3.35,3.35,0,0,0,2.3-1.24,3.41,3.41,0,0,0-3-5.54,2.05,2.05,0,0,0-.43.09.62.62,0,0,1-.3,0L87,87.38a.35.35,0,0,1-.13-.42.33.33,0,0,1,.39-.19l18.07,4.52a.3.3,0,0,1,.21.17,4,4,0,0,0,3.54,2.19h0a3,3,0,0,0,.42,0,4,4,0,1,0-.83-7.89,3.87,3.87,0,0,0-2.75,1.56.34.34,0,0,1-.31.13L88.05,84.81a.34.34,0,0,1-.23-.15.32.32,0,0,1,0-.27l5.1-18.73a2.89,2.89,0,0,0-3.18-2.52,2.93,2.93,0,0,0-2,1.07,2.88,2.88,0,0,0-.62,2.12.33.33,0,0,1,0,.22Z"/><path class="cls-5" d="M89,62.84s9-17.61,12.89-9.11,1.48,35-16.75,34.78C80.19,88.45,79.7,77.71,89,62.84Z"/><path class="cls-4" d="M85.44,88.84h-.26a3.33,3.33,0,0,1-3-1.91c-2-3.67-.75-12.61,6.58-24.27.22-.44,6-11.58,10.44-11.58,1.25,0,2.27.85,3,2.51,2.47,5.44,2.49,18.86-3.09,27.51C95.87,86.17,91.14,88.84,85.44,88.84ZM99.2,51.74c-4,0-9.81,11.14-9.87,11.25-7.15,11.39-8.42,20.23-6.56,23.63a2.68,2.68,0,0,0,2.42,1.56h.25c5.54,0,10-2.5,13.14-7.43,5.46-8.48,5.45-21.58,3-26.88C101,52.44,100.19,51.74,99.2,51.74Z"/><path class="cls-6" d="M83.12,84.59c2.12-2.11,4.54-4.23,6.18-6.74a29.3,29.3,0,0,0,4-21.87A52.31,52.31,0,0,0,89,62.84c-6.51,10.37-8.24,18.71-7,22.84C82.45,85.27,82.81,84.89,83.12,84.59Z"/><path class="cls-7" d="M91.86,58.28c0,22.39-15.18,34.88-33.91,34.88s-33.9-12.49-33.9-34.88S38.8,8.86,57.52,8.86,91.86,35.88,91.86,58.28Z"/><path class="cls-4" d="M58,93.49c-17,0-34.23-10.89-34.23-35.21,0-22.53,15.07-49.75,33.8-49.75,8.71,0,17.63,6,24.47,16.46a63.46,63.46,0,0,1,10.2,33.29C92.19,82.6,75,93.49,58,93.49Zm-.43-84.3c-18.36,0-33.14,26.86-33.14,49.09C24.38,79,37.87,92.84,58,92.84S91.53,79,91.53,58.28A62.89,62.89,0,0,0,81.44,25.35C74.72,15.08,66,9.19,57.52,9.19Z"/><path class="cls-6" d="M30.82,40.81c3.55-.17,7,1.66,10.08,3.27,4,2.12,7.85,4,12.46,4.35a37,37,0,0,0,13.5-1c4.25-1.25,7.76-3.81,11.77-5.57,2.9-1.28,6.31-1.75,9.25-.32a16.57,16.57,0,0,1,1.64.94c-5-17.58-17.59-33.58-32-33.58S31,24.88,26.26,42.48A8.48,8.48,0,0,1,30.82,40.81Z"/><path class="cls-8" d="M78.41,74.69C78.41,85.55,69.25,91.6,58,91.6s-20.46-6-20.46-16.91,8.9-24,20.2-24S78.41,63.82,78.41,74.69Z"/><path class="cls-5" d="M33.46,107.15A7.66,7.66,0,0,0,35.41,109l8-11.7-4.23,13.3a16.11,16.11,0,0,0,3.61.19.42.42,0,0,1,0-.13l4-13.36s1.79,10.56,3.19,12.75a13.13,13.13,0,0,0,2.43-.73c-1.1-6.15-4.49-17.51-4.49-17.51l-5.48.53-9.2,14.38Z"/><path class="cls-9" d="M36.45,105.06a3.19,3.19,0,1,1-4.51-.21A3.19,3.19,0,0,1,36.45,105.06Z"/><path class="cls-9" d="M42.68,109a2.77,2.77,0,1,1-3.92-.17A2.78,2.78,0,0,1,42.68,109Z"/><path class="cls-9" d="M52.12,108a2.45,2.45,0,1,1-3.45-.16A2.46,2.46,0,0,1,52.12,108Z"/><path class="cls-5" d="M34.8,43.4s-3.69.05-3.89,8.4,6,36.74,14,43.42c0,0,2.68,1.75,2.93-2.32S40.89,75,39.38,53C39.38,53,39.66,43.55,34.8,43.4Z"/><path class="cls-4" d="M40.63,114a3,3,0,0,1-2.26-1,3.06,3.06,0,0,1,.2-4.31A2.81,2.81,0,0,1,39.7,108l2.86-9-5.11,7.47a3.41,3.41,0,0,1-1,3.27,3.53,3.53,0,0,1-2.35.91,3.48,3.48,0,0,1-2.34-6,3.4,3.4,0,0,1,2.94-.8l7.38-11.52C35.49,82.74,30.44,59.65,30.63,51.8c.21-8.53,4-8.68,4.17-8.68,5.09.15,4.87,9.44,4.86,9.84a132.17,132.17,0,0,0,6.57,32.13A56.08,56.08,0,0,1,48,91.59a.24.24,0,0,1,.1.14c0,.1,2.93,9.87,4.22,16.13a2.74,2.74,0,0,1,.68,1.93,2.75,2.75,0,0,1-2.72,2.6h0a2.76,2.76,0,0,1-2-.89,2.73,2.73,0,0,1,.18-3.85.68.68,0,0,1,.18-.13c-.83-2.85-1.62-7-2-9l-3.32,11.12A3,3,0,0,1,40.63,114ZM43.4,97a.28.28,0,0,1,.13,0,.29.29,0,0,1,.14.34l-3.49,11a.3.3,0,0,1-.19.19,2.33,2.33,0,0,0-1,.53,2.49,2.49,0,0,0-.16,3.52,2.55,2.55,0,0,0,3.52.17,2.44,2.44,0,0,0,.49-3,.31.31,0,0,1,0-.21l3.69-12.36a.31.31,0,0,1,.29-.2.29.29,0,0,1,.26.24c0,.06,1.11,6.52,2.24,10.32a.28.28,0,0,1-.11.31L49,108a.49.49,0,0,0-.13.08,2.17,2.17,0,0,0,1.46,3.77h0a2.14,2.14,0,0,0,1.46-.57,2.16,2.16,0,0,0,.15-3l0,0a.37.37,0,0,1-.07-.14c-1.19-5.79-3.79-14.68-4.18-16a.28.28,0,0,1-.14-.2,52.22,52.22,0,0,0-1.81-6.59A132.3,132.3,0,0,1,39.1,53c0-.12.22-9.15-4.3-9.29,0,0-3.42.2-3.61,8.13s4.88,31,11.45,40.37a.26.26,0,0,1,0,.27.24.24,0,0,1-.09.11l-7.52,11.75a.28.28,0,0,1-.3.13,2.82,2.82,0,0,0-2.62.62,2.9,2.9,0,0,0,2,5.06,2.88,2.88,0,0,0,2-.76,2.84,2.84,0,0,0,.83-2.84.27.27,0,0,1,0-.23l6.25-9.15A.29.29,0,0,1,43.4,97Z"/><path class="cls-5" d="M79.91,107.15A7.66,7.66,0,0,1,78,109L70,97.3l4.23,13.3a16.06,16.06,0,0,1-3.6.19.44.44,0,0,0,0-.13l-4-13.36s-1.78,10.56-3.18,12.75a13.23,13.23,0,0,1-2.44-.73c1.1-6.15,4.5-17.51,4.5-17.51l5.47.53,9.2,14.38C80.1,106.86,80,107,79.91,107.15Z"/><path class="cls-9" d="M76.93,105.06a3.19,3.19,0,1,0,4.5-.21A3.18,3.18,0,0,0,76.93,105.06Z"/><path class="cls-9" d="M70.7,109a2.77,2.77,0,1,0,3.91-.17A2.77,2.77,0,0,0,70.7,109Z"/><path class="cls-9" d="M61.25,108a2.45,2.45,0,1,0,3.46-.16A2.44,2.44,0,0,0,61.25,108Z"/><path class="cls-5" d="M78.57,43.4s3.69.05,3.89,8.4-6,36.74-14,43.42c0,0-2.68,1.75-2.94-2.32S72.48,75,74,53C74,53,73.7,43.55,78.57,43.4Z"/><path class="cls-4" d="M72.74,114a3,3,0,0,1-2.09-.81,3.1,3.1,0,0,1-.7-3.64L66.71,98.73c-.38,2.07-1.14,6-1.93,8.75l.15.13a2.79,2.79,0,0,1,.18,3.93,2.86,2.86,0,0,1-3.92.17,2.74,2.74,0,0,1-.91-1.92,2.77,2.77,0,0,1,.68-2c1.3-6.27,4.2-16,4.23-16.13a.31.31,0,0,1,.1-.15,57.15,57.15,0,0,1,1.8-6.5,131.47,131.47,0,0,0,6.57-32.13c0-.37-.24-9.7,4.9-9.86.18,0,4,.15,4.24,8.73C83,59.64,78,82.73,71.37,92.35l7.3,11.39a3.53,3.53,0,1,1-1.77,6.07,3.49,3.49,0,0,1-1.05-3.32L71,99.35,73.71,108a3.1,3.1,0,0,1,1.13.65,3.14,3.14,0,0,1,1,2.16A3.1,3.1,0,0,1,75,113,3.14,3.14,0,0,1,72.74,114ZM66.63,97a.35.35,0,0,1,.32.24l3.67,12.3a.31.31,0,0,1,0,.25,2.43,2.43,0,0,0,.49,3,2.52,2.52,0,0,0,3.46-.16,2.41,2.41,0,0,0,.64-1.74,2.43,2.43,0,0,0-1.83-2.26.32.32,0,0,1-.23-.22L69.65,97.41a.33.33,0,0,1,.17-.4.32.32,0,0,1,.42.11l6.24,9.11a.36.36,0,0,1,0,.27,2.86,2.86,0,0,0,.83,2.83,3,3,0,0,0,4-.19,2.86,2.86,0,0,0-2.8-4.7.33.33,0,0,1-.35-.15L70.7,92.52a.33.33,0,0,1,0-.37c6.57-9.4,11.62-32.52,11.43-40.34s-3.53-8.08-3.56-8.08c-4.47.14-4.25,9.12-4.25,9.21a132.36,132.36,0,0,1-6.59,32.32,50.61,50.61,0,0,0-1.82,6.61.33.33,0,0,1-.14.22c-.41,1.41-3,10.22-4.18,16a.34.34,0,0,1-.07.15,2.09,2.09,0,0,0,.11,3,2.16,2.16,0,0,0,3-.13,2.13,2.13,0,0,0-.13-3,1.62,1.62,0,0,0-.28-.2.35.35,0,0,1-.14-.38c1.13-3.8,2.22-10.21,2.23-10.27a.33.33,0,0,1,.31-.28Z"/><path class="cls-8" d="M89.26,21.77c-1-8.75-15.52-12-32.73-10S25.94,20.22,27,29,43.24,47.7,60.45,45.71,90.27,30.53,89.26,21.77Z"/><path class="cls-9" d="M88.77,18.06C87.62,8.12,73,4.21,55.71,6.2S25.09,15.34,26.23,25.26,42.89,46.73,60.15,44.74,89.91,28,88.77,18.06Z"/><path class="cls-5" d="M56,11.81A10.13,10.13,0,1,1,44.74,2.9,10.14,10.14,0,0,1,56,11.81Z"/><path class="cls-10" d="M55,13.09a9,9,0,1,1-10-7.9A9,9,0,0,1,55,13.09Z"/><path class="cls-11" d="M50.52,13.68a4.51,4.51,0,1,1-5-4A4.52,4.52,0,0,1,50.52,13.68Z"/><path class="cls-12" d="M45.56,12.85A1.4,1.4,0,1,1,44,11.61,1.4,1.4,0,0,1,45.56,12.85Z"/><path class="cls-12" d="M44.33,16a.62.62,0,0,1-.54.68.61.61,0,0,1-.68-.54.59.59,0,0,1,.54-.67A.61.61,0,0,1,44.33,16Z"/><path class="cls-13" d="M38.24,9.06s6.83-9.14,15-.44C53.24,8.62,47.71,2.44,38.24,9.06Z"/><path class="cls-5" d="M78.13,9.25A10.14,10.14,0,1,1,66.89.35,10.14,10.14,0,0,1,78.13,9.25Z"/><path class="cls-10" d="M77.12,10.54a9,9,0,1,1-10-7.9A9,9,0,0,1,77.12,10.54Z"/><path class="cls-11" d="M72.68,11.13a4.51,4.51,0,1,1-5-4A4.5,4.5,0,0,1,72.68,11.13Z"/><path class="cls-12" d="M67.73,10.29a1.41,1.41,0,1,1-1.57-1.24A1.41,1.41,0,0,1,67.73,10.29Z"/><path class="cls-12" d="M66.49,13.41a.61.61,0,1,1-.68-.54A.61.61,0,0,1,66.49,13.41Z"/><path class="cls-13" d="M60.41,6.5s6.82-9.13,15-.43C75.41,6.07,69.87-.11,60.41,6.5Z"/><path class="cls-14" d="M59.06,41.09c.09.85-.24,1.59-.76,1.65s-1-.59-1.1-1.43.24-1.57.75-1.63S59,40.25,59.06,41.09Z"/><path class="cls-14" d="M63,40.64c.1.84-.24,1.58-.75,1.64s-1-.58-1.11-1.43.24-1.57.76-1.63S62.94,39.79,63,40.64Z"/><path class="cls-4" d="M66,44.94h0A39.34,39.34,0,0,1,60.49,46a38.94,38.94,0,0,1-23-4.39C31.23,38.18,27.18,33.46,26.67,29a4.76,4.76,0,0,1,0-.75v-.19A12,12,0,0,1,26,25.3c-.62-5.31,2.72-10,9.64-13.72a10.32,10.32,0,0,1,7.62-8.67,9.2,9.2,0,0,1,1.48-.28,10.38,10.38,0,0,1,9.08,3.55l.25,0,1.65-.22c1-.12,2.06-.22,3.14-.3A10.4,10.4,0,0,1,78,7.28C84.65,9.38,88.47,13.1,89,18A12.26,12.26,0,0,1,89.1,20a7.48,7.48,0,0,1,.43,1.79c.46,4-1.74,8.76-6,13.18A38.38,38.38,0,0,1,66,44.94ZM43.36,3.45a9.78,9.78,0,0,0-7.22,8.34A.31.31,0,0,1,36,12c-4.73,2.48-10.22,6.8-9.48,13.22a12.18,12.18,0,0,0,.69,2.68.31.31,0,0,1,0,.1v.24c0,.23,0,.45,0,.68.49,4.22,4.53,8.89,10.54,12.19a38.27,38.27,0,0,0,22.66,4.31,36.36,36.36,0,0,0,5.47-1h0c14.27-3.79,24-15,23.09-22.6a7.21,7.21,0,0,0-.43-1.72.37.37,0,0,1,0-.11,12.93,12.93,0,0,0-.05-1.88C87.94,13.36,84.2,9.8,77.67,7.77a.3.3,0,0,1-.19-.19A9.84,9.84,0,0,0,59.25,6a.27.27,0,0,1-.23.15c-1.13.08-2.23.19-3.28.31-.55.06-1.09.14-1.63.22l-.4.06a.31.31,0,0,1-.26-.1A9.92,9.92,0,0,0,43.36,3.45Z"/></g></g></g></svg>