<svg xmlns="http://www.w3.org/2000/svg" viewBox="0 0 643.24 706.51"><defs><style>.cls-1{fill:#7298a5;}.cls-2{fill:#abf4f4;opacity:0.3;}.cls-3{fill:#6dcc6d;}.cls-4{fill:#9eccc9;}.cls-5{fill:#3d372e;}.cls-6{fill:#5ead5e;}.cls-7{fill:#84aec1;}.cls-8{fill:#7fea7f;}.cls-9{fill:#8bb2af;}.cls-10{fill:#779fad;}.cls-11{fill:#edd980;}.cls-12{fill:#fff;opacity:0.31;}</style></defs><g id="Слой_2" data-name="Слой 2"><g id="Layer_2" data-name="Layer 2"><path class="cls-1" d="M455.94,255.27a54.2,54.2,0,0,0,17,10.22,72,72,0,0,0,17.9,3.88c11.67,1.29,23.46.47,35.17.39,15.07-.09,24.38,1.62,17.76.72a88.6,88.6,0,0,1,17.31,4.43,84.15,84.15,0,0,1,20.06,12c12,9.93,21.29,22,28.76,39.65l-.81-1.94C621,353,621.71,383.15,620.92,399.1c-1,20.37-6.59,40.57-22.2,53.51-21,17.45-57.89,16-84.67,14.38-8.4-.52-18-1.3-28.77-2.44-26.09-2.76-52.36-5.86-78.63-3.8a221.91,221.91,0,0,0-45,8.18c-4.07,1.19-7,5.75-5.66,10s5.61,6.93,10,5.65a200.56,200.56,0,0,1,37.9-7.34c16.39-1.45,32.86-1,49.27.35,19.35,1.57,38.6,4.17,58,5.62,18.94,1.42,38.1,1.75,56.91-1.25,16.81-2.68,33.62-9,45.88-21.21,11.58-11.5,18.13-27.16,21-43,3-16.68,2.93-33.83,1.13-50.64-2-18.78-6.36-37.1-14.54-54.19a110,110,0,0,0-29.91-38.29,94.48,94.48,0,0,0-20.59-12.91,79.22,79.22,0,0,0-25.17-7.09c-15.23-2-30.61-.28-45.91-.77-18.27-.59-28.14-6.23-22-3.65a38.26,38.26,0,0,1-10.45-6.31c-3.17-2.82-8.37-3.36-11.45,0-2.82,3.07-3.38,8.44,0,11.44Z"/><path class="cls-2" d="M608.61,261.56c-24.32,55.59-96.58,68.15-113.49,62.13-57-20.26-135.72,70-176,45.66-38.7-23.35-31.75-65.87-67.29-124.24C233.21,214.58,197.82,158,240,80,284.09-1.51,376-26.66,514.31,32.35,606.66,71.75,657.22,150.49,608.61,261.56Z"/><path class="cls-3" d="M248.29,234.58c1.68-31.91,7.38-64.17,22.08-92.55s39.23-52.65,69.78-62c12-3.67,24.57-5,37.1-5.38,48.8-1.46,98.42,12,138.08,40.45,9.38,6.74,18.27,14.36,25.16,23.64,18.7,25.18,20.32,60,11.17,90s-27.78,56.12-47.18,80.77c-7.87,10-16.2,20.1-27.27,26.38-12.78,7.25-28,8.73-42.7,8.74-62.93.08-130.08-25.11-174.59-70.45C249.47,263.51,247.52,249.16,248.29,234.58Z"/><path class="cls-4" d="M134.33,440.91c-7.7,33.1,213.88,166.43,244.91,145.35,10.38-7.06,18.91-16.61,25.83-27.08,9.65-14.58,16.28-30.91,22.85-47.12,20.47-50.51,41.13-101.73,48-155.8.63-5,1.13-10.09-.25-14.91s-4.55-8.93-8-12.6c-13.05-14-30.34-23.2-47.28-32.13-19-10-38-20-57.24-29.43-14.27-7-28.73-13.66-43.78-18.74a222.38,222.38,0,0,0-33.91-8.55c-12-2-12.86-1.48-18.73,8.93-9.43,16.73-20.54,32.33-32.45,47.37-23.68,29.89-50.32,57.5-71.73,89.16C150.91,402.62,139.06,420.56,134.33,440.91Z"/><path class="cls-4" d="M156.85,356.35c-6.15-4.78-12.62-9.59-20.22-11.28-16.79-3.74-32.64,8.54-44.86,20.66a461.3,461.3,0,0,0-59.55,72.53c-2.76,4.17-5.57,8.92-4.69,13.84.46,2.58,1.9,4.86,3.31,7.07L44.52,480.6c11.79-9.52,24.88-17.73,39.38-22.12s30.53-4.77,44.56.95c11.69,4.76,21.32,13.36,31.1,21.33A384,384,0,0,0,233.4,528c-5.21-2.54-11-15.89-14-20.83q-6.48-10.75-11.94-22.07a270,270,0,0,1-18.12-49.42c-4.34-16.75-5.54-33.45-8.1-50.45C179.11,371,167.67,364.75,156.85,356.35Z"/><path class="cls-4" d="M444.1,524.36c7.16,3.06,14.51,6.39,19.68,12.21,11.41,12.87,8.35,32.69,3.68,49.25a460.78,460.78,0,0,1-34.54,87.26c-2.3,4.44-5.1,9.2-9.83,10.82-2.48.85-5.17.69-7.79.53l-25.37-1.57c2.61-14.93,3.43-30.36.25-45.17s-10.64-29-22.45-38.51c-9.84-7.91-22-12.15-33.74-16.85a383.78,383.78,0,0,1-77.11-41.66c4.75,3.32,19.23,1.91,25,2.12q12.54.47,25.09-.25a270.53,270.53,0,0,0,52-8.13c16.76-4.33,31.94-11.39,48-17.39C420.49,512,431.51,519,444.1,524.36Z"/><path class="cls-4" d="M180.21,341.51c-24.48-29.68-34-68.76-40-106.76a9.33,9.33,0,0,1,.16-5.06c.83-2,2.87-3.1,4.76-4.08l17.16-8.89c10.35,41.89,49.65,74.9,92.69,77.86-6.84,20.81-9,44.15-23,61C212.27,379.22,194.26,358.56,180.21,341.51Z"/><path class="cls-4" d="M476.32,442.76c38.08-5.43,71.44-27.9,101.46-51.95a9.27,9.27,0,0,0,3.3-3.85c.71-2,0-4.22-.77-6.22l-6.69-18.13c-35.87,24-87.15,21.88-120.95-4.94-9,20-23.11,38.68-24.08,60.56C427.22,449,454.44,445.89,476.32,442.76Z"/><path class="cls-4" d="M25.52,479.67c-5.67-3.69-9.33-9.74-12.3-15.81A124.3,124.3,0,0,1,.89,417.39c-.34-5.33-.17-11.17,3.22-15.3a18.1,18.1,0,0,1,6.33-4.59c7.64-3.67,17.59-4.5,24,1.06,3.06,2.67,4.91,6.43,6.54,10.15a163.26,163.26,0,0,1,10.76,34.82C54.61,458.78,50.07,495.71,25.52,479.67Z"/><path class="cls-4" d="M471.7,663.2c-2.06,6.44-6.91,11.58-12,16a124.13,124.13,0,0,1-41.52,24.23c-5.05,1.75-10.73,3.14-15.61,1a18.26,18.26,0,0,1-6.1-4.89c-5.57-6.39-9-15.75-5.35-23.4,1.76-3.66,4.9-6.44,8.05-9a162.24,162.24,0,0,1,30.71-19.63C443.83,640.7,480.63,635.27,471.7,663.2Z"/><path class="cls-3" d="M271,74c1.51-17.39,15.44-32.88,32.53-36.43,25-5.19,43,7,48.74,20.43,9.63,22.46,5.57,38.6-7.19,51.8C334.27,121,308.85,129.23,295,118.65c-5-3.82-12.56-12.28-16.43-17.79A41.22,41.22,0,0,1,271,74Z"/><path class="cls-5" d="M339.87,70.48a24.51,24.51,0,0,0-10.32-9.85A24.87,24.87,0,0,0,316,58.05a22.62,22.62,0,0,0-9.75,3.42l-7.23-7a2.46,2.46,0,0,0-3.05,3.86L302,64.19v.06a3.09,3.09,0,0,0,.12.46,25.93,25.93,0,0,0-3.41,4.12,47.84,47.84,0,0,0-10.42-3,2.48,2.48,0,0,0-2.78,2.09,2.51,2.51,0,0,0,2.09,2.78c.88.15,1.75.32,2.62.52.44.1.87.2,1.3.32l.32.08.54.16c1.37.41,2.71.89,4,1.43q-.4,1-.72,2.07a24.86,24.86,0,0,0-1,5.29h-1.06l-6.43-.07a2.68,2.68,0,0,0-1.82.47,2.46,2.46,0,0,0-.48,3.44,2.34,2.34,0,0,0,1.61,1l4.24,0,2,0c.4,0,.84,0,1.27,0a2.61,2.61,0,0,0,.86.31,32,32,0,0,0,2.1,7.39,2.46,2.46,0,0,0,4.55-1.86,36.73,36.73,0,0,1-1.28-3.7v0c0-.14-.07-.29-.1-.43-.08-.31-.15-.63-.21-1-.13-.68-.24-1.36-.31-2s-.11-1.15-.13-1.73c0-.15,0-.29,0-.44h0l0-.81a21.66,21.66,0,0,1,.42-3l.18-.76a.68.68,0,0,0,0-.12v0c-.08.41,0-.13.06-.18.15-.5.32-1,.5-1.48A24.7,24.7,0,0,1,302,72.81c.11-.19.24-.39.34-.59l.18-.28c.3-.46.62-.92.95-1.36a22.85,22.85,0,0,1,2-2.3l.16-.17.08-.06.51-.47c.41-.37.84-.71,1.28-1s.79-.58,1.2-.85l.59-.37.23-.14.12-.07a21.53,21.53,0,0,1,2.77-1.25l.74-.25a3.83,3.83,0,0,0,.73-.22l.24-.05c.28-.07.56-.13.85-.18a21.16,21.16,0,0,1,3.08-.32h.32l.57,0c.55,0,1.09.07,1.63.13a21.32,21.32,0,0,1,3,.57s.56.17.2.05l.08,0c.25.07.5.15.74.24.49.16,1,.35,1.46.55s1.05.46,1.57.73l.76.4.3.17,0,0h0a25.22,25.22,0,0,1,2.79,2,8.17,8.17,0,0,1,1.22,1.13c-.09-.1-.29-.31,0,0s.24.25.35.38l.51.58c.37.45.72.9,1.05,1.37a.35.35,0,0,0,.05.08,2.34,2.34,0,0,0,.89,1.62l.55.44a2.46,2.46,0,0,0,3.8-2.86Zm-39.57,17c.11.39,0,.11,0,0Zm2-15.17Zm.12-.19,0,0A.08.08,0,0,1,302.39,72.17Zm11.39-8.76.09,0Z"/><path class="cls-3" d="M589,165.24c8.07-15.48,4.63-36-7.88-48.2-18.32-17.82-40-17.16-52.08-8.94-20.18,13.77-25.43,29.57-21.75,47.55,3.12,15.28,20.12,35.9,37.49,34.42,6.27-.54,17.2-3.62,23.41-6.19A41.16,41.16,0,0,0,589,165.24Z"/><path class="cls-5" d="M530.18,124.6a2.49,2.49,0,0,0,2.55,1.58l.7-.07a2.37,2.37,0,0,0,1.62-.89l.09,0c.53-.22,1.07-.41,1.62-.59l.74-.22.5-.13c.36-.1.07,0-.06,0a7.75,7.75,0,0,1,1.64-.3,24.88,24.88,0,0,1,3.45-.22h.05l.35,0,.86.07c.57.05,1.15.13,1.71.23s1,.19,1.53.31l.75.2.08,0c-.36-.09.16,0,.2.06a21.93,21.93,0,0,1,2.81,1.12c.49.24,1,.49,1.45.76l.48.29.27.18a20.58,20.58,0,0,1,2.43,1.93l.62.6.18.18a3.93,3.93,0,0,0,.5.58c.16.2.33.4.49.61a20.46,20.46,0,0,1,1.65,2.54.72.72,0,0,0,.07.11c0,.09.08.18.12.25l.3.63c.2.45.38.9.56,1.37s.36,1,.51,1.56c.07.22.13.45.19.67a.44.44,0,0,0,0,.1c0,.07,0,.15,0,.22a22,22,0,0,1,.43,3c0,.55.07,1.1.07,1.65,0,.11,0,.22,0,.33s0,.46,0,.68a22.11,22.11,0,0,1-.4,3c-.1.5-.23,1-.36,1.51,0,0-.21.58-.06.19v0l0,.11c-.08.25-.17.5-.26.74a20.18,20.18,0,0,1-1.26,2.76c-.13.24-.27.47-.41.7h0l-.24.36c-.33.48-.68.94-1,1.4s-.89,1-1.36,1.55l-.69.7-.32.3h0a36.13,36.13,0,0,1-3.08,2.43,2.46,2.46,0,0,0,2.84,4,32.42,32.42,0,0,0,5.75-5.1,2.67,2.67,0,0,0,.89.19c.37.23.72.49,1.06.7l1.73,1.07,3.59,2.23A2.36,2.36,0,0,0,570,163a2.5,2.5,0,0,0,1.38-1.29,2.54,2.54,0,0,0,.06-1.88,2.71,2.71,0,0,0-1.28-1.37L564.64,155l-.9-.56a24.18,24.18,0,0,0,2-5c.2-.7.37-1.41.5-2.13a42.85,42.85,0,0,1,4.18,1l.53.15.31.1,1.27.43c.84.3,1.67.62,2.5,1a2.45,2.45,0,0,0,2-4.47,47.85,47.85,0,0,0-10.41-3.06,25.64,25.64,0,0,0-.67-5.3,3.49,3.49,0,0,0,.35-.32l0,0,8.24-1.67a2.46,2.46,0,0,0,1.33-4.33,2.49,2.49,0,0,0-1.83-.56l-9.84,2a22.49,22.49,0,0,0-6.38-8.13A24.9,24.9,0,0,0,545.06,119a24.47,24.47,0,0,0-14,2.77A2.48,2.48,0,0,0,530.18,124.6Zm25.1,32.77Zm6.48-13.86Zm0-.27v0Zm-5-13.53.06.06C557.15,130.06,556.87,129.8,556.8,129.71Z"/><path class="cls-5" d="M299.69,137.31S326,162.8,406.94,183.18s124,12,124,12-66.46,55.72-146.4,28.69C312.12,199.35,299.69,137.31,299.69,137.31Z"/><path class="cls-5" d="M399.58,153.27c-.47,1.47-.82,3.23.14,4.46,1.29,1.65,4.15,1,5.39-.71s1.35-3.93,1.51-6a70.46,70.46,0,0,1,2.63-14.54A42.48,42.48,0,0,0,399.58,153.27Z"/><path class="cls-5" d="M415,156.75c-.46,1.48-.81,3.23.14,4.46,1.29,1.65,4.15,1,5.39-.71s1.35-3.93,1.51-6a71.1,71.1,0,0,1,2.63-14.55A42.55,42.55,0,0,0,415,156.75Z"/><path class="cls-6" d="M461.37,297.2c24.89.95,42.88-7.72,58.58-24.19,17.23-18.07,27-31.22,30.55-39.71-7.14,19.3-12.94,36.51-26.74,55.6-4.86,6.72-31.13,35.08-38.66,44.71-3.22,4.12-4.44,13.35-9.55,14.47-4.35,1-8.78-.94-12.83-2.79-2.75-1.27-5.6-2.6-7.53-4.94-2.27-2.77-2.89-6.52-3.27-10.1-.69-6.71-.77-13.71,1.77-20,1.41-3.46,4.44-7,8.13-6.42Z"/><path class="cls-7" d="M495.12,323.69s-7.69-19.55-67.31-48.68A333.64,333.64,0,0,0,383,257.36a333.35,333.35,0,0,0-46.13-13.89c-64.85-14-83-3.43-83-3.43s-9.06,10.75-12.36,21.44c-9.33,30.29-1.8,29-1.8,29s40.3-13.74,79.37-5.74a512.89,512.89,0,0,1,50,12.84,510.37,510.37,0,0,1,47.18,20.85c35.65,17.9,58.79,53.64,58.79,53.64s5.14,5.64,16.56-23.93C495.58,337.75,495.12,323.69,495.12,323.69Z"/><path class="cls-6" d="M578.92,166.43c7.58-5.72,13.08-14.35,14.27-23.77,1.49,10.65-2.22,21.75-9.22,29.92S566.89,186,556.32,188c.89-.16-4.16-12.72-4.37-13.72,1.52-.12,3,.72,4.59.79,2.42.12,5.19-.75,7.52-1.39A44,44,0,0,0,578.92,166.43Z"/><path class="cls-6" d="M347.38,78.39c6.72-1.15,11.63-3.11,17.25-3-1.74-3.62-4.36-7.65-6.1-11.26-2.28-4.72-4.7-9.43-8.21-13.31-7.9-8.76-19.69-11.94-19.69-11.94a48.64,48.64,0,0,1,9,9.34C346.05,56.9,348.66,67.07,347.38,78.39Z"/><path class="cls-8" d="M393.84,90.16a3.62,3.62,0,0,0-.16,2.27c.47,1.36,2.12,1.86,3.53,2.16,3.78.82,7.64,1.63,11.49,1.27s7.77-2.09,9.84-5.36a3.05,3.05,0,0,0,.59-1.8,3.09,3.09,0,0,0-.56-1.38C413.15,79.09,397,80.63,393.84,90.16Z"/><path class="cls-8" d="M432.41,91.77c5,2.44,10.19,4.79,15.73,5.2,1.41.11,3.22-.2,3.55-1.58A2.85,2.85,0,0,0,451,93.2c-3.25-4.54-11-6.87-16.26-7.7C429,84.59,426.38,88.87,432.41,91.77Z"/><path class="cls-8" d="M457.38,104.28a9.38,9.38,0,0,0-7.69,2.06c-1.86,1.59-3.05,4.26-2.14,6.53s3.42,3.32,5.78,3.74A19.9,19.9,0,0,0,467,114.12c2-1.22,4.07-3.42,3.38-5.71-.47-1.57-2.07-2.51-3.6-3.11a21.36,21.36,0,0,0-8.88-1.44Z"/><path class="cls-8" d="M483.66,109.86c2.69,1.88,5.58,3.67,8.84,4.12a4.67,4.67,0,0,0,2.46-.18c1.87-.77,2.45-3.33,1.7-5.21a10.33,10.33,0,0,0-4.11-4.36c-3-2-10.94-8-14.9-6.17C471.08,101.09,481.21,108.15,483.66,109.86Z"/><path class="cls-8" d="M372.67,84.29a3.44,3.44,0,0,0-.6,2.88c.49,1.37,2.2,1.78,3.65,1.88a26.64,26.64,0,0,0,13.61-2.78c1.95-1,3.9-2.36,4.61-4.42a2.21,2.21,0,0,0,.14-1.19c-.48-2.24-8.93-3-11.05-2.82C379.13,78.08,374.69,81,372.67,84.29Z"/><path class="cls-8" d="M427.5,120.6c1.06.51,2.36.88,3.35.26a3.33,3.33,0,0,0,1-1.2,12.18,12.18,0,0,0,.95-9.21c-1.32-4.86-7.37-13.11-12-6.29C416.83,110,422.1,118,427.5,120.6Z"/><path class="cls-8" d="M398.69,102.46a6.41,6.41,0,0,0-4.31,3.36,4.24,4.24,0,0,0,.1,4.3,4.8,4.8,0,0,0,3.45,1.63,8.47,8.47,0,0,0,6-1.6,6.4,6.4,0,0,0,2.48-5.57,2.28,2.28,0,0,0-.42-1.19,2.5,2.5,0,0,0-1.35-.74,10.39,10.39,0,0,0-5.56,0Z"/><path class="cls-8" d="M447,120.35a11.39,11.39,0,0,0-7.29,6.28,3.93,3.93,0,0,0-.36,2.76,3.54,3.54,0,0,0,1.13,1.5,7.5,7.5,0,0,0,10.62-1.46c1.31-1.94,1.48-4.82-.16-6.48-1.22-1.23-3.06-1.53-4.77-1.77Z"/><path class="cls-8" d="M405.69,118.37a2.82,2.82,0,0,0-1.88,2.73,7.62,7.62,0,0,0,1,3.39,9,9,0,0,0,2.52,3.55,3.35,3.35,0,0,0,4.07.16c1.29-1.1,1.13-3.13.62-4.74a17.81,17.81,0,0,0-1.7-3.81,5.13,5.13,0,0,0-2.06-2.14,2.15,2.15,0,0,0-2.69.6Z"/><path class="cls-4" d="M127.39,215.84c-6.79-5.37-14.53-9.37-22.06-13.65-1.76-1-3.59-2.09-4.59-3.85s-.78-4.38,1-5.37a5.79,5.79,0,0,1,3.82-.23l13.07,2.15a32.27,32.27,0,0,1-8.27-19.29c-.16-2.23.1-4.83,2-6.06,2.24-1.48,5.2,0,7.39,1.52a81.64,81.64,0,0,1,15,13.69,29.41,29.41,0,0,1,3.15-17.61c1.29-2.43,3.56-5,6.28-4.49,1.9.34,3.21,2,4.19,3.7,3.39,5.71,7.18,18.32,8.3,25.73,2.29-6,7.06-11.43,12.48-13,1.95-.58,3.65-2,5.46-1.07,3,1.59,3.08,6.14,1.35,9.11s-4.66,5-6.68,7.82c-3.88,5.36-3.95,12.54-3.32,19.12s1.78,13.38-.18,19.7c-3.08,9.93-14.26,14.23-21.06,5.41C138.44,231.06,135.91,222.56,127.39,215.84Z"/><path class="cls-4" d="M603.22,380.68c8.65-.23,17.25,1.21,25.84,2.29,2,.25,4.12.47,6-.34s3.24-3,2.43-4.89a5.87,5.87,0,0,0-2.93-2.47l-11.75-6.11A32.27,32.27,0,0,0,641,358.67c1.46-1.69,2.81-3.93,2.06-6-.91-2.52-4.16-3.13-6.84-3.21a81.41,81.41,0,0,0-20.22,2,29.41,29.41,0,0,0,8-16c.43-2.72.13-6.12-2.33-7.36-1.72-.86-3.8-.28-5.58.46C610,331,599.37,338.87,594,344.13c1.75-6.16,1.19-13.38-2.19-17.9-1.23-1.63-1.73-3.8-3.74-4.13-3.39-.55-6.15,3.07-6.53,6.49s.7,6.83.65,10.26c-.1,6.62-4.34,12.4-8.79,17.3S564,365.8,561.78,372c-3.48,9.79,2.89,19.94,13.62,17C585.25,386.24,592.37,381,603.22,380.68Z"/><path class="cls-9" d="M566,394.73l2.37,4.16A184.55,184.55,0,0,1,452.9,446.8,33.76,33.76,0,0,0,454.1,427c6.4,3.45,16.08,2.87,23.24,2.81a131.75,131.75,0,0,0,23.6-2.34,134,134,0,0,0,44.14-16.9C547.09,409.35,567,396.32,566,394.73Z"/><path class="cls-7" d="M545.66,367.66a3.71,3.71,0,0,0-2.2,1.71c-.4,1,.13,2.29.66,3.42,5,10.68,10.47,21.89,20.23,29.69a9.36,9.36,0,0,0,3.61,2c2.13.48,4-.58,5.55-1.61q10.83-7,21-14.88c.74-.58,1.53-1.26,1.5-2.24a4.66,4.66,0,0,0-1.58-2.69l-12.67-13.55c-2.76-3-7.43-10-11.48-11.25C563.79,356.33,551,365.37,545.66,367.66Z"/><path class="cls-9" d="M187.65,351.16A20.73,20.73,0,0,1,199.18,343c-14.74-15.52-29.74-31.4-38.76-50.81-7-15-10.09-31.46-13.88-47.58a8.4,8.4,0,0,0-1.91-4.25c-4.1-4-4.75,2.77-4.29,5.36.56,3.18,1.87,6.14,2.53,9.31,1.79,8.54,3.45,17,6,25.35A201.58,201.58,0,0,0,170.68,328C172.05,330.18,187.87,350.84,187.65,351.16Z"/><path class="cls-7" d="M181.27,239.9a3.69,3.69,0,0,1,.74,2.69c-.29,1.06-1.47,1.75-2.58,2.34-10.38,5.57-21.49,11.25-34,11.65a9.42,9.42,0,0,1-4.11-.54c-2-.89-2.83-2.84-3.48-4.61Q133.4,239.31,130,227a3,3,0,0,1,.14-2.7,4.74,4.74,0,0,1,2.88-1.2l18.26-3.25c4-.71,11.95-3.57,15.93-2.13C173.54,220,178.39,234.88,181.27,239.9Z"/><path class="cls-9" d="M391.92,678.93c3.05-3.62,7.23-6.07,11.45-8.21,18.36-9.32,38.81-13.91,59.28-16.1,2.79-.29,5.87-.48,8.13,1.19a7.62,7.62,0,0,1,2.62,7,17.68,17.68,0,0,1-2.92,7.19c-9.1,14.63-24.41,24.29-40.16,31.28-11,4.88-23.8,8.05-35,1.58C387.13,698.11,386.08,685.87,391.92,678.93Z"/><path class="cls-9" d="M.82,405.3c-.79,3.33-4.12,29.09,12,64.59,4.69,10.36,17.85,16.65,28.77,13.47a8.31,8.31,0,0,0,3.91-2.17,8.91,8.91,0,0,0,1.81-4.29c2.34-11.58-1.79-23.4-6.31-34.31-4.38-10.54-9.4-21.06-16.68-29.93C19.49,406.8,4.4,390.26.82,405.3Z"/><path class="cls-10" d="M314.38,302.4c-3.58,3-5.39,7.53-7.07,11.88q-7.56,19.64-15.14,39.28c-1.94,5-13.49-4.92-13.92.46-1,12.64,2.11,21.4,6.07,23.89,21.24,13.36,52.11,26.37,75.38,35.75,13.84,5.59,19.56-4.68,21-7.19,10.37-18.39,21.28-36.79,27.79-56.87,2.92-9-6.87-19.15-15.9-23.74-14.05-7.16-26.83-10.85-41.32-17.11C342.32,304.89,323.74,294.6,314.38,302.4Z"/><path class="cls-7" d="M303.22,290.75c-3.58,3-5.39,7.53-7.07,11.87Q288.58,322.26,281,341.9c-1.94,5-3.9,10.61-2,15.67,1.61,4.39,5.72,7.3,9.68,9.79,21.25,13.36,44.65,22.84,67.91,32.26,2.26.91,4.72,1.84,7.06,1.18,2.77-.77,4.48-3.48,5.89-6A534.49,534.49,0,0,0,397.3,338a10.51,10.51,0,0,0,1.08-4c0-2.2-1.3-4.19-2.78-5.82-3.69-4.08-8.6-6.82-13.41-9.48-13.79-7.65-27.62-15.31-42.11-21.57C331.16,293.24,312.57,282.94,303.22,290.75Z"/><path class="cls-4" d="M308.42,302.08a148.37,148.37,0,0,0-7.84,15.9,3,3,0,0,0-.35,1.63,3,3,0,0,0,1.18,1.64,58.08,58.08,0,0,0,18.87,10.87,3,3,0,0,0,1.5.25c.93-.15,1.52-1.05,2-1.87q5.39-9.5,10-19.39a4.44,4.44,0,0,0,.59-3.22,4.38,4.38,0,0,0-2-2.07C326.62,302.18,313.35,293.42,308.42,302.08Z"/><path class="cls-11" d="M294.5,335.93a151.26,151.26,0,0,0-7.84,15.9,3,3,0,0,0-.35,1.63,3,3,0,0,0,1.18,1.64A58.08,58.08,0,0,0,306.36,366a3.17,3.17,0,0,0,1.51.25c.93-.15,1.51-1.05,2-1.87q5.38-9.5,10-19.39a4.49,4.49,0,0,0,.59-3.22,4.4,4.4,0,0,0-2-2.07C312.7,336,299.44,327.27,294.5,335.93Z"/><rect class="cls-10" x="338.6" y="324.22" width="48.49" height="8.68" transform="translate(170.4 -121.52) rotate(24.69)"/><rect class="cls-10" x="329.25" y="344.56" width="48.49" height="8.68" transform="translate(178.04 -115.76) rotate(24.69)"/><rect class="cls-10" x="319.74" y="371.76" width="48.49" height="8.68" transform="translate(188.54 -109.3) rotate(24.69)"/><path class="cls-7" d="M182.5,378.93c8-3.19,16.53-3.31,25.21-2.63a98.33,98.33,0,0,1,12.2,1.71c4.79,1,9.57,2,14.33,3.11a407.28,407.28,0,0,1,57.06,17.51,298.34,298.34,0,0,1,51.14,25.91,218.53,218.53,0,0,1,40.47,32.63c11.65,12.13,21.94,26.4,27.92,41.92q1.1,2.85,2,5.78a3.47,3.47,0,0,0,6.69-1.85c-5.4-17-15.11-32.18-26.86-45.46-12-13.57-26.13-25.2-41.12-35.32a297.74,297.74,0,0,0-51.29-27.39A391.5,391.5,0,0,0,242.72,376a270.24,270.24,0,0,0-28.54-5.95c-9.15-1.23-18.61-1.6-27.68.39a38.17,38.17,0,0,0-5.84,1.77,3.59,3.59,0,0,0-2.43,4.27c.46,1.66,2.52,3.12,4.27,2.43Z"/><path class="cls-7" d="M184.6,394.67a229.65,229.65,0,0,1,26.1.78,233.17,233.17,0,0,1,25.48,3.62,270.85,270.85,0,0,1,50.24,15.09c3.66,1.5,7.49,3.17,11.34,5s7.79,3.74,11.62,5.75q11.19,5.89,21.79,12.83a212.67,212.67,0,0,1,36.7,30.11c2.61,2.7,5.15,5.49,7.59,8.35,1.2,1.41,2.37,2.83,3.52,4.28.28.34.55.69.83,1,.13.18.27.35.41.53.34.44-.28-.36.06.08.57.75,1.13,1.49,1.69,2.25a139.21,139.21,0,0,1,11.35,18q1.19,2.28,2.28,4.59c.79,1.7,3.23,2.13,4.74,1.25a3.55,3.55,0,0,0,1.25-4.75,149.78,149.78,0,0,0-24.93-36.41,215.56,215.56,0,0,0-36.72-31.77A263.32,263.32,0,0,0,295,410.33a277.65,277.65,0,0,0-50.81-16.66,247.74,247.74,0,0,0-53.17-6c-2.15,0-4.31,0-6.46.09a3.47,3.47,0,1,0,0,6.94Z"/><path class="cls-7" d="M174.43,374.83c4.23,9.1,8.32,18.93,9.07,29a63.78,63.78,0,0,1-6,30.54,29.93,29.93,0,0,1-9.83,11.08c-9.06,6.19-20.18,8.18-31.15,8.33a3.47,3.47,0,0,0,0,6.94c11.36-.15,23.22-2.21,33-8.23a38.44,38.44,0,0,0,15.54-18.09,68,68,0,0,0,5.35-30.57c-.86-11.49-5.21-22.15-10-32.48-.78-1.7-3.23-2.13-4.74-1.25a3.56,3.56,0,0,0-1.25,4.75Z"/><path class="cls-7" d="M361.67,587.72a60.18,60.18,0,0,1-2.06-30.55c1.82-9.79,5.33-19.76,10.84-28.1a41.55,41.55,0,0,1,15.62-14.29,53.27,53.27,0,0,1,16.56-5.25,26,26,0,0,1,10.88.31,13.51,13.51,0,0,1,5.78,2.67,11.53,11.53,0,0,1,1.13,1.19c1.19,1.45,3.67,1.24,4.91,0a3.56,3.56,0,0,0,0-4.91c-2.67-3.23-6.88-5-10.9-5.85a31.43,31.43,0,0,0-10.14-.61,65.14,65.14,0,0,0-18.94,5.09,49,49,0,0,0-18.66,15,59.84,59.84,0,0,0-7.23,12.43,98.62,98.62,0,0,0-5.68,16.44c-3,12.62-3,25.9,1.2,38.26a3.56,3.56,0,0,0,4.27,2.42,3.5,3.5,0,0,0,2.42-4.27Z"/><path class="cls-7" d="M207.48,332.31a83.83,83.83,0,0,0,31.43-25.41,79.32,79.32,0,0,0,6.27-9.55,3.54,3.54,0,0,0-1.25-4.75,3.5,3.5,0,0,0-4.74,1.24,75.66,75.66,0,0,1-15,19.05A76.85,76.85,0,0,1,204,326.32c-1.7.78-2.12,3.24-1.24,4.75a3.55,3.55,0,0,0,4.74,1.24Z"/><path class="cls-7" d="M460.53,367.63a74.26,74.26,0,0,0-9.85,56.85,3.44,3.44,0,0,0,3.8,2.48,3.52,3.52,0,0,0,3-3.41c.07-.54.13-1.08.19-1.63.22-1.86-1.75-3.47-3.47-3.47-2,0-3.25,1.6-3.47,3.47-.06.55-.12,1.09-.19,1.63l6.82-.92A67.68,67.68,0,0,1,461,381.5a69.71,69.71,0,0,1,5.53-10.36,3.47,3.47,0,0,0-6-3.51Z"/><path class="cls-12" d="M72.73,405.29c-1.44,2.53-2.81,5.68-1.4,8.23,2.07,3.73,7.78,2.6,11.37.3,12.8-8.17,20.26-24.5,34.92-28.46,5.64-1.53,11.71-1,17.31-2.64s10.95-7.1,9.37-12.72c-3.84-13.68-26.73-13.33-35.29-7.41C94.06,372.92,81.59,389.67,72.73,405.29Z"/><path class="cls-12" d="M436.58,540.63c-2.86,3-3.77,7.46-3.64,11.63s1.19,8.25,1.74,12.38c1.89,14.35-2.36,28.71-3.86,43.11-.21,2,.07,4.64,2,5.08a329,329,0,0,0,23.47-48.51c2-5.2,3.91-10.8,2.75-16.25C457.24,539.56,443,533.8,436.58,540.63Z"/><path class="cls-12" d="M321.87,37.41c3.55,6.65,11.73,9.66,19.27,9.51s14.75-2.85,22-5a144.74,144.74,0,0,1,74.12-1.64c11.3,2.75,22.36,6.88,33.95,7.87a8.42,8.42,0,0,0,4.46-.48c4.45-2.2,2.41-9.1-1-12.75C464.21,23.58,448,19.75,432.78,17q-18.69-3.39-37.55-5.81C383,9.6,305.22,6.26,321.87,37.41Z"/><path class="cls-12" d="M496.78,39.63c-3.35-.59-6.67,2.37-7.11,5.75s1.51,6.76,4.27,8.75a19.11,19.11,0,0,0,9.62,3.07,14.86,14.86,0,0,0,7.4-.89,6.83,6.83,0,0,0,4.22-5.75c.06-4.22-4.56-6.74-8.48-8.29l-9.45-3.73Z"/></g></g></svg>