<svg xmlns="http://www.w3.org/2000/svg" xmlns:xlink="http://www.w3.org/1999/xlink" viewBox="0 0 4.39 45.83"><defs><style>.cls-1{isolation:isolate;}.cls-2,.cls-3,.cls-4{opacity:0.65;}.cls-10,.cls-11,.cls-12,.cls-13,.cls-14,.cls-15,.cls-16,.cls-17,.cls-18,.cls-19,.cls-2,.cls-20,.cls-21,.cls-22,.cls-23,.cls-24,.cls-25,.cls-3,.cls-4,.cls-6,.cls-7,.cls-8,.cls-9{mix-blend-mode:color-dodge;}.cls-2{fill:url(#Безымянный_градиент_432);}.cls-3{fill:url(#Безымянный_градиент_432-2);}.cls-4{fill:url(#Безымянный_градиент_432-3);}.cls-5{fill:#fff;}.cls-6{fill:url(#Безымянный_градиент_25);}.cls-7{fill:url(#Безымянный_градиент_25-2);}.cls-8{fill:url(#Безымянный_градиент_25-3);}.cls-9{fill:url(#Безымянный_градиент_25-4);}.cls-10{fill:url(#Безымянный_градиент_25-5);}.cls-11{fill:url(#Безымянный_градиент_25-6);}.cls-12{fill:url(#Безымянный_градиент_25-7);}.cls-13{fill:url(#Безымянный_градиент_25-8);}.cls-14{fill:url(#Безымянный_градиент_25-9);}.cls-15{fill:url(#Безымянный_градиент_25-10);}.cls-16{fill:url(#Безымянный_градиент_25-11);}.cls-17{fill:url(#Безымянный_градиент_25-12);}.cls-18{fill:url(#Безымянный_градиент_25-13);}.cls-19{fill:url(#Безымянный_градиент_25-14);}.cls-20{fill:url(#Безымянный_градиент_25-15);}.cls-21{fill:url(#Безымянный_градиент_25-16);}.cls-22{fill:url(#Безымянный_градиент_25-17);}.cls-23{fill:url(#Безымянный_градиент_25-18);}.cls-24{fill:url(#Безымянный_градиент_25-19);}.cls-25{fill:url(#Безымянный_градиент_25-20);}</style><linearGradient id="Безымянный_градиент_432" x1="-308.39" y1="-394.69" x2="-262.55" y2="-394.69" gradientTransform="matrix(0.01, 1, -1, 0.01, -388.82, 313.05)" gradientUnits="userSpaceOnUse"><stop offset="0" stop-color="#cf2aff"/><stop offset="1"/></linearGradient><linearGradient id="Безымянный_градиент_432-2" x1="-308.2" y1="-394.7" x2="-279.9" y2="-394.7" xlink:href="#Безымянный_градиент_432"/><linearGradient id="Безымянный_градиент_432-3" x1="-307.99" y1="-394.61" x2="-289.68" y2="-394.61" xlink:href="#Безымянный_градиент_432"/><radialGradient id="Безымянный_градиент_25" cx="-358.23" cy="-299.62" r="0.6" gradientTransform="matrix(-0.22, 0.98, -0.98, -0.22, -367.12, 299.7)" gradientUnits="userSpaceOnUse"><stop offset="0" stop-color="#c4ffc2"/><stop offset="0.05" stop-color="#b2e8b1"/><stop offset="0.2" stop-color="#84ab82"/><stop offset="0.35" stop-color="#5c775b"/><stop offset="0.5" stop-color="#3b4c3a"/><stop offset="0.64" stop-color="#212b21"/><stop offset="0.77" stop-color="#0f130f"/><stop offset="0.9" stop-color="#040504"/><stop offset="1"/></radialGradient><radialGradient id="Безымянный_градиент_25-2" cx="-366.08" cy="-295.8" r="0.6" xlink:href="#Безымянный_градиент_25"/><radialGradient id="Безымянный_градиент_25-3" cx="-362.13" cy="-296.61" r="0.6" xlink:href="#Безымянный_градиент_25"/><radialGradient id="Безымянный_градиент_25-4" cx="-370.51" cy="-296.9" r="0.6" xlink:href="#Безымянный_градиент_25"/><radialGradient id="Безымянный_градиент_25-5" cx="-346.5" cy="-301.8" r="0.6" xlink:href="#Безымянный_градиент_25"/><radialGradient id="Безымянный_градиент_25-6" cx="-353.33" cy="-299.47" r="0.6" xlink:href="#Безымянный_градиент_25"/><radialGradient id="Безымянный_градиент_25-7" cx="-351.53" cy="-300.03" r="0.36" xlink:href="#Безымянный_градиент_25"/><radialGradient id="Безымянный_градиент_25-8" cx="-370.69" cy="-295.8" r="0.36" xlink:href="#Безымянный_градиент_25"/><radialGradient id="Безымянный_градиент_25-9" cx="-354.74" cy="-300.12" r="0.36" xlink:href="#Безымянный_градиент_25"/><radialGradient id="Безымянный_градиент_25-10" cx="-360.2" cy="-297.57" r="0.36" xlink:href="#Безымянный_градиент_25"/><radialGradient id="Безымянный_градиент_25-11" cx="-370.69" cy="-294.56" r="0.36" xlink:href="#Безымянный_градиент_25"/><radialGradient id="Безымянный_градиент_25-12" cx="-341.41" cy="-302.67" r="0.36" xlink:href="#Безымянный_градиент_25"/><radialGradient id="Безымянный_градиент_25-13" cx="-339.31" cy="-303.53" r="0.36" xlink:href="#Безымянный_градиент_25"/><radialGradient id="Безымянный_градиент_25-14" cx="-363.67" cy="-297.36" r="0.36" xlink:href="#Безымянный_градиент_25"/><radialGradient id="Безымянный_градиент_25-15" cx="-359.84" cy="-298.66" r="0.36" xlink:href="#Безымянный_градиент_25"/><radialGradient id="Безымянный_градиент_25-16" cx="-354.86" cy="-298.76" r="0.36" xlink:href="#Безымянный_градиент_25"/><radialGradient id="Безымянный_градиент_25-17" cx="-371.72" cy="-295.8" r="0.36" xlink:href="#Безымянный_градиент_25"/><radialGradient id="Безымянный_градиент_25-18" cx="-344.04" cy="-301.95" r="0.36" xlink:href="#Безымянный_градиент_25"/><radialGradient id="Безымянный_градиент_25-19" cx="-345.67" cy="-301.25" r="0.36" xlink:href="#Безымянный_градиент_25"/><radialGradient id="Безымянный_градиент_25-20" cx="-338.72" cy="-302.79" r="0.36" xlink:href="#Безымянный_градиент_25"/></defs><g class="cls-1"><g id="Слой_2" data-name="Слой 2"><g id="interior"><path class="cls-2" d="M2.36,45.48,0,2.32a2.2,2.2,0,1,1,4.39-.24v.18h0L3.09,45.47a.36.36,0,0,1-.37.36A.37.37,0,0,1,2.36,45.48Z"/><path class="cls-3" d="M2.3,28.27.84,1.62a1.36,1.36,0,0,1,2.71-.15v.11h0l-.8,26.67a.22.22,0,0,1-.23.22A.21.21,0,0,1,2.3,28.27Z"/><path class="cls-4" d="M2.17,18.57,1.23,1.32A.87.87,0,0,1,2.05.4.87.87,0,0,1,3,1.22V1.3H3L2.46,18.57a.15.15,0,0,1-.15.14A.14.14,0,0,1,2.17,18.57Z"/><path class="cls-5" d="M1.92,1.92a.69.69,0,0,1-.51-.81A.66.66,0,0,1,2.22.6a.68.68,0,0,1-.3,1.32Z"/><path class="cls-5" d="M3.17,4a.08.08,0,0,1-.07-.09.09.09,0,0,1,.1-.07.08.08,0,0,1,.06.1A.07.07,0,0,1,3.17,4Z"/><path class="cls-5" d="M1.61,4.5a.08.08,0,0,1-.06-.09.08.08,0,0,1,.1-.07.09.09,0,0,1,.06.1A.08.08,0,0,1,1.61,4.5Z"/><path class="cls-5" d="M1.43,2.64a.08.08,0,0,1-.06-.1.07.07,0,0,1,.09-.06.07.07,0,0,1,.07.09A.1.1,0,0,1,1.43,2.64Z"/><path class="cls-5" d="M3.5,13a.05.05,0,0,1,0,0s0,0,0,0,0,0,0,0S3.53,13,3.5,13Z"/><path class="cls-5" d="M.61,1.55s0,0,0-.05a.05.05,0,0,1,.05,0s0,0,0,.05S.63,1.56.61,1.55Z"/><path class="cls-5" d="M3.42,1.32s0,0,0,0,0,0,0,0a.05.05,0,0,1,0,.05S3.44,1.33,3.42,1.32Z"/><path class="cls-5" d="M2.25,24.07a.05.05,0,0,1,0-.05s0,0,0,0,0,0,0,0S2.27,24.07,2.25,24.07Z"/><path class="cls-5" d="M2.28,15.79a.05.05,0,0,1,0,0s0,0,0,0a0,0,0,0,1,0,0S2.3,15.79,2.28,15.79Z"/><path class="cls-5" d="M3.09,25.29s0,0,0-.05,0,0,0,0,0,0,0,.05A.05.05,0,0,1,3.09,25.29Z"/><path class="cls-5" d="M2.75,28.26s0,0,0,0,0,0,0,0a.05.05,0,0,1,0,.05S2.77,28.27,2.75,28.26Z"/><path class="cls-5" d="M2.57,18.44a0,0,0,0,1,0-.05s0,0,0,0a.05.05,0,0,1,0,.05S2.59,18.45,2.57,18.44Z"/><path class="cls-5" d="M2.08,25.79A.11.11,0,0,1,2,25.66a.11.11,0,0,1,.13-.09.1.1,0,0,1,.08.13A.11.11,0,0,1,2.08,25.79Z"/><path class="cls-5" d="M1.49,9.12a.11.11,0,1,1,.05-.21.11.11,0,1,1-.05.21Z"/><path class="cls-5" d="M1.89,2.68a.11.11,0,0,1-.09-.13.1.1,0,0,1,.13-.08A.11.11,0,0,1,2,2.6.11.11,0,0,1,1.89,2.68Z"/><path class="cls-5" d="M3.37,12.1A.1.1,0,0,1,3.29,12a.11.11,0,0,1,.13-.09A.11.11,0,0,1,3.5,12,.11.11,0,0,1,3.37,12.1Z"/><path class="cls-5" d="M2.81,2.23a.13.13,0,0,1-.09-.14A.13.13,0,0,1,2.85,2a.11.11,0,1,1,0,.22Z"/><path class="cls-5" d="M2.35,22.49a.11.11,0,0,1-.09-.13.11.11,0,0,1,.13-.08.11.11,0,0,1,.09.13A.1.1,0,0,1,2.35,22.49Z"/><path class="cls-5" d="M2.26,2.93a.11.11,0,0,1,.05-.21.11.11,0,0,1-.05.21Z"/><path class="cls-5" d="M2.14,10.66a.09.09,0,0,1-.06-.1.08.08,0,0,1,.1-.06.08.08,0,0,1,.06.09A.08.08,0,0,1,2.14,10.66Z"/><path class="cls-6" d="M3.27,16a.59.59,0,0,1-.45-.71A.59.59,0,0,1,4,15.51.59.59,0,0,1,3.27,16Z"/><path class="cls-7" d="M1.25,7.47A.6.6,0,1,1,2,7,.6.6,0,0,1,1.25,7.47Z"/><path class="cls-8" d="M1.19,11.5a.59.59,0,0,1-.45-.71.59.59,0,0,1,.71-.46.6.6,0,0,1-.26,1.17Z"/><path class="cls-9" d="M3.29,3.38A.59.59,0,1,1,4,2.93.61.61,0,0,1,3.29,3.38Z"/><path class="cls-10" d="M2.84,27.89a.6.6,0,1,1,.26-1.17.6.6,0,0,1-.26,1.17Z"/><path class="cls-11" d="M2.06,20.72A.6.6,0,0,1,1.61,20a.59.59,0,1,1,1.16.26A.6.6,0,0,1,2.06,20.72Z"/><path class="cls-12" d="M2.26,22.36A.36.36,0,0,1,2,21.93a.36.36,0,0,1,.43-.27.36.36,0,0,1,.27.43A.35.35,0,0,1,2.26,22.36Z"/><path class="cls-13" d="M2.31,2.74A.36.36,0,1,1,2.46,2a.36.36,0,0,1,.28.43A.37.37,0,0,1,2.31,2.74Z"/><path class="cls-14" d="M3.05,19.25a.35.35,0,0,1-.27-.43.36.36,0,0,1,.43-.28.37.37,0,0,1,.27.43A.36.36,0,0,1,3.05,19.25Z"/><path class="cls-15" d="M1.75,13.36a.36.36,0,0,1-.27-.43.36.36,0,0,1,.43-.27.36.36,0,1,1-.16.7Z"/><path class="cls-16" d="M1.1,2.47a.36.36,0,1,1,.16-.7.36.36,0,1,1-.16.7Z"/><path class="cls-17" d="M2.63,32.81a.36.36,0,0,1-.27-.43.35.35,0,0,1,.43-.27.36.36,0,0,1,.27.43A.36.36,0,0,1,2.63,32.81Z"/><path class="cls-18" d="M3,35.05a.36.36,0,0,1-.27-.43.36.36,0,0,1,.43-.27.35.35,0,0,1,.27.43A.35.35,0,0,1,3,35.05Z"/><path class="cls-19" d="M2.3,9.93A.36.36,0,0,1,2,9.5a.36.36,0,0,1,.43-.27.35.35,0,0,1,.27.43A.36.36,0,0,1,2.3,9.93Z"/><path class="cls-20" d="M2.74,14a.36.36,0,1,1,.43-.27A.36.36,0,0,1,2.74,14Z"/><path class="cls-21" d="M1.75,18.83a.36.36,0,0,1-.27-.43.36.36,0,0,1,.43-.27.36.36,0,0,1,.27.43A.35.35,0,0,1,1.75,18.83Z"/><path class="cls-22" d="M2.53,1.73A.36.36,0,1,1,3,1.46.36.36,0,0,1,2.53,1.73Z"/><path class="cls-23" d="M2.5,30.09a.35.35,0,0,1-.27-.43.36.36,0,0,1,.43-.28.37.37,0,0,1,.27.43A.36.36,0,0,1,2.5,30.09Z"/><path class="cls-24" d="M2.18,28.34a.36.36,0,0,1-.28-.43.38.38,0,0,1,.44-.27.36.36,0,0,1,.27.43A.36.36,0,0,1,2.18,28.34Z"/><path class="cls-25" d="M2.17,35.47a.36.36,0,1,1,.43-.28A.37.37,0,0,1,2.17,35.47Z"/></g></g></g></svg>