<svg xmlns="http://www.w3.org/2000/svg" xmlns:xlink="http://www.w3.org/1999/xlink" viewBox="0 0 63.22 41.87"><defs><style>.cls-1{isolation:isolate;}.cls-2{fill:#0a1031;}.cls-3{fill:url(#Безымянный_градиент_300);}.cls-4{fill:url(#Безымянный_градиент_300-2);}.cls-5{fill:url(#Безымянный_градиент_300-3);}.cls-6{fill:url(#Безымянный_градиент_30);}.cls-7{fill:url(#Безымянный_градиент_35);}.cls-8{fill:url(#Безымянный_градиент_30-2);}.cls-9{fill:url(#Безымянный_градиент_35-2);}.cls-10,.cls-11{opacity:0.5;mix-blend-mode:color-dodge;}.cls-10{fill:url(#Безымянный_градиент_292);}.cls-11{fill:url(#Безымянный_градиент_292-2);}.cls-12{fill:#fe58b9;}.cls-13{fill:#00c7b9;}.cls-14{fill:#009de6;}.cls-15{fill:#ec3386;}.cls-16{fill:#0058b9;}</style><radialGradient id="Безымянный_градиент_300" cx="352.43" cy="26.8" r="12.82" gradientTransform="matrix(-1.17, 0.28, 0.24, 1, 452.47, -106.93)" gradientUnits="userSpaceOnUse"><stop offset="0" stop-color="#042a56"/><stop offset="0.52" stop-color="#052854"/><stop offset="0.79" stop-color="#0b214c"/><stop offset="0.99" stop-color="#13143f"/><stop offset="1" stop-color="#14133e"/></radialGradient><radialGradient id="Безымянный_градиент_300-2" cx="-138.92" cy="26.02" r="12.82" gradientTransform="matrix(1.17, -0.28, 0.24, 1, 170.1, -38.17)" xlink:href="#Безымянный_градиент_300"/><radialGradient id="Безымянный_градиент_300-3" cx="90.5" cy="55.36" r="7.33" gradientTransform="matrix(1.5, 0, 0, 1.03, -108.16, -45.55)" xlink:href="#Безымянный_градиент_300"/><linearGradient id="Безымянный_градиент_30" x1="438.7" y1="38.95" x2="438.7" y2="12.56" gradientTransform="matrix(-0.97, 0.23, 0.22, 0.91, 469.33, -110.09)" gradientUnits="userSpaceOnUse"><stop offset="0" stop-color="#00487e"/><stop offset="0.4" stop-color="#01467c"/><stop offset="0.6" stop-color="#034074"/><stop offset="0.76" stop-color="#073567"/><stop offset="0.89" stop-color="#0d2554"/><stop offset="1" stop-color="#14133e"/></linearGradient><linearGradient id="Безымянный_градиент_35" x1="34.46" y1="23.62" x2="56.02" y2="23.62" gradientTransform="matrix(0.97, -0.23, 0.16, 0.68, -3.65, 0)" gradientUnits="userSpaceOnUse"><stop offset="0" stop-color="#00487e"/><stop offset="0.47" stop-color="#02467f"/><stop offset="0.71" stop-color="#0a3f82"/><stop offset="0.89" stop-color="#173487"/><stop offset="1" stop-color="#23298c"/></linearGradient><linearGradient id="Безымянный_градиент_30-2" x1="8.97" y1="38.21" x2="8.97" y2="11.82" gradientTransform="matrix(0.97, -0.23, 0.22, 0.91, -2.65, 4.17)" xlink:href="#Безымянный_градиент_30"/><linearGradient id="Безымянный_градиент_35-2" x1="-0.14" y1="23.62" x2="21.42" y2="23.62" xlink:href="#Безымянный_градиент_35"/><linearGradient id="Безымянный_градиент_292" x1="0.44" y1="35.24" x2="0.44" y2="14.35" gradientTransform="translate(-3 4.39) rotate(-13.53)" gradientUnits="userSpaceOnUse"><stop offset="0"/><stop offset="1" stop-color="#6dd6e0"/></linearGradient><linearGradient id="Безымянный_градиент_292-2" x1="48" y1="34.2" x2="48" y2="16.18" xlink:href="#Безымянный_градиент_292"/></defs><g class="cls-1"><g id="Слой_2" data-name="Слой 2"><g id="interior"><polygon class="cls-2" points="18.77 34.73 25.41 32.79 25.41 24.15 35.56 21.42 41.15 27.98 49.43 26.12 38.32 15.9 18.21 20.66 18.77 34.73"/><path class="cls-3" d="M54.59,3.22l8,16.65c2.1,4.4-1,9.66-6.51,11h0a9.24,9.24,0,0,1-9-2.38L29.41,9.28Z"/><path class="cls-4" d="M.22,16.3.71,34.75C.83,39.62,6,42.89,11.5,41.57h0a9.27,9.27,0,0,0,6.9-6.2l7-25.13Z"/><rect class="cls-5" x="13.14" y="7.27" width="28.76" height="8.07" transform="translate(-1.88 6.75) rotate(-13.53)"/><path class="cls-6" d="M54.18,1.92l7.19,15.19c1.84,4-.68,8.74-5.24,9.84h0a7.58,7.58,0,0,1-7.55-2.32L33.45,6.9Z"/><path class="cls-7" d="M54.66,2.87c.63,2.64-3.54,5.9-9.33,7.29s-11,.39-11.63-2.24S37.25,2,43,.63,54,.24,54.66,2.87Z"/><path class="cls-8" d="M.06,14.94l.49,16.8c.19,4.42,4.58,7.48,9.15,6.38h0a7.57,7.57,0,0,0,5.66-5.49L20.77,10Z"/><path class="cls-9" d="M21,11c.63,2.63-3.54,5.9-9.33,7.29S.7,18.64.06,16s3.55-5.9,9.33-7.29S20.39,8.33,21,11Z"/><polygon class="cls-2" points="37.99 18.59 22 22.44 19.04 17.18 38.28 12.55 37.99 18.59"/><path class="cls-10" d="M.64,18.27s0,13.32,1.64,16.49S8.17,38,8.17,38s-3.39-1-4.48-5.5,0-13,0-13Z"/><path class="cls-11" d="M39.29,10.86l4.54,0s6.26,12.6,8.26,13.82c2.91,1.78,7.49-1.3,7.49-1.3s-4.29,3.56-7.54,2S39.29,10.86,39.29,10.86Z"/><path class="cls-2" d="M40.89,6.19c.1.43-1,1.06-2.38,1.41s-2.65.26-2.76-.18,1-1.06,2.38-1.4S40.78,5.75,40.89,6.19Z"/><path class="cls-12" d="M40.78,5.72c.1.43-1,1.06-2.38,1.4s-2.66.27-2.76-.17,1-1.06,2.38-1.41S40.67,5.28,40.78,5.72Z"/><path class="cls-2" d="M46.05,1.86c.1.44-1,1.07-2.38,1.41S41,3.53,40.91,3.1s1-1.07,2.38-1.41S45.94,1.42,46.05,1.86Z"/><path class="cls-13" d="M45.94,1.39c.1.43-1,1.07-2.38,1.41s-2.66.26-2.76-.17,1-1.07,2.38-1.41S45.83,1,45.94,1.39Z"/><path class="cls-2" d="M47.89,7.13c.1.43-1,1.06-2.38,1.4s-2.66.27-2.76-.17,1-1.06,2.38-1.41S47.78,6.69,47.89,7.13Z"/><path class="cls-14" d="M47.77,6.66c.11.43-1,1.06-2.38,1.4s-2.65.27-2.76-.17,1-1.07,2.38-1.41S47.67,6.22,47.77,6.66Z"/><path class="cls-2" d="M53,2.68c.1.44-1,1.07-2.38,1.41s-2.66.26-2.76-.17,1-1.07,2.38-1.41S52.92,2.24,53,2.68Z"/><path class="cls-15" d="M52.91,2.21c.11.43-1,1.07-2.38,1.41s-2.65.26-2.75-.17,1-1.07,2.37-1.41S52.81,1.77,52.91,2.21Z"/><path class="cls-2" d="M7,14.35c.1.43-1,1.06-2.38,1.41s-2.66.26-2.76-.18,1-1.06,2.38-1.4S6.87,13.91,7,14.35Z"/><path class="cls-16" d="M6.86,13.88c.11.43-1,1.06-2.38,1.4s-2.65.27-2.76-.17,1-1.06,2.38-1.41S6.76,13.44,6.86,13.88Z"/><path class="cls-2" d="M12.13,10c.11.44-1,1.07-2.37,1.41S7.1,11.69,7,11.26s1-1.07,2.38-1.41S12,9.58,12.13,10Z"/><path class="cls-16" d="M12,9.55c.11.43-1,1.07-2.38,1.41s-2.65.26-2.76-.17,1-1.07,2.38-1.41S11.92,9.11,12,9.55Z"/><path class="cls-2" d="M14,15.29c.11.43-1,1.06-2.38,1.41s-2.65.26-2.76-.18,1-1.06,2.38-1.41S13.87,14.85,14,15.29Z"/><path class="cls-16" d="M13.86,14.82c.1.43-1,1.06-2.38,1.4s-2.66.27-2.76-.17,1-1.07,2.38-1.41S13.75,14.38,13.86,14.82Z"/><path class="cls-2" d="M19.11,10.84c.11.44-1,1.07-2.38,1.41s-2.65.26-2.76-.17,1-1.07,2.38-1.41S19,10.4,19.11,10.84Z"/><path class="cls-16" d="M19,10.37c.11.43-1,1.07-2.38,1.41S14,12,13.86,11.61s1-1.07,2.38-1.41S18.9,9.93,19,10.37Z"/></g></g></g></svg>