<svg xmlns="http://www.w3.org/2000/svg" viewBox="0 0 715.38 196.13"><defs><style>.cls-1{isolation:isolate;}.cls-2{mix-blend-mode:hard-light;}.cls-3{fill:#43e0f7;}</style></defs><g class="cls-1"><g id="Слой_2" data-name="Слой 2"><g id="space"><g class="cls-2"><path class="cls-3" d="M665.8,73.24a7.53,7.53,0,0,0-3-1.72,1.32,1.32,0,0,0-.55-.08,1.09,1.09,0,0,0-.78.68,2.23,2.23,0,0,0,.52,2.43,2.75,2.75,0,0,0,2.46.64,1.84,1.84,0,0,0,1.2-.74,1,1,0,0,0-.13-1.32.23.23,0,0,0-.12.36Z"/><path class="cls-3" d="M587.88,48.88a7.47,7.47,0,0,0-3.34.8,1.42,1.42,0,0,0-.45.32,1.07,1.07,0,0,0-.09,1,2.21,2.21,0,0,0,2,1.4,2.74,2.74,0,0,0,2.22-1.22,1.81,1.81,0,0,0,.36-1.37,1,1,0,0,0-1-.87.23.23,0,0,0,.17.34Z"/><path class="cls-3" d="M666.18,78.37a2,2,0,0,0-1.88-.32,2.08,2.08,0,0,0,.52,1.83,1.25,1.25,0,0,0,1.76,0c.41-.52,0-1.48-.66-1.41Z"/><path class="cls-3" d="M667,69.18a2.17,2.17,0,0,0-.67-.05.1.1,0,0,0-.11.11c0,.23.32.42.22.63a.31.31,0,0,0-.05.12c0,.07.11.08.18.06a.62.62,0,0,0,.34-.88l.09,0Z"/><path class="cls-3" d="M666.26,61.86a4.44,4.44,0,0,0-1.26-.08.27.27,0,0,0-.15,0,.18.18,0,0,0-.05.15c0,.44.59.8.4,1.2,0,.07-.09.14-.08.22s.2.15.33.11a1.15,1.15,0,0,0,.64-1.65l.18.06Z"/><path class="cls-3" d="M677,56.71a4.12,4.12,0,0,0-1.26-.08.24.24,0,0,0-.15,0,.21.21,0,0,0-.05.15c0,.44.59.81.4,1.2,0,.07-.09.14-.08.22s.2.15.32.12a1.15,1.15,0,0,0,.64-1.65l.19.06Z"/><path class="cls-3" d="M657.27,74.37a1,1,0,0,0-.87-.16,1.38,1.38,0,0,0,.13.39.36.36,0,0,0,.35.16c.19,0,.27-.25.31-.43l.08.13Z"/><path class="cls-3" d="M595,64.82a.31.31,0,0,0-.34.3,4.88,4.88,0,0,1-.2.65l1-.52.08,0c.11,0,.17.13.26.18s.29,0,.39-.15C596.9,64.42,595.45,64.78,595,64.82Z"/><path class="cls-3" d="M651.15,57.75a.39.39,0,0,0-.26,0,.47.47,0,0,0-.15.19,4.35,4.35,0,0,1-.38.57l1.11-.22h.09c.11,0,.13.16.2.23s.3,0,.42,0C653.1,57.89,651.61,57.84,651.15,57.75Z"/><path class="cls-3" d="M604.13,42.09l-.33,0a.52.52,0,0,0,.43.44c.23,0,.44-.24.32-.43s-.23-.27-.12-.34Z"/><path class="cls-3" d="M658,52.71a.45.45,0,1,1-.68.41.48.48,0,0,1,.68-.41Z"/><path class="cls-3" d="M661.24,65.57c.22-.1.54-.17.68,0s-.06.45-.24.61-.16.15-.26.12,0-.53-.26-.65c0-.07.12-.09.14,0Z"/><path class="cls-3" d="M660.66,76a.45.45,0,0,1,.28,0,.8.8,0,0,1-.61.33c-.13,0-.29,0-.36-.08a.66.66,0,0,1,0-.28c0-.18-.23-.36-.12-.52a.21.21,0,0,1,.28-.05.66.66,0,0,1,.22.22l.42.55Z"/><path class="cls-3" d="M661.72,79.43c-.17-.09-.35.18-.26.35a.69.69,0,0,0,.48.29.66.66,0,0,0-.15-.73Z"/><path class="cls-3" d="M681.17,84a.54.54,0,0,0-.28,0,.24.24,0,0,0-.2.17c0,.15.14.27.19.42s0,.33,0,.45a.26.26,0,0,0,.4,0,.74.74,0,0,0,.1-.44.78.78,0,0,0-.09-.4A.31.31,0,0,0,681,84Z"/><path class="cls-3" d="M629.38,82.93a.17.17,0,0,1,0,.24.36.36,0,0,1-.25.11.39.39,0,0,1-.15,0,.23.23,0,0,1-.09-.32.24.24,0,0,1,.33-.07.28.28,0,0,1,.09.33Z"/><path class="cls-3" d="M653.88,90.9a.2.2,0,0,1,0,.25.36.36,0,0,1-.24.11.29.29,0,0,1-.16,0,.23.23,0,0,1-.09-.31.24.24,0,0,1,.33-.07.26.26,0,0,1,.09.32Z"/><path class="cls-3" d="M657.85,77.2a.26.26,0,0,0-.32-.32.41.41,0,0,0,0,.29.23.23,0,0,0,.23.16.16.16,0,0,0,.11-.23Z"/><path class="cls-3" d="M652.73,65.14a.27.27,0,0,0-.33-.33.48.48,0,0,0,0,.29.25.25,0,0,0,.24.16.15.15,0,0,0,.1-.23Z"/><path class="cls-3" d="M658.78,73a.76.76,0,0,0-.58-.33c0,.19,0,.38,0,.57a.58.58,0,0,0,.06.26.3.3,0,0,0,.45,0,.42.42,0,0,0,.06-.49Z"/><path class="cls-3" d="M686.32,48l1-.12c.09.15-.11.31-.28.37a.82.82,0,0,1-.51.07c-.17,0-.32-.23-.24-.39Z"/><path class="cls-3" d="M680.54,51.45a.36.36,0,0,0-.6-.11.53.53,0,0,0,0,.69.35.35,0,0,0,.63-.15,1.2,1.2,0,0,0,0-.5Z"/><path class="cls-3" d="M659.82,66a.59.59,0,0,0-.51-.43.72.72,0,0,0,0,.5.45.45,0,0,0,.49.35c.22,0,.32-.39.12-.49Z"/><path class="cls-3" d="M661.55,67.65a.36.36,0,0,1,.16.41l-.52.06a.41.41,0,0,1,.26-.57Z"/><path class="cls-3" d="M666.51,69.65l.19-.07a1.23,1.23,0,0,1-.09.47.41.41,0,0,1-.4.22.24.24,0,0,1-.13-.38.89.89,0,0,1,.43-.22Z"/><path class="cls-3" d="M659.54,80.43a.34.34,0,0,1-.16.61c-.09,0-.2,0-.2-.12a.21.21,0,0,1,0-.11l.27-.43.07.06Z"/><path class="cls-3" d="M656.73,81.92c0,.16.21.24.38.28s.35.08.41.24a.12.12,0,0,1,0,.13c-.07.1-.21,0-.33,0a.9.9,0,0,0-.28,0,.56.56,0,0,1-.54-.32.32.32,0,0,1,.2-.27.31.31,0,0,1,.33.07Z"/><path class="cls-3" d="M655.52,83.07l-.12.15a.22.22,0,0,0,.26.13.2.2,0,0,0,.13-.25.16.16,0,0,0-.26,0Z"/><path class="cls-3" d="M657.3,87.21l-.12.15a.23.23,0,0,0,.26.13.18.18,0,0,0,.13-.25.17.17,0,0,0-.26,0Z"/><path class="cls-3" d="M657.9,75.8c.1.08.24,0,.27-.16s0-.25,0-.38a.45.45,0,0,1,.19-.33.2.2,0,0,1,.21,0c.05,0,.07.06.1.11a1.33,1.33,0,0,1,.24.69.64.64,0,0,1-.36.6.51.51,0,0,1-.49-.08.5.5,0,0,1-.17-.46Z"/><path class="cls-3" d="M583.58,23.61c.1.07.25,0,.27-.16s0-.25,0-.38a.45.45,0,0,1,.19-.33.2.2,0,0,1,.21,0,.18.18,0,0,1,.1.11,1.33,1.33,0,0,1,.24.69.64.64,0,0,1-.36.6.51.51,0,0,1-.49-.08.5.5,0,0,1-.17-.46Z"/><path class="cls-3" d="M579.19,75.88c.11.07.25,0,.27-.16a2.41,2.41,0,0,0,0-.38.48.48,0,0,1,.18-.33.22.22,0,0,1,.22,0,.32.32,0,0,1,.1.1,1.4,1.4,0,0,1,.24.7.64.64,0,0,1-.36.6.5.5,0,0,1-.49-.08.52.52,0,0,1-.17-.47Z"/><path class="cls-3" d="M645.38,64.11c.1.07.25,0,.27-.17a2.29,2.29,0,0,0,0-.37.49.49,0,0,1,.19-.33.23.23,0,0,1,.21,0,.38.38,0,0,1,.11.11,1.36,1.36,0,0,1,.23.7.64.64,0,0,1-.36.6.49.49,0,0,1-.48-.08.5.5,0,0,1-.17-.47Z"/><path class="cls-3" d="M628.4,56.17c.1.07.24,0,.27-.17s0-.25,0-.37a.45.45,0,0,1,.19-.33.23.23,0,0,1,.21,0,.26.26,0,0,1,.1.11,1.37,1.37,0,0,1,.24.7.65.65,0,0,1-.36.6.51.51,0,0,1-.49-.08.52.52,0,0,1-.17-.47Z"/><path class="cls-3" d="M655.77,73.21a.31.31,0,0,0-.42,0,.44.44,0,0,0-.13.42c0,.07.07.15.13.14a.16.16,0,0,0,.12-.08l.35-.45Z"/><path class="cls-3" d="M715.29,61.08a1.54,1.54,0,0,0-.18-1.17.26.26,0,0,0-.16-.13c-.15,0-.22.18-.29.31s-.44.32-.57.55a1,1,0,0,0,0,.63c.05.3.21.7.52.67a.56.56,0,0,0,.37-.29,3,3,0,0,0,.44-.91Z"/><path class="cls-3" d="M638.69,41.12a1.55,1.55,0,0,0-.18-1.17.26.26,0,0,0-.16-.13c-.15,0-.22.18-.3.31s-.43.32-.56.55a1,1,0,0,0,0,.63c0,.31.21.7.52.67a.56.56,0,0,0,.37-.29,3,3,0,0,0,.44-.91Z"/><path class="cls-3" d="M660.28,59.31c.15-.19-.09-.45-.3-.57s-.29-.17-.43-.11-.2.34-.18.55l0,.53a.29.29,0,0,0,.09.22.27.27,0,0,0,.2,0,2.67,2.67,0,0,0,1-.44Z"/><path class="cls-3" d="M665.64,65.2c1.5-1.6-.53-3.16-2.09-2.14S664.35,66.59,665.64,65.2Z"/><path class="cls-3" d="M665.33,54.11c1.49-1.6-.53-3.17-2.09-2.14S664,55.5,665.33,54.11Z"/><path class="cls-3" d="M663.4,77.29a.51.51,0,0,1-.35.73,1.3,1.3,0,0,1-.14-.72c0-.24.3-.46.53-.37l.2.39Z"/><path class="cls-3" d="M658.55,25.05c-.07-.15-.18-.08-.22.08a1.79,1.79,0,0,0,0,.56L658.5,27a1.24,1.24,0,0,0,.19.63c.1.09.2,0,.24-.2a2.35,2.35,0,0,0,0-.6,3.44,3.44,0,0,0-.46-1.86l-.1.34Z"/><path class="cls-3" d="M658.16,83.64a.14.14,0,0,1,.18.08.39.39,0,0,1-.1.36.24.24,0,0,1-.32,0,.31.31,0,0,1-.12-.3.2.2,0,0,1,.07-.15.13.13,0,0,1,.16,0Z"/><path class="cls-3" d="M656.18,77.77H656a.39.39,0,0,0,0,.3.15.15,0,0,0,.25,0,.22.22,0,0,0,0-.11l-.09-.37Z"/><path class="cls-3" d="M645,73.73a1.11,1.11,0,0,0-.47-.14.4.4,0,0,0-.4.23.33.33,0,0,0,0,.24.45.45,0,1,0,.85-.32Z"/><path class="cls-3" d="M617.81,61.44a1.16,1.16,0,0,0-.47-.14.4.4,0,0,0-.41.23.39.39,0,0,0,0,.24.47.47,0,0,0,.59.29.48.48,0,0,0,.27-.61Z"/><path class="cls-3" d="M653.06,62.52a.34.34,0,0,1,.38.43,1,1,0,0,1-.37.13.61.61,0,0,1,0-.42Z"/><path class="cls-3" d="M440.3,10.09a.34.34,0,0,1,.38.43,1.16,1.16,0,0,1-.37.13.58.58,0,0,1,0-.43Z"/><path class="cls-3" d="M667.81,78.43l-.33,0a.54.54,0,0,0,0,.25.32.32,0,0,0,.37-.24Z"/><path class="cls-3" d="M581.87,55.74a7.51,7.51,0,0,0-3-1.71,1.17,1.17,0,0,0-.55-.08,1.07,1.07,0,0,0-.78.68,2.24,2.24,0,0,0,.52,2.43,2.75,2.75,0,0,0,2.46.64,1.84,1.84,0,0,0,1.2-.74,1.05,1.05,0,0,0-.13-1.33.23.23,0,0,0-.12.36Z"/><path class="cls-3" d="M518.05,37.51a7.51,7.51,0,0,0-3-1.71,1.17,1.17,0,0,0-.55-.08,1.05,1.05,0,0,0-.78.68,2.24,2.24,0,0,0,.52,2.43,2.75,2.75,0,0,0,2.46.64,1.84,1.84,0,0,0,1.2-.74,1.05,1.05,0,0,0-.13-1.33.22.22,0,0,0-.12.36Z"/><path class="cls-3" d="M560,82.8a2,2,0,0,0-1.88-.32,2.1,2.1,0,0,0,.52,1.84,1.25,1.25,0,0,0,1.76,0c.41-.52,0-1.48-.66-1.42Z"/><path class="cls-3" d="M551.09,78.81a1,1,0,0,0-.87-.17,1.2,1.2,0,0,0,.13.39.37.37,0,0,0,.35.17c.19,0,.27-.26.31-.44l.08.14Z"/><path class="cls-3" d="M549.36,80.19a.46.46,0,0,0-.26,0,.49.49,0,0,0-.16.19,3.47,3.47,0,0,1-.37.57l1.11-.22h.09c.11,0,.13.16.2.24s.29,0,.42,0C551.31,80.33,549.82,80.28,549.36,80.19Z"/><path class="cls-3" d="M554.48,80.39a.53.53,0,0,1,.28,0,.78.78,0,0,1-.61.34c-.13,0-.29,0-.36-.09a.61.61,0,0,1,0-.27c0-.19-.23-.37-.12-.52a.23.23,0,0,1,.28-.06.66.66,0,0,1,.22.22l.42.56Z"/><path class="cls-3" d="M555.54,83.87c-.17-.09-.35.17-.26.35a.73.73,0,0,0,.48.29.68.68,0,0,0-.15-.74Z"/><path class="cls-3" d="M575,88.39a.89.89,0,0,0-.28,0,.25.25,0,0,0-.2.17c0,.16.14.27.19.42s0,.33,0,.46a.27.27,0,0,0,.4,0,.77.77,0,0,0,.1-.45.75.75,0,0,0-.09-.39.3.3,0,0,0-.36-.13Z"/><path class="cls-3" d="M551.54,82.85a.2.2,0,0,1,0,.25.36.36,0,0,1-.24.11.41.41,0,0,1-.16,0,.23.23,0,0,1-.09-.31.24.24,0,0,1,.33-.07.26.26,0,0,1,.09.32Z"/><path class="cls-3" d="M547.7,95.34a.18.18,0,0,1,0,.24.36.36,0,0,1-.24.11.41.41,0,0,1-.16,0,.24.24,0,0,1-.09-.32.25.25,0,0,1,.33-.07.28.28,0,0,1,.09.33Z"/><path class="cls-3" d="M551.67,81.64a.27.27,0,0,0-.32-.33.44.44,0,0,0,0,.3.22.22,0,0,0,.23.15c.1,0,.17-.15.11-.22Z"/><path class="cls-3" d="M552.6,77.4a.77.77,0,0,0-.58-.34c0,.19,0,.38,0,.57a.55.55,0,0,0,.06.26.29.29,0,0,0,.45,0,.41.41,0,0,0,.06-.48Z"/><path class="cls-3" d="M553.36,84.86a.36.36,0,0,1,.13.36.37.37,0,0,1-.29.26c-.09,0-.2,0-.2-.13a.25.25,0,0,1,0-.11l.27-.42.07.05Z"/><path class="cls-3" d="M550.55,86.35c0,.17.21.25.38.28s.35.09.41.25a.12.12,0,0,1,0,.13c-.07.09-.21,0-.33,0s-.18,0-.28,0a.55.55,0,0,1-.54-.32.32.32,0,0,1,.2-.27.31.31,0,0,1,.33.08Z"/><path class="cls-3" d="M549.34,87.5l-.12.15a.22.22,0,0,0,.26.13.19.19,0,0,0,.13-.24.16.16,0,0,0-.26-.06Z"/><path class="cls-3" d="M551.12,91.65l-.12.15a.26.26,0,0,0,.27.13.19.19,0,0,0,.12-.25.17.17,0,0,0-.26-.06Z"/><path class="cls-3" d="M551.72,80.24c.1.07.24,0,.27-.17s0-.25,0-.37a.44.44,0,0,1,.19-.33.23.23,0,0,1,.21,0,.21.21,0,0,1,.1.11,1.37,1.37,0,0,1,.24.69.64.64,0,0,1-.36.6.48.48,0,0,1-.49-.08.5.5,0,0,1-.17-.46Z"/><path class="cls-3" d="M549.59,77.65a.3.3,0,0,0-.42,0,.46.46,0,0,0-.13.43c0,.07.07.14.13.14a.25.25,0,0,0,.12-.08l.35-.46Z"/><path class="cls-3" d="M557.22,81.72a.51.51,0,0,1-.35.73,1.26,1.26,0,0,1-.14-.71c0-.24.3-.46.53-.37l.2.38Z"/><path class="cls-3" d="M552,88.08c.06,0,.15,0,.18.07a.41.41,0,0,1,0,.22.46.46,0,0,1-.09.15.27.27,0,0,1-.32,0,.33.33,0,0,1-.12-.31.21.21,0,0,1,.07-.15.12.12,0,0,1,.16,0Z"/><path class="cls-3" d="M550,82.2h-.2a.41.41,0,0,0,0,.31c0,.08.21.1.25,0a.25.25,0,0,0,0-.12L550,82Z"/><path class="cls-3" d="M577.64,47.37a2,2,0,0,0-1.88-.32,2.1,2.1,0,0,0,.52,1.84,1.25,1.25,0,0,0,1.76,0c.41-.52,0-1.48-.66-1.42Z"/><path class="cls-3" d="M565.49,66.91a.39.39,0,0,0-.26,0,.37.37,0,0,0-.15.19,3.67,3.67,0,0,1-.38.56l1.12-.21a.14.14,0,0,1,.09,0c.1,0,.12.16.19.24s.3,0,.43,0C567.44,67.05,566,67,565.49,66.91Z"/><path class="cls-3" d="M571.68,70.58c-.18-.09-.35.18-.27.35a.7.7,0,0,0,.49.3.68.68,0,0,0-.16-.74Z"/><path class="cls-3" d="M567.67,69.57a.16.16,0,0,1,0,.24.28.28,0,0,1-.24.11.3.3,0,0,1-.16,0,.23.23,0,0,1-.08-.32.25.25,0,0,1,.32-.07.26.26,0,0,1,.09.33Z"/><path class="cls-3" d="M563.83,82.06a.16.16,0,0,1,0,.24.34.34,0,0,1-.24.11.3.3,0,0,1-.16,0,.22.22,0,0,1-.08-.31.23.23,0,0,1,.32-.07.24.24,0,0,1,.09.32Z"/><path class="cls-3" d="M567.81,68.36a.27.27,0,0,0-.33-.33.48.48,0,0,0,0,.29.25.25,0,0,0,.24.16.16.16,0,0,0,.1-.23Z"/><path class="cls-3" d="M569.49,71.58a.36.36,0,0,1,.13.36.34.34,0,0,1-.28.25c-.09,0-.21,0-.21-.12a.21.21,0,0,1,0-.11l.28-.43.06.06Z"/><path class="cls-3" d="M566.68,73.07c0,.17.22.25.38.28s.36.09.41.24a.15.15,0,0,1,0,.13c-.07.1-.22,0-.33,0a.86.86,0,0,0-.28,0,.55.55,0,0,1-.54-.32.29.29,0,0,1,.2-.27.33.33,0,0,1,.33.07Z"/><path class="cls-3" d="M565.47,74.22l-.12.15a.23.23,0,0,0,.26.13.2.2,0,0,0,.13-.25.17.17,0,0,0-.26,0Z"/><path class="cls-3" d="M567.26,78.36l-.12.15a.22.22,0,0,0,.26.13.19.19,0,0,0,.13-.24.16.16,0,0,0-.26-.06Z"/><path class="cls-3" d="M567.85,67c.1.08.25,0,.27-.16a2.44,2.44,0,0,0,0-.38.45.45,0,0,1,.19-.32.21.21,0,0,1,.21,0,.29.29,0,0,1,.11.11,1.32,1.32,0,0,1,.23.69.64.64,0,0,1-.36.6.49.49,0,0,1-.48-.08.48.48,0,0,1-.17-.46Z"/><path class="cls-3" d="M568.11,74.8a.13.13,0,0,1,.18.07.3.3,0,0,1,0,.21.48.48,0,0,1-.08.16.26.26,0,0,1-.32,0,.32.32,0,0,1-.13-.3.2.2,0,0,1,.08-.15.12.12,0,0,1,.15,0Z"/><path class="cls-3" d="M566.13,68.92h-.2a.44.44,0,0,0,0,.3c.06.09.22.1.25,0a.22.22,0,0,0,0-.11c0-.12-.05-.24-.08-.36Z"/><path class="cls-3" d="M568.82,31.94a2,2,0,0,0-1.87-.32,2.06,2.06,0,0,0,.51,1.84,1.27,1.27,0,0,0,1.77,0c.41-.52,0-1.48-.66-1.42Z"/><path class="cls-3" d="M530,57.47a2,2,0,0,0-1.88-.32,2.08,2.08,0,0,0,.52,1.83,1.24,1.24,0,0,0,1.76,0c.41-.52,0-1.47-.66-1.41Z"/><path class="cls-3" d="M558.18,29.33a.46.46,0,0,0-.26,0,.41.41,0,0,0-.15.19,4.35,4.35,0,0,1-.38.57l1.12-.22h.09c.1,0,.12.16.19.24s.3.05.43,0C560.13,29.47,558.64,29.42,558.18,29.33Z"/><path class="cls-3" d="M598.28,26.23c-.17-.1-.35.17-.26.35a.69.69,0,0,0,.48.29.69.69,0,0,0-.15-.74Z"/><path class="cls-3" d="M560.36,32a.18.18,0,0,1,0,.25.34.34,0,0,1-.24.11.45.45,0,0,1-.16,0,.22.22,0,0,1-.08-.31.23.23,0,0,1,.32-.07.24.24,0,0,1,.09.32Z"/><path class="cls-3" d="M556.52,44.48a.17.17,0,0,1,0,.24.34.34,0,0,1-.24.11.44.44,0,0,1-.16,0,.23.23,0,0,1-.08-.32.24.24,0,0,1,.32-.07.26.26,0,0,1,.09.33Z"/><path class="cls-3" d="M560.5,30.78a.27.27,0,0,0-.33-.33.51.51,0,0,0,0,.3.23.23,0,0,0,.23.15c.1,0,.17-.15.11-.22Z"/><path class="cls-3" d="M562.18,34a.35.35,0,0,1-.15.62c-.09,0-.21,0-.21-.13a.25.25,0,0,1,0-.11l.28-.42.06,0Z"/><path class="cls-3" d="M559.37,35.49c0,.17.22.25.38.28s.36.09.41.25a.12.12,0,0,1,0,.13c-.06.09-.21,0-.32,0a2.46,2.46,0,0,0-.28,0,.56.56,0,0,1-.55-.32.31.31,0,0,1,.21-.27.32.32,0,0,1,.33.08Z"/><path class="cls-3" d="M558.16,36.64l-.12.15a.22.22,0,0,0,.26.13.19.19,0,0,0,.13-.24.16.16,0,0,0-.26-.06Z"/><path class="cls-3" d="M560,40.79l-.12.15a.25.25,0,0,0,.26.13.2.2,0,0,0,.13-.25.17.17,0,0,0-.26-.06Z"/><path class="cls-3" d="M599,32.52c.1.07.25,0,.27-.17a2.29,2.29,0,0,0,0-.37.53.53,0,0,1,.19-.33.23.23,0,0,1,.21,0,.38.38,0,0,1,.11.11,1.36,1.36,0,0,1,.23.7.62.62,0,0,1-.36.6.49.49,0,0,1-.48-.08.5.5,0,0,1-.17-.47Z"/><path class="cls-3" d="M560.8,37.22a.14.14,0,0,1,.18.07.33.33,0,0,1,0,.22.44.44,0,0,1-.08.15.27.27,0,0,1-.32,0,.31.31,0,0,1-.13-.31.22.22,0,0,1,.08-.15.11.11,0,0,1,.15,0Z"/><path class="cls-3" d="M498,9.43c.06,0,.14,0,.17.08a.26.26,0,0,1,0,.21.44.44,0,0,1-.08.15.26.26,0,0,1-.32,0,.33.33,0,0,1-.13-.31.2.2,0,0,1,.08-.14.11.11,0,0,1,.15,0Z"/><path class="cls-3" d="M558.82,31.34h-.2a.46.46,0,0,0,0,.31c.06.08.22.09.25,0a.25.25,0,0,0,0-.12l-.08-.36Z"/><path class="cls-3" d="M549.7,74.93a1.36,1.36,0,0,0-.47-.15.43.43,0,0,0-.41.23.39.39,0,0,0,0,.24.45.45,0,1,0,.85-.31Z"/><path class="cls-3" d="M561.63,82.86l-.33,0a.57.57,0,0,0,0,.26.32.32,0,0,0,.37-.25Z"/><path class="cls-3" d="M695,116.51a2,2,0,0,0-1.87-.32,2.06,2.06,0,0,0,.51,1.84,1.26,1.26,0,0,0,1.77,0c.4-.52,0-1.48-.67-1.42Z"/><path class="cls-3" d="M686.12,112.52a1,1,0,0,0-.88-.17,1.2,1.2,0,0,0,.13.39.36.36,0,0,0,.36.17c.18,0,.26-.26.31-.44l.08.14Z"/><path class="cls-3" d="M646.82,88.26a1,1,0,0,0-.87-.17.86.86,0,0,0,.13.39.35.35,0,0,0,.35.17c.18,0,.26-.26.31-.44l.08.14Z"/><path class="cls-3" d="M684.38,113.9a.46.46,0,0,0-.26,0,.47.47,0,0,0-.15.19,4.35,4.35,0,0,1-.38.57l1.11-.22h.09c.11,0,.13.17.2.24s.3,0,.42,0C686.33,114.05,684.84,114,684.38,113.9Z"/><path class="cls-3" d="M689.5,114.1a.53.53,0,0,1,.28,0,.76.76,0,0,1-.6.34c-.14,0-.3,0-.37-.09s0-.18,0-.27-.23-.37-.12-.52a.23.23,0,0,1,.28-.06.8.8,0,0,1,.23.22c.13.19.27.37.41.56Z"/><path class="cls-3" d="M690.56,117.58c-.17-.09-.34.18-.26.35a.73.73,0,0,0,.48.29.66.66,0,0,0-.15-.74Z"/><path class="cls-3" d="M686.56,116.56a.19.19,0,0,1,0,.25.36.36,0,0,1-.24.11.3.3,0,0,1-.16,0,.22.22,0,0,1-.08-.31.23.23,0,0,1,.32-.07.24.24,0,0,1,.09.32Z"/><path class="cls-3" d="M686.7,115.35a.27.27,0,0,0-.33-.33.51.51,0,0,0,0,.3.22.22,0,0,0,.23.15.15.15,0,0,0,.11-.22Z"/><path class="cls-3" d="M633,87.43a.28.28,0,0,0-.33-.33.51.51,0,0,0,0,.3.22.22,0,0,0,.23.15.15.15,0,0,0,.11-.22Z"/><path class="cls-3" d="M687.62,111.11a.76.76,0,0,0-.58-.33c0,.19,0,.38,0,.57a.47.47,0,0,0,.05.26.31.31,0,0,0,.46,0,.42.42,0,0,0,0-.48Z"/><path class="cls-3" d="M688.38,118.57a.36.36,0,0,1,.13.36.37.37,0,0,1-.28.26c-.09,0-.21,0-.21-.13a.18.18,0,0,1,0-.1l.28-.43.06,0Z"/><path class="cls-3" d="M685.57,120.06c0,.17.22.25.38.28s.35.09.41.25a.12.12,0,0,1,0,.13c-.06.09-.21,0-.33,0a1.41,1.41,0,0,0-.28,0,.57.57,0,0,1-.54-.33.31.31,0,0,1,.21-.27.32.32,0,0,1,.33.08Z"/><path class="cls-3" d="M684.36,121.22l-.12.15a.25.25,0,0,0,.26.13.2.2,0,0,0,.13-.25.17.17,0,0,0-.26-.06Z"/><path class="cls-3" d="M686.15,125.36l-.12.15a.23.23,0,0,0,.26.13.2.2,0,0,0,.13-.25.17.17,0,0,0-.27,0Z"/><path class="cls-3" d="M686.74,114c.1.07.25,0,.27-.17s0-.25,0-.37a.44.44,0,0,1,.19-.33.23.23,0,0,1,.21,0,.21.21,0,0,1,.1.11,1.37,1.37,0,0,1,.24.7.63.63,0,0,1-.36.59.49.49,0,0,1-.49-.07.52.52,0,0,1-.17-.47Z"/><path class="cls-3" d="M684.61,111.36a.3.3,0,0,0-.42,0,.43.43,0,0,0-.12.43.15.15,0,0,0,.13.14s.08,0,.11-.08l.36-.46Z"/><path class="cls-3" d="M692.24,115.43a.5.5,0,0,1-.35.73,1.26,1.26,0,0,1-.14-.71c0-.24.3-.46.53-.37l.2.38Z"/><path class="cls-3" d="M687,121.79c.06,0,.15,0,.18.07a.4.4,0,0,1-.1.37.27.27,0,0,1-.32,0,.33.33,0,0,1-.12-.31.3.3,0,0,1,.07-.15.12.12,0,0,1,.16,0Z"/><path class="cls-3" d="M685,115.91h-.2a.41.41,0,0,0,0,.31c0,.08.21.1.25,0a.25.25,0,0,0,0-.12l-.08-.36Z"/><path class="cls-3" d="M684.72,108.64a1.36,1.36,0,0,0-.47-.15.42.42,0,0,0-.4.23.4.4,0,0,0,0,.24.48.48,0,0,0,.6.3.49.49,0,0,0,.26-.61Z"/><path class="cls-3" d="M696.66,116.57l-.34.05a1.09,1.09,0,0,0,0,.26.32.32,0,0,0,.37-.25Z"/><path class="cls-3" d="M590.52,89.48a7.62,7.62,0,0,0-3-1.72,1.29,1.29,0,0,0-.55-.07,1.05,1.05,0,0,0-.77.68,2.2,2.2,0,0,0,.52,2.42,2.71,2.71,0,0,0,2.46.65,1.85,1.85,0,0,0,1.2-.75,1,1,0,0,0-.14-1.32.22.22,0,0,0-.11.36Z"/><path class="cls-3" d="M596.6,55a2,2,0,0,0-1.88-.31,2.08,2.08,0,0,0,.52,1.83,1.25,1.25,0,0,0,1.76,0c.41-.52,0-1.48-.66-1.42Z"/><path class="cls-3" d="M618.49,30.64a2,2,0,0,0-1.88-.32,2.08,2.08,0,0,0,.52,1.83,1.25,1.25,0,0,0,1.76,0c.41-.52,0-1.48-.66-1.41Z"/><path class="cls-3" d="M587.69,51a1,1,0,0,0-.87-.17,1,1,0,0,0,.13.39.35.35,0,0,0,.35.17c.19,0,.26-.25.31-.44l.08.14Z"/><path class="cls-3" d="M586,52.39a.43.43,0,0,0-.25,0,.49.49,0,0,0-.16.19,3.53,3.53,0,0,1-.38.57l1.12-.22h.09c.1,0,.12.16.2.23s.29,0,.42,0C587.91,52.54,586.41,52.49,586,52.39Z"/><path class="cls-3" d="M581.55,46.5l-.33,0a.54.54,0,0,0,.44.45c.22,0,.43-.25.31-.44s-.23-.27-.11-.34Z"/><path class="cls-3" d="M591.08,52.59a.53.53,0,0,1,.28,0,.78.78,0,0,1-.61.34c-.13,0-.29,0-.36-.09a.61.61,0,0,1,0-.27c0-.18-.23-.37-.13-.52a.23.23,0,0,1,.29,0,.63.63,0,0,1,.22.21l.42.56Z"/><path class="cls-3" d="M592.14,56.07c-.17-.09-.35.18-.26.35a.71.71,0,0,0,.48.29.68.68,0,0,0-.15-.74Z"/><path class="cls-3" d="M588.14,55.06a.18.18,0,0,1,0,.24.36.36,0,0,1-.24.11.29.29,0,0,1-.16,0,.23.23,0,0,1-.09-.31A.24.24,0,0,1,588,55a.26.26,0,0,1,.09.32Z"/><path class="cls-3" d="M588.27,53.84a.27.27,0,0,0-.33-.33.51.51,0,0,0,0,.3.22.22,0,0,0,.23.15.15.15,0,0,0,.11-.22Z"/><path class="cls-3" d="M583.15,41.77a.28.28,0,0,0-.33-.33.51.51,0,0,0,0,.3.24.24,0,0,0,.23.16.16.16,0,0,0,.11-.23Z"/><path class="cls-3" d="M589.2,49.6a.76.76,0,0,0-.58-.33c0,.19,0,.38,0,.57a.48.48,0,0,0,.06.26.3.3,0,0,0,.45,0,.41.41,0,0,0,.05-.49Z"/><path class="cls-3" d="M590,57.06a.35.35,0,0,1,.12.36.34.34,0,0,1-.28.26c-.09,0-.2,0-.2-.13a.18.18,0,0,1,0-.1l.27-.43.07.06Z"/><path class="cls-3" d="M589.43,59.66c-.13.1-.08.31,0,.46s.12.35,0,.48a.15.15,0,0,1-.12.07c-.12,0-.13-.17-.18-.27a1,1,0,0,0-.18-.22.56.56,0,0,1,0-.63.32.32,0,0,1,.34,0,.36.36,0,0,1,.12.32Z"/><path class="cls-3" d="M619.32,57.06c-.13.11-.08.31,0,.47a.54.54,0,0,1,0,.48.17.17,0,0,1-.12.06c-.12,0-.13-.16-.18-.27a1.74,1.74,0,0,0-.18-.22.56.56,0,0,1,0-.63.32.32,0,0,1,.34,0,.35.35,0,0,1,.12.32Z"/><path class="cls-3" d="M587.8,59.29l-.19,0a.23.23,0,0,0,0,.29.19.19,0,0,0,.28,0,.16.16,0,0,0-.1-.24Z"/><path class="cls-3" d="M585.35,63.08l-.19,0a.24.24,0,0,0,0,.29.19.19,0,0,0,.28,0,.16.16,0,0,0-.1-.24Z"/><path class="cls-3" d="M588.32,52.44c.1.07.24,0,.27-.17s0-.25,0-.37a.45.45,0,0,1,.19-.33.23.23,0,0,1,.21,0,.52.52,0,0,1,.1.11,1.37,1.37,0,0,1,.24.7.65.65,0,0,1-.36.6.51.51,0,0,1-.49-.08.52.52,0,0,1-.17-.47Z"/><path class="cls-3" d="M586.19,49.85a.3.3,0,0,0-.42,0,.46.46,0,0,0-.13.43c0,.07.06.14.13.14a.13.13,0,0,0,.11-.08l.36-.45Z"/><path class="cls-3" d="M593.82,53.92a.52.52,0,0,1-.35.74,1.42,1.42,0,0,1-.15-.72c0-.24.31-.46.54-.37l.2.38Z"/><path class="cls-3" d="M588.79,61.8a.13.13,0,0,1,0,.19.31.31,0,0,1-.18.11.37.37,0,0,1-.18,0,.27.27,0,0,1-.19-.26.31.31,0,0,1,.19-.27.18.18,0,0,1,.16,0,.11.11,0,0,1,.07.13Z"/><path class="cls-3" d="M586.6,54.4h-.2a.44.44,0,0,0,0,.3c.06.08.22.1.25,0a.17.17,0,0,0,0-.12l-.09-.36Z"/><path class="cls-3" d="M586.29,47.13a1.07,1.07,0,0,0-.46-.14.41.41,0,0,0-.41.22.33.33,0,0,0,0,.24.45.45,0,1,0,.85-.31Z"/><path class="cls-3" d="M598.23,55.07l-.33,0a.54.54,0,0,0,0,.25.32.32,0,0,0,.37-.24Z"/><path class="cls-3" d="M590,65.15a2,2,0,0,0-1.88-.32,2.06,2.06,0,0,0,.52,1.83,1.24,1.24,0,0,0,1.76,0c.41-.52,0-1.47-.66-1.41Z"/><path class="cls-3" d="M547.71,41.46a.45.45,0,0,1,.28,0c-.1.22-.37.29-.61.34s-.29,0-.36-.09a.64.64,0,0,1,0-.28c0-.18-.23-.36-.12-.52a.24.24,0,0,1,.28,0,.8.8,0,0,1,.23.22l.41.55Z"/><path class="cls-3" d="M486.74,10a.46.46,0,0,0-.26,0,.47.47,0,0,0-.15.19,4.35,4.35,0,0,1-.38.57l1.12-.22h.09c.1,0,.12.16.19.23s.3,0,.43,0C488.69,10.1,487.2,10.05,486.74,10Z"/><path class="cls-3" d="M488.92,12.62a.17.17,0,0,1,0,.24.34.34,0,0,1-.24.11.3.3,0,0,1-.16,0,.22.22,0,0,1-.08-.31.23.23,0,0,1,.32-.07.25.25,0,0,1,.09.33Z"/><path class="cls-3" d="M485.08,25.1a.17.17,0,0,1,0,.24.29.29,0,0,1-.24.11.3.3,0,0,1-.16,0,.23.23,0,0,1-.08-.32.25.25,0,0,1,.32-.07.26.26,0,0,1,.09.33Z"/><path class="cls-3" d="M489.06,11.4a.28.28,0,0,0-.33-.33.51.51,0,0,0,0,.3.22.22,0,0,0,.23.15.15.15,0,0,0,.11-.22Z"/><path class="cls-3" d="M487.93,16.12c0,.16.22.24.38.28s.36.08.41.24a.12.12,0,0,1,0,.13c-.06.1-.21,0-.33,0a1.24,1.24,0,0,0-.27,0,.58.58,0,0,1-.55-.33.32.32,0,0,1,.21-.27.32.32,0,0,1,.33.08Z"/><path class="cls-3" d="M486.72,17.27l-.12.15a.25.25,0,0,0,.26.13.2.2,0,0,0,.13-.25.16.16,0,0,0-.26-.05Z"/><path class="cls-3" d="M488.51,21.41l-.12.15a.22.22,0,0,0,.26.13.2.2,0,0,0,.13-.25.16.16,0,0,0-.26-.05Z"/><path class="cls-3" d="M489.36,17.84a.13.13,0,0,1,.18.08.31.31,0,0,1,0,.21.44.44,0,0,1-.08.15.26.26,0,0,1-.32,0A.31.31,0,0,1,489,18a.2.2,0,0,1,.08-.14.1.1,0,0,1,.15,0Z"/><path class="cls-3" d="M487.38,12h-.2a.44.44,0,0,0,0,.3c.06.08.22.1.25,0a.25.25,0,0,0,0-.12l-.08-.36Z"/><path class="cls-3" d="M476.27,22.08a.53.53,0,0,1,.28,0,.76.76,0,0,1-.61.34c-.13,0-.29,0-.36-.09a.61.61,0,0,1,0-.27c0-.19-.23-.37-.12-.52a.23.23,0,0,1,.28-.06.8.8,0,0,1,.23.22l.41.56Z"/><path class="cls-3" d="M572.35,52.13c-.17-.09-.35.18-.27.35a.74.74,0,0,0,.49.3.69.69,0,0,0-.15-.74Z"/><path class="cls-3" d="M581.49,65.2a.16.16,0,0,1,0,.24.28.28,0,0,1-.24.11.26.26,0,0,1-.15,0,.23.23,0,0,1-.09-.32.26.26,0,0,1,.33-.07.28.28,0,0,1,.09.33Z"/><path class="cls-3" d="M583.32,67.21a.37.37,0,0,1,.12.36.34.34,0,0,1-.28.25c-.09,0-.21,0-.21-.12s0-.07,0-.11l.27-.43.07.06Z"/><path class="cls-3" d="M617,60.51c-.12.11-.08.32,0,.47s.13.34,0,.48a.15.15,0,0,1-.12.07c-.11,0-.13-.17-.18-.28a1.18,1.18,0,0,0-.18-.21.56.56,0,0,1,0-.63.32.32,0,0,1,.34,0,.35.35,0,0,1,.12.32Z"/><path class="cls-3" d="M581.16,69.44l-.2,0a.24.24,0,0,0,0,.29.19.19,0,0,0,.28,0,.17.17,0,0,0-.1-.25Z"/><path class="cls-3" d="M578.71,73.23l-.19,0a.24.24,0,0,0,0,.29.19.19,0,0,0,.28,0,.17.17,0,0,0-.1-.25Z"/><path class="cls-3" d="M587.18,64.07a.51.51,0,0,1-.35.73,1.29,1.29,0,0,1-.15-.71c.05-.25.3-.46.53-.37l.21.38Z"/><path class="cls-3" d="M582.15,72a.13.13,0,0,1,0,.19.31.31,0,0,1-.18.11.55.55,0,0,1-.18,0,.26.26,0,0,1-.19-.25.33.33,0,0,1,.18-.28.25.25,0,0,1,.17,0,.12.12,0,0,1,.07.14Z"/><path class="cls-3" d="M591.59,65.21l-.33.05a.58.58,0,0,0,0,.26.33.33,0,0,0,.37-.25Z"/><path class="cls-3" d="M576.52,65.71l-.33.05a.54.54,0,0,0,0,.25.32.32,0,0,0,.37-.24Z"/><path class="cls-3" d="M618.63,151.33a7.51,7.51,0,0,0,3.43.21,1.38,1.38,0,0,0,.53-.17,1.07,1.07,0,0,0,.39-1,2.2,2.2,0,0,0-1.55-1.94A2.75,2.75,0,0,0,619,149a1.85,1.85,0,0,0-.75,1.2,1,1,0,0,0,.71,1.12.22.22,0,0,0-.06-.37Z"/><path class="cls-3" d="M616.54,134a.36.36,0,0,0,.25,0,.42.42,0,0,0,.16-.19,3.52,3.52,0,0,1,.39-.56l-1.12.2a.27.27,0,0,1-.09,0c-.1,0-.12-.16-.19-.24s-.3-.05-.43,0C614.59,133.82,616.08,133.9,616.54,134Z"/><path class="cls-3" d="M588.18,168.19a.18.18,0,0,1,.05-.24.3.3,0,0,1,.26,0,.34.34,0,0,1,.15.06.23.23,0,1,1-.34.3.26.26,0,0,1,0-.34Z"/><path class="cls-3" d="M634.88,128.07c-.07-.1-.25,0-.31.08s-.05.25-.1.36a.46.46,0,0,1-.27.26.24.24,0,0,1-.22,0,.2.2,0,0,1-.06-.13,1.3,1.3,0,0,1,0-.73.64.64,0,0,1,.52-.47.48.48,0,0,1,.47.71Z"/><path class="cls-3" d="M581.25,194.05c-.07-.1-.24,0-.3.08s-.06.25-.11.36a.46.46,0,0,1-.27.26.25.25,0,0,1-.22,0,.26.26,0,0,1-.06-.13,1.43,1.43,0,0,1,0-.74.66.66,0,0,1,.53-.46.5.5,0,0,1,.44.22.5.5,0,0,1,0,.49Z"/><path class="cls-3" d="M592.93,192.13a1.18,1.18,0,0,0,.4.27.41.41,0,0,0,.46-.1.35.35,0,0,0,.07-.23.46.46,0,1,0-.91.05Z"/><path class="cls-3" d="M626.4,146.53a7.62,7.62,0,0,0,2.34,2.52,1.34,1.34,0,0,0,.5.23,1.05,1.05,0,0,0,.94-.42,2.23,2.23,0,0,0,.22-2.47,2.74,2.74,0,0,0-2.16-1.34,1.85,1.85,0,0,0-1.37.36,1,1,0,0,0-.26,1.3.22.22,0,0,0,.21-.31Z"/><path class="cls-3" d="M298.06,39.59a7.73,7.73,0,0,0,2.34,2.52,1.42,1.42,0,0,0,.5.23,1.09,1.09,0,0,0,1-.42,2.21,2.21,0,0,0,.21-2.47,2.72,2.72,0,0,0-2.16-1.34,1.84,1.84,0,0,0-1.37.35,1.07,1.07,0,0,0-.26,1.31.22.22,0,0,0,.22-.31Z"/><path class="cls-3" d="M642.58,117.35a.6.6,0,0,0,.26.11.22.22,0,0,0,.24-.1c.07-.14-.06-.3-.06-.46s.14-.3.09-.45-.27-.17-.39-.09a.68.68,0,0,0-.23.4.69.69,0,0,0,0,.4.29.29,0,0,0,.3.23Z"/><path class="cls-3" d="M628,155.78a2,2,0,0,0,1.7.85,2.06,2.06,0,0,0,.05-1.9,1.25,1.25,0,0,0-1.7-.49.9.9,0,0,0,.22,1.55Z"/><path class="cls-3" d="M586,162.82a.28.28,0,0,0,.22.41.43.43,0,0,0,.09-.28.22.22,0,0,0-.17-.22c-.1,0-.21.09-.17.18Z"/><path class="cls-3" d="M628.06,111.74a7.53,7.53,0,0,0,2.34,2.52,1.45,1.45,0,0,0,.5.24,1.08,1.08,0,0,0,.94-.43,2.23,2.23,0,0,0,.22-2.47,2.77,2.77,0,0,0-2.16-1.34,1.85,1.85,0,0,0-1.37.36,1,1,0,0,0-.26,1.3.22.22,0,0,0,.21-.31Z"/><path class="cls-3" d="M685.37,21.78a7.53,7.53,0,0,0,2.34,2.52,1.28,1.28,0,0,0,.5.24,1.09,1.09,0,0,0,.95-.42,2.22,2.22,0,0,0,.21-2.48,2.77,2.77,0,0,0-2.16-1.34,1.89,1.89,0,0,0-1.37.36,1.07,1.07,0,0,0-.26,1.31.23.23,0,0,0,.22-.31Z"/><path class="cls-3" d="M612.11,142.91a1.93,1.93,0,0,0,1.7.85,2.06,2.06,0,0,0,0-1.9,1.24,1.24,0,0,0-1.69-.49.9.9,0,0,0,.21,1.55Z"/><path class="cls-3" d="M619.44,149.34a1,1,0,0,0,.79.42,1.13,1.13,0,0,0,0-.41.35.35,0,0,0-.29-.26c-.19,0-.32.16-.42.32l0-.15Z"/><path class="cls-3" d="M621.51,148.53a.38.38,0,0,0,.25.07c.08,0,.14-.08.2-.13a4.42,4.42,0,0,1,.53-.44l-1.13-.12a.15.15,0,0,1-.09,0c-.09,0-.07-.19-.12-.28s-.26-.14-.41-.09C619.69,147.82,621.1,148.31,621.51,148.53Z"/><path class="cls-3" d="M616.67,146.84a.53.53,0,0,1-.27-.08.77.77,0,0,1,.68-.14c.13,0,.29.06.33.19s0,.18,0,.27.11.42,0,.54a.24.24,0,0,1-.29,0,.56.56,0,0,1-.15-.27c-.08-.22-.16-.44-.23-.65Z"/><path class="cls-3" d="M616.68,143.2c.14.14.39-.07.35-.26s-.21-.31-.37-.42a.69.69,0,0,0-.07.75Z"/><path class="cls-3" d="M620.21,145.35a.18.18,0,0,1,0-.24.35.35,0,0,1,.26,0,.52.52,0,0,1,.15.07.24.24,0,0,1,0,.33.25.25,0,0,1-.34,0,.27.27,0,0,1,0-.34Z"/><path class="cls-3" d="M619.72,146.47a.27.27,0,0,0,.22.41.49.49,0,0,0,.09-.28.22.22,0,0,0-.17-.22c-.1,0-.21.09-.17.18Z"/><path class="cls-3" d="M617.59,150.25a.77.77,0,0,0,.46.49l.15-.55a.63.63,0,0,0,0-.27.32.32,0,0,0-.43-.16.42.42,0,0,0-.2.45Z"/><path class="cls-3" d="M619.06,142.89a.35.35,0,0,1,0-.38.37.37,0,0,1,.35-.16c.09,0,.19.09.16.18s0,.06-.07.09l-.39.33-.05-.08Z"/><path class="cls-3" d="M620.33,140.57c.15-.07.17-.27.16-.44s0-.37.11-.47a.18.18,0,0,1,.13,0c.11,0,.08.2.09.32a1.45,1.45,0,0,0,.11.26.56.56,0,0,1-.15.61.31.31,0,0,1-.32-.12.29.29,0,0,1,0-.33Z"/><path class="cls-3" d="M590.19,195.87c.15-.07.18-.27.16-.44s0-.37.11-.47a.21.21,0,0,1,.13,0c.12,0,.08.2.1.32a1.39,1.39,0,0,0,.1.26.54.54,0,0,1-.15.61.33.33,0,0,1-.32-.11.32.32,0,0,1,0-.34Z"/><path class="cls-3" d="M621.78,141.4l.18.07a.24.24,0,0,0,0-.29.2.2,0,0,0-.28-.05.17.17,0,0,0,0,.27Z"/><path class="cls-3" d="M625.23,138.49l.18.08a.24.24,0,0,0,.05-.29.2.2,0,0,0-.28-.05.16.16,0,0,0,0,.26Z"/><path class="cls-3" d="M619.27,147.8c-.08-.11-.25,0-.31.07s-.05.25-.1.36a.45.45,0,0,1-.28.26.22.22,0,0,1-.21,0,.37.37,0,0,1-.07-.14,1.39,1.39,0,0,1,0-.73.63.63,0,0,1,.52-.47.51.51,0,0,1,.44.22.48.48,0,0,1,0,.49Z"/><path class="cls-3" d="M620.54,150.9a.32.32,0,0,0,.4.15.46.46,0,0,0,.24-.38c0-.07,0-.15-.08-.17a.15.15,0,0,0-.13.05l-.48.32Z"/><path class="cls-3" d="M614.44,144.76a.52.52,0,0,1,.55-.6,1.21,1.21,0,0,1-.07.73.43.43,0,0,1-.61.19l-.09-.42Z"/><path class="cls-3" d="M621.56,138.7a.13.13,0,0,1,0-.19.33.33,0,0,1,.2,0,.33.33,0,0,1,.17,0,.25.25,0,0,1,.11.3.32.32,0,0,1-.25.21.25.25,0,0,1-.17,0,.13.13,0,0,1,0-.15Z"/><path class="cls-3" d="M621.49,146.42l.19.07a.46.46,0,0,0,.06-.3c0-.1-.18-.16-.24-.07a.35.35,0,0,0,0,.11c0,.12,0,.25,0,.37Z"/><path class="cls-3" d="M610.56,142.37l.33,0a.56.56,0,0,0,.05-.25.3.3,0,0,0-.42.12Z"/><path class="cls-3" d="M621.44,135.16a2,2,0,0,0,1.7.86,2.06,2.06,0,0,0,0-1.9,1.24,1.24,0,0,0-1.69-.49c-.54.37-.43,1.41.21,1.54Z"/><path class="cls-3" d="M629.54,137.6a.19.19,0,0,1,.05-.24.36.36,0,0,1,.27,0,.27.27,0,0,1,.14.07.24.24,0,0,1,0,.33.25.25,0,0,1-.33,0,.26.26,0,0,1,0-.34Z"/><path class="cls-3" d="M628.39,135.15a.35.35,0,0,1,0-.38.34.34,0,0,1,.34-.16c.09,0,.19.09.16.18a.28.28,0,0,1-.07.09l-.39.33,0-.08Z"/><path class="cls-3" d="M593.38,193.24c.16-.07.18-.27.17-.44s0-.37.11-.47a.18.18,0,0,1,.13,0c.11,0,.08.2.09.32a1.45,1.45,0,0,0,.11.26.56.56,0,0,1-.16.61.31.31,0,0,1-.31-.11.32.32,0,0,1,0-.34Z"/><path class="cls-3" d="M631.11,133.66l.18.07a.24.24,0,0,0,.05-.29.2.2,0,0,0-.28-.05.16.16,0,0,0,0,.26Z"/><path class="cls-3" d="M634.56,130.75l.18.07a.23.23,0,0,0,0-.28.21.21,0,0,0-.28-.06.17.17,0,0,0,0,.27Z"/><path class="cls-3" d="M623.78,137a.5.5,0,0,1,.55-.59,1.35,1.35,0,0,1-.07.72.45.45,0,0,1-.62.2l-.09-.42Z"/><path class="cls-3" d="M630.9,131a.12.12,0,0,1,0-.19.28.28,0,0,1,.2-.05.57.57,0,0,1,.18,0,.29.29,0,0,1,.11.31.34.34,0,0,1-.26.2.18.18,0,0,1-.16,0,.11.11,0,0,1,0-.15Z"/><path class="cls-3" d="M619.9,134.62l.33,0a.53.53,0,0,0,0-.25.31.31,0,0,0-.42.13Z"/><path class="cls-3" d="M634.45,138.58l.33,0a.53.53,0,0,0,0-.25.31.31,0,0,0-.42.13Z"/><path class="cls-3" d="M690.44,31.59a1.21,1.21,0,0,1,1.12.15.23.23,0,0,1,.09.11.22.22,0,0,1-.08.2c-.27.34-.67.72-1.08.58a.57.57,0,0,1-.17-.92l.36.08Z"/><path class="cls-3" d="M16.31,75a7.59,7.59,0,0,0,3-1.61,1.48,1.48,0,0,0,.36-.43,1.08,1.08,0,0,0-.16-1,2.22,2.22,0,0,0-2.34-.84,2.75,2.75,0,0,0-1.85,1.74,1.86,1.86,0,0,0,0,1.41,1,1,0,0,0,1.19.59.23.23,0,0,0-.25-.29Z"/><path class="cls-3" d="M78.28,21.8a7.69,7.69,0,0,0,1.09-3.26,1.27,1.27,0,0,0,0-.55,1.11,1.11,0,0,0-.83-.63,2.21,2.21,0,0,0-2.27,1,2.75,2.75,0,0,0-.14,2.54,1.85,1.85,0,0,0,1,1,1,1,0,0,0,1.27-.4.23.23,0,0,0-.38,0Z"/><path class="cls-3" d="M11.76,72.55A2,2,0,0,0,13,71.13a2.06,2.06,0,0,0-1.83-.54,1.24,1.24,0,0,0-.9,1.51.9.9,0,0,0,1.55.19Z"/><path class="cls-3" d="M19.1,78.15a2.38,2.38,0,0,0,.39-.55.19.19,0,0,0,0-.07.13.13,0,0,0-.06-.07c-.19-.12-.52,0-.65-.16,0,0,0-.08-.07-.1s-.13,0-.15.12a.61.61,0,0,0,.57.75l-.08.07Z"/><path class="cls-3" d="M25.71,81.37a4.42,4.42,0,0,0,.74-1,.42.42,0,0,0,0-.15.21.21,0,0,0-.11-.12c-.37-.22-1,.07-1.23-.3,0-.06-.06-.15-.14-.18s-.23.08-.27.21a1.15,1.15,0,0,0,1.06,1.42l-.14.12Z"/><path class="cls-3" d="M24.39,93.2a4.67,4.67,0,0,0,.74-1,.27.27,0,0,0,0-.15.19.19,0,0,0-.1-.12c-.38-.23-1,.07-1.23-.3a.45.45,0,0,0-.14-.19c-.12,0-.23.09-.27.22a1.15,1.15,0,0,0,1.06,1.42l-.15.12Z"/><path class="cls-3" d="M19.87,67.11a1,1,0,0,0,.6-.65.93.93,0,0,0-.4-.09.35.35,0,0,0-.33.21c-.06.17.08.35.21.49h-.16Z"/><path class="cls-3" d="M61,19.36a.35.35,0,0,0,.06-.24.46.46,0,0,0-.14-.2,4.32,4.32,0,0,1-.44-.52l-.1,1.13a.29.29,0,0,1,0,.09c0,.09-.19.07-.28.12S60,20,60,20.16C60.32,21.21,60.78,19.78,61,19.36Z"/><path class="cls-3" d="M37.21,70.73a.39.39,0,0,0,.13-.21.37.37,0,0,0-.08-.24,4.34,4.34,0,0,1-.28-.62l-.4,1.06a.22.22,0,0,1,0,.08c-.07.08-.2,0-.3,0s-.2.23-.2.38C36.06,72.32,36.89,71.08,37.21,70.73Z"/><path class="cls-3" d="M75.41,39.17l.14-.3a.53.53,0,0,0-.61.13c-.13.18,0,.5.21.5s.35-.06.35.08Z"/><path class="cls-3" d="M37.83,79.25a.48.48,0,0,1-.66-.41.45.45,0,1,1,.7.38Z"/><path class="cls-3" d="M25.23,75.14c0,.25-.14.56-.39.56s-.35-.29-.4-.53,0-.22,0-.29.47.25.69.13c.06,0,0,.16-.06.13Z"/><path class="cls-3" d="M16.73,69.15a.49.49,0,0,1-.14.24.77.77,0,0,1,0-.69c.05-.13.13-.27.26-.27s.17.08.26.11.43,0,.5.18a.21.21,0,0,1-.1.26.65.65,0,0,1-.31.08l-.69.06Z"/><path class="cls-3" d="M17.16,66.11a.27.27,0,0,0,.45-.11.51.51,0,0,0-.25-.16.23.23,0,0,0-.25.11.15.15,0,0,0,.13.21Z"/><path class="cls-3" d="M30.11,68.16a.27.27,0,0,0,.45-.11.51.51,0,0,0-.25-.16.22.22,0,0,0-.25.12c0,.09,0,.22.13.21Z"/><path class="cls-3" d="M20.26,69.14a.79.79,0,0,0,.6-.32l-.5-.29a.54.54,0,0,0-.25-.09.3.3,0,0,0-.26.37.44.44,0,0,0,.38.31Z"/><path class="cls-3" d="M26.8,105.71l-.45.93c-.17,0-.19-.25-.16-.42a.88.88,0,0,1,.21-.48.31.31,0,0,1,.46,0Z"/><path class="cls-3" d="M27,99c.24.09.49-.2.42-.45a.53.53,0,0,0-.6-.33.39.39,0,0,0-.28.15.38.38,0,0,0,.08.46,1.09,1.09,0,0,0,.43.25Z"/><path class="cls-3" d="M25.63,73.72a.59.59,0,0,0,.63-.21.77.77,0,0,0-.4-.29.5.5,0,0,0-.57.23c-.08.21.17.48.36.37Z"/><path class="cls-3" d="M23.3,74.3a.35.35,0,0,1-.43-.08l.23-.47a.41.41,0,0,1,.34.52Z"/><path class="cls-3" d="M19,77.45l-.05.2a1.1,1.1,0,0,1-.35-.33.39.39,0,0,1,0-.45A.24.24,0,0,1,19,77a.87.87,0,0,1,0,.48Z"/><path class="cls-3" d="M18.33,66.89c-.12,0-.1.23,0,.31a2.07,2.07,0,0,0,.32.19.46.46,0,0,1,.18.34.2.2,0,0,1-.08.2.24.24,0,0,1-.15,0,1.35,1.35,0,0,1-.71-.16.65.65,0,0,1-.32-.62.55.55,0,0,1,.33-.38.5.5,0,0,1,.48.11Z"/><path class="cls-3" d="M60,.11c-.12.05-.1.24,0,.32a2.07,2.07,0,0,0,.32.19.5.5,0,0,1,.18.34.24.24,0,0,1-.08.2.39.39,0,0,1-.15,0A1.36,1.36,0,0,1,59.54,1,.62.62,0,0,1,59.23.4.52.52,0,0,1,59.55,0,.51.51,0,0,1,60,.13Z"/><path class="cls-3" d="M34.88,62.47c-.12.05-.1.23,0,.32a2.07,2.07,0,0,0,.32.19.46.46,0,0,1,.18.33.19.19,0,0,1-.08.2.24.24,0,0,1-.15,0,1.35,1.35,0,0,1-.71-.16.65.65,0,0,1-.32-.63.53.53,0,0,1,.33-.37.52.52,0,0,1,.48.1Z"/><path class="cls-3" d="M50.61,52.28c-.11,0-.09.24,0,.32a2.07,2.07,0,0,0,.32.19.46.46,0,0,1,.18.34.24.24,0,0,1-.08.2.36.36,0,0,1-.15,0,1.33,1.33,0,0,1-.71-.16.63.63,0,0,1-.32-.62.51.51,0,0,1,.33-.38.5.5,0,0,1,.48.11Z"/><path class="cls-3" d="M21.65,66.45a.3.3,0,0,0,.25-.34.45.45,0,0,0-.3-.33c-.07,0-.16,0-.19,0a.15.15,0,0,0,0,.13l.19.55Z"/><path class="cls-3" d="M.38,123.35a1.58,1.58,0,0,0,1.09.47.27.27,0,0,0,.19-.06c.1-.12,0-.28-.11-.42s0-.54-.16-.77a1,1,0,0,0-.52-.37c-.28-.12-.7-.19-.83.09a.51.51,0,0,0,0,.46,3.11,3.11,0,0,0,.54.86Z"/><path class="cls-3" d="M57.92,69a1.52,1.52,0,0,0,1.08.46.24.24,0,0,0,.2-.06c.1-.11,0-.28-.11-.41s0-.54-.16-.77a1,1,0,0,0-.52-.37c-.29-.12-.7-.2-.84.08a.6.6,0,0,0,0,.47,3,3,0,0,0,.55.85Z"/><path class="cls-3" d="M31,77.65c.09.23.43.16.65,0s.29-.16.32-.31-.19-.35-.37-.44l-.48-.24a.24.24,0,0,0-.23,0c-.07,0-.1.09-.12.16a2.65,2.65,0,0,0-.15,1Z"/><path class="cls-3" d="M23.21,79.07c.56,2.12,3,1.23,2.92-.63S22.71,77.24,23.21,79.07Z"/><path class="cls-3" d="M32.78,84.69c.56,2.11,3,1.23,2.92-.64S32.29,82.85,32.78,84.69Z"/><path class="cls-3" d="M14.15,70.76a.51.51,0,0,1-.44-.68,1.37,1.37,0,0,1,.69.25.44.44,0,0,1,0,.65L14,71Z"/><path class="cls-3" d="M17.57,64.39l.11-.17a.4.4,0,0,0-.27-.14c-.1,0-.2.13-.13.21a.17.17,0,0,0,.1.06l.35.12Z"/><path class="cls-3" d="M26.92,57a1.14,1.14,0,0,0,.37-.32.41.41,0,0,0,0-.46.31.31,0,0,0-.2-.13.46.46,0,0,0-.56.34.48.48,0,0,0,.38.55Z"/><path class="cls-3" d="M51.76,40.51a1.42,1.42,0,0,0,.37-.32.42.42,0,0,0,0-.47.39.39,0,0,0-.2-.13.49.49,0,0,0-.57.35.47.47,0,0,0,.38.54Z"/><path class="cls-3" d="M32.15,69.83a.34.34,0,0,1-.56.09,1,1,0,0,1,.08-.38.61.61,0,0,1,.37.21Z"/><path class="cls-3" d="M10.84,73.9l.13-.31a.55.55,0,0,0-.23-.11.34.34,0,0,0,0,.45Z"/><path class="cls-3" d="M75.64,13.06a7.51,7.51,0,0,0,3-1.61A1.18,1.18,0,0,0,79,11a1.1,1.1,0,0,0-.16-1,2.23,2.23,0,0,0-2.34-.84,2.77,2.77,0,0,0-1.85,1.74,1.89,1.89,0,0,0,0,1.42,1.05,1.05,0,0,0,1.19.59.22.22,0,0,0-.24-.29Z"/><path class="cls-3" d="M85,13.91a2,2,0,0,0,1.26-1.42A2.05,2.05,0,0,0,84.42,12a1.25,1.25,0,0,0-.91,1.51c.23.62,1.26.78,1.55.19Z"/><path class="cls-3" d="M86.28,39.86c-.12,0-.1.23,0,.31s.23.12.33.2a.42.42,0,0,1,.17.33.2.2,0,0,1-.08.2.22.22,0,0,1-.14,0,1.37,1.37,0,0,1-.72-.17.62.62,0,0,1-.31-.62.48.48,0,0,1,.32-.37.47.47,0,0,1,.48.1Z"/><path class="cls-3" d="M68.46,25.94a1.93,1.93,0,0,0,1.26-1.42A2,2,0,0,0,67.9,24,1.26,1.26,0,0,0,67,25.5a.9.9,0,0,0,1.55.19Z"/><path class="cls-3" d="M77.51,57.42A2,2,0,0,0,78.78,56,2.06,2.06,0,0,0,77,55.46,1.26,1.26,0,0,0,76,57c.22.62,1.26.78,1.55.19Z"/><path class="cls-3" d="M76.57,20.51a1,1,0,0,0,.6-.66,1.3,1.3,0,0,0-.4-.09.34.34,0,0,0-.32.21c-.07.18.07.36.2.49H76.5Z"/><path class="cls-3" d="M76.32,18.3a.38.38,0,0,0,.13-.22.4.4,0,0,0-.08-.23,3.55,3.55,0,0,1-.28-.63l-.41,1.07,0,.08c-.08.07-.2,0-.31,0s-.2.22-.19.37C75.16,19.88,76,18.64,76.32,18.3Z"/><path class="cls-3" d="M83.65,17.69l.14-.3a.53.53,0,0,0-.61.13c-.13.18,0,.5.2.5s.36-.05.36.08Z"/><path class="cls-3" d="M73.43,22.54a.45.45,0,0,1-.14.24.77.77,0,0,1,0-.69c0-.13.13-.27.27-.27s.16.08.25.11.43,0,.51.18a.24.24,0,0,1-.11.27.78.78,0,0,1-.31.07l-.68.06Z"/><path class="cls-3" d="M69.92,21.6c.17-.1,0-.39-.16-.41a.69.69,0,0,0-.5.25.7.7,0,0,0,.71.27Z"/><path class="cls-3" d="M72.9,18.74a.18.18,0,0,1-.21-.11.36.36,0,0,1,0-.27.41.41,0,0,1,.11-.12.23.23,0,0,1,.31.1.24.24,0,0,1-.11.31.26.26,0,0,1-.33-.09Z"/><path class="cls-3" d="M73.86,19.5a.27.27,0,0,0,.45-.11.45.45,0,0,0-.24-.16.23.23,0,0,0-.26.12.16.16,0,0,0,.14.21Z"/><path class="cls-3" d="M86.81,21.55a.27.27,0,0,0,.45-.1.45.45,0,0,0-.24-.17.24.24,0,0,0-.26.12.16.16,0,0,0,.14.21Z"/><path class="cls-3" d="M77,22.53a.78.78,0,0,0,.59-.32l-.49-.28a.49.49,0,0,0-.25-.1.3.3,0,0,0-.27.37.43.43,0,0,0,.39.31Z"/><path class="cls-3" d="M70.24,19.22a.34.34,0,0,1-.37-.09.32.32,0,0,1-.07-.37c0-.08.14-.16.21-.11s0,.06.07.09.15.31.22.46l-.09,0Z"/><path class="cls-3" d="M68.32,17.4c0-.17-.22-.24-.39-.27s-.35-.08-.42-.23a.15.15,0,0,1,0-.13c.06-.1.21,0,.33,0a.83.83,0,0,0,.27,0,.57.57,0,0,1,.56.31.32.32,0,0,1-.2.27.31.31,0,0,1-.33-.06Z"/><path class="cls-3" d="M54.67,44.12c0-.17-.22-.24-.38-.27s-.36-.08-.43-.23,0-.1,0-.13.21,0,.33,0a1.41,1.41,0,0,0,.28,0,.57.57,0,0,1,.55.3.32.32,0,0,1-.2.28A.31.31,0,0,1,54.5,44Z"/><path class="cls-3" d="M69.49,16.21l.12-.16a.25.25,0,0,0-.27-.12.2.2,0,0,0-.12.25.17.17,0,0,0,.27.05Z"/><path class="cls-3" d="M67.57,12.12l.12-.15a.23.23,0,0,0-.26-.12.19.19,0,0,0-.13.25.17.17,0,0,0,.27.05Z"/><path class="cls-3" d="M75,20.28c-.12,0-.1.23,0,.31s.23.12.33.2a.43.43,0,0,1,.17.33.2.2,0,0,1-.08.2.22.22,0,0,1-.14,0,1.37,1.37,0,0,1-.72-.17.62.62,0,0,1-.31-.62.48.48,0,0,1,.32-.37.46.46,0,0,1,.48.1Z"/><path class="cls-3" d="M78.35,19.84a.3.3,0,0,0,.25-.34.44.44,0,0,0-.3-.33.16.16,0,0,0-.19,0s0,.09,0,.14l.2.54Z"/><path class="cls-3" d="M70.85,24.16a.52.52,0,0,1-.44-.69,1.27,1.27,0,0,1,.69.26.44.44,0,0,1,0,.65l-.43,0Z"/><path class="cls-3" d="M66.83,15.72c-.06,0-.14,0-.17-.07a.42.42,0,0,1,.08-.37.27.27,0,0,1,.32,0,.35.35,0,0,1,.13.3.17.17,0,0,1-.07.15.11.11,0,0,1-.15,0Z"/><path class="cls-3" d="M74.27,17.78l.12-.17c-.08-.06-.17-.14-.27-.13s-.2.13-.14.21a.24.24,0,0,0,.1,0l.36.12Z"/><path class="cls-3" d="M80.6,21.38a1.28,1.28,0,0,0,.37-.32.42.42,0,0,0,0-.47.39.39,0,0,0-.2-.13.46.46,0,1,0-.19.9Z"/><path class="cls-3" d="M67.54,27.29l.14-.31a.52.52,0,0,0-.23-.1.31.31,0,0,0,0,.44Z"/><path class="cls-3" d="M63.38,14.93a1.93,1.93,0,0,0,1.26-1.42A2,2,0,0,0,62.82,13a1.25,1.25,0,0,0-.91,1.51.89.89,0,0,0,1.55.19Z"/><path class="cls-3" d="M67.82,7.73a.18.18,0,0,1-.21-.11.36.36,0,0,1,0-.27.41.41,0,0,1,.11-.12.23.23,0,0,1,.31.1.24.24,0,0,1-.11.31.27.27,0,0,1-.33-.1Z"/><path class="cls-3" d="M65.16,8.21a.38.38,0,0,1-.38-.09.33.33,0,0,1-.06-.37c0-.08.14-.16.21-.11s0,.06.07.09.15.31.22.46l-.09,0Z"/><path class="cls-3" d="M53,40.35c0-.16-.22-.24-.38-.27s-.36-.07-.43-.22a.17.17,0,0,1,0-.14c.06-.09.21,0,.33,0a1.41,1.41,0,0,0,.28,0,.55.55,0,0,1,.55.3.32.32,0,0,1-.2.28.3.3,0,0,1-.33-.07Z"/><path class="cls-3" d="M64.41,5.2,64.53,5a.25.25,0,0,0-.27-.12.2.2,0,0,0-.12.25.16.16,0,0,0,.26,0Z"/><path class="cls-3" d="M62.49,1.11,62.61,1a.23.23,0,0,0-.27-.12.19.19,0,0,0-.12.25.17.17,0,0,0,.27,0Z"/><path class="cls-3" d="M65.77,13.15a.52.52,0,0,1-.44-.69,1.27,1.27,0,0,1,.69.26.43.43,0,0,1,0,.64l-.43,0Z"/><path class="cls-3" d="M61.75,4.71c-.06,0-.15,0-.18-.07a.37.37,0,0,1,0-.21.3.3,0,0,1,.08-.16.27.27,0,0,1,.32,0,.34.34,0,0,1,.13.3.17.17,0,0,1-.07.15.1.1,0,0,1-.15,0Z"/><path class="cls-3" d="M62.46,16.28,62.6,16a.66.66,0,0,0-.24-.11.33.33,0,0,0,0,.45Z"/><path class="cls-3" d="M70,3.24l.14-.31a.7.7,0,0,0-.23-.11.32.32,0,0,0,0,.45Z"/><path class="cls-3" d="M38.55,117.92a1.16,1.16,0,0,1-.72.87.17.17,0,0,1-.14,0c-.07,0-.1-.1-.13-.17-.14-.41-.25-.94.09-1.22a.56.56,0,0,1,.86.35l-.25.26Z"/></g></g></g></g></svg>