<svg xmlns="http://www.w3.org/2000/svg" xmlns:xlink="http://www.w3.org/1999/xlink" viewBox="0 0 41.21 39.79"><defs><style>.cls-1{mask:url(#mask);filter:url(#luminosity-noclip-8);}.cls-10,.cls-12,.cls-14,.cls-2,.cls-4,.cls-6,.cls-8{mix-blend-mode:multiply;}.cls-2{fill:url(#Безымянный_градиент_50);}.cls-3{mask:url(#mask-2);filter:url(#luminosity-noclip-13);}.cls-4{fill:url(#Безымянный_градиент_50-2);}.cls-5{mask:url(#mask-3);filter:url(#luminosity-noclip-14);}.cls-6{fill:url(#Безымянный_градиент_50-3);}.cls-7{mask:url(#mask-4);filter:url(#luminosity-noclip-9);}.cls-8{fill:url(#Безымянный_градиент_50-4);}.cls-9{mask:url(#mask-5);filter:url(#luminosity-noclip-10);}.cls-10{fill:url(#Безымянный_градиент_50-5);}.cls-11{mask:url(#mask-6);filter:url(#luminosity-noclip-11);}.cls-12{fill:url(#Безымянный_градиент_50-6);}.cls-13{mask:url(#mask-7);filter:url(#luminosity-noclip-12);}.cls-14{fill:url(#Безымянный_градиент_50-7);}.cls-15{fill:url(#Безымянный_градиент_284);}.cls-16{fill:url(#Безымянный_градиент_254);}.cls-17,.cls-18,.cls-20,.cls-29,.cls-30{fill:#155027;}.cls-18{opacity:0.69;}.cls-19{fill:url(#Безымянный_градиент_284-2);}.cls-20{opacity:0.68;}.cls-21{fill:url(#Безымянный_градиент_272);}.cls-22{fill:url(#Безымянный_градиент_283);}.cls-23{fill:url(#Безымянный_градиент_254-2);}.cls-24{fill:url(#Безымянный_градиент_260);}.cls-25{mask:url(#mask-8);}.cls-26{opacity:0.79;fill:url(#Безымянный_градиент_6);}.cls-27{fill:url(#Безымянный_градиент_271);}.cls-28{fill:url(#Безымянный_градиент_267);}.cls-29{opacity:0.39;}.cls-30{opacity:0.49;}.cls-31{fill:url(#Безымянный_градиент_254-3);}.cls-32{fill:url(#Безымянный_градиент_272-2);}.cls-33{mask:url(#mask-9);}.cls-34{opacity:0.54;fill:url(#Безымянный_градиент_6-2);}.cls-35{fill:url(#Безымянный_градиент_284-3);}.cls-36{fill:url(#Безымянный_градиент_73);}.cls-37{fill:url(#Безымянный_градиент_284-4);}.cls-38{fill:#570100;}.cls-39{mask:url(#mask-10);}.cls-40{fill:url(#Безымянный_градиент_6-3);}.cls-41{mask:url(#mask-11);}.cls-42{fill:url(#Безымянный_градиент_6-4);}.cls-43{fill:url(#Безымянный_градиент_254-4);}.cls-44{mask:url(#mask-12);}.cls-45{opacity:0.52;fill:url(#Безымянный_градиент_6-5);}.cls-46{mask:url(#mask-13);}.cls-47{fill:url(#Безымянный_градиент_6-6);}.cls-48{fill:url(#Безымянный_градиент_271-2);}.cls-49{mask:url(#mask-14);}.cls-50{fill:url(#Безымянный_градиент_6-7);}.cls-51{fill:url(#Безымянный_градиент_271-3);}.cls-52{filter:url(#luminosity-noclip-7);}.cls-53{filter:url(#luminosity-noclip-6);}.cls-54{filter:url(#luminosity-noclip-5);}.cls-55{filter:url(#luminosity-noclip-4);}.cls-56{filter:url(#luminosity-noclip-3);}.cls-57{filter:url(#luminosity-noclip-2);}.cls-58{filter:url(#luminosity-noclip);}</style><filter id="luminosity-noclip" x="6.83" y="-8247.94" width="12.15" height="32766" filterUnits="userSpaceOnUse" color-interpolation-filters="sRGB"><feFlood flood-color="#fff" result="bg"/><feBlend in="SourceGraphic" in2="bg"/></filter><mask id="mask" x="6.83" y="-8247.94" width="12.15" height="32766" maskUnits="userSpaceOnUse"><g class="cls-58"/></mask><linearGradient id="Безымянный_градиент_50" x1="6.83" y1="12.76" x2="18.98" y2="12.76" gradientUnits="userSpaceOnUse"><stop offset="0"/><stop offset="1" stop-color="#fff"/></linearGradient><filter id="luminosity-noclip-2" x="6.95" y="-8247.94" width="5.98" height="32766" filterUnits="userSpaceOnUse" color-interpolation-filters="sRGB"><feFlood flood-color="#fff" result="bg"/><feBlend in="SourceGraphic" in2="bg"/></filter><mask id="mask-2" x="6.95" y="-8247.94" width="5.98" height="32766" maskUnits="userSpaceOnUse"><g class="cls-57"/></mask><linearGradient id="Безымянный_градиент_50-2" x1="6.93" y1="18.25" x2="14.81" y2="24.4" xlink:href="#Безымянный_градиент_50"/><filter id="luminosity-noclip-3" x="28.36" y="-8247.94" width="5.95" height="32766" filterUnits="userSpaceOnUse" color-interpolation-filters="sRGB"><feFlood flood-color="#fff" result="bg"/><feBlend in="SourceGraphic" in2="bg"/></filter><mask id="mask-3" x="28.36" y="-8247.94" width="5.95" height="32766" maskUnits="userSpaceOnUse"><g class="cls-56"/></mask><linearGradient id="Безымянный_градиент_50-3" x1="28.22" y1="19.84" x2="31.64" y2="22.51" xlink:href="#Безымянный_градиент_50"/><filter id="luminosity-noclip-4" x="16.49" y="-8247.94" width="7.76" height="32766" filterUnits="userSpaceOnUse" color-interpolation-filters="sRGB"><feFlood flood-color="#fff" result="bg"/><feBlend in="SourceGraphic" in2="bg"/></filter><mask id="mask-4" x="16.49" y="-8247.94" width="7.76" height="32766" maskUnits="userSpaceOnUse"><g class="cls-55"/></mask><linearGradient id="Безымянный_градиент_50-4" x1="16.21" y1="20.9" x2="22.11" y2="25.52" xlink:href="#Безымянный_градиент_50"/><filter id="luminosity-noclip-5" x="12.58" y="-8247.94" width="4.58" height="32766" filterUnits="userSpaceOnUse" color-interpolation-filters="sRGB"><feFlood flood-color="#fff" result="bg"/><feBlend in="SourceGraphic" in2="bg"/></filter><mask id="mask-5" x="12.58" y="-8247.94" width="4.58" height="32766" maskUnits="userSpaceOnUse"><g class="cls-54"/></mask><linearGradient id="Безымянный_градиент_50-5" x1="13.22" y1="7.16" x2="16.26" y2="9.9" xlink:href="#Безымянный_градиент_50"/><filter id="luminosity-noclip-6" x="16.49" y="-8247.94" width="2.74" height="32766" filterUnits="userSpaceOnUse" color-interpolation-filters="sRGB"><feFlood flood-color="#fff" result="bg"/><feBlend in="SourceGraphic" in2="bg"/></filter><mask id="mask-6" x="16.49" y="-8247.94" width="2.74" height="32766" maskUnits="userSpaceOnUse"><g class="cls-53"/></mask><linearGradient id="Безымянный_градиент_50-6" x1="16.19" y1="4.72" x2="19.38" y2="7.59" xlink:href="#Безымянный_градиент_50"/><filter id="luminosity-noclip-7" x="0.28" y="-8247.94" width="7.5" height="32766" filterUnits="userSpaceOnUse" color-interpolation-filters="sRGB"><feFlood flood-color="#fff" result="bg"/><feBlend in="SourceGraphic" in2="bg"/></filter><mask id="mask-7" x="0.28" y="-8247.94" width="7.5" height="32766" maskUnits="userSpaceOnUse"><g class="cls-52"/></mask><linearGradient id="Безымянный_градиент_50-7" x1="0.28" y1="31.48" x2="7.78" y2="31.48" xlink:href="#Безымянный_градиент_50"/><linearGradient id="Безымянный_градиент_284" x1="20.58" y1="30.72" x2="41.21" y2="30.72" gradientUnits="userSpaceOnUse"><stop offset="0" stop-color="#22a112"/><stop offset="1" stop-color="#156b27"/></linearGradient><linearGradient id="Безымянный_градиент_254" x1="31.74" y1="31.17" x2="41.21" y2="31.17" gradientUnits="userSpaceOnUse"><stop offset="0" stop-color="#15b827"/><stop offset="1" stop-color="#83ff3f"/></linearGradient><linearGradient id="Безымянный_градиент_284-2" x1="0" y1="30.72" x2="20.63" y2="30.72" xlink:href="#Безымянный_градиент_284"/><linearGradient id="Безымянный_градиент_272" x1="6.83" y1="14.5" x2="20.5" y2="14.5" gradientUnits="userSpaceOnUse"><stop offset="0" stop-color="#83ff3f"/><stop offset="1" stop-color="#15b827"/></linearGradient><linearGradient id="Безымянный_градиент_283" x1="20.5" y1="14.5" x2="34.17" y2="14.5" gradientUnits="userSpaceOnUse"><stop offset="0" stop-color="#61cc12"/><stop offset="1" stop-color="#15b827"/></linearGradient><linearGradient id="Безымянный_градиент_254-2" x1="6.83" y1="15.17" x2="20.5" y2="15.17" xlink:href="#Безымянный_градиент_254"/><linearGradient id="Безымянный_градиент_260" x1="20.5" y1="15.17" x2="34.17" y2="15.17" gradientUnits="userSpaceOnUse"><stop offset="0" stop-color="#15b827"/><stop offset="1" stop-color="#61cc12"/></linearGradient><filter id="luminosity-noclip-8" x="6.83" y="0.98" width="12.15" height="23.57" filterUnits="userSpaceOnUse" color-interpolation-filters="sRGB"><feFlood flood-color="#fff" result="bg"/><feBlend in="SourceGraphic" in2="bg"/></filter><mask id="mask-8" x="6.83" y="0.98" width="12.15" height="23.57" maskUnits="userSpaceOnUse"><g class="cls-1"><path class="cls-2" d="M16.68,12.58c-2,4.87-4.18,9.47-6,12A23.83,23.83,0,0,1,6.83,18s1.3-8.5,6.6-13.45A15.28,15.28,0,0,1,19,1,30.44,30.44,0,0,1,16.68,12.58Z"/></g></mask><linearGradient id="Безымянный_градиент_6" x1="6.83" y1="12.76" x2="18.98" y2="12.76" gradientUnits="userSpaceOnUse"><stop offset="0" stop-color="#fff"/><stop offset="1" stop-color="#fff"/></linearGradient><linearGradient id="Безымянный_градиент_271" x1="14.55" y1="17.57" x2="27.22" y2="27.83" gradientUnits="userSpaceOnUse"><stop offset="0" stop-color="#22c212"/><stop offset="1" stop-color="#156b27"/></linearGradient><linearGradient id="Безымянный_градиент_267" x1="13.6" y1="21.67" x2="27.66" y2="21.67" gradientUnits="userSpaceOnUse"><stop offset="0" stop-color="#156b27"/><stop offset="1" stop-color="#22a112"/></linearGradient><linearGradient id="Безымянный_градиент_254-3" x1="16.49" y1="24.24" x2="24.51" y2="24.24" xlink:href="#Безымянный_градиент_254"/><linearGradient id="Безымянный_градиент_272-2" x1="16.78" y1="24.24" x2="24.21" y2="24.24" xlink:href="#Безымянный_градиент_272"/><filter id="luminosity-noclip-9" x="16.49" y="17.05" width="7.76" height="12.62" filterUnits="userSpaceOnUse" color-interpolation-filters="sRGB"><feFlood flood-color="#fff" result="bg"/><feBlend in="SourceGraphic" in2="bg"/></filter><mask id="mask-9" x="16.49" y="17.05" width="7.76" height="12.62" maskUnits="userSpaceOnUse"><g class="cls-7"><path class="cls-8" d="M24.25,22.26a12.11,12.11,0,0,1-1.38,2.29,28.34,28.34,0,0,1-5.7,5.12,4.06,4.06,0,0,1-.68-2.2c0-4.26.5-10.42,4.09-10.42C22.81,17.05,23.83,19.43,24.25,22.26Z"/></g></mask><linearGradient id="Безымянный_градиент_6-2" x1="16.21" y1="20.9" x2="22.11" y2="25.52" xlink:href="#Безымянный_градиент_6"/><linearGradient id="Безымянный_градиент_284-3" x1="12.85" y1="9.8" x2="16.93" y2="13.1" xlink:href="#Безымянный_градиент_284"/><linearGradient id="Безымянный_градиент_73" x1="10.47" y1="9" x2="20.5" y2="9" gradientUnits="userSpaceOnUse"><stop offset="0" stop-color="#b70400"/><stop offset="1" stop-color="#85001c"/></linearGradient><linearGradient id="Безымянный_градиент_284-4" x1="978.07" y1="9.8" x2="982.15" y2="13.1" gradientTransform="matrix(-1, 0, 0, 1, 1006.22, 0)" xlink:href="#Безымянный_градиент_284"/><filter id="luminosity-noclip-10" x="12.58" y="3.63" width="4.58" height="10.03" filterUnits="userSpaceOnUse" color-interpolation-filters="sRGB"><feFlood flood-color="#fff" result="bg"/><feBlend in="SourceGraphic" in2="bg"/></filter><mask id="mask-10" x="12.58" y="3.63" width="4.58" height="10.03" maskUnits="userSpaceOnUse"><g class="cls-9"><path class="cls-10" d="M14.86,5.43a15.64,15.64,0,0,1,2.3-1.8l-1.62,7.06c-.19.16-.39.32-.58.5a20.08,20.08,0,0,0-2.38,2.47l.16-5.92A28,28,0,0,1,14.86,5.43Z"/></g></mask><linearGradient id="Безымянный_градиент_6-3" x1="13.22" y1="7.16" x2="16.26" y2="9.9" xlink:href="#Безымянный_градиент_6"/><filter id="luminosity-noclip-11" x="16.49" y="2.46" width="2.74" height="7.53" filterUnits="userSpaceOnUse" color-interpolation-filters="sRGB"><feFlood flood-color="#fff" result="bg"/><feBlend in="SourceGraphic" in2="bg"/></filter><mask id="mask-11" x="16.49" y="2.46" width="2.74" height="7.53" maskUnits="userSpaceOnUse"><g class="cls-11"><path class="cls-12" d="M19.23,2.46,18.11,9h0a13.37,13.37,0,0,0-1.62,1l.67-6.36h0A21.9,21.9,0,0,1,19.23,2.46Z"/></g></mask><linearGradient id="Безымянный_градиент_6-4" x1="16.19" y1="4.72" x2="19.38" y2="7.59" xlink:href="#Безымянный_градиент_6"/><linearGradient id="Безымянный_градиент_254-4" x1="0" y1="31.17" x2="9.47" y2="31.17" xlink:href="#Безымянный_градиент_254"/><filter id="luminosity-noclip-12" x="0.28" y="25" width="7.5" height="12.96" filterUnits="userSpaceOnUse" color-interpolation-filters="sRGB"><feFlood flood-color="#fff" result="bg"/><feBlend in="SourceGraphic" in2="bg"/></filter><mask id="mask-12" x="0.28" y="25" width="7.5" height="12.96" maskUnits="userSpaceOnUse"><g class="cls-13"><path class="cls-14" d="M.28,38,1,37.78A15.42,15.42,0,0,0,6.65,32a9.85,9.85,0,0,0,.94-6.48L7.37,25,.9,33.85Z"/></g></mask><linearGradient id="Безымянный_градиент_6-5" x1="0.28" y1="31.48" x2="7.78" y2="31.48" xlink:href="#Безымянный_градиент_6"/><filter id="luminosity-noclip-13" x="6.95" y="17.02" width="5.98" height="9.8" filterUnits="userSpaceOnUse" color-interpolation-filters="sRGB"><feFlood flood-color="#fff" result="bg"/><feBlend in="SourceGraphic" in2="bg"/></filter><mask id="mask-13" x="6.95" y="17.02" width="5.98" height="9.8" maskUnits="userSpaceOnUse"><g class="cls-3"><path class="cls-4" d="M7.05,18.42s2.14-1.53,3.61-.51c1.79,1.24,2,8.71,2,8.71l.23.2s.27-7.9-2.07-9.4C8.93,16.18,7,18.24,7,18.24Z"/></g></mask><linearGradient id="Безымянный_градиент_6-6" x1="6.93" y1="18.25" x2="14.81" y2="24.4" xlink:href="#Безымянный_градиент_6"/><linearGradient id="Безымянный_градиент_271-2" x1="6.84" y1="17.99" x2="15.21" y2="24.76" xlink:href="#Безымянный_градиент_271"/><filter id="luminosity-noclip-14" x="28.36" y="16.8" width="5.95" height="9.8" filterUnits="userSpaceOnUse" color-interpolation-filters="sRGB"><feFlood flood-color="#fff" result="bg"/><feBlend in="SourceGraphic" in2="bg"/></filter><mask id="mask-14" x="28.36" y="16.8" width="5.95" height="9.8" maskUnits="userSpaceOnUse"><g class="cls-5"><path class="cls-6" d="M34.14,17.85l0,.15-.05.12c-.46-.29-2.23-1.32-3.5-.44-1.73,1.2-2,8.22-2,8.69v0l-.23.19h0c0-.38-.2-7.92,2.07-9.39,1.56-1,3.16.17,3.71.64l.17.16Z"/></g></mask><linearGradient id="Безымянный_градиент_6-7" x1="28.22" y1="19.84" x2="31.64" y2="22.51" xlink:href="#Безымянный_градиент_6"/><linearGradient id="Безымянный_градиент_271-3" x1="28.08" y1="19.81" x2="31.57" y2="22.64" xlink:href="#Безымянный_градиент_271"/></defs><g id="Слой_2" data-name="Слой 2"><g id="interior"><polygon class="cls-15" points="41.21 39.79 35.23 37.91 26.31 35.1 20.58 33.29 20.8 24.02 20.81 23.86 20.81 23.67 21.03 23.63 31.39 21.64 32.04 22.54 33.62 24.7 36.08 28.07 37.93 30.6 40.31 33.85 41.21 39.79"/><polygon class="cls-16" points="41.21 39.79 40.27 38.76 39.82 33.76 35.63 28.18 31.74 22.99 32.04 22.54 33.62 24.7 36.08 28.07 37.93 30.6 40.31 33.85 41.21 39.79"/><polygon class="cls-17" points="40.27 38.76 20.59 32.89 20.58 33.29 41.21 39.79 40.27 38.76"/><path class="cls-18" d="M36.08,28.07h0l-.45.11a15.36,15.36,0,0,0-6.38,3.55,22.74,22.74,0,0,0-2.94,3.37l-5.73-1.81V24.1l.23-.24.22-.23,10.36-2,.65.89,1.58,2.16Z"/><polygon class="cls-19" points="20.63 33.29 14.9 35.1 5.97 37.91 0 39.79 0.9 33.85 3.27 30.6 7.59 24.7 7.59 24.7 9.82 21.64 20.18 23.63 20.39 23.67 20.4 24.02 20.63 33.29"/><path class="cls-20" d="M20.63,33.29,14.9,35.1c-.49-.54-1.37-1.53-2.94-3.37a25.35,25.35,0,0,1-4.37-7h0l2.23-3.05,10.36,2,.57.49Z"/><path class="cls-21" d="M20.5,0V29a11.43,11.43,0,0,1-6.6-2.11,2.28,2.28,0,0,1-.3-.21l-.31-.22a17,17,0,0,1-2.64-2.58A27.29,27.29,0,0,1,6.83,18s1.3-9.18,6.6-14.12A15.35,15.35,0,0,1,19,.3,4.93,4.93,0,0,1,20.5,0Z"/><path class="cls-22" d="M34.17,18s-.25,0-.77,1.1A21.31,21.31,0,0,1,28,26.25l-.3.23-.15.11-.15.11-.09.07-.16.11c-.25.17-.51.34-.78.5l-.18.1c-.2.12-.42.23-.64.34l-.21.1a12,12,0,0,1-1.27.51l-.2.06-.72.2-.16,0-.44.08-.2,0-.24,0-.13,0-.18,0h0A10.08,10.08,0,0,1,20.5,29V0s2.79-.11,7.07,3.88C32.87,8.82,34.17,18,34.17,18Z"/><path class="cls-23" d="M20.5.68v29a11.43,11.43,0,0,1-6.6-2.11l-.3-.21-.31-.23a17,17,0,0,1-2.64-2.57A23.83,23.83,0,0,1,6.83,18s1.3-8.5,6.6-13.45A15.28,15.28,0,0,1,19,1,4.58,4.58,0,0,1,20.5.68Z"/><path class="cls-24" d="M34.17,18l-.05.12c-.09.25-.33.85-.72,1.65a21.94,21.94,0,0,1-4.8,6.6l-.23.21h0a2.75,2.75,0,0,1-.26.22l-.14.12-.3.24-.15.11-.15.1-.09.07a.91.91,0,0,1-.16.11c-.25.18-.51.34-.78.5l-.18.1a6.48,6.48,0,0,1-.64.34l-.21.11a10.16,10.16,0,0,1-1.27.5l-.2.06a5.44,5.44,0,0,1-.72.2l-.16,0-.44.09-.2,0-.24,0-.13,0-.18,0h0c-.4,0-.82.07-1.24.07V.68s2.79-.12,7.07,3.87c4.53,4.23,6.14,11.07,6.51,13q0,.21.06.33v0Z"/><g class="cls-25"><path class="cls-26" d="M16.68,12.58c-2,4.87-4.18,9.47-6,12A23.83,23.83,0,0,1,6.83,18s1.3-8.5,6.6-13.45A15.28,15.28,0,0,1,19,1,30.44,30.44,0,0,1,16.68,12.58Z"/></g><path class="cls-27" d="M24.48,15.11a5.28,5.28,0,0,0-4-1.74,5.18,5.18,0,0,0-3.94,1.74c-2.59,2.8-3.18,8.33-3.26,12l.3.23.3.21a11.39,11.39,0,0,0,13.47-.19l.29-.21.3-.24C27.79,23.25,27.08,17.86,24.48,15.11Zm-.44.41A4.7,4.7,0,0,0,20.5,14,4.6,4.6,0,0,0,17,15.52c-2.53,2.73-3.05,8.45-3.1,12a11.39,11.39,0,0,0,13.47-.19C27.23,23.78,26.59,18.21,24,15.52Z"/><path class="cls-28" d="M27.66,27.16l-.15.11-.15.1-.09.07a.91.91,0,0,1-.16.11c-.25.18-.51.34-.78.5l-.18.1a6.48,6.48,0,0,1-.64.34l-.21.11a10.16,10.16,0,0,1-1.27.5l-.2.06a5.44,5.44,0,0,1-.72.2l-.16,0-.44.09-.2,0-.24,0-.13,0-.18,0h0c-.4,0-.82.07-1.24.07s-.67,0-1,0a11.73,11.73,0,0,1-5.91-2.28c.09-5,1.08-13.68,6.9-13.68a6,6,0,0,1,1,.08c3.48.64,5,4.75,5.72,8.76A38.12,38.12,0,0,1,27.66,27.16Z"/><path class="cls-29" d="M19.51,29.63a11.73,11.73,0,0,1-5.91-2.28c.09-5,1.08-13.68,6.9-13.68a6,6,0,0,1,1,.08,12.9,12.9,0,0,0-2.84,7.07A26.59,26.59,0,0,0,19.51,29.63Z"/><path class="cls-30" d="M33.4,19.77A21.31,21.31,0,0,1,28,26.92l-.3.24-.15.11-.15.1-.09.07a.91.91,0,0,1-.16.11c-.25.18-.51.34-.78.5l-.18.1a6.48,6.48,0,0,1-.64.34l-.21.11a10.16,10.16,0,0,1-1.27.5l-.2.06a5.44,5.44,0,0,1-.72.2l-.16,0-.44.09-.2,0-.24,0-.13,0-.18,0h0l.31-12.11,5.12,5,.38.37a14.3,14.3,0,0,0,3.2-1.06A8.16,8.16,0,0,0,33.4,19.77Z"/><path class="cls-31" d="M24.49,27.57a4,4,0,0,1-7.32,2.1,4.06,4.06,0,0,1-.68-2.2c0-4.26.5-10.42,4.09-10.42,2.23,0,3.25,2.38,3.67,5.21A31,31,0,0,1,24.49,27.57Z"/><path class="cls-32" d="M20.49,30.91a3.7,3.7,0,0,1-3.7-3.67c-.05-3.95.46-9.66,3.78-9.66s3.75,5.8,3.63,9.74a3.72,3.72,0,0,1-3.71,3.59Z"/><g class="cls-33"><path class="cls-34" d="M24.25,22.26a12.11,12.11,0,0,1-1.38,2.29,28.34,28.34,0,0,1-5.7,5.12,4.06,4.06,0,0,1-.68-2.2c0-4.26.5-10.42,4.09-10.42C22.81,17.05,23.83,19.43,24.25,22.26Z"/></g><path class="cls-35" d="M10.84,16.1h.7A19.49,19.49,0,0,1,15,11.68a15.89,15.89,0,0,1,5.49-3V8.08l-5.82,1-2.41,1.4-1.11,2Z"/><path class="cls-36" d="M20.5,1.89V8.08A9,9,0,0,0,18.11,9h0a13.37,13.37,0,0,0-1.62,1h0c-.31.21-.62.44-.95.7s-.39.32-.58.5a20.08,20.08,0,0,0-2.38,2.47h0a20.69,20.69,0,0,0-1.74,2.43l-.37-5.05a19.79,19.79,0,0,1,2.27-3.31,28,28,0,0,1,2.12-2.31,15.64,15.64,0,0,1,2.3-1.8h0a21.9,21.9,0,0,1,2.07-1.17C20,2.08,20.5,1.89,20.5,1.89Z"/><path class="cls-37" d="M30.15,16.1h-.7A19.28,19.28,0,0,0,26,11.68a16,16,0,0,0-5.49-3V8.08l5.82,1,2.41,1.4,1.11,2Z"/><path class="cls-38" d="M30.53,11.05a23.49,23.49,0,0,0-4.39-5.62A18.93,18.93,0,0,0,20.5,1.89V8.08A12.68,12.68,0,0,1,26,11.19a22.21,22.21,0,0,1,4.11,4.91Z"/><g class="cls-39"><path class="cls-40" d="M14.86,5.43a15.64,15.64,0,0,1,2.3-1.8l-1.62,7.06c-.19.16-.39.32-.58.5a20.08,20.08,0,0,0-2.38,2.47l.16-5.92A28,28,0,0,1,14.86,5.43Z"/></g><g class="cls-41"><path class="cls-42" d="M19.23,2.46,18.11,9h0a13.37,13.37,0,0,0-1.62,1l.67-6.36h0A21.9,21.9,0,0,1,19.23,2.46Z"/></g><polygon class="cls-43" points="0 39.79 0.94 38.76 1.39 33.76 9.47 22.99 9.17 22.54 0.9 33.85 0 39.79"/><polygon class="cls-17" points="0.94 38.76 20.62 32.89 20.63 33.29 0 39.79 0.94 38.76"/><g class="cls-44"><path class="cls-45" d="M.28,38,1,37.78A15.42,15.42,0,0,0,6.65,32a9.85,9.85,0,0,0,.94-6.48L7.37,25,.9,33.85Z"/></g><g class="cls-46"><path class="cls-47" d="M7.05,18.42s2.14-1.53,3.61-.51c1.79,1.24,2,8.71,2,8.71l.23.2s.27-7.9-2.07-9.4C8.93,16.18,7,18.24,7,18.24Z"/></g><path class="cls-48" d="M6.83,18s2.1-1.81,4.12-.58c2.19,1.32,2.35,9.7,2.35,9.7l-.39-.3s0-8.22-2.07-9.32S7,18.24,7,18.24Z"/><g class="cls-49"><path class="cls-50" d="M34.14,17.85l0,.15-.05.12c-.46-.29-2.23-1.32-3.5-.44-1.73,1.2-2,8.22-2,8.69v0l-.23.19h0c0-.38-.2-7.92,2.07-9.39,1.56-1,3.16.17,3.71.64l.17.16Z"/></g><path class="cls-51" d="M34.31,18l-.17-.14a3.54,3.54,0,0,0-3.71-.57c-2,1.06-2.06,8.9-2.06,9.3h0l-.27.21-.12.1s.16-8.38,2.35-9.71a3.53,3.53,0,0,1,3.75.31q0,.21.06.33Z"/></g></g></svg>