<svg xmlns="http://www.w3.org/2000/svg" xmlns:xlink="http://www.w3.org/1999/xlink" viewBox="0 0 57.3 50.93"><defs><style>.cls-1{mask:url(#mask);filter:url(#luminosity-noclip-15);}.cls-10,.cls-12,.cls-14,.cls-16,.cls-18,.cls-2,.cls-20,.cls-22,.cls-24,.cls-26,.cls-28,.cls-4,.cls-6,.cls-8{mix-blend-mode:multiply;}.cls-2{fill:url(#Безымянный_градиент_3);}.cls-3{mask:url(#mask-2);filter:url(#luminosity-noclip-20);}.cls-4{fill:url(#Безымянный_градиент_3-2);}.cls-5{mask:url(#mask-3);filter:url(#luminosity-noclip-21);}.cls-6{fill:url(#Безымянный_градиент_10);}.cls-7{mask:url(#mask-4);filter:url(#luminosity-noclip-22);}.cls-8{fill:url(#Безымянный_градиент_10-2);}.cls-9{mask:url(#mask-5);filter:url(#luminosity-noclip-23);}.cls-10{fill:url(#Безымянный_градиент_10-3);}.cls-11{mask:url(#mask-6);filter:url(#luminosity-noclip-24);}.cls-12{fill:url(#Безымянный_градиент_3-3);}.cls-13{mask:url(#mask-7);filter:url(#luminosity-noclip-16);}.cls-14{fill:url(#Безымянный_градиент_3-4);}.cls-15{mask:url(#mask-8);}.cls-16{fill:url(#Безымянный_градиент_76);}.cls-17{mask:url(#mask-9);filter:url(#luminosity-noclip-25);}.cls-18{fill:url(#Безымянный_градиент_101);}.cls-19{mask:url(#mask-10);filter:url(#luminosity-noclip-26);}.cls-20{fill:url(#Безымянный_градиент_3-5);}.cls-21{mask:url(#mask-11);filter:url(#luminosity-noclip-27);}.cls-22{fill:url(#Безымянный_градиент_3-6);}.cls-23{mask:url(#mask-12);filter:url(#luminosity-noclip-17);}.cls-24{fill:url(#Безымянный_градиент_10-4);}.cls-25{mask:url(#mask-13);filter:url(#luminosity-noclip-18);}.cls-26{fill:url(#Безымянный_градиент_10-5);}.cls-27{mask:url(#mask-14);filter:url(#luminosity-noclip-19);}.cls-28{fill:url(#Безымянный_градиент_10-6);}.cls-29{isolation:isolate;}.cls-30,.cls-48{fill:#6e0000;}.cls-31{fill:#c2504c;}.cls-32{mask:url(#mask-15);}.cls-33{fill:url(#Безымянный_градиент_6);}.cls-34{fill:#d4250e;}.cls-35{fill:#a7001d;}.cls-36{fill:#fe8400;}.cls-37{mask:url(#mask-16);}.cls-38{fill:url(#Безымянный_градиент_6-2);}.cls-39{mask:url(#mask-17);}.cls-40{fill:url(#Безымянный_градиент_6-3);}.cls-41{mask:url(#mask-18);}.cls-42{fill:url(#Безымянный_градиент_6-4);}.cls-43{fill:#fe5514;}.cls-44{mask:url(#mask-19);}.cls-45{fill:url(#Безымянный_градиент_6-5);}.cls-46{mask:url(#mask-20);}.cls-47{fill:url(#Безымянный_градиент_6-6);}.cls-48{opacity:0.84;}.cls-49{mask:url(#mask-21);}.cls-50{fill:url(#Безымянный_градиент_6-7);}.cls-51{mask:url(#mask-22);}.cls-52{fill:url(#Безымянный_градиент_6-8);}.cls-53{mask:url(#mask-23);}.cls-54{fill:url(#Безымянный_градиент_6-9);}.cls-55{mask:url(#mask-24);}.cls-56{fill:url(#Безымянный_градиент_6-10);}.cls-57{mask:url(#mask-25);}.cls-58{mask:url(#mask-26);}.cls-59{opacity:0.78;mix-blend-mode:color-dodge;fill:url(#Безымянный_градиент_8);}.cls-60{mask:url(#mask-27);}.cls-61{fill:url(#Безымянный_градиент_6-11);}.cls-62{mask:url(#mask-28);}.cls-63{fill:url(#Безымянный_градиент_6-12);}.cls-64{filter:url(#luminosity-noclip-14);}.cls-65{filter:url(#luminosity-noclip-13);}.cls-66{filter:url(#luminosity-noclip-12);}.cls-67{filter:url(#luminosity-noclip-11);}.cls-68{filter:url(#luminosity-noclip-10);}.cls-69{filter:url(#luminosity-noclip-9);}.cls-70{filter:url(#luminosity-noclip-8);}.cls-71{filter:url(#luminosity-noclip-7);}.cls-72{filter:url(#luminosity-noclip-6);}.cls-73{filter:url(#luminosity-noclip-5);}.cls-74{filter:url(#luminosity-noclip-4);}.cls-75{filter:url(#luminosity-noclip-3);}.cls-76{filter:url(#luminosity-noclip-2);}.cls-77{filter:url(#luminosity-noclip);}</style><filter id="luminosity-noclip" x="45.03" y="-8236.93" width="1.68" height="32766" filterUnits="userSpaceOnUse" color-interpolation-filters="sRGB"><feFlood flood-color="#fff" result="bg"/><feBlend in="SourceGraphic" in2="bg"/></filter><mask id="mask" x="45.03" y="-8236.93" width="1.68" height="32766" maskUnits="userSpaceOnUse"><g class="cls-77"/></mask><linearGradient id="Безымянный_градиент_3" x1="31.6" y1="47.55" x2="33.22" y2="50.21" gradientTransform="translate(18.73 -11.73) rotate(6.67)" gradientUnits="userSpaceOnUse"><stop offset="0"/><stop offset="1" stop-color="#fff"/></linearGradient><filter id="luminosity-noclip-2" x="24.24" y="-8236.93" width="24.22" height="32766" filterUnits="userSpaceOnUse" color-interpolation-filters="sRGB"><feFlood flood-color="#fff" result="bg"/><feBlend in="SourceGraphic" in2="bg"/></filter><mask id="mask-2" x="24.24" y="-8236.93" width="24.22" height="32766" maskUnits="userSpaceOnUse"><g class="cls-76"/></mask><linearGradient id="Безымянный_градиент_3-2" x1="17.67" y1="29.17" x2="23.74" y2="39.13" xlink:href="#Безымянный_градиент_3"/><filter id="luminosity-noclip-3" x="22.11" y="-8236.93" width="2.18" height="32766" filterUnits="userSpaceOnUse" color-interpolation-filters="sRGB"><feFlood flood-color="#fff" result="bg"/><feBlend in="SourceGraphic" in2="bg"/></filter><mask id="mask-3" x="22.11" y="-8236.93" width="2.18" height="32766" maskUnits="userSpaceOnUse"><g class="cls-75"/></mask><linearGradient id="Безымянный_градиент_10" x1="7.79" y1="38.63" x2="10.24" y2="38.63" gradientTransform="translate(18.73 -11.73) rotate(6.67)" gradientUnits="userSpaceOnUse"><stop offset="0" stop-color="#fff"/><stop offset="1"/></linearGradient><filter id="luminosity-noclip-4" x="24.49" y="-8236.93" width="7.48" height="32766" filterUnits="userSpaceOnUse" color-interpolation-filters="sRGB"><feFlood flood-color="#fff" result="bg"/><feBlend in="SourceGraphic" in2="bg"/></filter><mask id="mask-4" x="24.49" y="-8236.93" width="7.48" height="32766" maskUnits="userSpaceOnUse"><g class="cls-74"/></mask><linearGradient id="Безымянный_градиент_10-2" x1="10.78" y1="43.17" x2="18.43" y2="43.17" xlink:href="#Безымянный_градиент_10"/><filter id="luminosity-noclip-5" x="32.99" y="-8236.93" width="16.43" height="32766" filterUnits="userSpaceOnUse" color-interpolation-filters="sRGB"><feFlood flood-color="#fff" result="bg"/><feBlend in="SourceGraphic" in2="bg"/></filter><mask id="mask-5" x="32.99" y="-8236.93" width="16.43" height="32766" maskUnits="userSpaceOnUse"><g class="cls-73"/></mask><linearGradient id="Безымянный_градиент_10-3" x1="18.23" y1="43.17" x2="38.96" y2="26.38" xlink:href="#Безымянный_градиент_10"/><filter id="luminosity-noclip-6" x="23.42" y="-8236.93" width="21.54" height="32766" filterUnits="userSpaceOnUse" color-interpolation-filters="sRGB"><feFlood flood-color="#fff" result="bg"/><feBlend in="SourceGraphic" in2="bg"/></filter><mask id="mask-6" x="23.42" y="-8236.93" width="21.54" height="32766" maskUnits="userSpaceOnUse"><g class="cls-72"/></mask><linearGradient id="Безымянный_градиент_3-3" x1="14.74" y1="20.75" x2="19.66" y2="28.82" xlink:href="#Безымянный_градиент_3"/><filter id="luminosity-noclip-7" x="24.24" y="-8236.93" width="8.32" height="32766" filterUnits="userSpaceOnUse" color-interpolation-filters="sRGB"><feFlood flood-color="#fff" result="bg"/><feBlend in="SourceGraphic" in2="bg"/></filter><mask id="mask-7" x="24.24" y="-8236.93" width="8.32" height="32766" maskUnits="userSpaceOnUse"><g class="cls-71"/></mask><linearGradient id="Безымянный_градиент_3-4" x1="11.73" y1="35.32" x2="17.44" y2="44.68" xlink:href="#Безымянный_градиент_3"/><filter id="luminosity-noclip-8" x="0" y="-8236.93" width="46.28" height="32766" filterUnits="userSpaceOnUse" color-interpolation-filters="sRGB"><feFlood flood-color="#fff" result="bg"/><feBlend in="SourceGraphic" in2="bg"/></filter><mask id="mask-8" x="0" y="-8236.93" width="46.28" height="32766" maskUnits="userSpaceOnUse"><g class="cls-70"/></mask><radialGradient id="Безымянный_градиент_76" cx="-41.75" cy="10.63" r="24.49" gradientTransform="translate(64.66 35.9) rotate(23.6)" gradientUnits="userSpaceOnUse"><stop offset="0" stop-color="#fff"/><stop offset="0.78"/></radialGradient><filter id="luminosity-noclip-9" x="0" y="-8236.93" width="46.28" height="32766" filterUnits="userSpaceOnUse" color-interpolation-filters="sRGB"><feFlood flood-color="#fff" result="bg"/><feBlend in="SourceGraphic" in2="bg"/></filter><mask id="mask-9" x="0" y="-8236.93" width="46.28" height="32766" maskUnits="userSpaceOnUse"><g class="cls-69"/></mask><radialGradient id="Безымянный_градиент_101" cx="-41.52" cy="9.81" r="24.26" gradientTransform="translate(57.12 2.61) rotate(-23.99)" xlink:href="#Безымянный_градиент_10"/><filter id="luminosity-noclip-10" x="52.6" y="-8236.93" width="2.64" height="32766" filterUnits="userSpaceOnUse" color-interpolation-filters="sRGB"><feFlood flood-color="#fff" result="bg"/><feBlend in="SourceGraphic" in2="bg"/></filter><mask id="mask-10" x="52.6" y="-8236.93" width="2.64" height="32766" maskUnits="userSpaceOnUse"><g class="cls-68"/></mask><linearGradient id="Безымянный_градиент_3-5" x1="37.88" y1="29.03" x2="40.08" y2="32.62" xlink:href="#Безымянный_градиент_3"/><filter id="luminosity-noclip-11" x="33.53" y="-8236.93" width="2.13" height="32766" filterUnits="userSpaceOnUse" color-interpolation-filters="sRGB"><feFlood flood-color="#fff" result="bg"/><feBlend in="SourceGraphic" in2="bg"/></filter><mask id="mask-11" x="33.53" y="-8236.93" width="2.13" height="32766" maskUnits="userSpaceOnUse"><g class="cls-67"/></mask><linearGradient id="Безымянный_градиент_3-6" x1="16.23" y1="10.15" x2="18.47" y2="13.82" xlink:href="#Безымянный_градиент_3"/><filter id="luminosity-noclip-12" x="23.42" y="-8236.93" width="6.01" height="32766" filterUnits="userSpaceOnUse" color-interpolation-filters="sRGB"><feFlood flood-color="#fff" result="bg"/><feBlend in="SourceGraphic" in2="bg"/></filter><mask id="mask-12" x="23.42" y="-8236.93" width="6.01" height="32766" maskUnits="userSpaceOnUse"><g class="cls-66"/></mask><linearGradient id="Безымянный_градиент_10-4" x1="9.83" y1="28.65" x2="12.66" y2="33.29" xlink:href="#Безымянный_градиент_10"/><filter id="luminosity-noclip-13" x="37.45" y="-8236.93" width="7.94" height="32766" filterUnits="userSpaceOnUse" color-interpolation-filters="sRGB"><feFlood flood-color="#fff" result="bg"/><feBlend in="SourceGraphic" in2="bg"/></filter><mask id="mask-13" x="37.45" y="-8236.93" width="7.94" height="32766" maskUnits="userSpaceOnUse"><g class="cls-65"/></mask><linearGradient id="Безымянный_градиент_10-5" x1="23.69" y1="19.29" x2="27.14" y2="24.95" xlink:href="#Безымянный_градиент_10"/><filter id="luminosity-noclip-14" x="22.11" y="-8236.93" width="23.04" height="32766" filterUnits="userSpaceOnUse" color-interpolation-filters="sRGB"><feFlood flood-color="#fff" result="bg"/><feBlend in="SourceGraphic" in2="bg"/></filter><mask id="mask-14" x="22.11" y="-8236.93" width="23.04" height="32766" maskUnits="userSpaceOnUse"><g class="cls-64"/></mask><linearGradient id="Безымянный_градиент_10-6" x1="14.06" y1="21.17" x2="22.86" y2="35.6" xlink:href="#Безымянный_градиент_10"/><filter id="luminosity-noclip-15" x="45.03" y="38.76" width="1.68" height="3.63" filterUnits="userSpaceOnUse" color-interpolation-filters="sRGB"><feFlood flood-color="#fff" result="bg"/><feBlend in="SourceGraphic" in2="bg"/></filter><mask id="mask-15" x="45.03" y="38.76" width="1.68" height="3.63" maskUnits="userSpaceOnUse"><g class="cls-1"><polygon class="cls-2" points="45.03 42.39 46.71 41.5 45.46 38.76 45.03 42.39"/></g></mask><linearGradient id="Безымянный_градиент_6" x1="31.6" y1="47.55" x2="33.22" y2="50.21" gradientTransform="translate(18.73 -11.73) rotate(6.67)" gradientUnits="userSpaceOnUse"><stop offset="0" stop-color="#fff"/><stop offset="1" stop-color="#fff"/></linearGradient><filter id="luminosity-noclip-16" x="24.24" y="23.73" width="8.32" height="10.16" filterUnits="userSpaceOnUse" color-interpolation-filters="sRGB"><feFlood flood-color="#fff" result="bg"/><feBlend in="SourceGraphic" in2="bg"/></filter><mask id="mask-16" x="24.24" y="23.73" width="8.32" height="10.16" maskUnits="userSpaceOnUse"><g class="cls-13"><polygon class="cls-14" points="24.58 32.13 24.24 25.64 30.96 23.73 32.57 33.88 24.58 32.13"/></g></mask><linearGradient id="Безымянный_градиент_6-2" x1="11.73" y1="35.32" x2="17.44" y2="44.68" xlink:href="#Безымянный_градиент_6"/><filter id="luminosity-noclip-17" x="23.42" y="18.19" width="6.01" height="4.38" filterUnits="userSpaceOnUse" color-interpolation-filters="sRGB"><feFlood flood-color="#fff" result="bg"/><feBlend in="SourceGraphic" in2="bg"/></filter><mask id="mask-17" x="23.42" y="18.19" width="6.01" height="4.38" maskUnits="userSpaceOnUse"><g class="cls-23"><polygon class="cls-24" points="24.45 18.19 29.43 20.04 29.2 21.99 26.64 22.57 23.42 21.13 24.45 18.19"/></g></mask><linearGradient id="Безымянный_градиент_6-3" x1="9.83" y1="28.65" x2="12.66" y2="33.29" xlink:href="#Безымянный_градиент_6"/><filter id="luminosity-noclip-18" x="37.45" y="8.99" width="7.94" height="6.46" filterUnits="userSpaceOnUse" color-interpolation-filters="sRGB"><feFlood flood-color="#fff" result="bg"/><feBlend in="SourceGraphic" in2="bg"/></filter><mask id="mask-18" x="37.45" y="8.99" width="7.94" height="6.46" maskUnits="userSpaceOnUse"><g class="cls-25"><polygon class="cls-26" points="42.59 8.99 45.38 15 39.76 15.44 37.45 11.42 42.59 8.99"/></g></mask><linearGradient id="Безымянный_градиент_6-4" x1="23.69" y1="19.29" x2="27.14" y2="24.95" xlink:href="#Безымянный_градиент_6"/><filter id="luminosity-noclip-19" x="22.11" y="8.99" width="23.04" height="23.15" filterUnits="userSpaceOnUse" color-interpolation-filters="sRGB"><feFlood flood-color="#fff" result="bg"/><feBlend in="SourceGraphic" in2="bg"/></filter><mask id="mask-19" x="22.11" y="8.99" width="23.04" height="23.15" maskUnits="userSpaceOnUse"><g class="cls-27"><polygon class="cls-28" points="24.58 32.13 22.11 26.45 23.9 22.9 23.42 21.13 24.45 18.19 26.54 16.84 26.88 12.47 34.06 11.18 37.45 11.42 42.59 8.99 45.15 9.81 42.8 9.92 37.77 12.15 35.13 11.98 28.19 13.36 27.22 17.59 25.09 18.43 24.7 21.71 24.25 22.95 23.2 27.68 24.58 32.13"/></g></mask><linearGradient id="Безымянный_градиент_6-5" x1="14.06" y1="21.17" x2="22.86" y2="35.6" xlink:href="#Безымянный_градиент_6"/><filter id="luminosity-noclip-20" x="24.24" y="19.59" width="24.22" height="12.26" filterUnits="userSpaceOnUse" color-interpolation-filters="sRGB"><feFlood flood-color="#fff" result="bg"/><feBlend in="SourceGraphic" in2="bg"/></filter><mask id="mask-20" x="24.24" y="19.59" width="24.22" height="12.26" maskUnits="userSpaceOnUse"><g class="cls-3"><polygon class="cls-4" points="44.69 20.92 37.79 19.79 32.24 19.59 29.2 21.99 26.64 22.57 24.24 25.64 24.42 29.05 32.24 31.84 30.96 23.73 34.04 22.56 39.59 23.97 48.46 24.96 44.69 20.92"/></g></mask><linearGradient id="Безымянный_градиент_6-6" x1="17.67" y1="29.17" x2="23.74" y2="39.13" xlink:href="#Безымянный_градиент_6"/><filter id="luminosity-noclip-21" x="22.11" y="26.45" width="2.18" height="2.45" filterUnits="userSpaceOnUse" color-interpolation-filters="sRGB"><feFlood flood-color="#fff" result="bg"/><feBlend in="SourceGraphic" in2="bg"/></filter><mask id="mask-21" x="22.11" y="26.45" width="2.18" height="2.45" maskUnits="userSpaceOnUse"><g class="cls-5"><polygon class="cls-6" points="23.74 28.71 24.29 28.9 22.11 26.45 22.47 27.28 23.74 28.71"/></g></mask><linearGradient id="Безымянный_градиент_6-7" x1="7.79" y1="38.63" x2="10.24" y2="38.63" xlink:href="#Безымянный_градиент_6"/><filter id="luminosity-noclip-22" x="24.49" y="31.92" width="7.48" height="1.83" filterUnits="userSpaceOnUse" color-interpolation-filters="sRGB"><feFlood flood-color="#fff" result="bg"/><feBlend in="SourceGraphic" in2="bg"/></filter><mask id="mask-22" x="24.49" y="31.92" width="7.48" height="1.83" maskUnits="userSpaceOnUse"><g class="cls-7"><polygon class="cls-8" points="31.89 33.54 24.49 31.92 24.58 32.13 31.97 33.75 31.89 33.54"/></g></mask><linearGradient id="Безымянный_градиент_6-8" x1="10.78" y1="43.17" x2="18.43" y2="43.17" xlink:href="#Безымянный_градиент_6"/><filter id="luminosity-noclip-23" x="32.99" y="10.96" width="16.43" height="25.44" filterUnits="userSpaceOnUse" color-interpolation-filters="sRGB"><feFlood flood-color="#fff" result="bg"/><feBlend in="SourceGraphic" in2="bg"/></filter><mask id="mask-23" x="32.99" y="10.96" width="16.43" height="25.44" maskUnits="userSpaceOnUse"><g class="cls-9"><polygon class="cls-10" points="48.46 24.96 44.69 20.92 48.46 19.4 49.42 11.18 48.73 10.96 47.78 19.06 44.01 20.58 47.78 24.62 48.07 30.53 46.77 34.63 44.25 33.52 44 35.61 42.2 36.06 36.71 35.41 32.99 34.98 33.09 35.25 37.38 35.76 42.88 36.4 44.68 35.95 44.93 33.86 47.45 34.97 48.75 30.87 48.46 24.96"/></g></mask><linearGradient id="Безымянный_градиент_6-9" x1="18.23" y1="43.17" x2="38.96" y2="26.38" xlink:href="#Безымянный_градиент_6"/><filter id="luminosity-noclip-24" x="23.42" y="8.99" width="21.54" height="12.15" filterUnits="userSpaceOnUse" color-interpolation-filters="sRGB"><feFlood flood-color="#fff" result="bg"/><feBlend in="SourceGraphic" in2="bg"/></filter><mask id="mask-24" x="23.42" y="8.99" width="21.54" height="12.15" maskUnits="userSpaceOnUse"><g class="cls-11"><polygon class="cls-12" points="23.42 21.13 29.43 20.04 31.4 14.96 39.76 15.44 43.69 15.13 44.96 14.09 42.59 8.99 37.45 11.42 34.06 11.18 26.88 12.47 26.54 16.84 24.45 18.19 23.42 21.13"/></g></mask><linearGradient id="Безымянный_градиент_6-10" x1="14.74" y1="20.75" x2="19.66" y2="28.82" xlink:href="#Безымянный_градиент_6"/><mask id="mask-25" x="0" y="4.66" width="46.28" height="46.28" maskUnits="userSpaceOnUse"><g class="cls-15"><circle class="cls-16" cx="23.14" cy="27.8" r="23.13" transform="translate(-12.99 26.14) rotate(-47.6)"/></g></mask><filter id="luminosity-noclip-25" x="0" y="4.67" width="46.28" height="46.26" filterUnits="userSpaceOnUse" color-interpolation-filters="sRGB"><feFlood flood-color="#fff" result="bg"/><feBlend in="SourceGraphic" in2="bg"/></filter><mask id="mask-26" x="0" y="4.67" width="46.28" height="46.26" maskUnits="userSpaceOnUse"><g class="cls-17"><path class="cls-18" d="M43.62,17A23.13,23.13,0,1,1,15.13,6.1,23.13,23.13,0,0,1,43.62,17Z"/></g></mask><radialGradient id="Безымянный_градиент_8" cx="-41.52" cy="9.81" r="24.26" gradientTransform="translate(57.12 2.61) rotate(-23.99)" gradientUnits="userSpaceOnUse"><stop offset="0" stop-color="#ffe11d"/><stop offset="1"/></radialGradient><filter id="luminosity-noclip-26" x="52.6" y="21.52" width="2.64" height="3.81" filterUnits="userSpaceOnUse" color-interpolation-filters="sRGB"><feFlood flood-color="#fff" result="bg"/><feBlend in="SourceGraphic" in2="bg"/></filter><mask id="mask-27" x="52.6" y="21.52" width="2.64" height="3.81" maskUnits="userSpaceOnUse"><g class="cls-19"><polygon class="cls-20" points="52.6 24.34 52.93 21.52 55.25 22.71 54.74 25.32 52.6 24.34"/></g></mask><linearGradient id="Безымянный_градиент_6-11" x1="37.88" y1="29.03" x2="40.08" y2="32.62" xlink:href="#Безымянный_градиент_6"/><filter id="luminosity-noclip-27" x="33.53" y="0" width="2.13" height="4.41" filterUnits="userSpaceOnUse" color-interpolation-filters="sRGB"><feFlood flood-color="#fff" result="bg"/><feBlend in="SourceGraphic" in2="bg"/></filter><mask id="mask-28" x="33.53" y="0" width="2.13" height="4.41" maskUnits="userSpaceOnUse"><g class="cls-21"><polygon class="cls-22" points="35.66 2.95 34.87 4.41 33.53 0.51 34.17 0 35.66 2.95"/></g></mask><linearGradient id="Безымянный_градиент_6-12" x1="16.23" y1="10.15" x2="18.47" y2="13.82" xlink:href="#Безымянный_градиент_6"/></defs><g class="cls-29"><g id="Слой_2" data-name="Слой 2"><g id="interior"><polygon class="cls-30" points="45.14 40.03 45.46 38.76 47.47 39.65 48.91 38.51 53.06 40.63 51.14 42.45 49.13 42.21 48.31 43.59 45.03 42.39 45.14 40.03"/><polygon class="cls-31" points="48.31 43.59 47.92 42.01 46.71 41.5 45.46 38.76 45.23 39.67 45.03 42.39 48.31 43.59"/><g class="cls-32"><polygon class="cls-33" points="45.03 42.39 46.71 41.5 45.46 38.76 45.03 42.39"/></g><polygon class="cls-34" points="34.06 11.18 26.88 12.47 26.54 16.84 24.45 18.19 23.42 21.13 23.9 22.9 22.11 26.45 24.58 32.13 32.57 33.88 33.09 35.25 38.37 35.87 42.88 36.4 44.68 35.95 44.93 33.86 47.45 34.97 48.75 30.87 48.46 24.96 44.69 20.92 48.46 19.4 49.42 11.18 42.59 8.99 37.45 11.42 34.06 11.18"/><polygon class="cls-35" points="24.58 32.13 25.55 25.38 26.64 22.57 25.17 21.21 23.42 21.13 23.9 22.9 22.11 26.45 24.58 32.13"/><polygon class="cls-35" points="44.93 33.86 41.16 32.89 37.38 35.76 42.88 36.4 44.68 35.95 44.93 33.86"/><polygon class="cls-35" points="48.46 24.96 43.75 24.41 37.79 19.79 44.69 20.92 48.46 24.96"/><polygon class="cls-35" points="34.06 11.18 39.76 15.44 37.45 11.42 34.06 11.18"/><polygon class="cls-35" points="49.42 11.18 45.38 15 48.46 19.4 49.42 11.18"/><polygon class="cls-35" points="29.2 21.99 32.24 19.59 31.4 14.96 29.48 19.63 29.2 21.99"/><polygon class="cls-35" points="30.96 23.73 34.04 22.56 39.59 23.97 34.17 29.09 30.96 23.73"/><polygon class="cls-31" points="45.38 15 39.76 15.44 37.45 11.42 42.59 8.99 49.42 11.18 45.38 15"/><polygon class="cls-31" points="33.09 35.25 32.57 33.88 34.17 29.09 39.59 23.97 41.16 32.89 37.38 35.76 33.09 35.25"/><polygon class="cls-31" points="32.24 19.59 37.79 19.79 44.69 20.92 31.4 14.96 32.24 19.59"/><polygon class="cls-36" points="24.58 32.13 24.24 25.64 26.64 22.57 23.42 21.13 24.45 18.19 26.54 16.84 29.43 20.04 29.2 21.99 30.96 23.73 32.57 33.88 24.58 32.13"/><polygon class="cls-36" points="26.88 12.47 31.4 14.96 39.76 15.44 34.06 11.18 26.88 12.47"/><g class="cls-37"><polygon class="cls-38" points="24.58 32.13 24.24 25.64 30.96 23.73 32.57 33.88 24.58 32.13"/></g><g class="cls-39"><polygon class="cls-40" points="24.45 18.19 29.43 20.04 29.2 21.99 26.64 22.57 23.42 21.13 24.45 18.19"/></g><g class="cls-41"><polygon class="cls-42" points="42.59 8.99 45.38 15 39.76 15.44 37.45 11.42 42.59 8.99"/></g><polygon class="cls-43" points="39.59 23.97 43.75 24.41 41.16 32.89 39.59 23.97"/><g class="cls-44"><polygon class="cls-45" points="24.58 32.13 22.11 26.45 23.9 22.9 23.42 21.13 24.45 18.19 26.54 16.84 26.88 12.47 34.06 11.18 37.45 11.42 42.59 8.99 45.15 9.81 42.8 9.92 37.77 12.15 35.13 11.98 28.19 13.36 27.22 17.59 25.09 18.43 24.7 21.71 24.25 22.95 23.2 27.68 24.58 32.13"/></g><g class="cls-46"><polygon class="cls-47" points="44.69 20.92 37.79 19.79 32.24 19.59 29.2 21.99 26.64 22.57 24.24 25.64 24.42 29.05 32.24 31.84 30.96 23.73 34.04 22.56 39.59 23.97 48.46 24.96 44.69 20.92"/></g><polygon class="cls-48" points="22.11 26.45 24.42 29.05 32.24 31.84 32.83 33.1 41.01 32.02 39.59 23.97 43.75 24.41 46.05 24.68 37.79 19.79 39.73 18.38 44.96 14.09 45.15 9.81 49.42 11.18 48.46 19.4 44.69 20.92 48.46 24.96 48.75 30.87 47.45 34.97 44.93 33.86 44.68 35.95 42.88 36.4 37.38 35.76 33.09 35.25 32.57 33.88 24.58 32.13 22.11 26.45"/><g class="cls-49"><polygon class="cls-50" points="23.74 28.71 24.29 28.9 22.11 26.45 22.47 27.28 23.74 28.71"/></g><g class="cls-51"><polygon class="cls-52" points="31.89 33.54 24.49 31.92 24.58 32.13 31.97 33.75 31.89 33.54"/></g><g class="cls-53"><polygon class="cls-54" points="48.46 24.96 44.69 20.92 48.46 19.4 49.42 11.18 48.73 10.96 47.78 19.06 44.01 20.58 47.78 24.62 48.07 30.53 46.77 34.63 44.25 33.52 44 35.61 42.2 36.06 36.71 35.41 32.99 34.98 33.09 35.25 37.38 35.76 42.88 36.4 44.68 35.95 44.93 33.86 47.45 34.97 48.75 30.87 48.46 24.96"/></g><g class="cls-55"><polygon class="cls-56" points="23.42 21.13 29.43 20.04 31.4 14.96 39.76 15.44 43.69 15.13 44.96 14.09 42.59 8.99 37.45 11.42 34.06 11.18 26.88 12.47 26.54 16.84 24.45 18.19 23.42 21.13"/></g><polygon class="cls-30" points="34.17 29.09 39.11 25.25 41.01 32.02 39.59 23.97 34.17 29.09"/><polygon class="cls-30" points="30.96 23.73 33.97 21.93 36.12 22.8 37.93 22.83 39.59 23.97 34.04 22.56 30.96 23.73"/><polygon class="cls-30" points="24.49 31.92 24.42 29.05 31.01 30.11 31.27 25.72 32.24 31.84 26.2 29.79 24.49 31.92"/><polygon class="cls-30" points="32.24 19.59 31.91 15.57 38.78 18.27 32.11 15.28 37.12 15.86 39.76 15.44 31.4 14.96 32.24 19.59"/><polygon class="cls-30" points="27.32 20.42 29.2 21.99 29.43 20.04 27.32 20.42"/><polygon class="cls-30" points="49.42 11.18 45.38 15 46.45 18.74 43.95 20.07 40.18 18.9 44.01 20.58 47.78 19.06 49.42 11.18"/><polygon class="cls-30" points="46.95 24.95 41.26 32.05 37.02 35.45 37.87 35.55 41.63 33.27 44.23 33.68 42.27 32.49 47.8 24.88 46.95 24.95"/><polygon class="cls-30" points="32.01 30.47 33.1 32.3 41.26 32.05 32.83 33.1 32.06 31.58 32.01 30.47"/><polygon class="cls-30" points="23.74 28.71 24.24 25.64 26.64 22.57 29.2 21.99 26.22 24.07 24.29 28.9 23.74 28.71"/><polygon class="cls-30" points="34.06 11.18 37.45 11.42 39.76 15.44 34.06 11.18"/><polygon class="cls-30" points="49.42 11.18 42.59 8.99 47.51 11.73 44.96 14.09 49.42 11.18"/><polygon class="cls-30" points="23.42 21.13 23.9 22.9 22.11 26.45 26.64 22.57 23.42 21.13"/><g class="cls-57"><g class="cls-58"><path class="cls-59" d="M43.62,17A23.13,23.13,0,1,1,15.13,6.1,23.13,23.13,0,0,1,43.62,17Z"/></g></g><polygon class="cls-30" points="52.6 24.34 50.34 21.21 53.06 20.47 55.76 21.42 57.3 23.66 54.74 25.32 52.6 24.34"/><polygon class="cls-31" points="50.34 21.21 53.06 20.47 52.93 21.52 55.25 22.71 54.74 25.32 52.6 24.34 50.34 21.21"/><g class="cls-60"><polygon class="cls-61" points="52.6 24.34 52.93 21.52 55.25 22.71 54.74 25.32 52.6 24.34"/></g><polygon class="cls-30" points="33.53 0.51 34.87 4.41 37.46 4.71 38.45 3.85 38.73 1.51 34.17 0 33.53 0.51"/><polygon class="cls-31" points="34.17 0 35.66 2.95 37.71 2.58 37.32 4.07 37.46 4.71 34.87 4.41 33.53 0.51 34.17 0"/><g class="cls-62"><polygon class="cls-63" points="35.66 2.95 34.87 4.41 33.53 0.51 34.17 0 35.66 2.95"/></g></g></g></g></svg>