<svg xmlns="http://www.w3.org/2000/svg" xmlns:xlink="http://www.w3.org/1999/xlink" viewBox="0 0 24.69 24.69"><defs><style>.cls-1{mask:url(#mask);filter:url(#luminosity-noclip-2);}.cls-2{mix-blend-mode:multiply;fill:url(#Безымянный_градиент_156);}.cls-3{fill:url(#Безымянный_градиент_63);}.cls-4,.cls-7{opacity:0.13;}.cls-4{fill:url(#Безымянный_градиент_11);}.cls-5{opacity:0.25;}.cls-6{fill:url(#Безымянный_градиент_11-2);}.cls-7{fill:url(#Безымянный_градиент_11-3);}.cls-8{fill:navy;opacity:0.2;}.cls-9{mask:url(#mask-2);}.cls-10{opacity:0.6;fill:url(#Безымянный_градиент_11-4);}.cls-11{filter:url(#luminosity-noclip);}</style><filter id="luminosity-noclip" x="5.5" y="-8216.47" width="19.19" height="32766" filterUnits="userSpaceOnUse" color-interpolation-filters="sRGB"><feFlood flood-color="#fff" result="bg"/><feBlend in="SourceGraphic" in2="bg"/></filter><mask id="mask" x="5.5" y="-8216.47" width="19.19" height="32766" maskUnits="userSpaceOnUse"><g class="cls-11"/></mask><linearGradient id="Безымянный_градиент_156" x1="22.34" y1="19.56" x2="11.19" y2="11.46" gradientUnits="userSpaceOnUse"><stop offset="0" stop-color="#fff"/><stop offset="1"/></linearGradient><radialGradient id="Безымянный_градиент_63" cx="7.7" cy="6.31" r="12.35" gradientUnits="userSpaceOnUse"><stop offset="0.17" stop-color="#01ffe2"/><stop offset="1" stop-color="#511d5e"/></radialGradient><linearGradient id="Безымянный_градиент_11" x1="6.74" y1="3.74" x2="17.5" y2="19.8" gradientUnits="userSpaceOnUse"><stop offset="0" stop-color="#fff"/><stop offset="1" stop-color="#fff"/></linearGradient><linearGradient id="Безымянный_градиент_11-2" x1="9.07" y1="12.55" x2="16.87" y2="24.18" xlink:href="#Безымянный_градиент_11"/><linearGradient id="Безымянный_градиент_11-3" x1="9.1" y1="-0.34" x2="14.76" y2="8.12" xlink:href="#Безымянный_градиент_11"/><filter id="luminosity-noclip-2" x="5.5" y="1.54" width="19.19" height="23.11" filterUnits="userSpaceOnUse" color-interpolation-filters="sRGB"><feFlood flood-color="#fff" result="bg"/><feBlend in="SourceGraphic" in2="bg"/></filter><mask id="mask-2" x="5.5" y="1.54" width="19.19" height="23.11" maskUnits="userSpaceOnUse"><g class="cls-1"><path class="cls-2" d="M24.69,12.3v.32c0,.09,0,.18,0,.27s0,.22,0,.33,0,.1,0,.15,0,.15,0,.22l0,.22s0,.1,0,.15l0,.13a12,12,0,0,1-.91,3.18h0c-.11.25-.22.49-.34.72l-.24.43-.2.34A13.74,13.74,0,0,1,22,20c-.16.2-.32.39-.49.58a13.22,13.22,0,0,1-1.39,1.31,11.24,11.24,0,0,1-1.46,1,12.23,12.23,0,0,1-2,.95l-.39.14-.41.13-.21.06a12.25,12.25,0,0,1-3.34.46A12.41,12.41,0,0,1,8.47,24c-.27-.09-.52-.18-.78-.29a11.78,11.78,0,0,1-1.19-.56L6.16,23l0,0,0,0-.17-.11-.4-.25.25.14.59.3.61.26c.25.11.51.2.77.29a12.41,12.41,0,0,0,3.88.62,12,12,0,0,0,2-.16,10.15,10.15,0,0,0,1.35-.3c.2-.05.41-.12.61-.19l.4-.14c.25-.09.5-.2.74-.31h0a12.29,12.29,0,0,0,2.22-1.3h0a13.28,13.28,0,0,0,1.29-1.09h0c.19-.19.38-.39.56-.59A11.8,11.8,0,0,0,22.33,18c.08-.14.16-.28.23-.43v0a12.12,12.12,0,0,0,1.12-3.16,1.55,1.55,0,0,0,0-.21c.05-.23.08-.47.11-.7a.28.28,0,0,0,0-.09c0-.14,0-.28,0-.43s0-.5,0-.75V12a.41.41,0,0,0,0-.11.66.66,0,0,0,0-.14v-.32h0c0-.09,0-.17,0-.26s0-.42-.05-.63,0-.23,0-.35-.06-.4-.1-.6c0,0,0-.07,0-.1l0-.12a11.06,11.06,0,0,0-.56-1.91c0-.08-.05-.15-.08-.22l-.18-.41c-.07-.16-.15-.32-.23-.48s-.18-.36-.28-.53l-.23-.39a2.9,2.9,0,0,0-.19-.29h0l-.09-.14-.11-.15c0-.06-.09-.12-.13-.19l-.07-.09-.05-.07L21,3.88,21,3.82l0,0-.48-.52-.08-.08h0a8.55,8.55,0,0,0-.7-.65.52.52,0,0,0-.11-.1l-.16-.13-.29-.24L19.05,2h0l-.14-.11h0l-.25-.18h0l-.24-.16a11.54,11.54,0,0,1,1.25.8h0l.15.11h0l.08.07.3.23.16.14.11.09c.24.21.47.43.7.66h0l.09.09.11.12c.12.13.25.26.36.4l0,0c.14.16.28.33.41.5l.09.13.05.06.07.1.19.27,0,.07.1.14h0l.12.19c.11.17.2.33.3.5l.24.44.27.57c.06.14.12.27.17.41a12.19,12.19,0,0,1,.58,1.8c0,.1.05.21.07.32l0,.12,0,.13c.06.3.1.61.14.92l0,.38a2.11,2.11,0,0,1,0,.25,2.44,2.44,0,0,1,0,.27v0s0,0,0,0v.39Z"/></g></mask><linearGradient id="Безымянный_градиент_11-4" x1="22.34" y1="19.56" x2="11.19" y2="11.46" xlink:href="#Безымянный_градиент_11"/></defs><g id="Слой_2" data-name="Слой 2"><g id="interior"><path class="cls-3" d="M24.69,12.32v.32c0,.09,0,.18,0,.27s0,.22,0,.33v.15a1.64,1.64,0,0,0,0,.22l0,.24s0,.08,0,.13,0,.08,0,.13c-.06.37-.12.73-.21,1.09a12.63,12.63,0,0,1-.68,2.05h0s0,0,0,0c-.11.25-.23.5-.35.74l-.24.43-.18.32c-.27.43-.56.84-.87,1.24l-.42.5-.07.08a12.16,12.16,0,0,1-1.15,1.12l-.24.2a13.14,13.14,0,0,1-1.43,1h0a12.4,12.4,0,0,1-2,1l-.39.14-.34.11-.28.08a12.25,12.25,0,0,1-3.34.46,12.63,12.63,0,0,1-2.41-.23,11.31,11.31,0,0,1-1.47-.39c-.27-.09-.52-.18-.78-.29l-.54-.23-.65-.33L6.16,23,6.07,23l0,0H6l-.12-.07-.46-.3h0l-.21-.15h0a12.64,12.64,0,0,1-1.33-1.09,12.84,12.84,0,0,1-1.12-1.21L2.65,20c-.18-.24-.36-.48-.53-.73l0-.05a9,9,0,0,1-.52-.84l-.14-.26A.67.67,0,0,1,1.37,18l0,0a.47.47,0,0,1-.05-.1l0-.08c-.08-.15-.15-.31-.22-.47s-.17-.39-.25-.6A12.72,12.72,0,0,1,.11,14c0-.15,0-.29,0-.44s0-.33,0-.5v-.15a1.34,1.34,0,0,1,0-.2c0-.12,0-.25,0-.37v-.22A.34.34,0,0,1,0,12q0-.31,0-.63a2.28,2.28,0,0,1,0-.26c0-.12,0-.24,0-.36h0c0-.12,0-.23,0-.35s0-.09,0-.14,0-.25.07-.38h0a1.42,1.42,0,0,1,0-.22c0-.2.09-.39.14-.58h0l0-.1s0-.1,0-.15.09-.3.14-.44.19-.53.29-.79l0,0H1c.1-.24.22-.48.34-.72,0,0,0,0,0,0l.12-.25h0l.08-.12A11.87,11.87,0,0,1,2.9,4.4,13.61,13.61,0,0,1,4.14,3.12l.4-.34c.31-.25.62-.48.94-.7A12.87,12.87,0,0,1,7.41,1h0l0,0a12.41,12.41,0,0,1,4.88-1h.14a12.31,12.31,0,0,1,5.18,1.2l.36.18h0c.2.1.4.21.59.33h0a10.64,10.64,0,0,1,1,.66h0l.15.11h0l.08.06.3.24.16.13.11.09c.24.21.47.43.7.66h0l.09.08h0l.08.09.26.28.19.23c.12.13.23.27.34.41l.11.15a.18.18,0,0,1,.05.07l.07.09.18.25.06.09.1.14h0l.08.13,0,0,.3.5a.41.41,0,0,0,.05.09c0,.06.07.12.1.19l.09.16c0,.06.05.11.07.16l0,.06.15.31,0,0c0,.05,0,.11.08.16s.07.18.1.26a9.27,9.27,0,0,1,.38,1.08,3.37,3.37,0,0,1,.1.34l.09.36a.24.24,0,0,1,0,.08l.06.26,0,.12a.43.43,0,0,1,0,.11.36.36,0,0,1,0,.11c.05.27.1.55.13.84l0,.35c0,.09,0,.18,0,.28a2.44,2.44,0,0,1,0,.27v0a2.09,2.09,0,0,1,0,.25Z"/><path class="cls-4" d="M24.69,12.18a2.09,2.09,0,0,0,0-.25v0a2.44,2.44,0,0,0,0-.27c0-.1,0-.19,0-.28l0-.35c0-.29-.08-.57-.13-.84a31.55,31.55,0,0,0-6.16.31c-4,.66-6.14,3-10.78,3.33s-5.94-2.33-4.71-3.33,7.07-1.79,13-1.85c4.07,0,6.9.08,8.28.16a9.27,9.27,0,0,0-.38-1.08c0-.08-.07-.17-.1-.26s-.05-.11-.08-.16l0,0a3.14,3.14,0,0,0-.18-.37s0-.1-.07-.16l-.09-.16A59.17,59.17,0,0,1,10.87,7.85c-4.74,0-8-.11-9.94-.22-.1.26-.2.53-.29.79s-.1.29-.14.44,0,.1,0,.15l0,.1h0c0,.19-.1.38-.14.58a1.42,1.42,0,0,0,0,.22h0c0,.13,0,.25-.07.38s0,.09,0,.14,0,.23,0,.35h0c0,.12,0,.24,0,.36a2.28,2.28,0,0,0,0,.26q0,.31,0,.63a.34.34,0,0,0,0,.1v.22c0,.12,0,.25,0,.37a1.34,1.34,0,0,0,0,.2v.15c0,.17,0,.34,0,.5s0,.29.05.44a12.72,12.72,0,0,0,.68,2.7c3.15-.41,11.31-1.48,15.15-1.79a48,48,0,0,1,8.42.28c.09-.36.15-.72.21-1.09,0,0,0-.09,0-.13s0-.09,0-.13l0-.24a1.64,1.64,0,0,1,0-.22v-.15c0-.11,0-.22,0-.33s0-.18,0-.27v-.46ZM2.48,8.25a.58.58,0,0,1,.59.59.59.59,0,0,1-.59.6.6.6,0,0,1-.6-.6A.59.59,0,0,1,2.48,8.25Zm-.19,7a.78.78,0,1,1,.78-.78A.78.78,0,0,1,2.29,15.21Zm14.33-2.27a.6.6,0,1,1,.59-.59A.59.59,0,0,1,16.62,12.94Zm1.24,1.45a.29.29,0,0,1-.29-.3.3.3,0,1,1,.59,0A.29.29,0,0,1,17.86,14.39Z"/><g class="cls-5"><path class="cls-6" d="M12.59,18.63a82,82,0,0,1-11.33-.85l0,.08a.47.47,0,0,0,.05.1l0,0a.67.67,0,0,0,.06.12l.14.26a9,9,0,0,0,.52.84l0,.05c.17.25.35.49.53.73l.11.13a12.84,12.84,0,0,0,1.12,1.21,12.64,12.64,0,0,0,1.33,1.09h0l.21.15h0l.46.3L6,23H6l0,0,.09.05.34.19.65.33a35.13,35.13,0,0,1,5.64-.11c.76.17-.83.6-2.85,1a12.63,12.63,0,0,0,2.41.23,12.25,12.25,0,0,0,3.34-.46l.28-.08.34-.11.39-.14a12.4,12.4,0,0,0,2-1h0a13.14,13.14,0,0,0,1.43-1l.24-.2L17.47,22c-4,.36-10.65-.09-10.48-.58s4.11-1.27,9-1.12c2.31.07,4.2.15,5.56.22L22,20c.31-.4.6-.81.87-1.24l.18-.32.24-.43c.12-.24.24-.49.35-.74,0,0,0,0,0,0A44.37,44.37,0,0,1,12.59,18.63ZM5.74,20.26c-1.15,0-2.09-.27-2.09-.59s.94-.6,2.09-.6,2.09.27,2.09.6S6.9,20.26,5.74,20.26Z"/></g><path class="cls-7" d="M21.24,3.78A29.39,29.39,0,0,1,12.35,5c-3.8-.06-7.29-.36-9.45-.6A13.61,13.61,0,0,1,4.14,3.12a37.1,37.1,0,0,0,6.49,1c4.32.17,8.73-1,8-1.5s-4,.21-8.09,0a45.3,45.3,0,0,1-5-.55A12.87,12.87,0,0,1,7.41,1h0l0,0a37.86,37.86,0,0,0,6.42.32c1.59,0,2.83-.08,3.78-.12l.36.18h0c.2.1.4.21.59.33h0a10.64,10.64,0,0,1,1,.66h0l.15.11h0l.08.06.3.24.16.13.11.09c.24.21.47.43.7.66h0l.09.08Z"/><path class="cls-8" d="M24.69,12.32v.32c0,.09,0,.18,0,.27s0,.22,0,.33v.15a1.64,1.64,0,0,0,0,.22l0,.24s0,.08,0,.13,0,.08,0,.13c-.06.37-.12.73-.21,1.09a12.63,12.63,0,0,1-.68,2.05h0s0,0,0,0c-.11.25-.23.5-.35.74l-.24.43-.18.32c-.27.43-.56.84-.87,1.24l-.42.5-.07.08a12.16,12.16,0,0,1-1.15,1.12l-.24.2a13.14,13.14,0,0,1-1.43,1h0a12.4,12.4,0,0,1-2,1l-.39.14-.34.11-.28.08a12.25,12.25,0,0,1-3.34.46,12.63,12.63,0,0,1-2.41-.23,11.31,11.31,0,0,1-1.47-.39c-.27-.09-.52-.18-.78-.29l-.54-.23-.65-.33L6.16,23,6.07,23l0,0H6l-.12-.07-.46-.3h0l-.21-.15h0a12.64,12.64,0,0,1-1.33-1.09,12.84,12.84,0,0,1-1.12-1.21L2.65,20c-.18-.24-.36-.48-.53-.73l0-.05a9,9,0,0,1-.52-.84l-.14-.26A.67.67,0,0,1,1.37,18l0,0a.47.47,0,0,1-.05-.1l0-.08c-.08-.15-.15-.31-.22-.47A30.1,30.1,0,0,0,14.7,14.39a20.69,20.69,0,0,0,8.73-7.48l.15.31,0,0c0,.05,0,.11.08.16s.07.18.1.26a9.27,9.27,0,0,1,.38,1.08,3.37,3.37,0,0,1,.1.34l.09.36a.24.24,0,0,1,0,.08l.06.26,0,.12a.43.43,0,0,1,0,.11.36.36,0,0,1,0,.11c.05.27.1.55.13.84l0,.35c0,.09,0,.18,0,.28a2.44,2.44,0,0,1,0,.27v0a2.09,2.09,0,0,1,0,.25Z"/><g class="cls-9"><path class="cls-10" d="M24.69,12.3v.32c0,.09,0,.18,0,.27s0,.22,0,.33,0,.1,0,.15,0,.15,0,.22l0,.22s0,.1,0,.15l0,.13a12,12,0,0,1-.91,3.18h0c-.11.25-.22.49-.34.72l-.24.43-.2.34A13.74,13.74,0,0,1,22,20c-.16.2-.32.39-.49.58a13.22,13.22,0,0,1-1.39,1.31,11.24,11.24,0,0,1-1.46,1,12.23,12.23,0,0,1-2,.95l-.39.14-.41.13-.21.06a12.25,12.25,0,0,1-3.34.46A12.41,12.41,0,0,1,8.47,24c-.27-.09-.52-.18-.78-.29a11.78,11.78,0,0,1-1.19-.56L6.16,23l0,0,0,0-.17-.11-.4-.25.25.14.59.3.61.26c.25.11.51.2.77.29a12.41,12.41,0,0,0,3.88.62,12,12,0,0,0,2-.16,10.15,10.15,0,0,0,1.35-.3c.2-.05.41-.12.61-.19l.4-.14c.25-.09.5-.2.74-.31h0a12.29,12.29,0,0,0,2.22-1.3h0a13.28,13.28,0,0,0,1.29-1.09h0c.19-.19.38-.39.56-.59A11.8,11.8,0,0,0,22.33,18c.08-.14.16-.28.23-.43v0a12.12,12.12,0,0,0,1.12-3.16,1.55,1.55,0,0,0,0-.21c.05-.23.08-.47.11-.7a.28.28,0,0,0,0-.09c0-.14,0-.28,0-.43s0-.5,0-.75V12a.41.41,0,0,0,0-.11.66.66,0,0,0,0-.14v-.32h0c0-.09,0-.17,0-.26s0-.42-.05-.63,0-.23,0-.35-.06-.4-.1-.6c0,0,0-.07,0-.1l0-.12a11.06,11.06,0,0,0-.56-1.91c0-.08-.05-.15-.08-.22l-.18-.41c-.07-.16-.15-.32-.23-.48s-.18-.36-.28-.53l-.23-.39a2.9,2.9,0,0,0-.19-.29h0l-.09-.14-.11-.15c0-.06-.09-.12-.13-.19l-.07-.09-.05-.07L21,3.88,21,3.82l0,0-.48-.52-.08-.08h0a8.55,8.55,0,0,0-.7-.65.52.52,0,0,0-.11-.1l-.16-.13-.29-.24L19.05,2h0l-.14-.11h0l-.25-.18h0l-.24-.16a11.54,11.54,0,0,1,1.25.8h0l.15.11h0l.08.07.3.23.16.14.11.09c.24.21.47.43.7.66h0l.09.09.11.12c.12.13.25.26.36.4l0,0c.14.16.28.33.41.5l.09.13.05.06.07.1.19.27,0,.07.1.14h0l.12.19c.11.17.2.33.3.5l.24.44.27.57c.06.14.12.27.17.41a12.19,12.19,0,0,1,.58,1.8c0,.1.05.21.07.32l0,.12,0,.13c.06.3.1.61.14.92l0,.38a2.11,2.11,0,0,1,0,.25,2.44,2.44,0,0,1,0,.27v0s0,0,0,0v.39Z"/></g></g></g></svg>