<svg xmlns="http://www.w3.org/2000/svg" xmlns:xlink="http://www.w3.org/1999/xlink" viewBox="0 0 20.79 8.09"><defs><style>.cls-1{isolation:isolate;}.cls-2{fill:url(#Безымянный_градиент_34);}.cls-3,.cls-6{fill:#1a003b;}.cls-4{fill:url(#Безымянный_градиент_41);}.cls-5{fill:url(#Безымянный_градиент_34-2);}.cls-6{opacity:0.66;mix-blend-mode:darken;}.cls-7{opacity:0.84;mix-blend-mode:color-dodge;fill:url(#Безымянный_градиент_12);}.cls-8{fill:url(#Безымянный_градиент_32);}.cls-9{fill:url(#Безымянный_градиент_32-2);}.cls-10{fill:url(#Безымянный_градиент_32-3);}.cls-11{fill:url(#Безымянный_градиент_32-4);}</style><linearGradient id="Безымянный_градиент_34" x1="13.86" y1="19.74" x2="20.61" y2="19.74" gradientTransform="translate(1.02 -18.65) rotate(2.58)" gradientUnits="userSpaceOnUse"><stop offset="0" stop-color="#222945"/><stop offset="1" stop-color="#454160"/></linearGradient><linearGradient id="Безымянный_градиент_41" x1="10.38" y1="22.18" x2="15.53" y2="22.18" gradientTransform="translate(1.02 -18.65) rotate(2.58)" gradientUnits="userSpaceOnUse"><stop offset="0" stop-color="#b656e0"/><stop offset="0.99" stop-color="#8986b5"/></linearGradient><linearGradient id="Безымянный_градиент_34-2" x1="0.14" y1="24.14" x2="12.73" y2="24.14" xlink:href="#Безымянный_градиент_34"/><linearGradient id="Безымянный_градиент_12" x1="2.94" y1="22.73" x2="12.33" y2="23.12" gradientTransform="translate(1.02 -18.65) rotate(2.58)" gradientUnits="userSpaceOnUse"><stop offset="0"/><stop offset="1" stop-color="#acffb5"/></linearGradient><linearGradient id="Безымянный_градиент_32" x1="1.33" y1="25.56" x2="3.86" y2="25.56" gradientTransform="translate(1.02 -18.65) rotate(2.58)" gradientUnits="userSpaceOnUse"><stop offset="0" stop-color="#e0c5d6"/><stop offset="0.99" stop-color="#ff89bf"/></linearGradient><linearGradient id="Безымянный_градиент_32-2" x1="2.67" y1="25.12" x2="5.44" y2="25.12" xlink:href="#Безымянный_градиент_32"/><linearGradient id="Безымянный_градиент_32-3" x1="18.83" y1="18.93" x2="19.65" y2="18.93" xlink:href="#Безымянный_градиент_32"/><linearGradient id="Безымянный_градиент_32-4" x1="17.77" y1="19.36" x2="18.84" y2="19.36" xlink:href="#Безымянный_градиент_32"/></defs><g class="cls-1"><g id="Слой_2" data-name="Слой 2"><g id="interior"><path class="cls-2" d="M19.77,2h0l-.33.23h0a4.53,4.53,0,0,1-.49.29,5.14,5.14,0,0,1-.47.23A13,13,0,0,1,15,3.7l-.62-.84L14,2.26A33.3,33.3,0,0,1,18,.48l.52-.17L19,.15l.48-.1a3.09,3.09,0,0,1,.72,0,.76.76,0,0,1,.33.09h0C21,.37,20.81,1.16,19.77,2Z"/><path class="cls-3" d="M19.77,2h0l-.33.23h0a4.53,4.53,0,0,1-.49.29,5.14,5.14,0,0,1-.47.23A13,13,0,0,1,15,3.7l-.62-.84.23-.48S18.46.29,20.55.1h0C21,.37,20.81,1.16,19.77,2Z"/><path class="cls-4" d="M14.85,4.78h0a9.15,9.15,0,0,1-1.32,1.08,2.62,2.62,0,0,1-.61.55,1.72,1.72,0,0,1-.69.26,1.41,1.41,0,0,1-.58,0,1.45,1.45,0,0,1-.72-.46h0a1.67,1.67,0,0,1-.25-.38h0a3.09,3.09,0,0,1-.16-2.23,3.32,3.32,0,0,1,.78-1.45,2.07,2.07,0,0,1,1.18-.67,1.26,1.26,0,0,1,.58,0,1.33,1.33,0,0,1,.59.33A5,5,0,0,1,15.35,3a.75.75,0,0,1,.21.46A1.9,1.9,0,0,1,14.85,4.78Z"/><path class="cls-5" d="M12.37,4.74A39.09,39.09,0,0,1,5.28,7.63l-.78.19L3.68,8a9.15,9.15,0,0,1-1,.11h0A3.92,3.92,0,0,1,.34,7.59L.15,7.43c-.42-.36.08-.79,1.09-1.23h0c.22-.1.46-.19.73-.29H2L2.6,5.7l.84-.26C6.58,4.52,10.87,3.7,12,3.5a.65.65,0,0,1,.47.09A.66.66,0,0,1,12.37,4.74Z"/><path class="cls-6" d="M12.37,4.74C9.76,6.09,2.88,9.32.34,7.59l0-.34a49.75,49.75,0,0,1,12.1-3.66A.66.66,0,0,1,12.37,4.74Z"/><path class="cls-7" d="M2.8,5.64l1.52,0s5.77-1.91,8.1-2.07L12,3.5A85.57,85.57,0,0,0,2.8,5.64Z"/><polygon class="cls-8" points="2.67 8.08 2.67 8.08 1.24 6.2 1.25 6.2 1.98 5.91 1.99 5.91 3.68 7.97 2.67 8.08"/><path class="cls-9" d="M5.28,7.63l-.78.19L2.6,5.7l.84-.26Z"/><path class="cls-10" d="M19.77,2h0l-.33.23h0l-.4-2,.48-.1h0Z"/><path class="cls-11" d="M18.93,2.48a5.14,5.14,0,0,1-.47.23L18,.48l.52-.17Z"/></g></g></g></svg>