<svg xmlns="http://www.w3.org/2000/svg" xmlns:xlink="http://www.w3.org/1999/xlink" viewBox="0 0 74.67 22.64"><defs><style>.cls-1{isolation:isolate;}.cls-2{fill:url(#Безымянный_градиент_34);}.cls-29,.cls-3{fill:#1a003b;}.cls-4{fill:url(#Безымянный_градиент_32);}.cls-5{fill:url(#Безымянный_градиент_33);}.cls-6{fill:url(#Безымянный_градиент_38);}.cls-7{fill:#080046;}.cls-8{fill:#423985;}.cls-9{fill:url(#Безымянный_градиент_15);}.cls-10,.cls-11{fill:#5800aa;}.cls-10,.cls-22{opacity:0.33;}.cls-10,.cls-11,.cls-22,.cls-23,.cls-40{mix-blend-mode:multiply;}.cls-12{fill:url(#Безымянный_градиент_33-2);}.cls-13{fill:url(#Безымянный_градиент_38-2);}.cls-14{fill:url(#Безымянный_градиент_38-3);}.cls-15{fill:url(#Безымянный_градиент_38-4);}.cls-16{fill:url(#Безымянный_градиент_42);}.cls-17{fill:url(#Безымянный_градиент_40);}.cls-18{fill:url(#Безымянный_градиент_34-2);}.cls-19{fill:url(#Безымянный_градиент_41);}.cls-20{fill:url(#Безымянный_градиент_34-3);}.cls-21{opacity:0.67;fill:url(#Безымянный_градиент_12);}.cls-21,.cls-27,.cls-30,.cls-43{mix-blend-mode:color-dodge;}.cls-22,.cls-23,.cls-40{fill:#ae25be;}.cls-24{fill:url(#Безымянный_градиент_40-2);}.cls-25{fill:url(#Безымянный_градиент_38-5);}.cls-26{fill:url(#Безымянный_градиент_15-2);}.cls-27,.cls-30{opacity:0.84;}.cls-27{fill:url(#Безымянный_градиент_12-2);}.cls-28{fill:url(#Безымянный_градиент_34-4);}.cls-29,.cls-31{opacity:0.66;mix-blend-mode:darken;}.cls-30{fill:url(#Безымянный_градиент_12-3);}.cls-31{fill:#170072;}.cls-32{fill:url(#Безымянный_градиент_32-2);}.cls-33{fill:url(#Безымянный_градиент_33-3);}.cls-34{fill:url(#Безымянный_градиент_32-3);}.cls-35{fill:url(#Безымянный_градиент_32-4);}.cls-36{fill:url(#Безымянный_градиент_32-5);}.cls-37{fill:url(#Безымянный_градиент_32-6);}.cls-38{fill:url(#Безымянный_градиент_32-7);}.cls-39{fill:url(#Безымянный_градиент_15-3);}.cls-40{opacity:0.41;}.cls-41{fill:url(#Безымянный_градиент_15-4);}.cls-42{fill:url(#Безымянный_градиент_15-5);}.cls-43{opacity:0.64;fill:url(#Безымянный_градиент_12-4);}</style><linearGradient id="Безымянный_градиент_34" x1="66.88" y1="25.61" x2="73.64" y2="25.61" gradientTransform="translate(1.34 -21.03) rotate(2.58)" gradientUnits="userSpaceOnUse"><stop offset="0" stop-color="#222945"/><stop offset="1" stop-color="#454160"/></linearGradient><linearGradient id="Безымянный_градиент_32" x1="55.39" y1="25.17" x2="59.67" y2="25.17" gradientTransform="translate(1.34 -21.03) rotate(2.58)" gradientUnits="userSpaceOnUse"><stop offset="0" stop-color="#e0c5d6"/><stop offset="0.99" stop-color="#ff89bf"/></linearGradient><linearGradient id="Безымянный_градиент_33" x1="58.39" y1="23.1" x2="60.23" y2="23.1" gradientTransform="translate(1.34 -21.03) rotate(2.58)" gradientUnits="userSpaceOnUse"><stop offset="0" stop-color="#fffffc"/><stop offset="0.99" stop-color="#fff0df"/></linearGradient><linearGradient id="Безымянный_градиент_38" x1="54.16" y1="35.62" x2="59.67" y2="35.62" gradientTransform="translate(1.34 -21.03) rotate(2.58)" gradientUnits="userSpaceOnUse"><stop offset="0" stop-color="#ff0046"/><stop offset="0.99" stop-color="#7300de"/></linearGradient><linearGradient id="Безымянный_градиент_15" x1="57.51" y1="39.03" x2="59.22" y2="39.03" gradientTransform="translate(1.34 -21.03) rotate(2.58)" gradientUnits="userSpaceOnUse"><stop offset="0" stop-color="#e0c5d6"/><stop offset="0.99" stop-color="#fff0df"/></linearGradient><linearGradient id="Безымянный_градиент_33-2" x1="9.55" y1="26.71" x2="24.56" y2="26.71" xlink:href="#Безымянный_градиент_33"/><linearGradient id="Безымянный_градиент_38-2" x1="36.6" y1="35.17" x2="45.21" y2="35.17" xlink:href="#Безымянный_градиент_38"/><linearGradient id="Безымянный_градиент_38-3" x1="13.65" y1="28.51" x2="67.38" y2="28.51" xlink:href="#Безымянный_градиент_38"/><linearGradient id="Безымянный_градиент_38-4" x1="8.9" y1="26.73" x2="23.91" y2="26.73" xlink:href="#Безымянный_градиент_38"/><linearGradient id="Безымянный_градиент_42" x1="71.55" y1="-21.02" x2="82.61" y2="-20.56" gradientTransform="matrix(1, -0.05, 0.05, 0.86, -32.44, 24.85)" gradientUnits="userSpaceOnUse"><stop offset="0" stop-color="#78748a"/><stop offset="1" stop-color="#3c4056"/></linearGradient><linearGradient id="Безымянный_градиент_40" x1="29.89" y1="26.19" x2="67.38" y2="26.19" gradientTransform="translate(1.34 -21.03) rotate(2.58)" gradientUnits="userSpaceOnUse"><stop offset="0" stop-color="#ff895d"/><stop offset="0.99" stop-color="#ff2534"/></linearGradient><linearGradient id="Безымянный_градиент_34-2" x1="43.21" y1="25.19" x2="55.95" y2="25.72" xlink:href="#Безымянный_градиент_34"/><linearGradient id="Безымянный_градиент_41" x1="63.4" y1="28.05" x2="68.55" y2="28.05" gradientTransform="translate(1.34 -21.03) rotate(2.58)" gradientUnits="userSpaceOnUse"><stop offset="0" stop-color="#b656e0"/><stop offset="0.99" stop-color="#8986b5"/></linearGradient><linearGradient id="Безымянный_градиент_34-3" x1="35.88" y1="25.83" x2="43.67" y2="26.15" xlink:href="#Безымянный_градиент_34"/><linearGradient id="Безымянный_градиент_12" x1="52.79" y1="25.42" x2="64.57" y2="25.91" gradientTransform="translate(1.34 -21.03) rotate(2.58)" gradientUnits="userSpaceOnUse"><stop offset="0"/><stop offset="1" stop-color="#acffb5"/></linearGradient><linearGradient id="Безымянный_градиент_40-2" x1="0.14" y1="32.38" x2="20.8" y2="32.38" xlink:href="#Безымянный_градиент_40"/><linearGradient id="Безымянный_градиент_38-5" x1="32.73" y1="36.68" x2="39.33" y2="36.68" xlink:href="#Безымянный_градиент_38"/><linearGradient id="Безымянный_градиент_15-2" x1="37.09" y1="40.26" x2="38.58" y2="40.26" xlink:href="#Безымянный_градиент_15"/><linearGradient id="Безымянный_градиент_12-2" x1="36.71" y1="35.8" x2="38.98" y2="35.89" xlink:href="#Безымянный_градиент_12"/><linearGradient id="Безымянный_градиент_34-4" x1="53.17" y1="30.01" x2="65.75" y2="30.01" xlink:href="#Безымянный_градиент_34"/><linearGradient id="Безымянный_градиент_12-3" x1="55.96" y1="28.6" x2="65.36" y2="28.99" xlink:href="#Безымянный_градиент_12"/><linearGradient id="Безымянный_градиент_32-2" x1="32.99" y1="29.52" x2="47.77" y2="29.52" xlink:href="#Безымянный_градиент_32"/><linearGradient id="Безымянный_градиент_33-3" x1="34.65" y1="29.36" x2="47.92" y2="29.36" xlink:href="#Безымянный_градиент_33"/><linearGradient id="Безымянный_градиент_32-3" x1="45.47" y1="35.61" x2="48.58" y2="35.61" xlink:href="#Безымянный_градиент_32"/><linearGradient id="Безымянный_градиент_32-4" x1="54.36" y1="31.43" x2="56.88" y2="31.43" xlink:href="#Безымянный_градиент_32"/><linearGradient id="Безымянный_градиент_32-5" x1="55.69" y1="31" x2="58.46" y2="31" xlink:href="#Безымянный_градиент_32"/><linearGradient id="Безымянный_градиент_32-6" x1="71.85" y1="24.8" x2="72.68" y2="24.8" xlink:href="#Безымянный_градиент_32"/><linearGradient id="Безымянный_градиент_32-7" x1="70.79" y1="25.23" x2="71.86" y2="25.23" xlink:href="#Безымянный_градиент_32"/><linearGradient id="Безымянный_градиент_15-3" x1="34.25" y1="19.88" x2="74.21" y2="19.88" xlink:href="#Безымянный_градиент_15"/><linearGradient id="Безымянный_градиент_15-4" x1="-2.41" y1="9.35" x2="40" y2="9.35" gradientTransform="translate(7.13 -8.92) rotate(4.96)" xlink:href="#Безымянный_градиент_15"/><linearGradient id="Безымянный_градиент_15-5" x1="-4.37" y1="10.6" x2="1.63" y2="10.6" gradientTransform="translate(7.13 -8.92) rotate(4.96)" xlink:href="#Безымянный_градиент_15"/><linearGradient id="Безымянный_градиент_12-4" x1="0.58" y1="9.15" x2="38.21" y2="9.15" gradientTransform="translate(7.13 -8.92) rotate(4.96)" xlink:href="#Безымянный_градиент_12"/></defs><g class="cls-1"><g id="Слой_2" data-name="Слой 2"><g id="interior"><path class="cls-2" d="M72.79,7.82h0c-.1.08-.21.15-.33.23h0c-.15.1-.31.19-.49.29s-.3.15-.46.23a13.1,13.1,0,0,1-3.44,1l-.62-.83L67,8.13a36.13,36.13,0,0,1,4-1.78l.52-.17L72,6c.17,0,.33-.08.48-.1a2.67,2.67,0,0,1,.72,0,.81.81,0,0,1,.34.09h0C74,6.24,73.83,7,72.79,7.82Z"/><path class="cls-3" d="M72.79,7.82h0c-.1.08-.21.15-.33.23h0c-.15.1-.31.19-.49.29s-.3.15-.46.23a13.1,13.1,0,0,1-3.44,1l-.62-.83.23-.49S71.49,6.17,73.58,6h0C74,6.24,73.83,7,72.79,7.82Z"/><polygon class="cls-4" points="58.57 2.91 55.36 10.44 56.9 10.23 59.99 3 58.57 2.91"/><polygon class="cls-5" points="59.99 3 60.55 2.91 59.02 6.55 58.55 6.37 59.99 3"/><path class="cls-6" d="M54,14.47s0-.64,1.26-.92,3.72,0,4.15.68-.76,6.6-.76,6.6H58s-1.68-4.65-2.27-5.1S53.93,15.08,54,14.47Z"/><path class="cls-7" d="M60.29,20.5a1.9,1.9,0,1,1-2-1.87A1.93,1.93,0,0,1,60.29,20.5Z"/><path class="cls-8" d="M57.86,21.68h0a1.12,1.12,0,0,1-.12-2.21h.2a1.08,1.08,0,0,1,.83,1A1.06,1.06,0,0,1,57.86,21.68Z"/><path class="cls-9" d="M57.86,21.68a1.08,1.08,0,0,1-.82-1,1.06,1.06,0,0,1,.87-1.16,1.08,1.08,0,0,1,.83,1A1.06,1.06,0,0,1,57.86,21.68Z"/><path class="cls-10" d="M57,18.23a2.25,2.25,0,0,1,2.26-1.4l.15-1.25-3.32.67Z"/><path class="cls-11" d="M56.73,17.63a3.78,3.78,0,0,1,2.65-1.73l0-.32-3.32.67Z"/><path class="cls-12" d="M24.59,8.43l-2.12,0A42.38,42.38,0,0,0,14.87.5C12-.24,11,.16,9.88,1.57a50.74,50.74,0,0,0,4.27,10.79l.75-2.3Z"/><path class="cls-7" d="M46.51,19.1a1.67,1.67,0,1,1-1.76-1.64A1.7,1.7,0,0,1,46.51,19.1Z"/><path class="cls-8" d="M45.9,19.13a1.35,1.35,0,1,1-1.43-1.32A1.38,1.38,0,0,1,45.9,19.13Z"/><path class="cls-7" d="M45.52,19.15a1.1,1.1,0,0,1-1,1.18,1.13,1.13,0,1,1,1-1.18Z"/><path class="cls-13" d="M36.42,13.54s0-.56,1.49-.79,4.46.09,5,.65,1.9,5.81,1.9,5.81-.37.15-.61,0c0,0-4.87-4.13-5.59-4.52C38,14.38,36.4,14.07,36.42,13.54Z"/><path class="cls-14" d="M66.83,11.54h0A4.5,4.5,0,0,1,65.54,13C60.08,16.8,49.9,17.28,40,16.55a175.64,175.64,0,0,1-21.23-3c-3.24-.66-5.24-1.16-5.24-1.16l.76-2.3,7.89-1.32,9.44-1.59h0L32,7.08c.74-.67,1.43-1.25,2.14-1.78l.12-.09h0a25.86,25.86,0,0,1,2.85-1.82,55.59,55.59,0,0,1,13.83-1A20,20,0,0,1,53.7,3.87a25.49,25.49,0,0,1,2.87,2.26l1.85.07c4.59.2,7.39.56,8.16,1A3.84,3.84,0,0,1,66.83,11.54Z"/><path class="cls-15" d="M24,8.43l-7.77,1.3-1.92.32-.76,2.3a59.76,59.76,0,0,1-3.46-8c-.31-.94-.58-1.85-.81-2.77,1.09-1.42,2.16-1.82,5-1.08a45.08,45.08,0,0,1,4.56,4.24l.83.92c.72.83,1.45,1.73,2.2,2.72Z"/><path class="cls-16" d="M49.1,2.51c0-.26-2.5-.34-5.55-.17S38,2.85,38,3.11s2.5.34,5.56.18S49.12,2.78,49.1,2.51Z"/><path class="cls-17" d="M66.93,9.08a1.89,1.89,0,0,0-1-2c-1.27-.54-3,2.52-3,2.52h0a60,60,0,0,1-14.78,1.52A92.93,92.93,0,0,1,34,9.79c-2.48-.45-4.08-.93-4.06-1.31,0-.63.83-1,1.32-1.22l.35-.12h0l.08-.07h0c.54-.44,2.53-1.85,2.53-1.85h0c.79-.08,18.51-1.79,19.36-1.51a1.87,1.87,0,0,1,.34.15,18.17,18.17,0,0,1,2.61,2.28c.55,0,1.13,0,1.74,0,3.55.11,7.77.62,8.23.91s.9,1.69.9,1.69Z"/><path class="cls-18" d="M43.48,4.81l1.05,4.4s8.83-3.57,11.64-3.08L53.43,3.92S45.43,4.71,43.48,4.81Z"/><path class="cls-3" d="M67,10.47c-.43,1.58-1.69,2.62-2.83,2.31s-1.7-1.84-1.28-3.42S64.63,6.74,65.76,7,67.47,8.88,67,10.47Z"/><path class="cls-19" d="M67.88,10.65h0a9.08,9.08,0,0,1-1.32,1.07,2.42,2.42,0,0,1-.61.55,1.67,1.67,0,0,1-.69.26,1.42,1.42,0,0,1-.58,0,1.36,1.36,0,0,1-.72-.46h0a1.7,1.7,0,0,1-.26-.38h0a3.2,3.2,0,0,1-.16-2.23A3.44,3.44,0,0,1,64.31,8a2.08,2.08,0,0,1,1.18-.66,1.37,1.37,0,0,1,.57,0,1.47,1.47,0,0,1,.6.33,5.11,5.11,0,0,1,1.71,1.2.75.75,0,0,1,.21.47A1.93,1.93,0,0,1,67.88,10.65Z"/><path class="cls-20" d="M43.6,9.17,43,4.84s-3.54.2-5.37.26L35.9,7.75A26.72,26.72,0,0,0,43.6,9.17Z"/><path class="cls-21" d="M59.39,6.19s-3.14.62-6.56,1.64c0,0,7.19.25,8.41,0s1.55-.88,3.53-1.13Z"/><path class="cls-22" d="M20.28,5.68l-.67,0A24.22,24.22,0,0,0,16.4,9.24a5,5,0,0,0-.22.49l-1.92.32-.76,2.3c-.28-.55-.54-1.08-.79-1.61h0a53.8,53.8,0,0,1-2.53-6c0-.13-.35-1-.39-1.17l9.08.58Z"/><path class="cls-22" d="M19.1,5.07a19.25,19.25,0,0,0-4.76,1.24c-1.94.89-1.64,4.33-1.63,4.43-.26-.52-.49-1-.72-1.52h0C11.27,7.63,10.28,5,9.79,3.56l8.41.55Z"/><path class="cls-23" d="M12,9.22C11.27,7.63,10.28,5,9.79,3.56l8.41.55h0s-5.5.8-6.32,1.55S12,9.09,12,9.22Z"/><path class="cls-3" d="M0,11.74s5.86.81,11.21,1,9.39.68,9.42-.59Z"/><path class="cls-24" d="M20.1,11.61c-7-.33-12.26-.68-20-.38l0,.51c8,.59,13,.91,20.05.91C20.05,12.65,21.4,12.05,20.1,11.61Z"/><path class="cls-10" d="M66.83,11.54h0A4.5,4.5,0,0,1,65.54,13C60.08,16.8,49.9,17.28,40,16.55a175.64,175.64,0,0,1-21.23-3h0a123.16,123.16,0,0,0,24.62,1.6c14.54-.39,19.49-4.18,19.49-4.18a3.09,3.09,0,0,0,.48,1.22,1.54,1.54,0,0,0,.9.64,2.4,2.4,0,0,0,1.8-.55A7,7,0,0,0,66.83,11.54Z"/><path class="cls-10" d="M66.83,11.55A4.5,4.5,0,0,1,65.54,13C60.08,16.8,49.9,17.28,40,16.55l-.19-.08C55,16,61.58,13.06,63.31,12.14c.34-.18.49-.28.49-.28a1.51,1.51,0,0,0,2.21.37A4.45,4.45,0,0,0,66.83,11.55Z"/><path class="cls-22" d="M66.55,11.73a2.42,2.42,0,0,1-.61.55,1.67,1.67,0,0,1-.69.26,1.42,1.42,0,0,1-.58,0,1.56,1.56,0,0,1-1-.84h0a25.67,25.67,0,0,0,3.19-1.05c1.4-.59,1.67-1.16,1.71-1.26C68.64,10.12,67.51,11.07,66.55,11.73Z"/><path class="cls-22" d="M67.87,10.66a9.08,9.08,0,0,1-1.32,1.07,2.42,2.42,0,0,1-.61.55,1.67,1.67,0,0,1-.69.26,1.42,1.42,0,0,1-.58,0,1.36,1.36,0,0,1-.72-.46h0A11,11,0,0,0,67.87,10.66Z"/><path class="cls-7" d="M32.83,15.5s-.94-.43-.48-1.15,5.34-.93,6.79.16c.52.4-.55,1.37-.55,1.37S33.74,15.7,32.83,15.5Z"/><path class="cls-25" d="M38.52,18.9l-.09.39a0,0,0,0,1,0,0c-.15.71-.28,1.2-.28,1.2h-.71s-.23-.45-.56-1.07h0l-.15-.28h0A12.63,12.63,0,0,0,34.64,16c-.53-.29-2.18-.61-2.15-1.14,0,0,0-.56,1.49-.78s4.45.08,5,.65a.4.4,0,0,1,.08.16h0a.88.88,0,0,1,0,.24h0A17.71,17.71,0,0,1,38.52,18.9Z"/><path class="cls-7" d="M39.43,20.82a1.67,1.67,0,1,1-1.76-1.64A1.71,1.71,0,0,1,39.43,20.82Z"/><path class="cls-8" d="M37.3,21.85h0a1,1,0,0,1-.1-1.95.55.55,0,0,1,.18,0,.93.93,0,0,1,.72.91A.92.92,0,0,1,37.3,21.85Z"/><path class="cls-26" d="M37.3,21.85a.93.93,0,0,1-.72-.91.91.91,0,0,1,.77-1,.93.93,0,0,1,.72.91A.92.92,0,0,1,37.3,21.85Z"/><path class="cls-10" d="M39.06,15.14h0a4.91,4.91,0,0,0-3.19-.3c-1.69.45-.49.59.18,1.57a18.31,18.31,0,0,1,1,2.33c.25.28,1.5.15,1.5.15l-.09.39v0h0l-1.55.12h0c-.67-1.24-1.75-3.17-2.23-3.43s-2.18-.61-2.15-1.14c0,0,0-.56,1.49-.78s4.45.08,5,.65A.71.71,0,0,1,39.06,15.14Z"/><path class="cls-10" d="M35.12,16.14a11.09,11.09,0,0,1,1.6,3A12.63,12.63,0,0,0,34.64,16c-.53-.29-2.18-.61-2.15-1.14,0,0,0-.56,1.49-.78s4.45.08,5,.65a.4.4,0,0,1,.08.16,8.59,8.59,0,0,0-4.2-.19C32.41,15.19,34.22,15.16,35.12,16.14Z"/><path class="cls-22" d="M42.76,18a1.71,1.71,0,0,1,1.47-.8l-.13-.44-3-.13Z"/><path class="cls-11" d="M42.54,17.83A2.23,2.23,0,0,1,44.17,17l-.07-.23-3-.16Z"/><path class="cls-27" d="M38.73,15.74a2.58,2.58,0,0,0-2.25-.28,3.62,3.62,0,0,1,1,2.15l.81,0A10,10,0,0,0,38.73,15.74Z"/><path class="cls-23" d="M53.81,13.69s-3.34,2.57-2.28,2.62,11.64-3.66,13.87-5.69Z"/><path class="cls-28" d="M65.4,10.62a39.29,39.29,0,0,1-7.1,2.88c-.26.07-.52.14-.77.19l-.83.16a8.91,8.91,0,0,1-1,.1h0a3.8,3.8,0,0,1-2.32-.49l-.2-.15c-.42-.37.09-.8,1.09-1.23h0c.22-.1.47-.19.73-.29h0l.61-.21.85-.26c3.13-.92,7.43-1.74,8.5-1.94a.69.69,0,0,1,.47.09A.67.67,0,0,1,65.4,10.62Z"/><path class="cls-29" d="M65.4,10.62c-2.61,1.34-9.5,4.58-12,2.84l0-.34a49.75,49.75,0,0,1,12.1-3.66A.67.67,0,0,1,65.4,10.62Z"/><path class="cls-30" d="M55.83,11.51l1.52,0s5.76-1.91,8.09-2.07L65,9.37A85,85,0,0,0,55.83,11.51Z"/><path class="cls-31" d="M35.62,10.82l11.11,5.52-1.14.28L31.71,10l-.35-.17-3-.13a41.2,41.2,0,0,1-5.82-.84l-.37-.1,9.23-1.55.09,0,.12,0h0l.08-.07h0c.54-.44,2.53-1.85,2.53-1.85h0L35.62,4,50.55,2.17,54,3.85a18.17,18.17,0,0,1,2.61,2.28c.55,0,1.13,0,1.74,0l.11,0h0c-2.4,0-12.21,3.49-23.86,3.59-.19,0-.38,0-.57,0h-.43Z"/><polygon class="cls-32" points="33.24 4.03 45.59 16.61 47.45 16.7 34.89 3.93 33.24 4.03"/><polygon class="cls-33" points="34.89 3.93 47.09 16.33 47.62 16.45 35.35 3.88 34.89 3.93"/><polygon class="cls-22" points="35.41 6.24 35.85 4.9 36.37 4.93 35.35 3.88 33.24 4.03 35.41 6.24"/><polygon class="cls-23" points="34.9 5.72 34.98 4.01 35.74 4.28 35.35 3.88 33.24 4.03 34.9 5.72"/><path class="cls-34" d="M45.16,16.57a3.2,3.2,0,0,1,2.73,0l.37.31a4.83,4.83,0,0,1-3,0Z"/><polygon class="cls-35" points="55.7 13.95 55.69 13.95 54.26 12.08 54.27 12.07 55 11.79 55.01 11.78 56.7 13.85 55.7 13.95"/><path class="cls-36" d="M58.3,13.5c-.26.07-.52.14-.77.19l-1.91-2.12.85-.26Z"/><path class="cls-37" d="M72.79,7.82h0l-.33.23h0L72,6c.17,0,.33-.08.48-.1h0Z"/><path class="cls-38" d="M72,8.36c-.14.08-.3.15-.46.23L71,6.35l.52-.17Z"/><path class="cls-7" d="M72.51,1.08,74.67.21,73.05,1.79S56.18,4.25,46.34,3.19l.83-.74Z"/><path class="cls-39" d="M47.12,2.87s6,1.27,25.89-1.43L74.67.21,73.78.07,72.22.84l-37.6.46S45.5,1.22,47.12,2.87Z"/><path class="cls-40" d="M46.42,1.7S71,1.54,72.51,1.08,74.35.16,74.35.16l.32,0a7.6,7.6,0,0,1-1.81,1C71.5,1.6,47.12,2.87,47.12,2.87Z"/><path class="cls-7" d="M35.45,1.24s9.36-1,11.15.5-1.11,1.54-1.11,1.54Z"/><path class="cls-7" d="M3.71,2.62S6.1,3,8.6,3.46c4,.76,38.86,1.84,37.95-1Z"/><path class="cls-41" d="M46.21,2.83c-2.1,1.08-13.39.37-23.43.1h0C15,2.72,7.73,3,7.73,3l-4-.42L29.86,1.44c4.76-.14,13-.43,13.85-.32a7.11,7.11,0,0,1,.89.17,5.18,5.18,0,0,1,.67.23c.7.3.93.63,1,.89h0A.59.59,0,0,1,46.21,2.83Z"/><polygon class="cls-42" points="3.71 2.62 1.97 0 3.41 0.13 7.73 3.04 3.71 2.62"/><path class="cls-40" d="M46.26,2.41h0c-1.31.49-13.38.46-18.08.37s-20.65.13-20.65.13L7.08,2.6s7.1-.19,20.45-.05,17.65-1,17.74-1C46,1.82,46.2,2.15,46.26,2.41Z"/><path class="cls-43" d="M6.73,2.37l.35.23s29.14.47,37.52-1.31L43.05,1S19.22,3,6.73,2.37Z"/><polygon class="cls-7" points="7.04 2.97 3.02 0.25 2.08 0.17 3.71 2.62 7.04 2.97"/></g></g></g></svg>