<svg xmlns="http://www.w3.org/2000/svg" viewBox="0 0 157.94 53.94"><defs><style>.cls-1{fill:#0a1031;}</style></defs><g id="Слой_2" data-name="Слой 2"><g id="interior"><path class="cls-1" d="M95.42,53.94c-15,0-32.6-.9-44.69-1.52-6-.31-10.26-.53-12.11-.53C29.86,51.89.34,53.1,0,53.11l0-1c.3,0,29.84-1.22,38.62-1.22,1.87,0,6.19.22,12.16.53,21.11,1.08,65,3.33,72.27-1.3.62-.39.64-.59.64-.59-.4-1.55-15-2-25.63-2.37-21.47-.71-35.64-1.45-36.86-5.09a1.57,1.57,0,0,1,.2-1.4c2.6-4,25.28-6.18,52.43-8.49,10.67-.91,19.92-1.69,22-2.4-1.32-.63-6.17-1.53-10.88-2.41-11.67-2.18-26.19-4.89-28.28-9.2a2.55,2.55,0,0,1,.06-2.4C101.12,7.38,155.5.3,157.81,0l.13,1c-19.41,2.5-57,8.9-60.34,15.25a1.52,1.52,0,0,0,0,1.49c1.87,3.86,17.33,6.74,27.56,8.66,9.59,1.78,11.84,2.31,12,3.35,0,.26-.07.63-.71.9-1.85.79-10.94,1.56-22.44,2.54-19.56,1.66-49.13,4.18-51.67,8a.53.53,0,0,0-.09.53C63.24,45,83.39,45.67,98.1,46.16c18.43.6,26,1.05,26.56,3.1.24.87-.75,1.5-1.07,1.7C120.06,53.22,108.76,53.94,95.42,53.94Z"/></g></g></svg>