<svg xmlns="http://www.w3.org/2000/svg" xmlns:xlink="http://www.w3.org/1999/xlink" viewBox="0 0 900 400"><defs><style>.cls-1{fill:none;}.cls-2{isolation:isolate;}.cls-3{clip-path:url(#clip-path);}.cls-4{fill:url(#Безымянный_градиент_61);}.cls-5{opacity:0.81;mix-blend-mode:screen;}.cls-6{fill:#439fc2;}.cls-7{fill:#3b40b9;opacity:0.5;}.cls-15,.cls-7{mix-blend-mode:multiply;}.cls-8{fill:#79a5b9;}.cls-16,.cls-17,.cls-8{mix-blend-mode:soft-light;}.cls-9{fill:#0c1552;}.cls-10{fill:#000940;}.cls-11{fill:#040d4c;}.cls-12{fill:#000931;}.cls-13{opacity:0.2;}.cls-14{fill:url(#Безымянный_градиент_98);}.cls-15{fill:#190024;opacity:0.1;}.cls-16{fill:#5fcccc;opacity:0.51;}.cls-18{fill:#e9e9a8;}</style><clipPath id="clip-path"><rect class="cls-1" width="900" height="400"/></clipPath><linearGradient id="Безымянный_градиент_61" x1="450" y1="308.67" x2="450" gradientUnits="userSpaceOnUse"><stop offset="0" stop-color="#009bbd"/><stop offset="0.53" stop-color="#4c009f"/><stop offset="0.99" stop-color="#19002a"/></linearGradient><radialGradient id="Безымянный_градиент_98" cx="689.27" cy="212.47" r="73.46" gradientTransform="matrix(0.98, -0.21, 0.21, 0.98, -20.77, 126.52)" gradientUnits="userSpaceOnUse"><stop offset="0.59" stop-color="#5102ae"/><stop offset="1" stop-color="#798df1"/></radialGradient></defs><g class="cls-2"><g id="space"><g class="cls-3"><rect class="cls-4" width="900" height="308.67"/><g class="cls-5"><circle class="cls-6" cx="507.96" cy="129.1" r="0.46"/><circle class="cls-6" cx="601.69" cy="89.51" r="0.46"/><path class="cls-6" d="M653.61,100a.46.46,0,1,0,.45-.46A.45.45,0,0,0,653.61,100Z"/><circle class="cls-6" cx="423.31" cy="209.24" r="0.46"/><path class="cls-6" d="M319.13,235.54a.46.46,0,0,0,.46.46.45.45,0,0,0,.46-.46.46.46,0,0,0-.46-.46A.47.47,0,0,0,319.13,235.54Z"/><path class="cls-6" d="M465.27,236a.46.46,0,0,0,.92,0,.46.46,0,0,0-.92,0Z"/><path class="cls-6" d="M266.24,192.37a.45.45,0,0,0,.46.46.46.46,0,0,0,.46-.46.47.47,0,0,0-.46-.46A.46.46,0,0,0,266.24,192.37Z"/><path class="cls-6" d="M277.63,257.44a.46.46,0,1,0,.46-.46A.47.47,0,0,0,277.63,257.44Z"/><path class="cls-6" d="M300,177.46a.46.46,0,1,0,.46-.46A.47.47,0,0,0,300,177.46Z"/><path class="cls-6" d="M630.09,309.15a.45.45,0,0,0,.46.46.46.46,0,1,0,0-.91A.45.45,0,0,0,630.09,309.15Z"/><path class="cls-6" d="M584.41,267.89a.47.47,0,0,0,.46.46.46.46,0,1,0,0-.92A.47.47,0,0,0,584.41,267.89Z"/><path class="cls-6" d="M588.59,331.05a.46.46,0,1,0,.46-.46A.46.46,0,0,0,588.59,331.05Z"/><path class="cls-6" d="M611,251.07a.46.46,0,1,0,.91,0,.46.46,0,1,0-.91,0Z"/><path class="cls-6" d="M615.13,180.52a.46.46,0,1,0,.45-.46A.45.45,0,0,0,615.13,180.52Z"/><path class="cls-6" d="M380.62,210.13a.46.46,0,0,0,.46.46.46.46,0,1,0-.46-.46Z"/><path class="cls-6" d="M335.39,234.46a.46.46,0,1,0,.46-.46A.47.47,0,0,0,335.39,234.46Z"/><path class="cls-6" d="M209.07,200.19a.46.46,0,1,0,.45-.46A.45.45,0,0,0,209.07,200.19Z"/><path class="cls-6" d="M167.56,222.08a.46.46,0,0,0,.46.46.45.45,0,0,0,.46-.46.46.46,0,0,0-.46-.46A.47.47,0,0,0,167.56,222.08Z"/><circle class="cls-6" cx="225.78" cy="199.1" r="0.46"/><path class="cls-6" d="M366,93.22a.75.75,0,1,0,1.5,0,.75.75,0,0,0-1.5,0Z"/><path class="cls-6" d="M452.87,75a.75.75,0,1,0,1.49,0,.75.75,0,1,0-1.49,0Z"/><path class="cls-6" d="M408.42,139.88a.75.75,0,1,0,.74-.75A.74.74,0,0,0,408.42,139.88Z"/><circle class="cls-6" cx="224.95" cy="163.6" r="0.75"/><path class="cls-6" d="M516.37,145.23a.75.75,0,1,0,1.5,0,.75.75,0,0,0-1.5,0Z"/><circle class="cls-6" cx="196.44" cy="130.6" r="0.46"/><circle class="cls-6" cx="55.27" cy="94.72" r="0.75"/><circle class="cls-6" cx="142.1" cy="76.5" r="0.75"/><circle class="cls-6" cx="97.65" cy="141.37" r="0.75"/><circle class="cls-6" cx="205.61" cy="146.73" r="0.75"/></g><circle class="cls-6" cx="297.62" cy="76.41" r="0.46"/><path class="cls-6" d="M204.34,36.83a.46.46,0,1,1-.46-.46A.45.45,0,0,1,204.34,36.83Z"/><path class="cls-6" d="M152,47.34a.46.46,0,1,1-.46-.46A.47.47,0,0,1,152,47.34Z"/><path class="cls-6" d="M382.72,156.55a.46.46,0,1,1-.46-.46A.46.46,0,0,1,382.72,156.55Z"/><path class="cls-6" d="M486.44,182.86a.45.45,0,0,1-.46.45.46.46,0,1,1,.46-.45Z"/><circle class="cls-6" cx="339.84" cy="183.31" r="0.46"/><path class="cls-6" d="M539.34,139.68a.46.46,0,0,1-.46.46.46.46,0,1,1,.46-.46Z"/><circle class="cls-6" cx="527.49" cy="204.75" r="0.46"/><path class="cls-6" d="M505.54,124.77a.46.46,0,1,1-.91,0,.46.46,0,1,1,.91,0Z"/><path class="cls-6" d="M175.49,256.47a.47.47,0,0,1-.46.46.46.46,0,0,1-.46-.46A.45.45,0,0,1,175,256,.46.46,0,0,1,175.49,256.47Z"/><path class="cls-6" d="M221.16,215.2a.45.45,0,0,1-.46.46.46.46,0,0,1-.46-.46.47.47,0,0,1,.46-.46A.46.46,0,0,1,221.16,215.2Z"/><circle class="cls-6" cx="216.53" cy="278.36" r="0.46"/><path class="cls-6" d="M194.59,198.39a.46.46,0,1,1-.46-.46A.46.46,0,0,1,194.59,198.39Z"/><path class="cls-6" d="M190.45,127.83a.46.46,0,0,1-.92,0,.46.46,0,0,1,.92,0Z"/><circle class="cls-6" cx="424.49" cy="157.45" r="0.46"/><circle class="cls-6" cx="469.72" cy="181.77" r="0.46"/><circle class="cls-6" cx="596.05" cy="147.5" r="0.46"/><circle class="cls-6" cx="637.55" cy="169.4" r="0.46"/><path class="cls-6" d="M580.25,146.42a.46.46,0,1,1-.46-.46A.46.46,0,0,1,580.25,146.42Z"/><path class="cls-6" d="M439.54,40.53a.75.75,0,1,1-.75-.75A.76.76,0,0,1,439.54,40.53Z"/><path class="cls-6" d="M352.71,22.31a.75.75,0,1,1-.75-.74A.75.75,0,0,1,352.71,22.31Z"/><path class="cls-6" d="M397.16,87.19a.75.75,0,1,1-.75-.75A.76.76,0,0,1,397.16,87.19Z"/><path class="cls-6" d="M208.7,160.42a.46.46,0,1,1-.46-.46A.46.46,0,0,1,208.7,160.42Z"/><path class="cls-6" d="M261.59,117.25a.46.46,0,1,1-.46-.46A.45.45,0,0,1,261.59,117.25Z"/><path class="cls-6" d="M250.2,182.31a.45.45,0,0,1-.46.46.46.46,0,0,1-.46-.46.47.47,0,0,1,.46-.46A.46.46,0,0,1,250.2,182.31Z"/><path class="cls-6" d="M227.8,102.33a.45.45,0,0,1-.46.46.46.46,0,1,1,0-.91A.45.45,0,0,1,227.8,102.33Z"/><path class="cls-6" d="M147.21,135a.46.46,0,0,1-.92,0,.46.46,0,0,1,.92,0Z"/><path class="cls-6" d="M192.44,159.33a.46.46,0,0,1-.92,0,.46.46,0,0,1,.92,0Z"/><circle class="cls-6" cx="161.05" cy="18.09" r="0.75"/><path class="cls-6" d="M119.42,64.75a.75.75,0,0,1-1.5,0,.75.75,0,0,1,1.5,0Z"/><circle class="cls-6" cx="580.62" cy="110.92" r="0.75"/><circle class="cls-6" cx="288.45" cy="92.54" r="0.75"/><circle class="cls-6" cx="239.54" cy="63" r="0.46"/><path class="cls-6" d="M146.26,23.41a.45.45,0,0,1-.46.46.46.46,0,1,1,0-.91A.45.45,0,0,1,146.26,23.41Z"/><path class="cls-6" d="M93.89,33.93a.46.46,0,1,1-.46-.46A.47.47,0,0,1,93.89,33.93Z"/><path class="cls-6" d="M282.22,169.9a.45.45,0,0,1-.46.46.46.46,0,0,1-.46-.46.47.47,0,0,1,.46-.46A.46.46,0,0,1,282.22,169.9Z"/><circle class="cls-6" cx="162.62" cy="201.79" r="0.46"/><path class="cls-6" d="M136.51,185a.46.46,0,1,1-.46-.45A.46.46,0,0,1,136.51,185Z"/><path class="cls-6" d="M132.37,114.42a.46.46,0,1,1-.92,0,.46.46,0,1,1,.92,0Z"/><path class="cls-6" d="M294.63,8.9a.75.75,0,1,1-.75-.75A.75.75,0,0,1,294.63,8.9Z"/><path class="cls-6" d="M231.12,79.13a.75.75,0,1,1-.75-.75A.75.75,0,0,1,231.12,79.13Z"/><path class="cls-6" d="M609.59,77.91a.46.46,0,0,1-.92,0,.46.46,0,1,1,.92,0Z"/><circle class="cls-6" cx="750.3" cy="42.03" r="0.75"/><path class="cls-6" d="M664.22,23.81a.75.75,0,0,1-1.5,0,.75.75,0,1,1,1.5,0Z"/><path class="cls-6" d="M708.67,88.69a.75.75,0,1,1-.75-.75A.75.75,0,0,1,708.67,88.69Z"/><circle class="cls-6" cx="599.96" cy="94.04" r="0.75"/><path class="cls-6" d="M668,275a.45.45,0,0,1-.46.46.46.46,0,0,1-.46-.46.47.47,0,0,1,.46-.46A.46.46,0,0,1,668,275Z"/><path class="cls-6" d="M709.48,296.91a.46.46,0,1,1-.45-.46A.46.46,0,0,1,709.48,296.91Z"/><path class="cls-6" d="M651.72,273.93a.46.46,0,1,1-.46-.46A.46.46,0,0,1,651.72,273.93Z"/><path class="cls-6" d="M652.84,238.43a.75.75,0,1,1-.74-.75A.75.75,0,0,1,652.84,238.43Z"/><circle class="cls-6" cx="680.6" cy="205.43" r="0.46"/><path class="cls-6" d="M735.69,151.33a.75.75,0,1,1-.75-.75A.75.75,0,0,1,735.69,151.33Z"/><circle class="cls-6" cx="779.39" cy="216.2" r="0.75"/><path class="cls-6" d="M672.19,221.55a.75.75,0,1,1-.75-.75A.75.75,0,0,1,672.19,221.55Z"/><circle class="cls-6" cx="282.23" cy="253.86" r="0.46"/><path class="cls-6" d="M386.4,280.17a.46.46,0,1,1-.45-.46A.45.45,0,0,1,386.4,280.17Z"/><path class="cls-6" d="M240.27,280.62a.46.46,0,0,1-.46.46.46.46,0,1,1,.46-.46Z"/><path class="cls-6" d="M439.3,237a.46.46,0,1,1-.46-.46A.46.46,0,0,1,439.3,237Z"/><circle class="cls-6" cx="427.45" cy="302.06" r="0.46"/><path class="cls-6" d="M405.51,222.08a.46.46,0,1,1-.46-.45A.46.46,0,0,1,405.51,222.08Z"/><circle class="cls-6" cx="324.45" cy="254.76" r="0.46"/><path class="cls-6" d="M370.15,279.08a.46.46,0,0,1-.46.46.45.45,0,0,1-.46-.46.46.46,0,0,1,.46-.46A.47.47,0,0,1,370.15,279.08Z"/><path class="cls-6" d="M496.47,244.81a.46.46,0,0,1-.46.46.46.46,0,0,1,0-.92A.46.46,0,0,1,496.47,244.81Z"/><path class="cls-6" d="M480.21,243.73a.46.46,0,1,1-.46-.46A.45.45,0,0,1,480.21,243.73Z"/><circle class="cls-6" cx="338.75" cy="137.84" r="0.75"/><path class="cls-6" d="M297.12,184.5a.75.75,0,1,1-.75-.75A.75.75,0,0,1,297.12,184.5Z"/><path class="cls-6" d="M481.33,208.23a.75.75,0,1,1-.74-.75A.75.75,0,0,1,481.33,208.23Z"/><path class="cls-6" d="M509.55,175.22a.45.45,0,0,1-.46.46.46.46,0,0,1-.46-.46.47.47,0,0,1,.46-.46A.46.46,0,0,1,509.55,175.22Z"/><path class="cls-6" d="M500.68,191.35a.75.75,0,1,1-.75-.75A.76.76,0,0,1,500.68,191.35Z"/><path class="cls-6" d="M334.1,56.76a.45.45,0,0,1-.46.46.46.46,0,0,1-.46-.46.47.47,0,0,1,.46-.46A.46.46,0,0,1,334.1,56.76Z"/><circle class="cls-6" cx="322.25" cy="121.83" r="0.46"/><path class="cls-6" d="M300.31,41.85a.46.46,0,0,1-.46.46.46.46,0,0,1,0-.92A.46.46,0,0,1,300.31,41.85Z"/><path class="cls-6" d="M391.27,64.58a.46.46,0,1,1-.45-.46A.45.45,0,0,1,391.27,64.58Z"/><path class="cls-6" d="M432.78,86.47a.46.46,0,1,1-.92,0,.46.46,0,1,1,.92,0Z"/><path class="cls-6" d="M375,63.49a.46.46,0,0,1-.46.46.45.45,0,0,1-.46-.46.46.46,0,0,1,.46-.46A.47.47,0,0,1,375,63.49Z"/><path class="cls-6" d="M376.14,28a.75.75,0,1,1-.75-.75A.75.75,0,0,1,376.14,28Z"/><circle class="cls-6" cx="502.69" cy="5.76" r="0.75"/><path class="cls-6" d="M395.48,11.12a.75.75,0,1,1-.75-.75A.76.76,0,0,1,395.48,11.12Z"/><path class="cls-6" d="M304.32,92.3a.46.46,0,1,1-.46-.46A.47.47,0,0,1,304.32,92.3Z"/><path class="cls-6" d="M295.44,108.43a.75.75,0,1,1-.75-.75A.75.75,0,0,1,295.44,108.43Z"/><path class="cls-6" d="M188.24,89.3a.46.46,0,1,1-.46-.45A.46.46,0,0,1,188.24,89.3Z"/><path class="cls-6" d="M94.5,49.72a.46.46,0,1,1-.45-.46A.45.45,0,0,1,94.5,49.72Z"/><circle class="cls-6" cx="41.67" cy="60.23" r="0.46"/><circle class="cls-6" cx="80.15" cy="140.72" r="0.46"/><circle class="cls-6" cx="151.3" cy="130.14" r="0.46"/><path class="cls-6" d="M118,115.22a.46.46,0,1,1-.46-.45A.45.45,0,0,1,118,115.22Z"/><path class="cls-6" d="M37.37,147.9a.46.46,0,0,1-.92,0,.46.46,0,0,1,.92,0Z"/><circle class="cls-6" cx="51.21" cy="30.98" r="0.75"/><path class="cls-6" d="M179.36,105.43a.75.75,0,1,1-.75-.75A.75.75,0,0,1,179.36,105.43Z"/><path class="cls-6" d="M130.16,75.89a.46.46,0,0,1-.92,0,.46.46,0,0,1,.92,0Z"/><circle class="cls-6" cx="184.04" cy="21.79" r="0.75"/><path class="cls-6" d="M121.28,92a.75.75,0,1,1-.75-.75A.75.75,0,0,1,121.28,92Z"/><circle class="cls-6" cx="228.91" cy="150.73" r="0.75"/><circle class="cls-6" cx="223.81" cy="69.65" r="0.46"/><path class="cls-6" d="M212.87,134.72a.46.46,0,0,1-.46.46.46.46,0,0,1,0-.92A.46.46,0,0,1,212.87,134.72Z"/><path class="cls-6" d="M190.47,54.74a.46.46,0,0,1-.46.46.46.46,0,0,1,0-.92A.46.46,0,0,1,190.47,54.74Z"/><circle class="cls-6" cx="194.02" cy="105.19" r="0.46"/><circle class="cls-6" cx="184.85" cy="121.32" r="0.75"/><circle class="cls-6" cx="708.45" cy="11.98" r="0.46"/><path class="cls-6" d="M656.53,22.5a.46.46,0,1,1-.45-.46A.45.45,0,0,1,656.53,22.5Z"/><circle class="cls-6" cx="694.56" cy="102.98" r="0.46"/><path class="cls-6" d="M766.16,92.4a.46.46,0,1,1-.92,0,.46.46,0,0,1,.92,0Z"/><circle class="cls-6" cx="731.91" cy="77.49" r="0.46"/><path class="cls-6" d="M651.77,110.16a.46.46,0,1,1-.46-.45A.45.45,0,0,1,651.77,110.16Z"/><circle class="cls-6" cx="744.1" cy="38.16" r="0.46"/><circle class="cls-6" cx="734.94" cy="54.29" r="0.75"/><path class="cls-6" d="M692.8,64.46a.46.46,0,1,1-.45-.46A.46.46,0,0,1,692.8,64.46Z"/><path class="cls-6" d="M656.32,105.29a.45.45,0,0,1-.46.46.46.46,0,0,1-.46-.46.47.47,0,0,1,.46-.46A.46.46,0,0,1,656.32,105.29Z"/><path class="cls-6" d="M683.93,80.59a.75.75,0,1,1-1.5,0,.75.75,0,0,1,1.5,0Z"/><path class="cls-6" d="M728.83,44.81a.46.46,0,1,1-.46-.46A.47.47,0,0,1,728.83,44.81Z"/><path class="cls-6" d="M717.44,109.88a.46.46,0,1,1-.92,0,.46.46,0,0,1,.92,0Z"/><path class="cls-6" d="M695,29.9a.46.46,0,1,1-.46-.46A.47.47,0,0,1,695,29.9Z"/><path class="cls-6" d="M699.05,80.35a.47.47,0,0,1-.46.46.46.46,0,1,1,0-.92A.47.47,0,0,1,699.05,80.35Z"/><circle class="cls-6" cx="689.42" cy="96.47" r="0.75"/><circle class="cls-6" cx="358.14" cy="114.9" r="0.46"/><circle class="cls-6" cx="433.68" cy="101.04" r="0.75"/><path class="cls-6" d="M462.65,68a.46.46,0,0,1-.46.45.46.46,0,1,1,0-.91A.46.46,0,0,1,462.65,68Z"/><path class="cls-6" d="M517.28,13.94a.75.75,0,1,1-.75-.75A.76.76,0,0,1,517.28,13.94Z"/><path class="cls-6" d="M453.77,84.16a.75.75,0,1,1-.75-.75A.75.75,0,0,1,453.77,84.16Z"/><circle class="cls-6" cx="509.13" cy="12.62" r="0.46"/><circle class="cls-6" cx="547.61" cy="93.11" r="0.46"/><path class="cls-6" d="M504.83,100.29a.46.46,0,0,1-.46.46.47.47,0,0,1-.46-.46.46.46,0,0,1,.46-.46A.45.45,0,0,1,504.83,100.29Z"/><path class="cls-6" d="M545.86,54.58a.45.45,0,0,1-.46.46.46.46,0,1,1,0-.91A.45.45,0,0,1,545.86,54.58Z"/><path class="cls-6" d="M509.38,95.42a.46.46,0,0,1-.92,0,.46.46,0,0,1,.92,0Z"/><path class="cls-6" d="M537,70.71a.75.75,0,1,1-.75-.75A.76.76,0,0,1,537,70.71Z"/><path class="cls-6" d="M548.1,20a.47.47,0,0,1-.46.46.46.46,0,1,1,0-.92A.47.47,0,0,1,548.1,20Z"/><circle class="cls-6" cx="542.48" cy="86.6" r="0.75"/><circle class="cls-6" cx="589.81" cy="15.09" r="0.46"/><path class="cls-6" d="M707.68,169.66a.46.46,0,1,0,.45-.45A.45.45,0,0,0,707.68,169.66Z"/><circle class="cls-6" cx="760.51" cy="180.18" r="0.46"/><path class="cls-6" d="M504.7,95.22a.46.46,0,1,0,.46-.45A.46.46,0,0,0,504.7,95.22Z"/><path class="cls-6" d="M401,121.53a.46.46,0,1,0,.46-.46A.47.47,0,0,0,401,121.53Z"/><path class="cls-6" d="M547.12,122a.46.46,0,1,0,.46-.46A.47.47,0,0,0,547.12,122Z"/><path class="cls-6" d="M348.09,78.36a.46.46,0,0,0,.46.46.46.46,0,1,0,0-.92A.46.46,0,0,0,348.09,78.36Z"/><path class="cls-6" d="M359.48,143.43a.46.46,0,0,0,.92,0,.46.46,0,1,0-.92,0Z"/><path class="cls-6" d="M381.88,63.45a.46.46,0,0,0,.46.46.46.46,0,0,0,0-.92A.46.46,0,0,0,381.88,63.45Z"/><path class="cls-6" d="M711.94,195.14a.45.45,0,0,0,.46.46.46.46,0,0,0,.46-.46.47.47,0,0,0-.46-.46A.46.46,0,0,0,711.94,195.14Z"/><path class="cls-6" d="M666.26,153.88a.46.46,0,0,0,.92,0,.46.46,0,0,0-.92,0Z"/><path class="cls-6" d="M670.44,217a.46.46,0,1,0,.46-.46A.46.46,0,0,0,670.44,217Z"/><path class="cls-6" d="M692.84,137.06a.46.46,0,1,0,.45-.46A.46.46,0,0,0,692.84,137.06Z"/><path class="cls-6" d="M697,66.5a.46.46,0,1,0,.91,0,.46.46,0,1,0-.91,0Z"/><path class="cls-6" d="M462.47,96.12a.46.46,0,0,0,.46.46.45.45,0,0,0,.46-.46.46.46,0,0,0-.46-.46A.47.47,0,0,0,462.47,96.12Z"/><circle class="cls-6" cx="417.7" cy="120.45" r="0.46"/><path class="cls-6" d="M290.92,86.17a.46.46,0,1,0,.45-.45A.45.45,0,0,0,290.92,86.17Z"/><circle class="cls-6" cx="249.87" cy="108.07" r="0.46"/><circle class="cls-6" cx="307.63" cy="85.09" r="0.46"/><circle class="cls-6" cx="473.23" cy="173.37" r="0.75"/><path class="cls-6" d="M559.31,155.15a.75.75,0,0,0,1.5,0,.75.75,0,1,0-1.5,0Z"/><path class="cls-6" d="M490.26,25.86a.75.75,0,1,0,.75-.75A.75.75,0,0,0,490.26,25.86Z"/><circle class="cls-6" cx="306.8" cy="49.59" r="0.75"/><circle class="cls-6" cx="598.97" cy="31.21" r="0.75"/><path class="cls-6" d="M544.69,197.23a.45.45,0,0,0,.46.46.46.46,0,1,0,0-.91A.45.45,0,0,0,544.69,197.23Z"/><circle class="cls-6" cx="441.43" cy="223.54" r="0.46"/><path class="cls-6" d="M587.11,224a.46.46,0,0,0,.46.46.46.46,0,1,0,0-.92A.46.46,0,0,0,587.11,224Z"/><path class="cls-6" d="M388.07,180.37a.47.47,0,0,0,.46.46.46.46,0,0,0,0-.92A.47.47,0,0,0,388.07,180.37Z"/><path class="cls-6" d="M399.47,245.44a.46.46,0,1,0,.91,0,.46.46,0,1,0-.91,0Z"/><circle class="cls-6" cx="422.33" cy="165.46" r="0.46"/><path class="cls-6" d="M502.46,198.13a.46.46,0,0,0,.92,0,.46.46,0,0,0-.92,0Z"/><path class="cls-6" d="M457.23,222.46a.46.46,0,0,0,.46.46.47.47,0,0,0,.46-.46.46.46,0,0,0-.46-.46A.45.45,0,0,0,457.23,222.46Z"/><path class="cls-6" d="M610.69,32.56a.46.46,0,1,0,.45-.46A.45.45,0,0,0,610.69,32.56Z"/><circle class="cls-6" cx="653.57" cy="59.32" r="0.46"/><circle class="cls-6" cx="568.92" cy="33.45" r="0.46"/><circle class="cls-6" cx="579.21" cy="110.7" r="0.75"/><path class="cls-6" d="M665.29,92.49a.75.75,0,1,0,1.5,0,.75.75,0,0,0-1.5,0Z"/><path class="cls-6" d="M650.67,134.57a.47.47,0,0,0,.46.46.46.46,0,0,0,.46-.46.45.45,0,0,0-.46-.46A.46.46,0,0,0,650.67,134.57Z"/><circle class="cls-6" cx="547.41" cy="160.87" r="0.46"/><circle class="cls-6" cx="693.55" cy="161.33" r="0.46"/><circle class="cls-6" cx="608.9" cy="135.46" r="0.46"/><path class="cls-6" d="M563.21,159.79a.47.47,0,0,0,.46.46.46.46,0,1,0,0-.92A.47.47,0,0,0,563.21,159.79Z"/><path class="cls-6" d="M355.16,143.38a.46.46,0,0,0,.46.46.46.46,0,0,0,0-.92A.46.46,0,0,0,355.16,143.38Z"/><circle class="cls-6" cx="398.04" cy="170.15" r="0.46"/><path class="cls-6" d="M312.93,144.28a.46.46,0,1,0,.46-.46A.47.47,0,0,0,312.93,144.28Z"/><path class="cls-6" d="M322.94,221.52a.75.75,0,1,0,.75-.75A.74.74,0,0,0,322.94,221.52Z"/><path class="cls-6" d="M409.77,203.31a.75.75,0,1,0,.75-.75A.75.75,0,0,0,409.77,203.31Z"/><path class="cls-6" d="M395.15,245.39a.46.46,0,1,0,.45-.46A.46.46,0,0,0,395.15,245.39Z"/><circle class="cls-6" cx="353.38" cy="246.29" r="0.46"/><path class="cls-6" d="M397.41,209a.46.46,0,1,0,.46-.46A.47.47,0,0,0,397.41,209Z"/><circle class="cls-6" cx="414.13" cy="207.95" r="0.46"/><circle class="cls-6" cx="331.36" cy="188.18" r="0.46"/><path class="cls-6" d="M347.16,187.1a.46.46,0,1,0,.46-.46A.47.47,0,0,0,347.16,187.1Z"/><path class="cls-6" d="M512.46,275.38a.75.75,0,0,0,1.5,0,.75.75,0,0,0-1.5,0Z"/><path class="cls-6" d="M599.3,257.16a.75.75,0,1,0,1.49,0,.75.75,0,1,0-1.49,0Z"/><path class="cls-6" d="M346,151.6a.75.75,0,0,0,1.5,0,.75.75,0,1,0-1.5,0Z"/><circle class="cls-6" cx="638.96" cy="133.22" r="0.75"/><path class="cls-6" d="M599.18,256.25a.45.45,0,0,0,.46.45.46.46,0,1,0-.46-.45Z"/><path class="cls-6" d="M557.77,240.46a.46.46,0,1,0,.91,0,.46.46,0,1,0-.91,0Z"/><circle class="cls-6" cx="584.8" cy="223.64" r="0.46"/><path class="cls-6" d="M588.48,153.08a.46.46,0,1,0,.92,0,.46.46,0,0,0-.92,0Z"/><path class="cls-6" d="M450.81,241.73a.75.75,0,1,0,.75-.75A.75.75,0,0,0,450.81,241.73Z"/><path class="cls-6" d="M544.61,145.9a.46.46,0,0,0,.92,0,.46.46,0,0,0-.92,0Z"/><path class="cls-6" d="M470,197.28a.75.75,0,1,0,.75-.75A.75.75,0,0,0,470,197.28Z"/><circle class="cls-6" cx="557.55" cy="179.07" r="0.75"/><circle class="cls-6" cx="542.64" cy="221.15" r="0.46"/><path class="cls-6" d="M584.6,247.91a.45.45,0,0,0,.46.46.46.46,0,0,0,.46-.46.47.47,0,0,0-.46-.46A.46.46,0,0,0,584.6,247.91Z"/><path class="cls-6" d="M500,222.05a.46.46,0,1,0,.46-.46A.46.46,0,0,0,500,222.05Z"/><circle class="cls-6" cx="455.18" cy="246.37" r="0.46"/><path class="cls-6" d="M529.71,219.81a.75.75,0,1,0,.75-.75A.75.75,0,0,0,529.71,219.81Z"/><path class="cls-6" d="M395.77,10.29a.46.46,0,1,0,.92,0,.46.46,0,1,0-.92,0Z"/><path class="cls-6" d="M514.91,42.18a.46.46,0,1,0,.46-.46A.47.47,0,0,0,514.91,42.18Z"/><path class="cls-6" d="M321.13,61.67a.75.75,0,1,0,.75-.75A.75.75,0,0,0,321.13,61.67Z"/><path class="cls-6" d="M408,43.46a.75.75,0,1,0,.75-.75A.75.75,0,0,0,408,43.46Z"/><path class="cls-6" d="M393.34,85.54a.46.46,0,1,0,.91,0,.46.46,0,1,0-.91,0Z"/><circle class="cls-6" cx="436.22" cy="112.3" r="0.46"/><circle class="cls-6" cx="351.57" cy="86.44" r="0.46"/><path class="cls-6" d="M499.32,22.87a.46.46,0,1,0,.46-.46A.47.47,0,0,0,499.32,22.87Z"/><circle class="cls-6" cx="396.06" cy="49.18" r="0.46"/><path class="cls-6" d="M457.09,23.77a.47.47,0,0,0,.46.46.46.46,0,1,0,0-.92A.47.47,0,0,0,457.09,23.77Z"/><path class="cls-6" d="M411.86,48.09a.46.46,0,1,0,.92,0,.46.46,0,1,0-.92,0Z"/><circle class="cls-6" cx="487.61" cy="21.53" r="0.75"/><path class="cls-6" d="M277.83,16.59a.47.47,0,0,0,.46.46.46.46,0,0,0,.46-.46.45.45,0,0,0-.46-.46A.46.46,0,0,0,277.83,16.59Z"/><path class="cls-6" d="M161,174.87a.75.75,0,1,0,1.49,0,.75.75,0,1,0-1.49,0Z"/><circle class="cls-6" cx="248.55" cy="156.65" r="0.75"/><circle class="cls-6" cx="324.23" cy="47.69" r="0.46"/><circle class="cls-6" cx="271.34" cy="4.52" r="0.46"/><path class="cls-6" d="M282.27,69.58a.46.46,0,0,0,.46.46.45.45,0,0,0,.46-.46.46.46,0,0,0-.46-.46A.47.47,0,0,0,282.27,69.58Z"/><path class="cls-6" d="M340,46.6a.47.47,0,0,0,.46.46.46.46,0,1,0,0-.92A.47.47,0,0,0,340,46.6Z"/><circle class="cls-6" cx="214.17" cy="12.33" r="0.46"/><path class="cls-6" d="M172.21,34.23a.46.46,0,1,0,.45-.46A.45.45,0,0,0,172.21,34.23Z"/><path class="cls-6" d="M230,11.25a.46.46,0,1,0,.46-.46A.45.45,0,0,0,230,11.25Z"/><path class="cls-6" d="M310.87,106.53a.45.45,0,0,0,.46.45.46.46,0,1,0-.46-.45Z"/><circle class="cls-6" cx="345.12" cy="91.61" r="0.46"/><path class="cls-6" d="M253.7,114.34a.46.46,0,1,0,.45-.46A.46.46,0,0,0,253.7,114.34Z"/><circle class="cls-6" cx="270.41" cy="113.26" r="0.46"/><circle class="cls-6" cx="269.58" cy="77.76" r="0.75"/><path class="cls-6" d="M170.59,82.81a.75.75,0,1,0,.75-.75A.76.76,0,0,0,170.59,82.81Z"/><path class="cls-6" d="M178.75,27.36a.75.75,0,1,0,.75-.75A.75.75,0,0,0,178.75,27.36Z"/><circle class="cls-6" cx="287.46" cy="32.71" r="0.75"/><path class="cls-6" d="M272.49,84.86a.53.53,0,1,1-.53-.53A.53.53,0,0,1,272.49,84.86Z"/><path class="cls-6" d="M164.32,39.18a.53.53,0,0,1-1.06,0,.53.53,0,0,1,1.06,0Z"/><circle class="cls-6" cx="103.35" cy="51.31" r="0.53"/><circle class="cls-6" cx="369.65" cy="177.34" r="0.53"/><circle class="cls-6" cx="489.34" cy="207.7" r="0.53"/><path class="cls-6" d="M321.22,208.23a.53.53,0,0,1-.53.53.53.53,0,1,1,0-1.06A.53.53,0,0,1,321.22,208.23Z"/><path class="cls-6" d="M550.92,157.88a.53.53,0,0,1-.53.53.53.53,0,1,1,0-1.06A.53.53,0,0,1,550.92,157.88Z"/><path class="cls-6" d="M537.77,233a.53.53,0,1,1-.53-.53A.53.53,0,0,1,537.77,233Z"/><path class="cls-6" d="M511.92,140.67a.53.53,0,1,1-.53-.53A.53.53,0,0,1,511.92,140.67Z"/><circle class="cls-6" cx="130.49" cy="292.65" r="0.53"/><circle class="cls-6" cx="183.2" cy="245.03" r="0.53"/><circle class="cls-6" cx="178.38" cy="317.92" r="0.53"/><circle class="cls-6" cx="152.53" cy="225.62" r="0.53"/><path class="cls-6" d="M148.29,144.2a.53.53,0,0,1-.53.53.53.53,0,0,1-.53-.53.52.52,0,0,1,.53-.53A.53.53,0,0,1,148.29,144.2Z"/><path class="cls-6" d="M418.91,178.38a.53.53,0,1,1-.53-.53A.53.53,0,0,1,418.91,178.38Z"/><path class="cls-6" d="M471.11,206.45a.53.53,0,1,1-.53-.53A.53.53,0,0,1,471.11,206.45Z"/><circle class="cls-6" cx="616.37" cy="166.9" r="0.53"/><circle class="cls-6" cx="664.26" cy="192.17" r="0.53"/><circle class="cls-6" cx="597.6" cy="165.65" r="0.53"/><path class="cls-6" d="M435.75,43.45a.87.87,0,1,1-.87-.87A.86.86,0,0,1,435.75,43.45Z"/><path class="cls-6" d="M335.54,22.43a.87.87,0,1,1-.86-.86A.87.87,0,0,1,335.54,22.43Z"/><path class="cls-6" d="M386.84,97.3a.87.87,0,1,1-.87-.87A.87.87,0,0,1,386.84,97.3Z"/><path class="cls-6" d="M599.43,124.68a.87.87,0,1,1-1.73,0,.87.87,0,0,1,1.73,0Z"/><path class="cls-6" d="M262.25,103.47a.87.87,0,1,1-1.73,0,.87.87,0,0,1,1.73,0Z"/><path class="cls-6" d="M632,86.59a.53.53,0,1,1-.53-.53A.53.53,0,0,1,632,86.59Z"/><path class="cls-6" d="M795.24,45.18a.87.87,0,0,1-1.73,0,.87.87,0,1,1,1.73,0Z"/><circle class="cls-6" cx="694.17" cy="24.16" r="0.86"/><path class="cls-6" d="M746.34,99a.87.87,0,1,1-.87-.87A.87.87,0,0,1,746.34,99Z"/><path class="cls-6" d="M621.75,105.2a.87.87,0,1,1-1.73,0,.87.87,0,0,1,1.73,0Z"/><path class="cls-6" d="M567.68,224a.46.46,0,0,1,.46-.46.47.47,0,0,1,.46.46.46.46,0,0,1-.46.46A.45.45,0,0,1,567.68,224Z"/><path class="cls-6" d="M661.41,263.56a.47.47,0,0,1,.46-.46.46.46,0,0,1,.46.46.45.45,0,0,1-.46.46A.46.46,0,0,1,661.41,263.56Z"/><path class="cls-6" d="M713.79,253.05a.45.45,0,0,1,.46-.46.46.46,0,0,1,.46.46.47.47,0,0,1-.46.46A.46.46,0,0,1,713.79,253.05Z"/><path class="cls-6" d="M483,143.84a.46.46,0,0,1,.46-.46.45.45,0,0,1,.46.46.46.46,0,0,1-.46.46A.47.47,0,0,1,483,143.84Z"/><path class="cls-6" d="M379.32,117.53a.46.46,0,1,1,.45.46A.45.45,0,0,1,379.32,117.53Z"/><path class="cls-6" d="M525.45,117.07a.47.47,0,0,1,.46-.46.46.46,0,0,1,.46.46.45.45,0,0,1-.46.46A.46.46,0,0,1,525.45,117.07Z"/><path class="cls-6" d="M326.42,160.7a.46.46,0,0,1,.92,0,.46.46,0,0,1-.92,0Z"/><path class="cls-6" d="M337.81,95.64a.46.46,0,0,1,.46-.46.46.46,0,1,1-.46.46Z"/><circle class="cls-6" cx="360.67" cy="175.61" r="0.46"/><path class="cls-6" d="M690.27,43.92a.46.46,0,1,1,.46.46A.47.47,0,0,1,690.27,43.92Z"/><path class="cls-6" d="M644.6,85.18a.46.46,0,1,1,.45.46A.45.45,0,0,1,644.6,85.18Z"/><path class="cls-6" d="M648.77,22a.45.45,0,0,1,.46-.45.46.46,0,1,1-.46.45Z"/><path class="cls-6" d="M671.17,102a.46.46,0,0,1,.46-.46.47.47,0,0,1,.46.46.46.46,0,0,1-.46.46A.45.45,0,0,1,671.17,102Z"/><path class="cls-6" d="M675.31,172.56a.46.46,0,0,1,.46-.46.46.46,0,0,1,0,.92A.46.46,0,0,1,675.31,172.56Z"/><path class="cls-6" d="M440.81,142.94a.46.46,0,1,1,.46.46A.46.46,0,0,1,440.81,142.94Z"/><circle class="cls-6" cx="396.03" cy="118.62" r="0.46"/><path class="cls-6" d="M269.25,152.89a.45.45,0,0,1,.46-.46.46.46,0,0,1,.46.46.47.47,0,0,1-.46.46A.46.46,0,0,1,269.25,152.89Z"/><path class="cls-6" d="M227.75,131a.46.46,0,1,1,.45.46A.46.46,0,0,1,227.75,131Z"/><circle class="cls-6" cx="285.97" cy="153.97" r="0.46"/><circle class="cls-6" cx="426.97" cy="259.86" r="0.75"/><circle class="cls-6" cx="513.8" cy="278.07" r="0.75"/><circle class="cls-6" cx="469.35" cy="213.2" r="0.75"/><circle class="cls-6" cx="285.13" cy="189.47" r="0.75"/><path class="cls-6" d="M576.56,207.85a.75.75,0,0,1,1.5,0,.75.75,0,1,1-1.5,0Z"/><path class="cls-6" d="M256.17,222.47a.45.45,0,0,1,.46-.45.46.46,0,1,1-.46.45Z"/><circle class="cls-6" cx="115.45" cy="258.36" r="0.75"/><circle class="cls-6" cx="202.29" cy="276.57" r="0.75"/><path class="cls-6" d="M157.09,211.7a.75.75,0,1,1,.75.75A.75.75,0,0,1,157.09,211.7Z"/><circle class="cls-6" cx="45.08" cy="98.96" r="0.46"/><path class="cls-6" d="M40.77,186.63a.46.46,0,1,1-.45-.46A.46.46,0,0,1,40.77,186.63Z"/><path class="cls-6" d="M55.36,69.71a.75.75,0,1,1-.75-.75A.75.75,0,0,1,55.36,69.71Z"/><circle class="cls-6" cx="12.23" cy="116.37" r="0.75"/><path class="cls-6" d="M39.83,75a.46.46,0,1,1-.46-.46A.46.46,0,0,1,39.83,75Z"/><path class="cls-6" d="M56.65,253.41a.46.46,0,0,1-.92,0,.46.46,0,1,1,.92,0Z"/><path class="cls-6" d="M30.08,236.6a.46.46,0,0,1-.46.45.46.46,0,1,1,0-.91A.46.46,0,0,1,30.08,236.6Z"/><path class="cls-6" d="M25.94,166a.47.47,0,0,1-.46.46A.46.46,0,0,1,25,166a.45.45,0,0,1,.46-.46A.46.46,0,0,1,25.94,166Z"/><path class="cls-6" d="M45.32,181.76a.46.46,0,0,1-.46.46.47.47,0,0,1-.46-.46.46.46,0,0,1,.46-.46A.45.45,0,0,1,45.32,181.76Z"/><path class="cls-6" d="M11.53,166.85a.46.46,0,0,1-.46.46.47.47,0,0,1-.46-.46.46.46,0,0,1,.46-.46A.45.45,0,0,1,11.53,166.85Z"/><circle class="cls-6" cx="72.18" cy="157.05" r="0.75"/><path class="cls-6" d="M23.73,127.51a.46.46,0,0,1-.46.46.46.46,0,1,1,.46-.46Z"/><circle class="cls-6" cx="77.61" cy="73.42" r="0.75"/><circle class="cls-6" cx="14.1" cy="143.64" r="0.75"/><circle class="cls-6" cx="55.28" cy="226.49" r="0.75"/><path class="cls-6" d="M65.77,85.85a.47.47,0,0,0,.46.46.46.46,0,0,0,.46-.46.45.45,0,0,0-.46-.46A.46.46,0,0,0,65.77,85.85Z"/><path class="cls-6" d="M64.16,134.43a.75.75,0,1,0,.75-.75A.75.75,0,0,0,64.16,134.43Z"/><circle class="cls-6" cx="73.07" cy="78.98" r="0.75"/><path class="cls-6" d="M57.89,90.8a.53.53,0,1,1-.53-.53A.53.53,0,0,1,57.89,90.8Z"/><path class="cls-6" d="M46.63,277.24a.53.53,0,0,1-1.06,0,.53.53,0,0,1,1.06,0Z"/><path class="cls-6" d="M41.85,195.82a.53.53,0,0,1-.53.53.53.53,0,1,1,0-1.06A.53.53,0,0,1,41.85,195.82Z"/><circle class="cls-6" cx="51.4" cy="263.32" r="0.75"/><path class="cls-6" d="M860.55,74.22a.46.46,0,1,1-.46-.46A.47.47,0,0,1,860.55,74.22Z"/><path class="cls-6" d="M855.79,161.89a.47.47,0,0,1-.46.46.46.46,0,1,1,0-.92A.47.47,0,0,1,855.79,161.89Z"/><circle class="cls-6" cx="869.63" cy="44.97" r="0.75"/><circle class="cls-6" cx="827.25" cy="91.63" r="0.75"/><path class="cls-6" d="M854.84,50.3a.46.46,0,0,1-.46.46.47.47,0,0,1-.46-.46.46.46,0,0,1,.46-.46A.45.45,0,0,1,854.84,50.3Z"/><circle class="cls-6" cx="802.01" cy="60.81" r="0.46"/><path class="cls-6" d="M871.66,228.67a.46.46,0,1,1-.92,0,.46.46,0,0,1,.92,0Z"/><path class="cls-6" d="M845.09,211.86a.46.46,0,0,1-.46.45.46.46,0,1,1,0-.91A.46.46,0,0,1,845.09,211.86Z"/><circle class="cls-6" cx="840.49" cy="141.3" r="0.46"/><path class="cls-6" d="M803.08,76.6a.46.46,0,0,1-.46.46.47.47,0,0,1-.46-.46.46.46,0,0,1,.46-.46A.45.45,0,0,1,803.08,76.6Z"/><path class="cls-6" d="M750.71,87.11a.46.46,0,1,1-.46-.46A.47.47,0,0,1,750.71,87.11Z"/><path class="cls-6" d="M789.19,167.6a.46.46,0,1,1-.46-.46A.47.47,0,0,1,789.19,167.6Z"/><path class="cls-6" d="M860.33,157a.46.46,0,1,1-.91,0,.46.46,0,1,1,.91,0Z"/><path class="cls-6" d="M826.54,142.11a.46.46,0,0,1-.46.46.47.47,0,0,1-.46-.46.46.46,0,0,1,.46-.46A.45.45,0,0,1,826.54,142.11Z"/><circle class="cls-6" cx="745.49" cy="174.78" r="0.46"/><path class="cls-6" d="M760.54,57.86a.75.75,0,1,1-.75-.75A.75.75,0,0,1,760.54,57.86Z"/><circle class="cls-6" cx="887.19" cy="132.31" r="0.75"/><circle class="cls-6" cx="838.28" cy="102.77" r="0.46"/><circle class="cls-6" cx="892.62" cy="48.68" r="0.75"/><path class="cls-6" d="M829.86,118.9a.75.75,0,1,1-.75-.75A.76.76,0,0,1,829.86,118.9Z"/><circle class="cls-6" cx="870.29" cy="201.75" r="0.75"/><circle class="cls-6" cx="881.24" cy="61.11" r="0.46"/><circle class="cls-6" cx="879.92" cy="109.69" r="0.75"/><path class="cls-6" d="M887.33,54.24a.75.75,0,1,0,.75-.75A.75.75,0,0,0,887.33,54.24Z"/><path class="cls-6" d="M872.9,66.06a.53.53,0,1,1-.53-.53A.53.53,0,0,1,872.9,66.06Z"/><circle class="cls-6" cx="811.93" cy="78.19" r="0.53"/><circle class="cls-6" cx="666.42" cy="131.45" r="0.86"/><path class="cls-6" d="M732.59,160.5a.45.45,0,0,1-.46.45.46.46,0,1,1,.46-.45Z"/><path class="cls-6" d="M742.42,131.25a.75.75,0,1,1-.75-.75A.75.75,0,0,1,742.42,131.25Z"/><path class="cls-6" d="M700,177.9a.75.75,0,1,1-.75-.75A.75.75,0,0,1,700,177.9Z"/><path class="cls-6" d="M726.88,136.57a.46.46,0,1,1-.46-.46A.46.46,0,0,1,726.88,136.57Z"/><path class="cls-6" d="M674.51,147.08a.46.46,0,1,1-.46-.45A.46.46,0,0,1,674.51,147.08Z"/><path class="cls-6" d="M675.12,162.87a.46.46,0,1,1-.91,0,.46.46,0,1,1,.91,0Z"/><path class="cls-6" d="M710.78,189.05a.46.46,0,1,1-.46-.46A.47.47,0,0,1,710.78,189.05Z"/><path class="cls-6" d="M765.41,135a.75.75,0,1,1-.75-.75A.75.75,0,0,1,765.41,135Z"/><path class="cls-6" d="M752.83,147.38a.46.46,0,1,0,.46-.46A.46.46,0,0,0,752.83,147.38Z"/><circle class="cls-6" cx="751.96" cy="195.96" r="0.75"/><circle class="cls-6" cx="760.12" cy="140.52" r="0.75"/><path class="cls-6" d="M744.94,152.33a.53.53,0,1,1-.53-.53A.53.53,0,0,1,744.94,152.33Z"/><circle class="cls-6" cx="683.97" cy="164.47" r="0.53"/><circle class="cls-6" cx="861.11" cy="252.5" r="0.53"/><circle class="cls-6" cx="856.33" cy="171.08" r="0.53"/><circle class="cls-6" cx="866.41" cy="238.58" r="0.75"/><circle class="cls-6" cx="265.79" cy="206.35" r="0.75"/><polygon class="cls-7" points="903.41 295.66 512.36 320.99 594.33 325.17 609.37 322.62 699.28 324.1 639.86 328.5 719.09 331.05 901.18 328.98 903.41 295.66"/><polygon class="cls-8" points="341.77 300.51 414.01 308.53 346.02 310.99 415.44 314 449.64 314.17 460.01 312.48 497.02 313.67 439.34 317.65 419.98 318.45 437.62 321.66 453.38 322.98 480.6 322.33 586.48 324.94 539.86 320.7 529.87 319.36 566.01 317.51 593.93 316.4 608.44 315.58 643.36 313.35 649.2 306.74 642.4 301.98 341.77 300.51"/><path class="cls-9" d="M357.88,359h0a1.18,1.18,0,0,1-.33.21c-2.83,1.38-8.62,5.19-24.39,3.89-6-.49-20.63-1.64-24.1-3.48h0c-.63-.33-.89-.66-.66-1,1.54-2,20.33-2.74,23.67-2.56s24.39,1.28,25.86,2.56C358,358.73,358,358.84,357.88,359Z"/><path class="cls-10" d="M357.88,359h0l-.33.21s-17.91-3.06-27.91-2.48A150.47,150.47,0,0,0,309,359.58h0c-.63-.33-.89-.66-.66-1,1.54-2,20.33-2.74,23.67-2.56s24.39,1.28,25.86,2.56C358,358.73,358,358.84,357.88,359Z"/><polygon class="cls-7" points="362.73 333.22 243.58 345.09 151.55 347.04 694.83 350.41 352.28 361.74 287.62 350.41 268.98 351.07 252.9 351.07 186.01 357.68 162.96 362.13 237.31 365.57 483.32 385 704.55 400 0 400 0 325.67 362.73 333.22"/><path class="cls-11" d="M603.88,370.77l0,0a1.43,1.43,0,0,1-.33.39c-2.83,2.54-18.2,6.33-24.39,7.2-6,.85-20.63-3-24.1-6.45h0c-.63-.61-.89-1.21-.66-1.76,1.54-3.69,20.33-5.08,23.67-4.75s24.39,2.37,25.86,4.75A.55.55,0,0,1,603.88,370.77Z"/><path class="cls-12" d="M603.88,370.77l0,0-.33.39s-17.2-4.41-27.2-3.35a152.7,152.7,0,0,0-21.29,4.1h0c-.63-.61-.89-1.21-.66-1.76,1.54-3.69,20.33-5.08,23.67-4.75s24.39,2.37,25.86,4.75A.55.55,0,0,1,603.88,370.77Z"/><path class="cls-11" d="M57.72,375.28l0,0a1.43,1.43,0,0,1-.33.39c-2.83,2.54-18.2,6.33-24.39,7.2-6,.85-20.63-3-24.1-6.45h0c-.63-.61-.89-1.21-.66-1.77,1.54-3.68,20.33-5.08,23.67-4.74s24.39,2.36,25.86,4.74A.56.56,0,0,1,57.72,375.28Z"/><path class="cls-12" d="M57.72,375.28l0,0-.33.39s-17.2-4.41-27.2-3.35a152.7,152.7,0,0,0-21.29,4.1h0c-.63-.61-.89-1.21-.66-1.77,1.54-3.68,20.33-5.08,23.67-4.74s24.39,2.36,25.86,4.74A.56.56,0,0,1,57.72,375.28Z"/><path class="cls-9" d="M593.43,319.06l-.09.14a3.66,3.66,0,0,1-1.07.85c-3.21,1.84-11.46,3.25-13,3.52-4.72.86-12.95-1.38-15.7-3.1-.9-.57-1.21-1.08-.64-1.41C565.27,317.7,594.77,316.74,593.43,319.06Z"/><path class="cls-10" d="M593.43,319.06l-.09.14-1.07.85s-1.92-1.56-2.55-1.56-12.81-.75-17.31,0a89.94,89.94,0,0,0-8.8,2h0c-.9-.57-1.21-1.08-.64-1.41C565.27,317.7,594.77,316.74,593.43,319.06Z"/><path class="cls-9" d="M507.52,305l-.09.07a4.09,4.09,0,0,1-1.07.43c-3.21.92-11.46,1.62-13,1.76a56,56,0,0,1-15.7-1.55c-.9-.29-1.21-.54-.64-.71C479.36,304.28,508.86,303.8,507.52,305Z"/><path class="cls-10" d="M507.52,305l-.09.07-1.07.43a12.53,12.53,0,0,0-2.55-.78c-.62,0-12.81-.38-17.31,0s-8.8,1-8.8,1h0c-.9-.29-1.21-.54-.64-.71C479.36,304.28,508.86,303.8,507.52,305Z"/><path class="cls-9" d="M632.18,366.56a13,13,0,0,1-3.76.65,14.72,14.72,0,0,1-3.74-.72h0c-.67-.27-1-.58-.35-.91,1-.53,7.2-.47,8.21.31C632.82,366.13,632.63,366.36,632.18,366.56Z"/><path class="cls-10" d="M632.18,366.56a15.18,15.18,0,0,0-2.2-.34,24.83,24.83,0,0,0-5.3.27h0c-.67-.27-1-.58-.35-.91,1-.53,7.2-.47,8.21.31C632.82,366.13,632.63,366.36,632.18,366.56Z"/><path class="cls-9" d="M572.47,306.84a13.39,13.39,0,0,1-3.76.65,14.72,14.72,0,0,1-3.74-.72h0c-.67-.27-1-.58-.35-.91,1-.54,7.2-.47,8.21.31C573.11,306.41,572.92,306.64,572.47,306.84Z"/><path class="cls-10" d="M572.47,306.84a15.18,15.18,0,0,0-2.2-.34,24.83,24.83,0,0,0-5.3.27h0c-.67-.27-1-.58-.35-.91,1-.54,7.2-.47,8.21.31C573.11,306.41,572.92,306.64,572.47,306.84Z"/><path class="cls-9" d="M395,303.32a13,13,0,0,1-3.76.65,14.72,14.72,0,0,1-3.74-.72h0c-.67-.27-1-.58-.35-.91,1-.53,7.2-.47,8.21.31C395.59,302.89,395.4,303.12,395,303.32Z"/><path class="cls-10" d="M395,303.32a15.18,15.18,0,0,0-2.2-.34,24.83,24.83,0,0,0-5.3.27h0c-.67-.27-1-.58-.35-.91,1-.53,7.2-.47,8.21.31C395.59,302.89,395.4,303.12,395,303.32Z"/><path class="cls-9" d="M442.54,305.84a13,13,0,0,1-3.76.65,14.65,14.65,0,0,1-3.74-.71l0,0c-.67-.26-1-.58-.35-.9,1-.54,7.2-.48,8.21.3C443.18,305.41,443,305.64,442.54,305.84Z"/><path class="cls-10" d="M442.54,305.84a16.69,16.69,0,0,0-2.2-.34,24.5,24.5,0,0,0-5.3.28l0,0c-.67-.26-1-.58-.35-.9,1-.54,7.2-.48,8.21.3C443.18,305.41,443,305.64,442.54,305.84Z"/><path class="cls-11" d="M549.15,369.65c-2.76,1.18-8.79,1.93-11,1.91a43.2,43.2,0,0,1-11-2.1l-.11,0c-2-.79-2.85-1.71-1-2.66,3-1.58,21.09-1.39,24.05.9C551,368.4,550.46,369.07,549.15,369.65Z"/><path class="cls-12" d="M549.15,369.65a48.12,48.12,0,0,0-6.45-1,72.11,72.11,0,0,0-15.53.8l-.11,0c-2-.79-2.85-1.71-1-2.66,3-1.58,21.09-1.39,24.05.9C551,368.4,550.46,369.07,549.15,369.65Z"/><path class="cls-11" d="M148.86,381.52c-2.75,1.18-8.79,1.93-11,1.91a43,43,0,0,1-11-2.1l-.12,0c-2-.79-2.84-1.71-1-2.66,3-1.58,21.09-1.39,24.05.9C150.74,380.27,150.18,380.94,148.86,381.52Z"/><path class="cls-12" d="M148.86,381.52a48,48,0,0,0-6.44-1,72.11,72.11,0,0,0-15.53.8l-.12,0c-2-.79-2.84-1.71-1-2.66,3-1.58,21.09-1.39,24.05.9C150.74,380.27,150.18,380.94,148.86,381.52Z"/><path class="cls-9" d="M467.12,324.15a8.94,8.94,0,0,1-3.76,1,10.17,10.17,0,0,1-3.74-1.12l0,0c-.67-.42-1-.91-.35-1.42,1-.84,7.2-.74,8.21.48C467.76,323.48,467.57,323.84,467.12,324.15Z"/><path class="cls-10" d="M467.12,324.15a10.9,10.9,0,0,0-2.2-.53,15.93,15.93,0,0,0-5.3.43l0,0c-.67-.42-1-.91-.35-1.42,1-.84,7.2-.74,8.21.48C467.76,323.48,467.57,323.84,467.12,324.15Z"/><g class="cls-13"><path class="cls-14" d="M733.9,146.28a38,38,0,0,1-.81,17.24c-.06.23-.13.46-.2.69a37.28,37.28,0,0,1-6.76,12.69,34.53,34.53,0,0,1-3,3.22,37.32,37.32,0,0,1-7.39,5.61h0c-.19.12-.38.22-.57.33A37.63,37.63,0,0,1,661,164.17c-.07-.22-.13-.45-.2-.67a37.41,37.41,0,0,1-1-15.86c.08-.5.17-1,.26-1.5a37.58,37.58,0,0,1,2.25-7.47,36.38,36.38,0,0,1,1.6-3.33c.09-.18.18-.36.29-.54a37.32,37.32,0,0,1,6.36-8.32q.27-.27.54-.51c.48-.47,1-.92,1.5-1.36.16-.13.31-.27.48-.4a37.59,37.59,0,0,1,46.7-.87c.26.19.51.39.75.59a37,37,0,0,1,3.57,3.27c.21.22.42.44.62.67a37.47,37.47,0,0,1,5.39,7.61c.11.19.2.38.3.56a37.5,37.5,0,0,1,2.89,7.51Q733.63,144.9,733.9,146.28Z"/><path class="cls-15" d="M675.94,138.85c0,1.39,5.89,2.72,6.59,1S675.91,136,675.94,138.85Z"/><path class="cls-15" d="M678.71,142.83c.45,1,1.68.76,1.73.26S678.26,141.82,678.71,142.83Z"/><path class="cls-15" d="M712.39,149.51c1.16-1.83,2-1.12,2.54-.41S712,150.08,712.39,149.51Z"/><path class="cls-15" d="M710.31,137c1.16-1.83,2-1.12,2.54-.41S709.94,137.59,710.31,137Z"/><path class="cls-15" d="M698.58,181.15c1.16-1.83,2-1.12,2.54-.41S698.22,181.72,698.58,181.15Z"/><path class="cls-15" d="M720.55,153c.34.72,1.7.58,1.43-.28S720,151.71,720.55,153Z"/><path class="cls-15" d="M686.13,127.45c.35.73,1.71.58,1.44-.27S685.56,126.22,686.13,127.45Z"/><path class="cls-16" d="M722.59,171.8c.62,0,3,1,3.15,2.23s-5.19,1.29-5.24.13A2.52,2.52,0,0,1,722.59,171.8Z"/><path class="cls-16" d="M716.15,135.71c.62,0,3,1,3.15,2.23s-5.19,1.29-5.25.13A2.54,2.54,0,0,1,716.15,135.71Z"/><path class="cls-16" d="M698.64,124c.27.55.61,3.08-.4,3.83s-3.66-3.9-2.68-4.51A2.51,2.51,0,0,1,698.64,124Z"/><g class="cls-17"><path class="cls-18" d="M708.65,131.29a4,4,0,0,0-.32-1.77.67.67,0,0,0-.16-.24.53.53,0,0,0-.53-.08,1.17,1.17,0,0,0-.79,1,1.43,1.43,0,0,0,.57,1.19.93.93,0,0,0,.71.23.55.55,0,0,0,.48-.5.12.12,0,0,0-.19.08Z"/><path class="cls-18" d="M718,132.8a1,1,0,0,0-.5-.86,1.08,1.08,0,0,0-.56.83.65.65,0,0,0,.61.69c.34,0,.59-.5.34-.74Z"/><path class="cls-18" d="M716.35,130a1.46,1.46,0,0,0-.21-.28.05.05,0,0,0,0,0s0,0,0,0-.06.27-.18.3l-.06,0s0,.07,0,.09a.32.32,0,0,0,.47-.16l0,0Z"/><path class="cls-18" d="M713.33,127.62a2,2,0,0,0-.39-.52.18.18,0,0,0-.07,0,.1.1,0,0,0-.07,0c-.18.15-.13.5-.35.56a.21.21,0,0,0-.11,0c-.05,0,0,.13.06.17a.61.61,0,0,0,.88-.3l0,.09Z"/><path class="cls-18" d="M718.85,124.94a2.5,2.5,0,0,0-.39-.53.1.1,0,0,0-.07,0,.13.13,0,0,0-.08,0c-.17.15-.12.51-.34.57,0,0-.09,0-.11,0s0,.13.06.17a.6.6,0,0,0,.87-.31l0,.1Z"/><path class="cls-18" d="M716.58,127.9a.5.5,0,0,0-.23-.41.72.72,0,0,0-.11.19.17.17,0,0,0,.06.19c.08.06.19,0,.28,0l0,.08Z"/><path class="cls-18" d="M715.44,127.67a.2.2,0,0,0-.08-.1.29.29,0,0,0-.13,0l-.36,0,.47.37,0,0s0,.11,0,.16.08.13.16.16C716.05,128.5,715.56,127.89,715.44,127.67Z"/><path class="cls-18" d="M709.46,126.8a.2.2,0,0,0-.08-.1.19.19,0,0,0-.13,0,2.2,2.2,0,0,1-.36,0l.47.37,0,0s0,.1,0,.15.08.14.16.16C710.07,127.62,709.58,127,709.46,126.8Z"/><path class="cls-18" d="M716.31,123.93l-.13-.12a.27.27,0,0,0,0,.32.16.16,0,0,0,.28,0c0-.07,0-.18.09-.16Z"/><path class="cls-18" d="M707.77,125.64a.25.25,0,0,1-.31.26.23.23,0,1,1,.3-.28Z"/><path class="cls-18" d="M710.16,126.88c.11.06.25.16.21.28s-.2.13-.32.12-.12,0-.14-.07.2-.2.17-.32.08,0,.06,0Z"/><path class="cls-18" d="M720.18,134.08a.59.59,0,0,0-.39-.39.31.31,0,0,0-.38.31.29.29,0,0,0,.08.14l.09.05a.48.48,0,0,0,.37,0,.25.25,0,0,0,.17-.3Z"/><path class="cls-18" d="M724.55,135.34s-.11,0-.13.1a.47.47,0,0,0,0,.17c0,.13-.16.21-.22.32a.69.69,0,0,0,.13.65s.07.1.12.1.07,0,.11-.05c.23-.15.44.05.67,0a.73.73,0,0,0,.4-.52A.76.76,0,0,0,724.55,135.34Z"/><path class="cls-18" d="M717.1,129.78a.35.35,0,0,1,.1.11.4.4,0,0,1-.34-.13c-.06,0-.11-.11-.09-.17s.06-.07.09-.11.07-.22.17-.23a.15.15,0,0,1,.12.1.43.43,0,0,1,0,.16l-.08.35Z"/><path class="cls-18" d="M716.07,131.38c0-.1-.19-.08-.23,0a.37.37,0,0,0,0,.29.34.34,0,0,0,.24-.31Z"/><path class="cls-18" d="M715.46,130a.32.32,0,0,0-.08-.12.14.14,0,0,0-.14,0c-.07,0,0,.15-.1.22s-.14.09-.16.17.06.15.15.15a.36.36,0,0,0,.21-.11.41.41,0,0,0,.12-.17.17.17,0,0,0-.06-.19Z"/><path class="cls-18" d="M715.12,129.44c0,.05,0,.09-.09.09a.14.14,0,0,1-.12-.06.18.18,0,0,1,0-.07.12.12,0,1,1,.14.11Z"/><path class="cls-18" d="M708.85,132.13c0,.05,0,.09-.09.09a.12.12,0,0,1-.12-.06.18.18,0,0,1,0-.07.12.12,0,1,1,.14.11Z"/><path class="cls-18" d="M715.65,129.09a.15.15,0,0,0,0-.25.4.4,0,0,0-.12.1.14.14,0,0,0,0,.15.08.08,0,0,0,.12,0Z"/><path class="cls-18" d="M707.46,123.34a.15.15,0,0,0,0-.24.2.2,0,0,0-.12.1.11.11,0,0,0,0,.14.08.08,0,0,0,.13,0Z"/><path class="cls-18" d="M706.38,128.4a.4.4,0,0,0-.06-.35l-.22.2a.31.31,0,0,0-.09.11.15.15,0,0,0,.14.19.23.23,0,0,0,.22-.14Z"/><path class="cls-18" d="M709.29,128.81l.39.37c0,.09-.16.06-.24,0a.45.45,0,0,1-.21-.18.15.15,0,0,1,.08-.22Z"/><path class="cls-18" d="M722.45,130.45a.19.19,0,0,0-.16-.28.27.27,0,0,0-.26.24.2.2,0,0,0,0,.17.21.21,0,0,0,.24,0,.77.77,0,0,0,.19-.17Z"/><path class="cls-18" d="M709.51,126.45a.3.3,0,0,0,0-.34.39.39,0,0,0-.21.15.25.25,0,0,0,0,.32c.09.07.26,0,.24-.12Z"/><path class="cls-18" d="M709.43,127.71a.18.18,0,0,1-.1.2l-.2-.19a.21.21,0,0,1,.31-.09Z"/><path class="cls-18" d="M720.61,132.19c-.05.13-.11.26-.17.39a.18.18,0,0,0,0,.12.22.22,0,0,0,.05.11c.09.13.21.27.36.23s.18-.26.22-.42.68-.9.34-1.19S720.72,132,720.61,132.19Z"/><path class="cls-18" d="M721.59,130l.09.05a.53.53,0,0,1-.22.12.2.2,0,0,1-.22-.08.12.12,0,0,1,.11-.18.43.43,0,0,1,.23.1Z"/><path class="cls-18" d="M714.94,130.85a.19.19,0,0,1-.1.17.18.18,0,0,1-.2,0s-.06-.09,0-.12l.06,0,.26,0v.05Z"/><path class="cls-18" d="M713.73,131.51c-.09,0-.16.07-.2.15s-.09.17-.18.18a.07.07,0,0,1-.06,0c0-.05,0-.11,0-.16a.8.8,0,0,0,0-.15.28.28,0,0,1,.24-.22.16.16,0,0,1,0,.29Z"/><path class="cls-18" d="M713.32,130.74l-.06-.08a.12.12,0,0,0-.1.11.1.1,0,0,0,.11.1c.05,0,.09-.08.06-.12Z"/><path class="cls-18" d="M711,131.05l-.05-.08a.11.11,0,0,0-.11.11.11.11,0,0,0,.11.1.09.09,0,0,0,.06-.13Z"/><path class="cls-18" d="M716.23,128.63c0,.06.1.08.15.05a.93.93,0,0,0,.15-.13.21.21,0,0,1,.19,0,.1.1,0,0,1,.09.07.09.09,0,0,1,0,.07.72.72,0,0,1-.19.33.34.34,0,0,1-.37.06.27.27,0,0,1-.13-.22.25.25,0,0,1,.13-.22Z"/><path class="cls-18" d="M705.38,120.07c0,.06.1.08.16.05a1.66,1.66,0,0,0,.14-.13.28.28,0,0,1,.2,0,.12.12,0,0,1,.09.08s0,0,0,.07a.66.66,0,0,1-.2.33.32.32,0,0,1-.36.06.25.25,0,0,1-.13-.22.26.26,0,0,1,.12-.22Z"/><path class="cls-18" d="M716.54,126.9a.16.16,0,0,0-.13-.17.25.25,0,0,0-.22.09s0,.08,0,.1a.1.1,0,0,0,.07,0h.3Z"/><path class="cls-18" d="M706,123.34a.76.76,0,0,0,.4-.46.14.14,0,0,0,0-.11c0-.07-.15,0-.23,0s-.27-.07-.41,0a.49.49,0,0,0-.26.19c-.11.13-.21.32-.09.44a.31.31,0,0,0,.23.05,1.61,1.61,0,0,0,.52-.14Z"/><path class="cls-18" d="M712.33,124.38c.13,0,.15-.19.13-.31a.31.31,0,0,0-.11-.21c-.09,0-.2,0-.28.11l-.19.2a.17.17,0,0,0-.06.11.11.11,0,0,0,.06.09,1.54,1.54,0,0,0,.5.24Z"/><path class="cls-18" d="M711.8,128.51c1.14.05,1.08-1.28.14-1.56S710.8,128.46,711.8,128.51Z"/><path class="cls-18" d="M717.49,131.32a.27.27,0,0,1-.41.11.78.78,0,0,1,.24-.3.24.24,0,0,1,.33.09l-.09.21Z"/><path class="cls-18" d="M714.94,134l-.13-.13a1.67,1.67,0,0,1-.49.43,1.31,1.31,0,0,0-.28.17.33.33,0,0,0-.12.29c0,.2.31.24.51.19a.94.94,0,0,0,.58-.47.63.63,0,0,0-.15-.71l-.17.18Z"/><path class="cls-18" d="M713.47,132.93c0-.08,0-.1-.11-.06a1,1,0,0,0-.22.19l-.46.5c-.08.09-.18.21-.18.29s.08.06.16,0a1.33,1.33,0,0,0,.24-.19,1.74,1.74,0,0,0,.59-.82l-.17.08Z"/><path class="cls-18" d="M712.66,132s0,.07-.07.07a.13.13,0,0,1-.1,0l-.07-.07a.13.13,0,0,1,0-.16.17.17,0,0,1,.17,0,.09.09,0,0,1,.06.06.08.08,0,0,1,0,.08Z"/><path class="cls-18" d="M713.62,126.18a2.38,2.38,0,0,0,.23-.45.21.21,0,0,0-.13,0,.45.45,0,0,0-.38.54.18.18,0,0,0,.06.09.12.12,0,0,0,.13,0,.34.34,0,0,0,.09-.12Z"/><path class="cls-18" d="M714.86,128.61l-.06-.08a.17.17,0,0,0-.11.11c0,.05,0,.12.08.1l0,0,.12-.16Z"/><path class="cls-18" d="M706.39,126.41a.66.66,0,0,0-.11-.24.19.19,0,0,0-.22-.08.16.16,0,0,0-.1.08.24.24,0,0,0,.08.33.23.23,0,0,0,.33-.1Z"/><path class="cls-18" d="M708.61,122.59a.17.17,0,0,1,0,.29.4.4,0,0,1-.18-.1.39.39,0,0,1,.16-.15Z"/><path class="cls-18" d="M710,124.24c0-.07-.12-.1-.15,0s0,.15.1.18a.16.16,0,0,0,0-.19Z"/><path class="cls-18" d="M718.53,133.47l-.13-.12a.28.28,0,0,0-.09.1.15.15,0,0,0,.22.06Z"/><path class="cls-18" d="M732.83,129.18l-.14-.12-.09.1a.17.17,0,0,0,.22.07Z"/><path class="cls-18" d="M725.16,129.6a.62.62,0,0,1,.32.49.12.12,0,0,1,0,.08s-.07,0-.11,0c-.22,0-.51,0-.59-.23a.3.3,0,0,1,.31-.38l.09.17Z"/><path class="cls-18" d="M725.68,148.23a1,1,0,0,0-.51-.85,1.11,1.11,0,0,0-.56.83.66.66,0,0,0,.61.69c.35,0,.59-.5.34-.74Z"/><path class="cls-18" d="M724,145.41a1.14,1.14,0,0,0-.21-.28l0,0s0,0,0,0-.06.27-.18.3l-.06,0s0,.07,0,.09a.32.32,0,0,0,.46-.16l0,0Z"/><path class="cls-18" d="M726.53,140.38a2.55,2.55,0,0,0-.4-.53s0,0-.06,0a.11.11,0,0,0-.08,0c-.17.15-.12.51-.35.57,0,0-.08,0-.11,0s0,.13.06.17a.61.61,0,0,0,.88-.31l0,.09Z"/><path class="cls-18" d="M724.26,143.34a.56.56,0,0,0-.23-.41.52.52,0,0,0-.11.19.17.17,0,0,0,.05.19c.08.06.19,0,.28,0l0,.08Z"/><path class="cls-18" d="M723.12,143.11a.22.22,0,0,0-.09-.1.29.29,0,0,0-.13,0l-.35,0,.46.37s0,0,0,0,0,.1,0,.16.08.13.15.16C723.72,143.94,723.24,143.33,723.12,143.11Z"/><path class="cls-18" d="M724,139.36l-.13-.11a.27.27,0,0,0,0,.32c.07.1.25.09.28,0s0-.18.1-.16Z"/><path class="cls-18" d="M727.86,149.52a.62.62,0,0,0-.4-.39c-.18,0-.41.12-.38.31a.24.24,0,0,0,.09.14l.08,0a.5.5,0,0,0,.38,0,.24.24,0,0,0,.16-.3Z"/><path class="cls-18" d="M724.77,145.22a.21.21,0,0,1,.1.11.42.42,0,0,1-.34-.13s-.11-.11-.09-.17.07-.07.1-.11.07-.22.16-.23a.13.13,0,0,1,.12.1.43.43,0,0,1,0,.16l-.08.35Z"/><path class="cls-18" d="M723.33,144.53a.16.16,0,0,0,0-.25.24.24,0,0,0-.12.1.12.12,0,0,0,0,.15.09.09,0,0,0,.13,0Z"/><path class="cls-18" d="M730.12,145.89a.19.19,0,0,0-.16-.28.27.27,0,0,0-.26.24.21.21,0,0,0,0,.16.2.2,0,0,0,.24,0,.63.63,0,0,0,.19-.17Z"/><path class="cls-18" d="M728.29,147.63l-.18.39a.53.53,0,0,0,0,.12.37.37,0,0,0,0,.11c.09.13.22.27.36.23s.18-.26.22-.42.68-.9.34-1.19S728.4,147.39,728.29,147.63Z"/><path class="cls-18" d="M729.26,145.42l.09.05a.43.43,0,0,1-.22.12.2.2,0,0,1-.22-.08c0-.08,0-.19.11-.18a.4.4,0,0,1,.23.1Z"/><path class="cls-18" d="M723.9,144.07c0,.06.1.08.16.05a1.66,1.66,0,0,0,.14-.13.28.28,0,0,1,.2,0,.13.13,0,0,1,.08.08.09.09,0,0,1,0,.07.64.64,0,0,1-.19.33.32.32,0,0,1-.36.06.28.28,0,0,1-.14-.22.25.25,0,0,1,.13-.22Z"/><path class="cls-18" d="M724.21,142.34a.15.15,0,0,0-.13-.17.22.22,0,0,0-.21.09s0,.08,0,.1,0,0,.07,0h.3Z"/><path class="cls-18" d="M725.17,146.76a.27.27,0,0,1-.41.11.76.76,0,0,1,.23-.3.24.24,0,0,1,.33.09l-.08.21Z"/><path class="cls-18" d="M726.2,148.91l-.13-.12a.43.43,0,0,0-.09.1.15.15,0,0,0,.22.06Z"/><path class="cls-18" d="M732.83,145a.6.6,0,0,1,.32.49.15.15,0,0,1,0,.07.12.12,0,0,1-.11,0c-.23,0-.51,0-.59-.23a.29.29,0,0,1,.3-.38l.09.17Z"/><path class="cls-18" d="M720.13,141.78a.62.62,0,0,1,.31.5.06.06,0,0,1,0,.07s-.07,0-.11,0c-.22,0-.51,0-.59-.24a.29.29,0,0,1,.31-.37l.09.16Z"/></g></g></g></g></g></svg>