<svg xmlns="http://www.w3.org/2000/svg" xmlns:xlink="http://www.w3.org/1999/xlink" viewBox="0 0 492.56 251.77"><defs><style>.cls-1{isolation:isolate;}.cls-2{fill:url(#Безымянный_градиент_202);}.cls-3{fill:#fff;opacity:0.2;mix-blend-mode:overlay;}.cls-4{fill:url(#Безымянный_градиент_202-2);}.cls-5{fill:url(#Безымянный_градиент_202-3);}.cls-16,.cls-18,.cls-6{fill:#5fcccc;}.cls-17,.cls-6{opacity:0.51;}.cls-16,.cls-17,.cls-6{mix-blend-mode:soft-light;}.cls-7{fill:#ff72a7;}.cls-8{fill:url(#Безымянный_градиент_202-4);}.cls-9{fill:#1d46c5;}.cls-10{fill:#ffdede;}.cls-11,.cls-15{fill:#190024;mix-blend-mode:multiply;}.cls-11,.cls-14{opacity:0.5;}.cls-12{fill:#1d1d7a;}.cls-13{fill:#1d3490;}.cls-15{opacity:0.15;}.cls-16{opacity:0.16;}.cls-19,.cls-20,.cls-21,.cls-22{mix-blend-mode:screen;}.cls-19{fill:url(#Безымянный_градиент_225);}.cls-20{fill:url(#Безымянный_градиент_225-2);}.cls-21{fill:url(#Безымянный_градиент_225-3);}.cls-22{fill:url(#Безымянный_градиент_225-4);}</style><linearGradient id="Безымянный_градиент_202" x1="246.28" y1="251.77" x2="246.28" y2="9.68" gradientUnits="userSpaceOnUse"><stop offset="0" stop-color="#16003b"/><stop offset="1" stop-color="#221b8c"/></linearGradient><linearGradient id="Безымянный_градиент_202-2" x1="235.75" y1="196.55" x2="235.75" y2="173.13" xlink:href="#Безымянный_градиент_202"/><linearGradient id="Безымянный_градиент_202-3" x1="286.21" y1="240.31" x2="286.21" y2="189.03" xlink:href="#Безымянный_градиент_202"/><linearGradient id="Безымянный_градиент_202-4" x1="193.26" y1="180.09" x2="193.26" y2="126.04" xlink:href="#Безымянный_градиент_202"/><radialGradient id="Безымянный_градиент_225" cx="82.12" cy="41.16" r="36.35" gradientTransform="translate(0 -3.43) scale(1 0.71)" gradientUnits="userSpaceOnUse"><stop offset="0" stop-color="#ff006a"/><stop offset="0.12" stop-color="#d10057"/><stop offset="0.3" stop-color="#92003d"/><stop offset="0.48" stop-color="#5e0027"/><stop offset="0.64" stop-color="#350016"/><stop offset="0.78" stop-color="#18000a"/><stop offset="0.91" stop-color="#060003"/><stop offset="1"/></radialGradient><radialGradient id="Безымянный_градиент_225-2" cx="234.14" cy="258.18" r="27.78" gradientTransform="matrix(0, 1, -0.71, 0, 418.28, -53.23)" xlink:href="#Безымянный_градиент_225"/><radialGradient id="Безымянный_градиент_225-3" cx="290.22" cy="267.6" r="27.78" gradientTransform="matrix(0, 1, -0.71, 0, 479.39, -94.09)" xlink:href="#Безымянный_градиент_225"/><radialGradient id="Безымянный_градиент_225-4" cx="59.13" cy="302.94" r="27.78" gradientTransform="matrix(1, 0, 0, 0.71, -2.48, -28.3)" xlink:href="#Безымянный_градиент_225"/></defs><g class="cls-1"><g id="Слой_2" data-name="Слой 2"><g id="space"><path class="cls-2" d="M334.64,223.51C319.28,213.08,199,173.63,199,173.63l-13-19.92-3.34.76-5.11-15.76h-7l-28.07-70.5-7-3.51-6.14-20.9L110.94,27.47c-17-9.32-41-17.28-42.48-17.77l-.07,0s-9.26,7.84-12.66,13.65l-9.41,37.8L41.05,66.8l-8,46-2.92,1.5L14.85,150.12l-4.83,5L0,160.16v91.61l50.65-.23s84-11.93,102.41-13c7.73-.45,24.23-.85,46-1.21,95.8-1.55,293.52-2.18,293.52-2.18ZM155.39,125.8l-3.65,12.94,0,.06L116.06,144l-4.67-7.17,22-19L136,92.92l3.71,1.55,15.67,19.32Z"/><polygon class="cls-3" points="201.22 170.13 204.93 171.29 206.89 170.13 201.22 170.13"/><polygon class="cls-3" points="176.89 176.13 186.06 184.04 184.56 180.13 176.89 176.13"/><path class="cls-4" d="M213.72,180.8l7-7.67,27.54,8.33,7,11.18,2.5,3.91s-31.75-1.09-35.24-3.42S213.72,180.8,213.72,180.8Z"/><path class="cls-5" d="M260,237.88l9.68-46.51s13.55-2.91,21.62-2.24,15.06,10.12,16.19,11.89,0,25.27,0,25.27h2.58l2.3,9.81s-18.14,4-22.57,4.2S260,237.88,260,237.88Z"/><path class="cls-6" d="M95.14,38.05l7.25,3.75-34-5.4V9.68l.07,0c1.49.49,25.48,8.45,42.48,17.77L129.36,43.8Z"/><polygon class="cls-6" points="135.5 64.69 126.14 74.3 95.14 81.13 104.64 81.13 78.14 89.55 133.39 77.12 142.52 68.2 135.5 64.69"/><polygon class="cls-6" points="151.72 138.79 155.39 138.79 164.96 141.37 113.39 148.13 86.64 148.13 103.92 143.97 116.06 143.97 151.72 138.79"/><polygon class="cls-6" points="275.89 186.62 279.56 186.62 289.13 189.19 237.56 195.95 210.81 195.95 228.09 191.79 240.23 191.79 275.89 186.62"/><polygon class="cls-6" points="177.61 138.71 168.39 141.37 170.59 138.71 177.61 138.71"/><polygon class="cls-6" points="182.72 154.46 173 157.79 158.89 160.79 166.39 160.79 153.72 165.96 135.56 168.79 164.96 165.79 186.06 153.71 182.72 154.46"/><polygon class="cls-6" points="199.04 173.63 205.06 180.09 213.72 182.29 215.33 179.03 199.04 173.63"/><path class="cls-6" d="M220.72,173.13l1.82,7s7.36,7,25.1,6.71l.62-5.34Z"/><path class="cls-6" d="M269.7,191.37a32.14,32.14,0,0,0,5.52,6.09c3.17,2.58,20.55,6.79,24.61,6.48a17.31,17.31,0,0,0,7.68-2.92s-5.35-8.92-13.27-11.28S269.7,191.37,269.7,191.37Z"/><polygon class="cls-6" points="164.96 199.41 176.89 196.54 201.22 198.09 194.39 199.41 217.89 201.79 245.27 208.7 191.39 210.46 194.56 208.96 179.56 203.96 149.22 199.41 125.8 199.41 149.72 198.09 164.96 199.41"/><polygon class="cls-6" points="334.64 223.5 322.43 227.2 411.41 229.96 334.64 223.5"/><polygon class="cls-6" points="75.39 99.8 86.64 99.8 116.72 104.21 96.06 110.8 86.64 104.05 75.39 99.8"/><path class="cls-7" d="M273.47,192.55S286.22,189,293.14,191s12.25,9.28,12.25,9.94-9.42,2.09-14.92.67a130.15,130.15,0,0,1-14.66-5.08C275.22,196.21,273.47,192.55,273.47,192.55Z"/><path class="cls-7" d="M223.94,175.32c.08,1,.81,4.25,1.55,4.83s5,3.51,8.93,4.27,10,.33,10.44,0,0-1,0-2.23S223.94,175.32,223.94,175.32Z"/><path class="cls-8" d="M196,163.17l-2.12-34.5s-.57-2.37-4.46-2.62-6.67,4.14-6.67,4.14l0,24.27-1.25,16.25s14.92,8.67,23.59,9.38l-2.92-8.79Z"/><path class="cls-6" d="M182.76,130.19a7.41,7.41,0,0,0,5.63,1.48,8.15,8.15,0,0,0,5.5-3s-1.22-2.88-5.4-2.21A7.92,7.92,0,0,0,182.76,130.19Z"/><path class="cls-9" d="M184.06,130.19a7,7,0,0,1,3.62-2.64c2.29-.63,5.25.91,5.25.91a5.8,5.8,0,0,1-4.6,2.59C185.26,131.09,184.06,130.19,184.06,130.19Z"/><path class="cls-10" d="M277.4,197.21s7.54,0,11.2.25,13.55,4.38,13.55,4.38a29.27,29.27,0,0,1-10.73,0A145.28,145.28,0,0,1,277.4,197.21Z"/><path class="cls-10" d="M225.49,180.15a66.65,66.65,0,0,1,9.65.65c3.5.66,7.77,3.93,7.77,3.93s-5.14.51-7.89-.2S227.77,182,225.49,180.15Z"/><polygon class="cls-11" points="46.32 61.13 68.39 36.4 98.87 72.96 102.39 41.8 95.14 38.05 107.15 40.06 113.32 77.12 96.06 80.93 104.64 81.13 78.14 89.55 68.39 94.55 48.27 91.14 48.27 68.64 46.32 61.13"/><path class="cls-11" d="M199,237.32c-21.75.36-38.25.76-46,1.21-18.42,1.08-84.39,10.3-84.39,10.3l9.47-62h0A45.25,45.25,0,0,0,56.65,182L44.4,112.27l31-12.47,11.25,4.25,9.42,6.75-8.19,41-1.23-28.38-3.93,18.1-4.57,6.61,1.17,9.08-3.92,18.12,50.41,24.09h23.42l13.42,27.52L165,202.36l14.6,1.6,15,5-3.17,1.5.67,11.83,4,4.43Z"/><polygon class="cls-11" points="168.39 141.37 155.39 138.79 151.74 138.74 155.39 125.8 155.39 113.78 139.72 94.47 136.01 92.92 133.39 117.81 121.89 81.13 139.22 91.47 152.72 106.97 159.66 111.25 157.72 127.86 168.39 141.37"/><polygon class="cls-11" points="164.96 165.79 164.96 199.41 149.72 198.09 137.71 168.58 164.96 165.79"/><polygon class="cls-11" points="182.76 155.59 176.89 158.96 181.47 170.71 186.89 152.54 185.5 131.5 182.76 130.19 182.76 155.59"/><polygon class="cls-11" points="220.72 173.13 215.33 179.03 213.72 182.29 218.01 190.42 222.54 180.09 220.72 173.13"/><polygon class="cls-11" points="269.7 191.37 260.02 237.88 277.4 239.55 279.47 222.04 277.4 219.83 277.4 210.46 275.22 197.46 269.7 191.37"/><polygon class="cls-11" points="302.14 238.23 312.39 231.79 314.64 235.01 357.64 231.79 379.64 235.01 312.39 236.1 302.14 238.23"/><polygon class="cls-11" points="220.72 207.29 228 209.26 232.22 212.13 230.41 209.19 220.72 207.29"/><polygon class="cls-11" points="288.6 221.29 293.89 226.73 291.25 226.73 288.6 221.29"/><polygon class="cls-11" points="111.39 148.13 113.32 153.06 115.56 147.17 111.39 148.13"/><polygon class="cls-12" points="288.6 221.29 289.43 226.73 293.89 226.73 290.72 225.29 288.6 221.29"/><polygon class="cls-12" points="220.72 207.29 225.49 209.35 232.22 212.13 228 209.26 220.72 207.29"/><polygon class="cls-12" points="115.56 147.17 113.47 148.54 113.32 153.06 111.39 148.13 115.56 147.17"/><polygon class="cls-13" points="160.81 166.22 164.96 168.79 166.01 165.19 160.81 166.22"/><polygon class="cls-13" points="191.39 210.46 192.06 222.29 193.89 213.54 192.64 210.46 191.39 210.46"/><path class="cls-13" d="M295.21,203.5s4.06,2.35,4.62,1.95,3.34-2.24,3.34-2.24a15.84,15.84,0,0,1-3.34.73Z"/><polygon class="cls-13" points="246.14 186.81 248.26 189 247.64 186.79 246.14 186.81"/><polygon class="cls-6" points="196.01 163.17 194.72 166.99 197.89 168.79 202.14 171.29 196.01 163.17"/><polygon class="cls-11" points="193.89 141.37 192.64 146.04 192.93 148.13 193.89 141.37"/><polygon class="cls-12" points="192.93 148.13 194.35 144.38 193.89 141.37 192.93 148.13"/><polygon class="cls-13" points="94.83 109.91 95.77 112.27 97.97 110.19 94.83 109.91"/><path class="cls-11" d="M68.39,176.13l7-.8s39.75,8.44,46.5,9.58S144.81,186,144.81,186,165,188.25,165,187.9s16.8-8.81,17.8-8.71,22.3.9,22.3.9L182.83,180s-17.24,8.76-17.87,8.76-19.32-1.95-19.91-2.11-20-.7-23.22-1.2-45.69-9.31-46.69-9.31-14.76,2.4-14.76,2.4Z"/><path class="cls-11" d="M68.39,114.13s24,15.15,24,15.09,21.44-15.57,23.17-15.85c2-.31,13.89.79,15.53.71,1.84-.1,3-3,3-3s-.65,3.29-1.59,3.94-16-1.67-16.95-1.48-22.5,16.54-23.38,16.64-23.79-14.31-23.79-14.31Z"/><path class="cls-7" d="M68.39,12s18.25,6,24.25,8,23.94,14.82,24.5,15.94-19.75.69-27.63-.44-33.39-4-33.39-4C56.93,23.69,61.4,19,68.39,12Z"/><path class="cls-10" d="M68.39,20.67c6.47.15,21,6.75,24.38,8.75s8.68,7,8.68,7a94.72,94.72,0,0,1-14.07-1.23c-8.28-1.29-31.26-3.7-31.26-3.7S62,20.52,68.39,20.67Z"/><g class="cls-14"><path class="cls-15" d="M270,235.6c-.08-.43-.2-.86-.26-1.29a13.14,13.14,0,0,1-.12-1.53l-.39-11.3a16.72,16.72,0,0,0,.67,5.86,4.86,4.86,0,0,1,.46,1.61c0,.33-.06.65-.07,1a2.62,2.62,0,0,0,.78,1.94,2.85,2.85,0,0,0,.55-2c.14-5.28.6-10.55,1.07-15.82.15-1.75.31-3.51.46-5.27l-.08,5.33a2,2,0,0,1-.09.7c-.05.14-.14.28-.19.43a1.56,1.56,0,0,0,0,.57c.17,1.23.33,2.46.5,3.69a2.48,2.48,0,0,1-.38,2.14,1.06,1.06,0,0,0-.28.32.94.94,0,0,0,.13.62,5.55,5.55,0,0,1-.09,3.07,16.57,16.57,0,0,0-.1,3.15c0,1,.06,2,.1,3a1.81,1.81,0,0,0,.24,1c.31.41,1,.56,1.07,1.06a1.35,1.35,0,0,1-.07.63,6.23,6.23,0,0,0,.47,3.28c.17.52.35,1,.52,1.57a7.89,7.89,0,0,0-2.1-.29c-.67,0-1.46.08-2.11,0s-.49-.52-.5-1.28A12.72,12.72,0,0,0,270,235.6Z"/><path class="cls-15" d="M263.39,236.3c.37-.08.46-.55.47-.92.06-2.4.11-4.81.13-7.21a1.93,1.93,0,0,1,.24-1.14.71.71,0,0,1,1-.21l.09,5.22a.57.57,0,0,0-.63.31,1.73,1.73,0,0,0-.1.75c.06,1.76.27,3.52.29,5.27-.36-.34-.91-.2-1.22-.48S263.43,236.71,263.39,236.3Z"/><path class="cls-15" d="M266.25,218.58a3.72,3.72,0,0,1,.21-1,5.73,5.73,0,0,1,.46-.8c1.89-3,1.27-6.93,2.57-10.22a71.71,71.71,0,0,1-1.13,11.52l-1.58.59c0,1.76,0,3.53-.07,5.3a2.32,2.32,0,0,0-1.24,1.38,16,16,0,0,1,.37-3.41C266,220.83,266.11,219.71,266.25,218.58Z"/><path class="cls-15" d="M269.69,205.86a4.24,4.24,0,0,1,.15-1.5h.36c-.05.52-.09,1.05-.12,1.58l-.31-.14Z"/><path class="cls-15" d="M278.44,217.09l.35.09.39,2.22c-.05-.38.25-.71.39-1.08a2.47,2.47,0,0,0,0-1.24c-.06-.35-.15-1.71-.67-1.77S278.51,216.7,278.44,217.09Z"/><path class="cls-15" d="M281.33,232a1.87,1.87,0,0,1,.74.14c.16,1.28.31,2.57.47,3.85l.49-.23.87,3.9a.44.44,0,0,0,.11.25.42.42,0,0,0,.22.08c2.23.4,4.58.79,6.71,0a15.33,15.33,0,0,0-.24-4,1.37,1.37,0,0,1-.93.19,9.77,9.77,0,0,0-.2,2.85,3.73,3.73,0,0,0-3.82-.69,3.54,3.54,0,0,1-1.18-2c-.11-.54-.1-1.1-.17-1.65a5,5,0,0,0-.74-2,1,1,0,0,1-.82.5,3.83,3.83,0,0,0-1.26-2.93,7.14,7.14,0,0,0,.4-3.66c-.11-.75-.25-1.5-.36-2.24C281.05,225,281.45,232,281.33,232Z"/></g><polygon class="cls-6" points="299.19 238.81 299.19 222.29 300.76 219.4 299.83 205.45 303.17 203.21 307.51 201.03 307.51 226.29 305.39 228.54 299.19 238.81"/><path class="cls-13" d="M298.87,224.77c.26-1,1.28-2.86.63-3.83a3.78,3.78,0,0,0-1,1.93C298.38,223.44,299,224.45,298.87,224.77Z"/><path class="cls-13" d="M203.07,224.14a3.13,3.13,0,0,0,1.68,1.54l-1.28-1.8a.65.65,0,0,0-.31-.28c-.14,0-.32.06-.3.21Z"/><polygon class="cls-11" points="73.6 216.12 75.45 201.36 73.41 210.82 81.47 199.43 89.36 186.81 82.87 200.07 81.3 201.12 71.48 227.54 76.56 221.52 72.7 229.25 72.94 237.06 87.31 215.7 88.37 209.6 100.99 194.34 89.18 215.7 68.67 248.83 73.6 216.12"/><polygon class="cls-11" points="80.89 87.8 76.55 71.39 75.93 73.99 76.96 75.15 77.03 79.6 74.48 72.29 73.61 64.09 73.61 64.09 73.19 65.63 73.49 67.47 72.43 68.84 70.87 56.09 70.67 63.37 68.27 52.84 66.74 50.97 67.76 68.93 52.64 91.88 68.39 94.55 80.89 87.8"/><polygon class="cls-11" points="228 209.26 233.39 208.82 232.22 209.71 235.75 219.4 237.64 224.01 242.14 226.73 237.08 224.64 235.75 222.68 233.26 215.46 232.22 212.13 228 209.26"/><polygon class="cls-16" points="245.27 208.7 247.72 227.29 245.05 227.29 242.14 226.73 237.64 224.01 232.22 209.71 233.39 208.82 245.27 208.7"/><polygon class="cls-11" points="153.33 111.25 157.64 112.27 159.66 111.25 158.81 113.05 156.49 114.21 155.39 113.78 153.33 111.25"/><polygon class="cls-11" points="108.66 106.78 107.95 104.36 108.42 104 109.54 103.16 116.72 104.21 109.95 103.55 109.01 104.97 110.33 106.25 111.39 112.27 108.66 106.78"/><polygon class="cls-16" points="116.72 104.21 115.7 110.8 113.32 111.73 111.39 112.27 110.33 106.25 109.01 104.97 109.95 103.55 116.72 104.21"/><g class="cls-17"><path class="cls-18" d="M177,196.34a6.43,6.43,0,0,0-1.76,2.37,1.06,1.06,0,0,0-.13.46.94.94,0,0,0,.51.73,1.9,1.9,0,0,0,2.12-.2,2.38,2.38,0,0,0,.8-2,1.61,1.61,0,0,0-.52-1.1.89.89,0,0,0-1.14,0,.2.2,0,0,0,.3.13Z"/><path class="cls-18" d="M181.42,196.53a1.71,1.71,0,0,0-.45,1.57,1.77,1.77,0,0,0,1.61-.26,1.08,1.08,0,0,0,.15-1.51.77.77,0,0,0-1.27.43Z"/><path class="cls-18" d="M179.89,201.69a1.8,1.8,0,0,0-.11.57s0,.05,0,.06,0,0,.06,0c.2,0,.4-.23.57-.12s0,0,.09,0,.08-.08.07-.14a.52.52,0,0,0-.71-.38l0-.08Z"/><path class="cls-18" d="M167.35,194.82a3.48,3.48,0,0,0-.19,1.06.15.15,0,0,0,0,.13.2.2,0,0,0,.13.06c.37,0,.74-.42,1.06-.22.06,0,.11.09.18.09s.15-.15.13-.27a1,1,0,0,0-1.35-.71l.07-.15Z"/><path class="cls-18" d="M157.93,191.19a3.82,3.82,0,0,0-.19,1.07.3.3,0,0,0,0,.13.19.19,0,0,0,.13.05c.37,0,.74-.42,1.06-.22.06,0,.11.1.18.09s.15-.15.13-.26a1,1,0,0,0-1.34-.71l.07-.15Z"/><path class="cls-18" d="M177.13,203.73a.86.86,0,0,0-.23.73.77.77,0,0,0,.34-.08.28.28,0,0,0,.18-.28c0-.16-.19-.25-.34-.31l.12,0Z"/><path class="cls-18" d="M178.14,205.35a.28.28,0,0,0,0,.22.29.29,0,0,0,.14.15,3.23,3.23,0,0,1,.45.38l-.07-1a.11.11,0,0,1,0-.08c0-.09.15-.09.22-.15s.07-.24,0-.36C178.45,203.7,178.26,205,178.14,205.35Z"/><path class="cls-18" d="M183.79,213.52a.34.34,0,0,0,0,.22c0,.07.09.11.15.15a3.25,3.25,0,0,1,.44.38l-.07-1v-.08c0-.08.15-.09.22-.14s.08-.25,0-.37C184.11,211.87,183.91,213.14,183.79,213.52Z"/><path class="cls-18" d="M172.66,208.52v.28a.43.43,0,0,0,.42-.32c0-.19-.17-.4-.34-.32s-.25.18-.3.07Z"/><path class="cls-18" d="M171.21,203.74a.39.39,0,1,1,.28.62.4.4,0,0,1-.28-.62Z"/><path class="cls-18" d="M170,199.47c-.06-.2-.09-.48.1-.58s.38.1.51.26a.28.28,0,0,1,.07.24c-.08.2-.46,0-.58.16-.06,0-.07-.12,0-.12Z"/><path class="cls-18" d="M180.52,192.47a1,1,0,0,0,0,.91.51.51,0,0,0,.79.11.38.38,0,0,0,.08-.26.83.83,0,0,0,0-.15.8.8,0,0,0-.36-.51.41.41,0,0,0-.55.14Z"/><path class="cls-18" d="M177.15,185.8a.42.42,0,0,0,.27,0c.09,0,.15-.1.23-.14s.43-.05.64-.1c.37-.1.53-.52.63-.89a.28.28,0,0,0,0-.25.26.26,0,0,0-.17-.07c-.44-.11-.43-.59-.79-.78a1.22,1.22,0,0,0-1.07.1A1.25,1.25,0,0,0,177.15,185.8Z"/><path class="cls-18" d="M178.81,201a.48.48,0,0,1,0-.24.66.66,0,0,1,.22.55c0,.11,0,.26-.11.3s-.16,0-.23,0-.34.16-.46,0a.2.2,0,0,1,0-.25.71.71,0,0,1,.21-.17L179,201Z"/><path class="cls-18" d="M181.89,200.44c-.1.14.12.31.27.26a.61.61,0,0,0,.3-.38.57.57,0,0,0-.65.05Z"/><path class="cls-18" d="M180.92,202.71a.71.71,0,0,0-.06.24.21.21,0,0,0,.13.19c.13,0,.24-.1.37-.12s.28.07.4,0a.22.22,0,0,0,0-.34.52.52,0,0,0-.37-.13.56.56,0,0,0-.34,0,.26.26,0,0,0-.15.29Z"/><path class="cls-18" d="M180.63,203.75a.15.15,0,0,1,.2,0,.26.26,0,0,1,.07.22.31.31,0,0,1,0,.13.2.2,0,0,1-.28,0,.21.21,0,0,1,0-.28.23.23,0,0,1,.29-.05Z"/><path class="cls-18" d="M190.89,208.28a.15.15,0,0,1,.21,0,.26.26,0,0,1,.07.22.28.28,0,0,1,0,.13.2.2,0,1,1-.31-.24.24.24,0,0,1,.29,0Z"/><path class="cls-18" d="M179.6,203.52a.22.22,0,0,0-.31.24.37.37,0,0,0,.25,0,.21.21,0,0,0,.16-.18.14.14,0,0,0-.19-.12Z"/><path class="cls-18" d="M168.79,206.69a.23.23,0,0,0-.31.24.37.37,0,0,0,.25,0,.2.2,0,0,0,.16-.18.13.13,0,0,0-.18-.12Z"/><path class="cls-18" d="M176.08,202.3a.68.68,0,0,0-.35.47l.49,0a.44.44,0,0,0,.23,0,.27.27,0,0,0,.07-.39.38.38,0,0,0-.41-.09Z"/><path class="cls-18" d="M173.32,198.35v-.89c.14-.06.25.13.28.28a.77.77,0,0,1,0,.45c-.06.14-.24.24-.36.16Z"/><path class="cls-18" d="M173.62,193.82a.31.31,0,0,0-.16.5.45.45,0,0,0,.59.05.38.38,0,0,0,.16-.23.34.34,0,0,0-.23-.33,1,1,0,0,0-.42,0Z"/><path class="cls-18" d="M170.23,200.72a.51.51,0,0,0-.42.39.63.63,0,0,0,.42.08.42.42,0,0,0,.36-.39c0-.19-.31-.31-.42-.15Z"/><path class="cls-18" d="M171.82,199.41a.3.3,0,0,1,.36-.09v.44a.35.35,0,0,1-.46-.28Z"/><path class="cls-18" d="M177.77,194.07l.67-.23a.35.35,0,0,0,.17-.09.33.33,0,0,0,.08-.19c.06-.25.08-.56-.13-.69s-.51.07-.75.2c-.44.26-1.84.2-1.82.94S177.36,194.21,177.77,194.07Z"/><path class="cls-18" d="M174,195.38l0-.17a.86.86,0,0,1,.39.13.33.33,0,0,1,.15.36.21.21,0,0,1-.34.07.77.77,0,0,1-.14-.39Z"/><path class="cls-18" d="M182.52,202.4a.31.31,0,0,1,.32-.07.31.31,0,0,1,.19.26c0,.08-.05.18-.13.17l-.09,0-.33-.28.05-.05Z"/><path class="cls-18" d="M184.68,203.11c.08.12.26.1.4.07a.43.43,0,0,1,.41,0,.1.1,0,0,1,0,.1c0,.1-.15.1-.25.13a1.37,1.37,0,0,0-.2.13.48.48,0,0,1-.54,0,.28.28,0,0,1,0-.29.3.3,0,0,1,.29-.07Z"/><path class="cls-18" d="M184.2,204.46l0,.17a.21.21,0,0,0,.25,0,.16.16,0,0,0,0-.24.15.15,0,0,0-.22.06Z"/><path class="cls-18" d="M187.19,206.93l0,.16a.2.2,0,0,0,.25,0,.16.16,0,0,0,0-.24.14.14,0,0,0-.22.06Z"/><path class="cls-18" d="M178.41,203.34c.07-.08,0-.21-.11-.25s-.22,0-.33,0a.41.41,0,0,1-.26-.19.21.21,0,0,1,0-.19.41.41,0,0,1,.11-.07,1.19,1.19,0,0,1,.61-.14.58.58,0,0,1,.48.37.41.41,0,0,1-.12.41.44.44,0,0,1-.41.1Z"/><path class="cls-18" d="M167.18,212.85c.08-.08,0-.21-.11-.24a3.11,3.11,0,0,0-.32,0,.36.36,0,0,1-.26-.19.17.17,0,0,1,0-.18.2.2,0,0,1,.1-.08,1.14,1.14,0,0,1,.62-.13.53.53,0,0,1,.47.36.42.42,0,0,1-.53.51Z"/><path class="cls-18" d="M176,204.9a.26.26,0,0,0-.07.35.36.36,0,0,0,.36.15c.06,0,.13,0,.13-.09a.15.15,0,0,0-.06-.11c-.12-.11-.23-.23-.35-.35Z"/><path class="cls-18" d="M170.4,208.41a1.31,1.31,0,0,0-1,0,.24.24,0,0,0-.13.11c0,.13.13.21.24.29s.22.4.41.54a.8.8,0,0,0,.53.09c.27,0,.62-.1.62-.37a.49.49,0,0,0-.2-.35,2.7,2.7,0,0,0-.74-.46Z"/><path class="cls-18" d="M164.58,199.66c-.16-.14-.39,0-.52.2a.42.42,0,0,0-.13.36c0,.17.27.2.44.21h.47a.23.23,0,0,0,.19-.06.2.2,0,0,0,0-.17,2.26,2.26,0,0,0-.27-.87Z"/><path class="cls-18" d="M170.14,195.67c-1.22-1.43-2.76.14-2,1.57S171.19,196.92,170.14,195.67Z"/><path class="cls-18" d="M180.23,198.79a.44.44,0,0,1,.59.37,1.15,1.15,0,0,1-.63.06c-.2-.07-.36-.31-.26-.49l.34-.14Z"/><path class="cls-18" d="M186.34,198.83c0,.1,0,.2,0,.3a2.5,2.5,0,0,1,1.05.11,2.38,2.38,0,0,0,.52.15.55.55,0,0,0,.48-.18c.19-.27-.06-.65-.34-.83a1.46,1.46,0,0,0-1.22-.17,1,1,0,0,0-.68,1h.42Z"/><path class="cls-18" d="M186.67,201.84c-.14,0-.09.15.05.19a1.45,1.45,0,0,0,.48.05h1.11a1,1,0,0,0,.55-.1c.09-.07,0-.17-.15-.22a2,2,0,0,0-.51-.08,2.9,2.9,0,0,0-1.63.21l.28.12Z"/><path class="cls-18" d="M186.45,203.87a.1.1,0,0,1,.16,0,.27.27,0,0,1,.08.17.26.26,0,0,1,0,.15.22.22,0,0,1-.23.14.27.27,0,0,1-.22-.18.2.2,0,0,1,0-.15.1.1,0,0,1,.12,0Z"/><path class="cls-18" d="M178.39,209.21a3.61,3.61,0,0,0-.79.24.23.23,0,0,0,.1.19.74.74,0,0,0,1.06-.15.22.22,0,0,0,.05-.17.18.18,0,0,0-.17-.14.66.66,0,0,0-.24,0Z"/><path class="cls-18" d="M179.91,205l0,.17a.34.34,0,0,0,.26,0c.08,0,.11-.18,0-.21s-.06,0-.09,0l-.32,0Z"/><path class="cls-18" d="M173.68,204.54a1.08,1.08,0,0,0-.17.38.37.37,0,0,0,.15.37.39.39,0,0,0,.21,0,.4.4,0,1,0-.19-.77Z"/><path class="cls-18" d="M166.6,206.14a.28.28,0,0,1,.4-.28.88.88,0,0,1,.07.33.56.56,0,0,1-.36,0Z"/><path class="cls-18" d="M167,202.57c-.11.05,0,.26.13.22a.29.29,0,0,0,.11-.33.27.27,0,0,0-.27.17Z"/><path class="cls-18" d="M181.64,195.14v.29a.41.41,0,0,0,.22,0,.28.28,0,0,0-.17-.34Z"/><path class="cls-18" d="M160.45,182.77v.28a.41.41,0,0,0,.22,0,.27.27,0,0,0-.17-.34Z"/><path class="cls-18" d="M169.56,191.52a1,1,0,0,1,.23-.94.26.26,0,0,1,.11-.07.19.19,0,0,1,.16.09c.26.27.55.64.38,1a.48.48,0,0,1-.79,0l.1-.3Z"/><path class="cls-18" d="M189.85,183.89a1,1,0,0,1,.24-.93.23.23,0,0,1,.1-.07c.07,0,.12,0,.17.09.26.26.54.64.38,1a.49.49,0,0,1-.8,0l.1-.3Z"/></g><g class="cls-17"><path class="cls-18" d="M154.3,152.89a6.57,6.57,0,0,0-1.77,2.37,1.25,1.25,0,0,0-.12.46.94.94,0,0,0,.51.73,1.9,1.9,0,0,0,2.12-.2,2.35,2.35,0,0,0,.79-2,1.54,1.54,0,0,0-.51-1.1.88.88,0,0,0-1.14,0,.19.19,0,0,0,.29.13Z"/><path class="cls-18" d="M164.33,147.26a1.7,1.7,0,0,0-.46,1.57,1.76,1.76,0,0,0,1.62-.26,1.07,1.07,0,0,0,.15-1.5.78.78,0,0,0-1.28.42Z"/><path class="cls-18" d="M162.79,152.43a1.78,1.78,0,0,0-.1.56.17.17,0,0,0,0,.07.09.09,0,0,0,.07,0c.2,0,.39-.22.56-.12a.19.19,0,0,0,.1.05c.06,0,.08-.08.07-.14a.54.54,0,0,0-.72-.38l0-.08Z"/><path class="cls-18" d="M85.13,90.87a3.81,3.81,0,0,0-.19,1.06.25.25,0,0,0,0,.13.16.16,0,0,0,.13.06c.37,0,.74-.42,1.06-.22.06,0,.11.09.18.09s.15-.15.13-.26A1,1,0,0,0,85.12,91l.07-.15Z"/><path class="cls-18" d="M75.72,87.24a4,4,0,0,0-.2,1.07.21.21,0,0,0,0,.13.15.15,0,0,0,.12,0c.38,0,.75-.42,1.07-.22.05,0,.11.1.17.1s.15-.16.14-.27a1,1,0,0,0-1.35-.71l.07-.15Z"/><path class="cls-18" d="M160,154.46a.89.89,0,0,0-.23.73,1,1,0,0,0,.35-.07.31.31,0,0,0,.18-.28c0-.17-.19-.25-.34-.31l.12-.06Z"/><path class="cls-18" d="M161,156.09a.38.38,0,0,0,0,.21.46.46,0,0,0,.15.16,2.67,2.67,0,0,1,.44.38c0-.33,0-.65-.07-1a.22.22,0,0,1,0-.08c0-.08.14-.09.22-.14s.07-.25,0-.37C161.36,154.43,161.17,155.7,161,156.09Z"/><path class="cls-18" d="M101.57,109.58a.38.38,0,0,0,0,.21.46.46,0,0,0,.15.16,3.23,3.23,0,0,1,.45.38l-.08-1a.22.22,0,0,1,0-.08c0-.08.15-.09.22-.14s.07-.25,0-.37C101.89,107.92,101.7,109.19,101.57,109.58Z"/><path class="cls-18" d="M90.45,104.57v.29a.46.46,0,0,0,.42-.33c0-.19-.17-.4-.34-.31s-.26.17-.31.06Z"/><path class="cls-18" d="M89,99.79a.41.41,0,0,1,.66.07.39.39,0,1,1-.68,0Z"/><path class="cls-18" d="M87.8,95.52c-.06-.2-.1-.48.1-.57s.38.09.5.26.11.15.08.24-.46,0-.59.15c-.06,0-.06-.11,0-.12Z"/><path class="cls-18" d="M98.31,88.52a1,1,0,0,0,0,.91.51.51,0,0,0,.79.11.33.33,0,0,0,.08-.25.76.76,0,0,0,0-.16.88.88,0,0,0-.37-.51.41.41,0,0,0-.55.15Z"/><path class="cls-18" d="M145.86,148.27a.44.44,0,0,0,.27,0c.09,0,.16-.1.24-.14s.43-.05.64-.1c.36-.1.52-.52.63-.89a.28.28,0,0,0,0-.25.26.26,0,0,0-.17-.07c-.45-.11-.44-.59-.79-.78a1.16,1.16,0,1,0-.8,2.18Z"/><path class="cls-18" d="M161.72,151.73a.4.4,0,0,1,0-.24.65.65,0,0,1,.23.55c0,.12,0,.26-.11.31a.65.65,0,0,1-.24,0c-.16,0-.34.16-.46.06a.21.21,0,0,1,0-.25.5.5,0,0,1,.21-.17l.51-.3Z"/><path class="cls-18" d="M164.79,151.17c-.09.14.12.32.28.26a.63.63,0,0,0,.29-.38.59.59,0,0,0-.64,0Z"/><path class="cls-18" d="M163.82,153.45a.46.46,0,0,0,0,.23.2.2,0,0,0,.12.19c.13,0,.25-.09.38-.12s.28.07.4,0a.24.24,0,0,0,0-.35.62.62,0,0,0-.37-.13.69.69,0,0,0-.35,0,.28.28,0,0,0-.15.29Z"/><path class="cls-18" d="M163.53,154.49a.15.15,0,0,1,.21,0,.26.26,0,0,1,.07.21.2.2,0,0,1,0,.13.2.2,0,0,1-.28,0,.21.21,0,0,1,.26-.33Z"/><path class="cls-18" d="M173.8,159a.15.15,0,0,1,.21,0,.31.31,0,0,1,.07.21.33.33,0,0,1,0,.14.2.2,0,0,1-.28,0,.21.21,0,0,1,.26-.33Z"/><path class="cls-18" d="M162.51,154.25a.24.24,0,0,0-.32.25.46.46,0,0,0,.26,0,.18.18,0,0,0,.15-.18.12.12,0,0,0-.18-.11Z"/><path class="cls-18" d="M86.58,102.74a.22.22,0,0,0-.31.24.36.36,0,0,0,.25,0,.19.19,0,0,0,.15-.18.13.13,0,0,0-.18-.12Z"/><path class="cls-18" d="M93.86,98.35a.66.66,0,0,0-.34.47l.49,0a.34.34,0,0,0,.22,0,.25.25,0,0,0,.07-.38.37.37,0,0,0-.41-.1Z"/><path class="cls-18" d="M91.1,94.4c0-.29,0-.59,0-.88.13-.07.24.12.28.27a.77.77,0,0,1,0,.45.27.27,0,0,1-.36.16Z"/><path class="cls-18" d="M91.4,89.87a.32.32,0,0,0-.16.51.47.47,0,0,0,.59,0A.35.35,0,0,0,92,90.2a.32.32,0,0,0-.22-.33.9.9,0,0,0-.43,0Z"/><path class="cls-18" d="M88,96.77a.51.51,0,0,0-.41.39.56.56,0,0,0,.42.08.4.4,0,0,0,.35-.39c0-.19-.31-.3-.41-.14Z"/><path class="cls-18" d="M89.61,95.47a.28.28,0,0,1,.36-.1v.45a.35.35,0,0,1-.46-.28Z"/><path class="cls-18" d="M95.55,90.12l.67-.23a.44.44,0,0,0,.18-.09.4.4,0,0,0,.07-.19c.06-.25.09-.56-.13-.69s-.51.07-.74.2c-.45.26-1.84.2-1.82.94S95.15,90.26,95.55,90.12Z"/><path class="cls-18" d="M91.8,91.43l0-.17a1,1,0,0,1,.39.13.33.33,0,0,1,.14.36.2.2,0,0,1-.33.07.7.7,0,0,1-.15-.39Z"/><path class="cls-18" d="M165.43,153.14a.29.29,0,0,1,.31-.08.29.29,0,0,1,.19.27c0,.08-.05.17-.12.16a.15.15,0,0,1-.09,0l-.34-.28.06,0Z"/><path class="cls-18" d="M167.58,153.84c.08.12.26.11.4.07a.45.45,0,0,1,.41,0,.16.16,0,0,1,.05.11c0,.1-.16.1-.25.13a.67.67,0,0,0-.21.13.49.49,0,0,1-.54,0,.26.26,0,0,1,.05-.28.27.27,0,0,1,.28-.08Z"/><path class="cls-18" d="M167.11,155.2l0,.16a.2.2,0,0,0,.25,0,.17.17,0,0,0,0-.24.14.14,0,0,0-.22.06Z"/><path class="cls-18" d="M170.1,157.66l0,.17a.21.21,0,0,0,.25,0,.17.17,0,0,0,0-.24.14.14,0,0,0-.22.06Z"/><path class="cls-18" d="M161.31,154.07c.08-.07,0-.21-.11-.24a1.66,1.66,0,0,0-.32,0,.41.41,0,0,1-.26-.2.17.17,0,0,1,0-.18.2.2,0,0,1,.1-.08,1.14,1.14,0,0,1,.62-.13.53.53,0,0,1,.47.37.42.42,0,0,1-.11.4.41.41,0,0,1-.42.1Z"/><path class="cls-18" d="M85,108.9c.07-.07,0-.21-.11-.24a1.84,1.84,0,0,0-.33,0,.46.46,0,0,1-.26-.2.19.19,0,0,1,0-.18.28.28,0,0,1,.11-.08A1.09,1.09,0,0,1,85,108a.55.55,0,0,1,.48.37.43.43,0,0,1-.12.4.4.4,0,0,1-.41.1Z"/><path class="cls-18" d="M93.77,101a.26.26,0,0,0-.06.36.36.36,0,0,0,.35.14c.06,0,.13,0,.13-.09a.22.22,0,0,0,0-.11l-.36-.35Z"/><path class="cls-18" d="M88.19,104.46a1.34,1.34,0,0,0-1,0s-.11.06-.12.12.13.2.23.28.23.4.41.54a.89.89,0,0,0,.54.1c.26,0,.61-.11.62-.38a.47.47,0,0,0-.21-.34,2.34,2.34,0,0,0-.73-.47Z"/><path class="cls-18" d="M82.36,95.71c-.15-.14-.39,0-.52.2s-.17.23-.13.36.27.2.45.21h.46c.07,0,.15,0,.19,0a.28.28,0,0,0,0-.18,2.18,2.18,0,0,0-.28-.86Z"/><path class="cls-18" d="M87.92,91.72c-1.21-1.43-2.75.14-2,1.58S89,93,87.92,91.72Z"/><path class="cls-18" d="M163.13,149.53a.43.43,0,0,1,.59.37,1.1,1.1,0,0,1-.62,0,.37.37,0,0,1-.27-.49l.35-.14Z"/><path class="cls-18" d="M119.63,83.83v.3a2.66,2.66,0,0,1,1,.11,2.55,2.55,0,0,0,.52.15.5.5,0,0,0,.48-.18c.2-.27,0-.65-.34-.82a1.45,1.45,0,0,0-1.21-.17,1,1,0,0,0-.69,1h.42Z"/><path class="cls-18" d="M169.57,152.57c-.13.05-.08.15.06.2a1.75,1.75,0,0,0,.47,0h1.11a1.11,1.11,0,0,0,.56-.09c.08-.08,0-.18-.15-.23a2,2,0,0,0-.51-.07,2.9,2.9,0,0,0-1.63.21l.28.11Z"/><path class="cls-18" d="M169.35,154.6a.12.12,0,0,1,.17,0,.29.29,0,0,1,.07.16.38.38,0,0,1,0,.15.21.21,0,0,1-.24.14.26.26,0,0,1-.21-.18.14.14,0,0,1,0-.14.09.09,0,0,1,.12-.05Z"/><path class="cls-18" d="M188,153.08a1.69,1.69,0,0,0-.45,1.56,1.77,1.77,0,0,0,1.61-.25,1.07,1.07,0,0,0,.15-1.51c-.4-.4-1.26-.15-1.27.42Z"/><path class="cls-18" d="M188.48,157c-.1.13.12.31.27.25s.24-.22.3-.38a.59.59,0,0,0-.65.06Z"/><path class="cls-18" d="M197.48,164.82a.15.15,0,0,1,.21,0,.25.25,0,0,1,.07.22.31.31,0,0,1,0,.13.2.2,0,0,1-.28,0,.22.22,0,0,1,0-.29.23.23,0,0,1,.29,0Z"/><path class="cls-18" d="M189.11,159a.28.28,0,0,1,.32-.07.29.29,0,0,1,.19.26c0,.08-.05.17-.13.16a.12.12,0,0,1-.08,0l-.34-.28.05,0Z"/><path class="cls-18" d="M191.27,159.65c.08.12.26.11.4.07s.3-.07.41,0a.12.12,0,0,1,0,.11c0,.1-.15.1-.25.13a2.26,2.26,0,0,0-.2.13.48.48,0,0,1-.54,0,.26.26,0,0,1,.05-.28.24.24,0,0,1,.28-.07Z"/><path class="cls-18" d="M190.79,161l0,.16a.2.2,0,0,0,.25,0,.16.16,0,0,0,0-.24.14.14,0,0,0-.22.06Z"/><path class="cls-18" d="M193.79,163.47l0,.17a.21.21,0,0,0,.25,0,.16.16,0,0,0,0-.24.15.15,0,0,0-.22.06Z"/><path class="cls-18" d="M193.26,158.38c-.13.05-.08.15.05.2a1.83,1.83,0,0,0,.48,0h1.11a1,1,0,0,0,.55-.1c.09-.08,0-.17-.15-.22a2,2,0,0,0-.51-.08,2.9,2.9,0,0,0-1.63.21l.28.11Z"/><path class="cls-18" d="M193,160.41a.11.11,0,0,1,.16,0,.25.25,0,0,1,.08.17.26.26,0,0,1,0,.15.22.22,0,0,1-.23.14.3.3,0,0,1-.22-.19.17.17,0,0,1,0-.14.1.1,0,0,1,.12-.05Z"/><path class="cls-18" d="M286.7,218.12a1.68,1.68,0,0,0-.46,1.57,1.76,1.76,0,0,0,1.61-.26,1.06,1.06,0,0,0,.15-1.51c-.4-.4-1.26-.14-1.27.42Z"/><path class="cls-18" d="M287.16,222c-.09.13.12.31.27.25s.24-.22.3-.38a.58.58,0,0,0-.64.06Z"/><path class="cls-18" d="M296.17,229.86a.17.17,0,0,1,.21,0,.29.29,0,0,1,.06.22.31.31,0,0,1,0,.13.2.2,0,0,1-.28,0,.21.21,0,0,1,0-.28.22.22,0,0,1,.29,0Z"/><path class="cls-18" d="M287.79,224a.29.29,0,0,1,.32-.07.29.29,0,0,1,.19.26c0,.08-.05.17-.13.16a.12.12,0,0,1-.08,0l-.34-.28.06-.05Z"/><path class="cls-18" d="M290,224.7c.08.11.26.1.4.06s.3-.07.41,0a.1.1,0,0,1,0,.1c0,.1-.15.1-.25.13a2.26,2.26,0,0,0-.2.13.48.48,0,0,1-.54,0,.28.28,0,0,1,.05-.29.25.25,0,0,1,.28-.07Z"/><path class="cls-18" d="M289.48,226.05l0,.16a.2.2,0,0,0,.25,0,.17.17,0,0,0,0-.24.15.15,0,0,0-.23.06Z"/><path class="cls-18" d="M292.47,228.52l0,.16a.2.2,0,0,0,.25,0,.16.16,0,0,0,0-.24.15.15,0,0,0-.22.07Z"/><path class="cls-18" d="M291.94,223.42c-.13.05-.08.16.05.2a1.51,1.51,0,0,0,.48,0h1.11a1,1,0,0,0,.55-.1c.09-.08,0-.17-.14-.22a2.09,2.09,0,0,0-.51-.08,2.87,2.87,0,0,0-1.63.21l.27.11Z"/><path class="cls-18" d="M291.72,225.45a.11.11,0,0,1,.16,0,.27.27,0,0,1,.08.17.38.38,0,0,1,0,.15.23.23,0,0,1-.24.14.3.3,0,0,1-.22-.19.22.22,0,0,1,0-.14.11.11,0,0,1,.13,0Z"/><path class="cls-18" d="M161.29,159.94a5.53,5.53,0,0,0-.79.24.27.27,0,0,0,.1.19.74.74,0,0,0,1.07-.15.25.25,0,0,0,.05-.16.22.22,0,0,0-.18-.15.45.45,0,0,0-.23,0Z"/><path class="cls-18" d="M162.82,155.74l0,.17a.39.39,0,0,0,.26,0c.08,0,.11-.17,0-.21H163l-.32,0Z"/><path class="cls-18" d="M240.83,202a6.53,6.53,0,0,0-1.77,2.36,1.25,1.25,0,0,0-.12.46,1,1,0,0,0,.51.74,1.92,1.92,0,0,0,2.12-.21,2.36,2.36,0,0,0,.8-2,1.61,1.61,0,0,0-.52-1.1.89.89,0,0,0-1.14,0,.19.19,0,0,0,.29.14Z"/><path class="cls-18" d="M250.86,196.35a1.67,1.67,0,0,0-.46,1.56,1.78,1.78,0,0,0,1.62-.25,1.08,1.08,0,0,0,.15-1.51.78.78,0,0,0-1.28.42Z"/><path class="cls-18" d="M249.32,201.51a2.13,2.13,0,0,0-.1.56.15.15,0,0,0,0,.07.09.09,0,0,0,.07,0c.2,0,.39-.22.56-.11s.06,0,.1,0,.08-.08.07-.14a.53.53,0,0,0-.72-.37l0-.08Z"/><path class="cls-18" d="M246.56,203.55a.84.84,0,0,0-.22.73.81.81,0,0,0,.34-.08.29.29,0,0,0,.18-.28c0-.16-.19-.25-.34-.31l.12-.05Z"/><path class="cls-18" d="M247.57,205.17a.42.42,0,0,0,0,.22.43.43,0,0,0,.15.15,3.23,3.23,0,0,1,.45.38c0-.33-.05-.65-.08-1a.17.17,0,0,1,0-.07c0-.09.15-.09.22-.15s.07-.25,0-.36C247.89,203.52,247.7,204.78,247.57,205.17Z"/><path class="cls-18" d="M232.39,197.36a.43.43,0,0,0,.27,0,.84.84,0,0,0,.24-.14c.19-.11.43,0,.64-.1.36-.1.52-.52.63-.88a.29.29,0,0,0,0-.26A.44.44,0,0,0,234,196c-.45-.1-.44-.59-.79-.77a1.21,1.21,0,0,0-1.08.1A1.25,1.25,0,0,0,232.39,197.36Z"/><path class="cls-18" d="M248.25,200.81a.36.36,0,0,1,0-.23.64.64,0,0,1,.23.55c0,.11,0,.25-.11.3s-.16,0-.24,0-.33.15-.46.05a.21.21,0,0,1,0-.25.58.58,0,0,1,.21-.17l.51-.3Z"/><path class="cls-18" d="M251.32,200.26c-.09.13.12.31.28.25s.23-.22.29-.38a.58.58,0,0,0-.64.06Z"/><path class="cls-18" d="M250.35,202.53a.52.52,0,0,0,0,.24.21.21,0,0,0,.13.19c.12,0,.24-.1.37-.12s.28.06.4,0a.24.24,0,0,0,0-.35.83.83,0,0,0-.72-.09.26.26,0,0,0-.14.29Z"/><path class="cls-18" d="M250.06,203.57a.15.15,0,0,1,.21,0,.27.27,0,0,1,.07.21.23.23,0,0,1,0,.14.19.19,0,0,1-.28,0,.21.21,0,0,1,0-.29.23.23,0,0,1,.29,0Z"/><path class="cls-18" d="M260.33,208.09a.17.17,0,0,1,.21,0,.28.28,0,0,1,.07.22.22.22,0,0,1,0,.13.19.19,0,0,1-.28,0,.2.2,0,0,1,0-.28.2.2,0,0,1,.28-.05Z"/><path class="cls-18" d="M249,203.33a.23.23,0,0,0-.31.25.42.42,0,0,0,.25,0,.2.2,0,0,0,.15-.19.13.13,0,0,0-.18-.11Z"/><path class="cls-18" d="M252,202.22a.28.28,0,0,1,.31-.07.29.29,0,0,1,.19.26c0,.08,0,.17-.12.16a.15.15,0,0,1-.09,0l-.34-.28.06-.05Z"/><path class="cls-18" d="M254.11,202.93a.38.38,0,0,0,.4.06c.14,0,.31-.07.41,0a.12.12,0,0,1,.05.1c0,.1-.16.1-.25.13a1.48,1.48,0,0,0-.21.13.48.48,0,0,1-.54,0,.28.28,0,0,1,.05-.29.25.25,0,0,1,.28-.07Z"/><path class="cls-18" d="M253.64,204.28l0,.16a.2.2,0,0,0,.25,0,.17.17,0,0,0,0-.24.14.14,0,0,0-.22.06Z"/><path class="cls-18" d="M256.63,206.75l0,.16a.2.2,0,0,0,.25,0,.16.16,0,0,0,0-.24.14.14,0,0,0-.22.07Z"/><path class="cls-18" d="M247.85,203.16c.07-.08,0-.22-.12-.25a3.16,3.16,0,0,0-.32,0,.39.39,0,0,1-.26-.19.19.19,0,0,1,0-.19.14.14,0,0,1,.1-.07,1.25,1.25,0,0,1,.62-.14.54.54,0,0,1,.47.37.42.42,0,0,1-.11.41.41.41,0,0,1-.41.09Z"/><path class="cls-18" d="M249.66,198.61a.44.44,0,0,1,.59.37,1,1,0,0,1-.62.05c-.2-.06-.37-.3-.27-.49l.35-.13Z"/><path class="cls-18" d="M256.1,201.65c-.13,0-.08.16.06.2a1.75,1.75,0,0,0,.47,0h1.11a1.1,1.1,0,0,0,.56-.1c.08-.08,0-.17-.15-.22a2,2,0,0,0-.51-.08,2.9,2.9,0,0,0-1.63.21l.28.11Z"/><path class="cls-18" d="M255.88,203.68a.12.12,0,0,1,.17,0,.26.26,0,0,1,.07.17.26.26,0,0,1,0,.15.23.23,0,0,1-.24.14.27.27,0,0,1-.21-.19.14.14,0,0,1,0-.14.1.1,0,0,1,.12-.05Z"/><path class="cls-18" d="M247.82,209a4.45,4.45,0,0,0-.79.23.27.27,0,0,0,.11.2.74.74,0,0,0,1.06-.15.26.26,0,0,0,.05-.17.23.23,0,0,0-.18-.15.59.59,0,0,0-.23,0Z"/><path class="cls-18" d="M249.35,204.82l0,.17a.39.39,0,0,0,.26,0c.08,0,.11-.18,0-.22h-.1l-.32,0Z"/><path class="cls-18" d="M91.46,100.59a1.08,1.08,0,0,0-.17.38.36.36,0,0,0,.16.37.34.34,0,0,0,.2,0,.41.41,0,0,0,.31-.48.4.4,0,0,0-.49-.28Z"/><path class="cls-18" d="M84.38,102.19a.29.29,0,0,1,.4-.28,1,1,0,0,1,.08.33.59.59,0,0,1-.37,0Z"/><path class="cls-18" d="M84.77,98.63c-.12,0,0,.25.12.21s.15-.2.12-.32a.26.26,0,0,0-.28.16Z"/><path class="cls-18" d="M99.43,91.19v.29a.41.41,0,0,0,.22,0,.27.27,0,0,0-.17-.34Z"/><path class="cls-18" d="M78.24,78.82v.29a.55.55,0,0,0,.22,0,.27.27,0,0,0-.18-.33Z"/><path class="cls-18" d="M87.34,87.57a1,1,0,0,1,.24-.94.23.23,0,0,1,.1-.07.28.28,0,0,1,.17.09c.26.27.54.64.38,1a.49.49,0,0,1-.8.05l.1-.29Z"/><path class="cls-18" d="M133.76,160.51a1,1,0,0,1,.24-.94.18.18,0,0,1,.1-.07.26.26,0,0,1,.16.09c.26.27.55.64.38,1a.48.48,0,0,1-.79.05l.1-.29Z"/><path class="cls-18" d="M35.68,221.67A6.43,6.43,0,0,0,33.92,224a1,1,0,0,0-.12.46.91.91,0,0,0,.5.73,1.9,1.9,0,0,0,2.12-.2,2.36,2.36,0,0,0,.8-2,1.55,1.55,0,0,0-.52-1.1.88.88,0,0,0-1.14,0,.2.2,0,0,0,.3.13Z"/><path class="cls-18" d="M45.71,216a1.67,1.67,0,0,0-.45,1.57,1.77,1.77,0,0,0,1.61-.26,1.07,1.07,0,0,0,.15-1.5c-.4-.4-1.26-.15-1.27.42Z"/><path class="cls-18" d="M44.18,221.2a1.92,1.92,0,0,0-.11.57.1.1,0,0,0,0,.07.07.07,0,0,0,.06,0c.2,0,.4-.23.57-.12s.05.05.09.05.08-.08.07-.14a.53.53,0,0,0-.71-.38l0-.08Z"/><path class="cls-18" d="M41.42,223.24a.86.86,0,0,0-.23.73.94.94,0,0,0,.34-.07.32.32,0,0,0,.18-.29c0-.16-.19-.24-.34-.3l.12-.06Z"/><path class="cls-18" d="M42.43,224.86a.29.29,0,0,0,0,.22.29.29,0,0,0,.14.15,4.11,4.11,0,0,1,.45.38l-.08-1a.22.22,0,0,1,0-.08c0-.08.15-.09.22-.14s.07-.25,0-.37C42.74,223.21,42.55,224.48,42.43,224.86Z"/><path class="cls-18" d="M27.25,217.05a.41.41,0,0,0,.27,0c.09,0,.15-.1.23-.14s.43-.05.64-.1c.37-.1.52-.52.63-.89a.28.28,0,0,0,0-.25.26.26,0,0,0-.17-.07c-.44-.11-.43-.59-.79-.78a1.16,1.16,0,1,0-.79,2.18Z"/><path class="cls-18" d="M43.1,220.51a.5.5,0,0,1,0-.24.68.68,0,0,1,.22.55c0,.12,0,.26-.11.31a.65.65,0,0,1-.24,0c-.16,0-.33.16-.45.06a.2.2,0,0,1,0-.25.5.5,0,0,1,.21-.17l.51-.3Z"/><path class="cls-18" d="M46.18,220c-.1.14.11.32.27.26a.61.61,0,0,0,.3-.38.59.59,0,0,0-.65,0Z"/><path class="cls-18" d="M45.21,222.23a.6.6,0,0,0-.06.23.21.21,0,0,0,.13.19c.13,0,.24-.09.37-.12s.28.07.4,0,.1-.25,0-.34a.57.57,0,0,0-.37-.13.57.57,0,0,0-.34,0,.25.25,0,0,0-.15.29Z"/><path class="cls-18" d="M44.91,223.27a.15.15,0,0,1,.21,0,.26.26,0,0,1,.07.22.28.28,0,0,1,0,.13.2.2,0,0,1-.28,0,.2.2,0,0,1,0-.28.24.24,0,0,1,.29,0Z"/><path class="cls-18" d="M55.18,227.79a.15.15,0,0,1,.21,0,.27.27,0,0,1,.07.21.18.18,0,0,1,0,.13.19.19,0,0,1-.27.05.21.21,0,0,1,0-.29.23.23,0,0,1,.29,0Z"/><path class="cls-18" d="M43.89,223a.23.23,0,0,0-.31.25.43.43,0,0,0,.25,0,.2.2,0,0,0,.16-.18.13.13,0,0,0-.19-.11Z"/><path class="cls-18" d="M46.81,221.91a.31.31,0,0,1,.32-.07.33.33,0,0,1,.19.27c0,.08,0,.17-.13.16s-.06,0-.09-.05l-.33-.27,0,0Z"/><path class="cls-18" d="M49,222.62c.08.12.26.11.39.07s.31-.08.42,0,0,.07,0,.11-.15.09-.25.13a.53.53,0,0,0-.2.13.48.48,0,0,1-.54,0,.26.26,0,0,1,0-.29.3.3,0,0,1,.29-.07Z"/><path class="cls-18" d="M48.49,224l0,.16a.2.2,0,0,0,.25,0,.16.16,0,0,0,0-.24.14.14,0,0,0-.22.06Z"/><path class="cls-18" d="M51.48,226.44l0,.16a.2.2,0,0,0,.25,0,.16.16,0,0,0,0-.24.14.14,0,0,0-.22.06Z"/><path class="cls-18" d="M42.7,222.85c.07-.08,0-.21-.11-.24a1.84,1.84,0,0,0-.33,0,.43.43,0,0,1-.26-.2.19.19,0,0,1,0-.18.28.28,0,0,1,.11-.08,1.09,1.09,0,0,1,.61-.13.55.55,0,0,1,.48.37.43.43,0,0,1-.12.4.42.42,0,0,1-.41.1Z"/><path class="cls-18" d="M44.51,218.31a.44.44,0,0,1,.6.37,1.24,1.24,0,0,1-.63,0,.38.38,0,0,1-.26-.49l.34-.14Z"/><path class="cls-18" d="M51,221.35c-.14.05-.09.15,0,.2a1.79,1.79,0,0,0,.48,0H52.6a1,1,0,0,0,.55-.1c.09-.07,0-.17-.15-.22a2,2,0,0,0-.51-.07,2.9,2.9,0,0,0-1.63.21l.28.11Z"/><path class="cls-18" d="M50.74,223.38a.11.11,0,0,1,.16,0,.25.25,0,0,1,.08.16.37.37,0,0,1,0,.15.21.21,0,0,1-.23.14.27.27,0,0,1-.22-.18.17.17,0,0,1,0-.14.09.09,0,0,1,.12-.05Z"/><path class="cls-18" d="M69.4,221.85a1.7,1.7,0,0,0-.46,1.57,1.79,1.79,0,0,0,1.62-.25,1.08,1.08,0,0,0,.15-1.51c-.41-.4-1.27-.15-1.28.42Z"/><path class="cls-18" d="M69.86,225.76c-.09.14.12.32.28.26s.23-.23.29-.38a.58.58,0,0,0-.64.06Z"/><path class="cls-18" d="M78.87,233.6a.15.15,0,0,1,.21,0,.31.31,0,0,1,.07.21.57.57,0,0,1,0,.14.2.2,0,0,1-.28,0,.21.21,0,0,1,.26-.33Z"/><path class="cls-18" d="M70.49,227.73a.3.3,0,0,1,.32-.08.29.29,0,0,1,.19.27c0,.08,0,.17-.12.16a.13.13,0,0,1-.09,0l-.34-.28.06,0Z"/><path class="cls-18" d="M72.65,228.43c.08.12.26.11.4.07a.45.45,0,0,1,.41,0,.16.16,0,0,1,.05.11c0,.1-.16.1-.25.13a.67.67,0,0,0-.21.13.49.49,0,0,1-.54,0,.26.26,0,0,1,0-.28.25.25,0,0,1,.28-.07Z"/><path class="cls-18" d="M72.18,229.79l0,.16a.21.21,0,0,0,.26,0,.17.17,0,0,0,0-.24.14.14,0,0,0-.22.06Z"/><path class="cls-18" d="M75.17,232.25l0,.17a.21.21,0,0,0,.25,0,.17.17,0,0,0,0-.24.14.14,0,0,0-.22.06Z"/><path class="cls-18" d="M74.64,227.16c-.13.05-.08.15,0,.2a1.87,1.87,0,0,0,.48,0h1.11a1.22,1.22,0,0,0,.56-.1c.08-.08,0-.17-.15-.23a2,2,0,0,0-.51-.07,2.87,2.87,0,0,0-1.63.21l.28.11Z"/><path class="cls-18" d="M74.42,229.19a.12.12,0,0,1,.17,0,.29.29,0,0,1,.07.16.38.38,0,0,1,0,.15.21.21,0,0,1-.24.14.29.29,0,0,1-.22-.18.22.22,0,0,1,0-.14.11.11,0,0,1,.13-.05Z"/><path class="cls-18" d="M42.68,228.72a3.61,3.61,0,0,0-.79.24.22.22,0,0,0,.1.19.73.73,0,0,0,1.06-.15.22.22,0,0,0,.05-.17.18.18,0,0,0-.17-.14.51.51,0,0,0-.24,0Z"/><path class="cls-18" d="M44.2,224.51l0,.18a.39.39,0,0,0,.26,0c.08,0,.1-.17,0-.21h-.1l-.31,0Z"/><path class="cls-18" d="M15.14,229.29a1,1,0,0,1,.24-.94.23.23,0,0,1,.1-.07c.07,0,.12,0,.17.09.26.27.54.64.38,1a.49.49,0,0,1-.8.05l.1-.29Z"/><path class="cls-18" d="M54.39,140.07a6.39,6.39,0,0,0-3-.06.84.84,0,0,0-.75,1,1.9,1.9,0,0,0,1.4,1.61,2.35,2.35,0,0,0,2.12-.53,1.62,1.62,0,0,0,.6-1.06.92.92,0,0,0-.65-.94.19.19,0,0,0,.06.32Z"/><path class="cls-18" d="M64.8,145a1.69,1.69,0,0,0-1.54.54,1.81,1.81,0,0,0,1.15,1.17,1.08,1.08,0,0,0,1.31-.76c.1-.56-.61-1.11-1.08-.79Z"/><path class="cls-18" d="M59.71,146.71a2.45,2.45,0,0,0-.52.24s0,0,0,.05a.12.12,0,0,0,0,.08c.1.17.41.19.42.39a.17.17,0,0,0,0,.1c0,.05.12,0,.16,0a.52.52,0,0,0-.11-.8l.09,0Z"/><path class="cls-18" d="M56.45,145.65a.86.86,0,0,0-.73.24,1.18,1.18,0,0,0,.26.24.32.32,0,0,0,.34,0c.12-.11.09-.3,0-.46l.11.07Z"/><path class="cls-18" d="M55.72,147.41a.36.36,0,0,0-.19.11.38.38,0,0,0,0,.21,3.92,3.92,0,0,1-.05.59l.75-.63s0,0,.06,0,.16.07.25.09.24-.08.3-.2C57.24,146.71,56.1,147.29,55.72,147.41Z"/><path class="cls-18" d="M53.25,130.52a.45.45,0,0,0,.12.25,1.12,1.12,0,0,0,.25.11c.2.09.29.32.46.46s.72.12,1.08,0c.08,0,.18-.08.2-.16a.32.32,0,0,0,0-.19c-.17-.42.23-.69.18-1.09a1.27,1.27,0,0,0-.71-.82A1.25,1.25,0,0,0,53.25,130.52Z"/><path class="cls-18" d="M59.65,145.43a.36.36,0,0,1,.21-.11.68.68,0,0,1-.32.5c-.09.07-.21.14-.31.08s-.09-.12-.14-.18-.32-.19-.31-.35a.18.18,0,0,1,.19-.15.48.48,0,0,1,.26.07l.54.24Z"/><path class="cls-18" d="M61.89,147.61c-.16,0-.18.28,0,.37a.59.59,0,0,0,.49,0,.61.61,0,0,0-.42-.49Z"/><path class="cls-18" d="M59.48,148.14a.67.67,0,0,0-.23.1.21.21,0,0,0-.08.21c0,.13.22.14.32.23s.11.27.23.33a.22.22,0,0,0,.28-.19.59.59,0,0,0-.1-.38.67.67,0,0,0-.24-.26.25.25,0,0,0-.32,0Z"/><path class="cls-18" d="M58.46,148.51a.15.15,0,0,1,.12.17.29.29,0,0,1-.14.19.28.28,0,0,1-.13,0,.19.19,0,0,1-.19-.2.22.22,0,0,1,.21-.19.24.24,0,0,1,.21.21Z"/><path class="cls-18" d="M60.75,159.5c.08,0,.13.09.12.17a.28.28,0,0,1-.14.18.21.21,0,0,1-.13.05.2.2,0,1,1,0-.39.23.23,0,0,1,.21.21Z"/><path class="cls-18" d="M58.06,147.54a.23.23,0,0,0-.38-.11.37.37,0,0,0,.12.22.17.17,0,0,0,.23,0,.13.13,0,0,0,0-.21Z"/><path class="cls-18" d="M60.66,149.27a.29.29,0,0,1,.25.21.31.31,0,0,1-.11.31c-.06.05-.17.06-.2,0a.15.15,0,0,1,0-.09l0-.44.08,0Z"/><path class="cls-18" d="M61.34,151.43c-.05.14.07.27.18.37s.24.2.22.34a.13.13,0,0,1-.06.1c-.09,0-.17-.07-.25-.13a2,2,0,0,0-.22-.09.48.48,0,0,1-.29-.46.27.27,0,0,1,.26-.13.28.28,0,0,1,.22.19Z"/><path class="cls-18" d="M60,151.84l-.15.06a.2.2,0,0,0,.15.2.17.17,0,0,0,.2-.13c0-.09-.1-.18-.18-.15Z"/><path class="cls-18" d="M59.7,155.7l-.15.07a.2.2,0,0,0,.14.2.17.17,0,0,0,.2-.14.14.14,0,0,0-.18-.14Z"/><path class="cls-18" d="M57.51,146.47c.11,0,.17-.14.14-.24s-.12-.18-.17-.28a.4.4,0,0,1,0-.32c0-.06.08-.12.14-.12a.28.28,0,0,1,.13,0,1.24,1.24,0,0,1,.46.42.53.53,0,0,1,0,.6.42.42,0,0,1-.72-.13Z"/><path class="cls-18" d="M62.27,145.3a.45.45,0,0,1,0,.7,1.12,1.12,0,0,1-.41-.48.39.39,0,0,1,.25-.5l.31.2Z"/><path class="cls-18" d="M63.53,152.31c-.11-.08-.17,0-.13.16a1.61,1.61,0,0,0,.25.41l.65.9c.12.17.27.37.4.4s.14-.11.09-.25a2,2,0,0,0-.23-.46c-.31-.51-.75-1.1-1.12-1.21l.07.3Z"/><path class="cls-18" d="M61.76,153.31c.06,0,.1.07.1.13a.37.37,0,0,1-.09.16.35.35,0,0,1-.13.08.22.22,0,0,1-.25-.11.28.28,0,0,1,0-.28s.07-.08.11-.08.11,0,.11.06Z"/><path class="cls-18" d="M73.84,167.61a1.69,1.69,0,0,0-1.54.54,1.77,1.77,0,0,0,1.15,1.17,1.07,1.07,0,0,0,1.31-.76c.09-.56-.61-1.11-1.08-.79Z"/><path class="cls-18" d="M70.93,170.26c-.17,0-.19.28-.05.38a.61.61,0,0,0,.48,0,.59.59,0,0,0-.42-.49Z"/><path class="cls-18" d="M69.79,182.15c.07,0,.12.09.11.17a.27.27,0,0,1-.13.18.24.24,0,0,1-.13.05.2.2,0,0,1-.2-.2.21.21,0,0,1,.22-.19.22.22,0,0,1,.2.21Z"/><path class="cls-18" d="M69.7,171.92a.27.27,0,0,1,.24.21.3.3,0,0,1-.1.31c-.06.05-.17.06-.21,0a.25.25,0,0,1,0-.09l0-.44.07,0Z"/><path class="cls-18" d="M70.38,174.09c0,.13.07.27.18.36s.23.2.22.34a.17.17,0,0,1-.06.1c-.09.05-.17-.07-.25-.13a1.57,1.57,0,0,0-.23-.09.48.48,0,0,1-.28-.46.27.27,0,0,1,.26-.12.27.27,0,0,1,.22.18Z"/><path class="cls-18" d="M69,174.49l-.15.06a.22.22,0,0,0,.15.21.16.16,0,0,0,.19-.14c0-.09-.09-.18-.17-.15Z"/><path class="cls-18" d="M68.73,178.35l-.15.07a.2.2,0,0,0,.15.2.17.17,0,0,0,.2-.14.14.14,0,0,0-.18-.14Z"/><path class="cls-18" d="M72.57,175c-.11-.08-.17,0-.13.16a1.8,1.8,0,0,0,.24.42l.65.89c.13.17.28.37.41.4s.13-.1.09-.25a2,2,0,0,0-.23-.46c-.32-.51-.75-1.1-1.12-1.21l.07.3Z"/><path class="cls-18" d="M70.79,176c.06,0,.11.06.11.12a.32.32,0,0,1-.09.16.26.26,0,0,1-.13.08.22.22,0,0,1-.25-.11.28.28,0,0,1,0-.28.16.16,0,0,1,.12-.08.09.09,0,0,1,.11.07Z"/><path class="cls-18" d="M52.72,149.86a3.88,3.88,0,0,0-.65-.5.27.27,0,0,0-.1.19.75.75,0,0,0,.74.78.25.25,0,0,0,.17-.06.21.21,0,0,0,0-.23.52.52,0,0,0-.16-.17Z"/><path class="cls-18" d="M57,148.66l-.15.07A.38.38,0,0,0,57,149c.08,0,.21,0,.19-.1s0-.06-.05-.09l-.21-.23Z"/><path class="cls-18" d="M36.26,127.78a1,1,0,0,1,.9-.35.22.22,0,0,1,.11,0s0,.12,0,.18c-.07.37-.21.81-.58.88a.49.49,0,0,1-.5-.62l.3-.09Z"/><path class="cls-18" d="M54.47,69.75a6.53,6.53,0,0,0-1.61-2.47,1.14,1.14,0,0,0-.39-.27.9.9,0,0,0-.86.22,1.9,1.9,0,0,0-.54,2.06,2.35,2.35,0,0,0,1.63,1.45,1.58,1.58,0,0,0,1.21-.11.88.88,0,0,0,.41-1.06.19.19,0,0,0-.23.23Z"/><path class="cls-18" d="M56.3,81.11a1.68,1.68,0,0,0-1.31-1,1.76,1.76,0,0,0-.31,1.6A1.06,1.06,0,0,0,56,82.4a.77.77,0,0,0,0-1.34Z"/><path class="cls-18" d="M52,77.89a1.92,1.92,0,0,0-.5-.29.08.08,0,0,0-.07,0s0,0-.05,0,.08.44-.08.57-.07,0-.08.07,0,.1.11.11a.52.52,0,0,0,.6-.54l.06.06Z"/><path class="cls-18" d="M51,74.6a.85.85,0,0,0-.6-.47.85.85,0,0,0-.05.35.31.31,0,0,0,.2.27c.16,0,.3-.1.41-.22v.13Z"/><path class="cls-18" d="M49.15,75a.34.34,0,0,0-.19-.09.4.4,0,0,0-.2.09,3.15,3.15,0,0,1-.51.28l.94.27.07,0c.08.06,0,.17.06.26s.21.15.34.14C50.6,75.85,49.47,75.23,49.15,75Z"/><path class="cls-18" d="M61.71,63.42a.47.47,0,0,0-.13.24,1.28,1.28,0,0,0,.05.27c0,.22-.11.42-.13.64,0,.37.31.67.62.89a.28.28,0,0,0,.24.07c.06,0,.09-.08.13-.14.25-.38.7-.2,1-.47a1.21,1.21,0,0,0,.27-1.05A1.25,1.25,0,0,0,61.71,63.42Z"/><path class="cls-18" d="M53,77.12a.38.38,0,0,1,.21.1.64.64,0,0,1-.59,0c-.11,0-.24-.1-.25-.21s.06-.15.08-.23,0-.37.11-.44a.18.18,0,0,1,.24.07.53.53,0,0,1,.08.25c0,.2.07.39.1.58Z"/><path class="cls-18" d="M52.47,80.2c-.09-.14-.33,0-.33.17a.65.65,0,0,0,.25.41.58.58,0,0,0,.17-.63Z"/><path class="cls-18" d="M50.67,78.5a.69.69,0,0,0-.2-.13.2.2,0,0,0-.22.06c-.08.1,0,.26,0,.39s-.16.24-.14.37a.24.24,0,0,0,.32.13.57.57,0,0,0,.25-.3.69.69,0,0,0,.09-.34.26.26,0,0,0-.22-.24Z"/><path class="cls-18" d="M49.8,77.87a.17.17,0,0,1-.08.2.31.31,0,0,1-.23,0L49.38,78a.2.2,0,1,1,.33-.21.23.23,0,0,1-.05.29Z"/><path class="cls-18" d="M50.37,77a.24.24,0,0,0-.12-.38.43.43,0,0,0-.12.23.2.2,0,0,0,.12.21.14.14,0,0,0,.17-.14Z"/><path class="cls-18" d="M50.42,80.12a.29.29,0,0,1-.05.32.3.3,0,0,1-.31.09c-.08,0-.15-.11-.11-.18a.11.11,0,0,1,.07-.06l.38-.23,0,.07Z"/><path class="cls-18" d="M49,81.9c-.14,0-.19.21-.2.35s0,.31-.16.38a.13.13,0,0,1-.12,0c-.09,0,0-.18,0-.28a1,1,0,0,0-.06-.23.51.51,0,0,1,.22-.5.28.28,0,0,1,.26.15.3.3,0,0,1,0,.29Z"/><path class="cls-18" d="M47.9,81l-.14-.09a.21.21,0,0,0-.09.24.17.17,0,0,0,.23.08.15.15,0,0,0,0-.23Z"/><path class="cls-18" d="M51,75.93c0,.1.2.07.27,0s.08-.2.14-.29a.42.42,0,0,1,.27-.18.18.18,0,0,1,.18.06.24.24,0,0,1,0,.12,1.19,1.19,0,0,1-.08.62.56.56,0,0,1-.51.32.42.42,0,0,1-.35-.25.45.45,0,0,1,.06-.42Z"/><path class="cls-18" d="M54.59,79.2a.44.44,0,0,1-.55.43,1.11,1.11,0,0,1,.17-.6.37.37,0,0,1,.55-.08c0,.12,0,.25,0,.37Z"/><path class="cls-18" d="M49.52,84.2c0-.14-.12-.13-.2,0a1.33,1.33,0,0,0-.21.43l-.38,1a1,1,0,0,0-.09.56c0,.1.16,0,.25-.06a1.82,1.82,0,0,0,.25-.46,2.9,2.9,0,0,0,.37-1.6l-.21.22Z"/><path class="cls-18" d="M47.69,83.3a.11.11,0,0,1,0,.16.27.27,0,0,1-.18,0,.34.34,0,0,1-.14,0,.22.22,0,0,1,0-.27.29.29,0,0,1,.25-.14.15.15,0,0,1,.13,0,.09.09,0,0,1,0,.13Z"/><path class="cls-18" d="M45.45,73.89a3.73,3.73,0,0,0,0-.82.23.23,0,0,0-.21,0,.74.74,0,0,0-.23,1.05.25.25,0,0,0,.15.1c.07,0,.15,0,.19-.11a.64.64,0,0,0,0-.24Z"/><path class="cls-18" d="M48.87,76.77l-.15-.08a.37.37,0,0,0-.1.24c0,.09.13.16.19.1a.11.11,0,0,0,0-.09l.08-.31Z"/><path class="cls-18" d="M54.39,47.84a1,1,0,0,1,.8.55.18.18,0,0,1,0,.12c0,.06-.08.1-.14.13-.34.15-.79.29-1,0a.49.49,0,0,1,.23-.77l.24.2Z"/></g><ellipse class="cls-19" cx="82.12" cy="25.91" rx="36.35" ry="25.91"/><ellipse class="cls-20" cx="234.21" cy="180.92" rx="19.81" ry="27.78" transform="translate(19.58 384.68) rotate(-81.2)"/><ellipse class="cls-21" cx="288.6" cy="196.14" rx="19.81" ry="27.78" transform="translate(50.6 451.32) rotate(-81.2)"/><polygon class="cls-6" points="30.08 114.25 40.32 118.44 46.1 131.72 42.5 116.55 33 112.75 30.08 114.25"/><polygon class="cls-6" points="14.85 150.12 20.5 163.17 19.5 167.23 13.83 163.17 9 180.15 0 186.81 0 160.16 10.02 155.09 14.85 150.12"/><path class="cls-6" d="M34.5,187.9s16.42-6,22.15-5.87c13.1.38,21.49,4.77,21.49,4.77l-19.33,8.64Z"/><polygon class="cls-6" points="46.32 61.13 48.27 68.64 41.05 66.8 46.32 61.13"/><polygon class="cls-11" points="34.5 187.9 27.25 198.77 26.22 195.96 16.75 215.46 9 180.15 0 186.81 0 251.77 50.65 251.54 51.4 239.43 50.65 236.56 50.65 225.9 48.5 209.49 58.81 195.44 34.5 187.9"/><polygon class="cls-13" points="57.31 194.98 53.84 202.22 60.75 197.21 61.04 194.45 66.92 191.82 65.25 191.55 59.33 194.5 57.31 194.98"/><polygon class="cls-16" points="48.5 209.49 72.47 223.59 68.67 248.83 50.65 251.54 51.4 239.43 50.65 236.56 50.65 225.9 48.5 209.49"/><polygon class="cls-11" points="20.5 163.17 35.5 129.03 30.08 134.13 30.08 129.04 30.08 114.25 14.85 150.12 20.5 163.17"/><polygon class="cls-11" points="13.83 163.17 21.5 182.71 19.5 167.23 13.83 163.17"/><polygon class="cls-11" points="41.05 66.8 42.8 76.66 41.85 95.26 33 112.75 41.05 66.8"/><polygon class="cls-13" points="17.67 165.87 19.84 165.87 19.94 170.62 19.5 167.23 17.67 165.87"/><polygon class="cls-13" points="7.65 181.15 9.56 182.71 9.95 176.82 8.8 178.51 7.65 179.57 8.13 180.15 7.65 181.15"/><path class="cls-7" d="M73.69,187.46s-.8.32-2.07.79a103.57,103.57,0,0,1-12.43,3.93c-3.44.72-10.6-.89-15.32-2.14-2.67-.71-4.56-1.3-4.56-1.3s4.84-3.38,16.42-4.44S73.69,187.46,73.69,187.46Z"/><path class="cls-10" d="M71.63,188.24h0a103.57,103.57,0,0,1-12.43,3.93c-3.44.72-10.6-.89-15.32-2.14h0s4.7-3,15-3.22S71.63,188.24,71.63,188.24Z"/><polygon class="cls-11" points="68.39 114.13 58.81 120.64 68.39 115.88 68.39 114.13"/><polygon class="cls-11" points="21.5 134.45 31.59 137.93 37.17 161.27 39.31 160.81 45.32 176.82 39.31 161.98 36.63 162.29 31.02 139.24 21.5 134.45"/><polygon class="cls-11" points="52.6 225.29 57.89 230.73 55.25 230.73 52.6 225.29"/><polygon class="cls-12" points="52.6 225.29 53.43 230.73 57.89 230.73 54.72 229.29 52.6 225.29"/><polygon class="cls-11" points="34.41 181.14 39.88 175.88 39.86 178.53 34.41 181.14"/><polygon class="cls-12" points="34.41 181.14 39.85 180.34 39.88 175.88 38.42 179.04 34.41 181.14"/><polygon class="cls-11" points="47.13 120.84 54.18 123.63 51.77 124.71 47.13 120.84"/><polygon class="cls-12" points="47.13 120.84 50.11 125.46 54.18 123.63 50.7 123.62 47.13 120.84"/><ellipse class="cls-22" cx="56.65" cy="187.66" rx="27.78" ry="19.81" transform="translate(-34.64 14.19) rotate(-10.96)"/></g></g></g></svg>