<svg xmlns="http://www.w3.org/2000/svg" xmlns:xlink="http://www.w3.org/1999/xlink" viewBox="0 0 81.74 73.49"><defs><style>.cls-1{isolation:isolate;}.cls-2,.cls-3{opacity:0.61;}.cls-2,.cls-3,.cls-4{mix-blend-mode:screen;}.cls-2{fill:url(#Безымянный_градиент_225);}.cls-3{fill:url(#Безымянный_градиент_225-2);}.cls-4{fill:url(#Безымянный_градиент_246);}.cls-5{fill:#b377ff;}.cls-6{fill:#fff;}</style><radialGradient id="Безымянный_градиент_225" cx="12.23" cy="67.99" r="4.68" gradientTransform="matrix(1, -0.09, 0.09, 1, -11.27, 1.52)" gradientUnits="userSpaceOnUse"><stop offset="0" stop-color="#ff006a"/><stop offset="0.12" stop-color="#d10057"/><stop offset="0.3" stop-color="#92003d"/><stop offset="0.48" stop-color="#5e0027"/><stop offset="0.64" stop-color="#350016"/><stop offset="0.78" stop-color="#18000a"/><stop offset="0.91" stop-color="#060003"/><stop offset="1"/></radialGradient><radialGradient id="Безымянный_градиент_225-2" cx="-175.23" cy="34.34" r="4.68" gradientTransform="matrix(0, 1, -2.33, 0, 88.73, 240.59)" xlink:href="#Безымянный_градиент_225"/><linearGradient id="Безымянный_градиент_246" x1="11.48" y1="37.88" x2="92.77" y2="37.88" gradientTransform="matrix(1, -0.09, 0.09, 1, -11.27, 1.52)" gradientUnits="userSpaceOnUse"><stop offset="0" stop-color="#4c86ff"/><stop offset="1"/></linearGradient></defs><g class="cls-1"><g id="Слой_2" data-name="Слой 2"><g id="space"><path class="cls-2" d="M11.62,67.75A4.68,4.68,0,1,1,6.54,63.5,4.68,4.68,0,0,1,11.62,67.75Z"/><ellipse class="cls-3" cx="8.65" cy="65.35" rx="10.91" ry="4.68" transform="translate(-41.82 22.94) rotate(-42.42)"/><path class="cls-4" d="M6.16,67.43s9-8.7,21.16-20l.57-.56c5-5.67,5.72-8.75,12.93-11.94l.67-.59c1.83-1.68,3.68-3.36,5.53-5l.51-.46c4.39.61,7.11-2.64,7.07-6.32l.5-.44c3.56-3.16,7.07-6.21,10.41-9.06l.47-.4c2.09-4.69,3.81-7.85,8.94-7.39l.83-.66c2.17-1.72,4.19-3.25,6-4.54L76,5c-.27.24-.55.49-.85.74-6.19,1.06-7,3.14-9,8l-.61.54c-2.88,2.56-6,5.35-9.3,8.29l-.63.56c-.1,2,.17,5-.65,7-1.9,1.18-5.16-1.54-7.13,0l-.66.6-4.64,4.21-.69.62A33.85,33.85,0,0,0,28.15,48.19l-.57.54C18.49,57.25,10.79,64.78,7.05,69.19,7.05,69.19,6.12,69.09,6.16,67.43Z"/><path class="cls-5" d="M11.57,64.85a3.8,3.8,0,0,0,.4-1.62.8.8,0,0,0,0-.27.52.52,0,0,0-.43-.27,1.07,1.07,0,0,0-1.06.57,1.34,1.34,0,0,0,0,1.23A1,1,0,0,0,11,65a.49.49,0,0,0,.6-.24.1.1,0,0,0-.18,0Z"/><path class="cls-5" d="M9.24,68.11a3.67,3.67,0,0,0,.41-1.62.57.57,0,0,0,0-.26A.5.5,0,0,0,9.19,66a1.07,1.07,0,0,0-1.06.57,1.34,1.34,0,0,0,0,1.23.94.94,0,0,0,.51.47.52.52,0,0,0,.6-.24.11.11,0,0,0-.18,0Z"/><path class="cls-5" d="M27.05,48.7a2.72,2.72,0,0,0,.29-1.15.42.42,0,0,0,0-.19.39.39,0,0,0-.3-.19.77.77,0,0,0-.75.4,1,1,0,0,0,0,.87.65.65,0,0,0,.36.33.35.35,0,0,0,.42-.17.07.07,0,0,0-.13,0Z"/><path class="cls-5" d="M9.22,65.7a.93.93,0,0,0-.1-.91,1,1,0,0,0-.79.48.6.6,0,0,0,.25.82c.3.12.69-.2.57-.5Z"/><path class="cls-5" d="M13.63,64.88a1.23,1.23,0,0,0-.07-.32l0,0s0,0,0,0-.15.2-.26.18h-.06s0,.06,0,.09a.3.3,0,0,0,.45,0v0Z"/><path class="cls-5" d="M14.63,59.22a2.38,2.38,0,0,0-.13-.6s0,0,0-.06a.12.12,0,0,0-.08,0c-.2.07-.3.39-.51.35,0,0-.08,0-.11,0s0,.11,0,.17a.57.57,0,0,0,.86.08v.09Z"/><path class="cls-5" d="M5.75,68.51a2,2,0,0,0-.13-.59.16.16,0,0,0,0-.07H5.5c-.2.06-.3.38-.51.35a.14.14,0,0,0-.11,0c-.06,0,0,.11,0,.17a.57.57,0,0,0,.86.07v.1Z"/><path class="cls-5" d="M44.6,33.11a.53.53,0,0,0,.25.35.48.48,0,0,0,.09-.19.16.16,0,0,0-.07-.17c-.08-.05-.18,0-.26,0l0-.07Z"/><path class="cls-5" d="M16.85,55.94a.17.17,0,0,0,0-.12s-.07,0-.11,0a1.24,1.24,0,0,1-.31-.1l.25.49a.09.09,0,0,1,0,.05s-.06.07-.08.12,0,.14.07.19C17,56.87,16.87,56.17,16.85,55.94Z"/><path class="cls-5" d="M21,51.88a.17.17,0,0,0,0-.12.14.14,0,0,0-.11,0,1.92,1.92,0,0,1-.31-.11l.25.5s0,0,0,0-.06.08-.08.12,0,.15.07.19C21.15,52.81,21,52.11,21,51.88Z"/><path class="cls-5" d="M20.12,58.49a.22.22,0,1,1-.28-.27.23.23,0,0,1,.28.27Z"/><path class="cls-5" d="M14.54,61.69c.07.1.15.24.07.33s-.22,0-.32,0-.09-.06-.09-.11.25-.09.27-.21.06,0,0,.07Z"/><path class="cls-5" d="M44.44,32.92c.07.1.15.24.07.33s-.22,0-.32,0-.09-.06-.09-.11.25-.09.27-.21.06.05,0,.07Z"/><path class="cls-5" d="M21.49,53.68c.08.09.15.23.07.32s-.22,0-.32,0-.09-.06-.09-.11.25-.08.27-.2.06,0,0,.06Z"/><path class="cls-5" d="M9.61,62.81a.17.17,0,0,1,0,.12c-.11,0-.18-.13-.24-.23s-.05-.14,0-.19.08,0,.12,0,.14-.16.23-.13a.13.13,0,0,1,.06.13.33.33,0,0,1-.07.13l-.21.27Z"/><path class="cls-5" d="M17.61,52.84a.2.2,0,0,1,0,.13c-.11,0-.18-.14-.23-.24s-.06-.14,0-.18.08,0,.12-.06.14-.15.23-.12a.1.1,0,0,1,.06.12.46.46,0,0,1-.07.14l-.21.26Z"/><path class="cls-5" d="M8.13,63.76c0-.09-.13-.13-.2-.07a.33.33,0,0,0-.07.26.31.31,0,0,0,.32-.17Z"/><path class="cls-6" d="M1.73,61.63a.1.1,0,0,1-.12,0,.2.2,0,0,1-.08-.1.19.19,0,0,1,0-.08.11.11,0,0,1,.14-.08.11.11,0,0,1,.07.14.12.12,0,0,1-.14.09Z"/><path class="cls-5" d="M13.61,57.66a.14.14,0,0,0,.11-.2.23.23,0,0,0-.14,0,.11.11,0,0,0,0,.13.08.08,0,0,0,.12,0Z"/><path class="cls-5" d="M10.76,61.53a.41.41,0,0,0,.08-.32l-.27.09a.17.17,0,0,0-.11.06.14.14,0,0,0,0,.21.21.21,0,0,0,.24,0Z"/><path class="cls-5" d="M14.16,61.09a.32.32,0,0,0,.13-.3.4.4,0,0,0-.24.05.23.23,0,0,0-.1.28c.05.1.23.1.25,0Z"/><path class="cls-5" d="M13.61,62.12a.18.18,0,0,1-.17.13l-.1-.24a.2.2,0,0,1,.3.05Z"/><path class="cls-5" d="M13.33,64.7l.06.08a.58.58,0,0,1-.23,0,.18.18,0,0,1-.15-.16c0-.08.09-.15.15-.11a.37.37,0,0,1,.16.17Z"/><path class="cls-5" d="M6,67.27l.06.08a.65.65,0,0,1-.24,0,.2.2,0,0,1-.15-.16c0-.08.09-.15.16-.11a.44.44,0,0,1,.16.17Z"/><path class="cls-5" d="M7.37,62.88a.15.15,0,0,1-.15.1.14.14,0,0,1-.15-.09.08.08,0,0,1,0-.12h.05l.24.07,0,0Z"/><path class="cls-5" d="M44.36,34.1c0,.06,0,.11.11.11l.18-.05a.18.18,0,0,1,.17,0,.12.12,0,0,1,0,.09.16.16,0,0,1,0,.07.72.72,0,0,1-.29.2.31.31,0,0,1-.33-.09.26.26,0,0,1,0-.24.27.27,0,0,1,.2-.14Z"/><path class="cls-5" d="M18.46,56.6c.11,0,.19-.1.23-.21a.28.28,0,0,0,0-.22c-.07-.08-.19-.05-.28,0l-.25.1s-.07,0-.08.06,0,.07,0,.1a1.26,1.26,0,0,0,.33.4Z"/><path class="cls-5" d="M15.54,58.53c.94.49,1.4-.67.72-1.26S14.71,58.11,15.54,58.53Z"/><path class="cls-5" d="M6.66,66.92c1,.48,1.41-.67.73-1.27S5.84,66.49,6.66,66.92Z"/><path class="cls-5" d="M43.72,34.54c.55.28.82-.39.42-.74S43.24,34.29,43.72,34.54Z"/><path class="cls-5" d="M9.35,64.26A.25.25,0,0,1,9,64.2.71.71,0,0,1,9.28,64a.21.21,0,0,1,.24.2l-.15.15Z"/><path class="cls-5" d="M37.24,37.24c.27-.51.36.49,0,0Z"/><path class="cls-5" d="M8.56,55.19a.49.49,0,0,0,0-.24c0-.07-.08-.15-.16-.15a.11.11,0,0,0-.11,0,.22.22,0,1,0,.26.35Z"/><path class="cls-5" d="M14.88,57.47a.16.16,0,0,1-.15.23.33.33,0,0,1-.11-.15.26.26,0,0,1,.19-.07Z"/><path class="cls-5" d="M9.41,66.48l-.07-.15a.22.22,0,0,0-.11,0,.15.15,0,0,0,.16.14Z"/><path class="cls-5" d="M8.56,68a1.61,1.61,0,1,1-1.75-1.47A1.61,1.61,0,0,1,8.56,68Z"/></g></g></g></svg>