<svg xmlns="http://www.w3.org/2000/svg" xmlns:xlink="http://www.w3.org/1999/xlink" viewBox="0 0 172.55 121.81"><defs><style>.cls-1{isolation:isolate;}.cls-2,.cls-3,.cls-4{opacity:0.61;}.cls-2,.cls-3,.cls-4,.cls-6{mix-blend-mode:screen;}.cls-2{fill:url(#Безымянный_градиент_230);}.cls-3{fill:url(#Безымянный_градиент_225);}.cls-4{fill:url(#Безымянный_градиент_225-2);}.cls-5{fill:#fff;}.cls-6{fill:url(#Безымянный_градиент_234);}</style><linearGradient id="Безымянный_градиент_230" x1="12.32" y1="55.84" x2="172.55" y2="55.84" gradientUnits="userSpaceOnUse"><stop offset="0" stop-color="#ff6393"/><stop offset="0.12" stop-color="#d15178"/><stop offset="0.3" stop-color="#923954"/><stop offset="0.48" stop-color="#5e2436"/><stop offset="0.64" stop-color="#35151f"/><stop offset="0.78" stop-color="#18090e"/><stop offset="0.91" stop-color="#060204"/><stop offset="1"/></linearGradient><radialGradient id="Безымянный_градиент_225" cx="14.69" cy="111" r="10.81" gradientTransform="translate(119.04 70.38) rotate(76.27)" gradientUnits="userSpaceOnUse"><stop offset="0" stop-color="#ff006a"/><stop offset="0.12" stop-color="#d10057"/><stop offset="0.3" stop-color="#92003d"/><stop offset="0.48" stop-color="#5e0027"/><stop offset="0.64" stop-color="#350016"/><stop offset="0.78" stop-color="#18000a"/><stop offset="0.91" stop-color="#060003"/><stop offset="1"/></radialGradient><radialGradient id="Безымянный_градиент_225-2" cx="11.08" cy="123.34" r="10.81" gradientTransform="matrix(0.61, 0.8, -3.56, 2.71, 471.15, -253.63)" xlink:href="#Безымянный_градиент_225"/><linearGradient id="Безымянный_градиент_234" x1="12.95" y1="69.95" x2="127.38" y2="69.95" gradientUnits="userSpaceOnUse"><stop offset="0" stop-color="#fff"/><stop offset="0.12" stop-color="#d1d1d1"/><stop offset="0.3" stop-color="#929292"/><stop offset="0.48" stop-color="#5e5e5e"/><stop offset="0.64" stop-color="#353535"/><stop offset="0.78" stop-color="#181818"/><stop offset="0.91" stop-color="#060606"/><stop offset="1"/></linearGradient></defs><g class="cls-1"><g id="Слой_2" data-name="Слой 2"><g id="space"><path class="cls-2" d="M12.32,109.77a802.48,802.48,0,0,1,71.54-57l.65-.46c1.87-2.78,5.87-2.78,7.91-5.53.23-.16.46-.31.7-.49,3.26-3.76,8.26-2.76,10.62-7.11.32-.26.65-.47,1-.69l1-.65,1-.65c1.68-2.66,4.68-3.66,8-5.19l1-.64,2-1.26c.34-.21.67-.42,1-.61,4.58-1,7.58-1,9.13-5.63l1-.61,4-2.39,1-.6c2.36-3.73,5.36-4.73,9.2-5.24l1-.58C153.54,9.3,163,4.43,172.55,0c0,0-10.73,6.4-27.05,16.78l-.74.47c-4.38-.72-7.38.28-8.68,5.57l-.55.35L131,26.11l-.53.34c-2.1,3.08-6.1,4.08-8.69,5.71l-.56.37-3.39,2.25-.53.35c-4.93-.6-6.93,1.4-8.56,5.76l-.55.37L106,42.74l-.53.37c-3.1,3.42-7.1,3.42-9.18,6.31l-.66.45c-4.26.66-6.26,1.66-8.57,6l-.66.48C61.65,73.91,36.19,93.44,17,111.68Z"/><circle class="cls-3" cx="14.69" cy="111" r="10.81" transform="translate(-96.62 98.93) rotate(-76.27)"/><path class="cls-4" d="M45.58,98.35c-21.24,16.2-41.4,25.48-45,20.73S11.23,97.35,32.47,81.16s41.41-25.48,45-20.73S66.83,82.16,45.58,98.35Z"/><path class="cls-5" d="M18.21,111a3.52,3.52,0,1,1-3.52-3.51A3.52,3.52,0,0,1,18.21,111Z"/><path class="cls-6" d="M13,109.14S46,80.34,84.41,53.35l.69-.48c3-2.11,4.87-3.94,7.4-5.28.29-.14.57-.29.87-.42,3-2.64,8-3.64,10.79-7.06a9.51,9.51,0,0,1,1-.73l1-.62,1-.62c1.27-3.61,5.27-4.61,8.72-5.41l1-.58L118.73,31c.32-.19.64-.39,1-.57,1.68-2.9,7.68,2.1,7.68-3.9,0,4-5,2-7.14,4.58l-.67.47-2.93,2.06a7.48,7.48,0,0,1-.66.43c-3.6-.54-6.6,1.46-8,5.67l-.53.38-1.08.77-.73.52a48.27,48.27,0,0,1-10.17,7.31l-.6.44c-4.53-.63-5.53,4.37-8.43,6.14l-.62.46c-24.64,18.11-54.09,40.8-71.17,57.62C14.69,113.38,12.58,113,13,109.14Z"/><path class="cls-5" d="M26,104.31a8.31,8.31,0,0,0,1.27-3.64,1.3,1.3,0,0,0,0-.62,1.2,1.2,0,0,0-.91-.71,2.5,2.5,0,0,0-2.57,1.08,3.09,3.09,0,0,0-.19,2.85,2.09,2.09,0,0,0,1.07,1.17,1.16,1.16,0,0,0,1.43-.43.25.25,0,0,0-.42-.05Z"/><path class="cls-5" d="M8.84,120a8.58,8.58,0,0,0,1.27-3.64,1.61,1.61,0,0,0,0-.62,1.23,1.23,0,0,0-.92-.72A2.49,2.49,0,0,0,6.6,116.1,3.12,3.12,0,0,0,6.4,119a2.06,2.06,0,0,0,1.08,1.16,1.18,1.18,0,0,0,1.43-.42.25.25,0,0,0-.42,0Z"/><path class="cls-5" d="M64.93,70.32a6,6,0,0,0,.9-2.57,1.29,1.29,0,0,0,0-.44.85.85,0,0,0-.65-.5,1.75,1.75,0,0,0-1.81.77,2.16,2.16,0,0,0-.14,2,1.46,1.46,0,0,0,.76.82.82.82,0,0,0,1-.3.18.18,0,0,0-.3,0Z"/><path class="cls-5" d="M20.41,105.81a2.21,2.21,0,0,0-.05-2.13,2.3,2.3,0,0,0-1.91.95,1.41,1.41,0,0,0,.41,1.94c.66.34,1.63-.32,1.42-1Z"/><path class="cls-5" d="M30.72,104.82a2.41,2.41,0,0,0-.09-.75s0-.06-.05-.07a.13.13,0,0,0-.09,0c-.25.06-.4.44-.66.37,0,0-.09,0-.13,0s-.07.13,0,.2a.69.69,0,0,0,1,.19v.11Z"/><path class="cls-5" d="M18.45,114.9a2.64,2.64,0,0,0-.1-.74.09.09,0,0,0,0-.08.1.1,0,0,0-.09,0c-.26.05-.41.43-.66.36a.34.34,0,0,0-.14,0c-.07,0-.06.13,0,.2a.69.69,0,0,0,1,.19l0,.12Z"/><path class="cls-5" d="M34.19,92A4.83,4.83,0,0,0,34,90.58a.25.25,0,0,0-.08-.15.28.28,0,0,0-.18,0c-.48.1-.76.82-1.24.69-.08,0-.17-.07-.25,0s-.13.25-.07.38a1.29,1.29,0,0,0,2,.36l0,.21Z"/><path class="cls-5" d="M11.85,111.56a4.77,4.77,0,0,0-.18-1.4.2.2,0,0,0-.08-.15.19.19,0,0,0-.18,0c-.48.1-.76.81-1.24.69-.08,0-.17-.08-.25-.05s-.13.25-.06.39a1.29,1.29,0,0,0,2,.35l0,.22Z"/><path class="cls-5" d="M40,84.9a.45.45,0,0,0-.06-.28.55.55,0,0,0-.25-.13,4.34,4.34,0,0,1-.7-.3l.47,1.19a.16.16,0,0,1,0,.09c0,.12-.15.17-.22.27s0,.34.13.46C40.23,87.08,40,85.43,40,84.9Z"/><path class="cls-5" d="M50.27,76.4a.46.46,0,0,0-.06-.28A.55.55,0,0,0,50,76a4.34,4.34,0,0,1-.7-.3c.16.4.32.79.47,1.19a.17.17,0,0,1,0,.1c0,.12-.15.17-.22.26s0,.34.13.46C50.52,78.59,50.26,76.93,50.27,76.4Z"/><path class="cls-5" d="M47,91.43a.54.54,0,0,1-.86.17.51.51,0,1,1,.87-.21Z"/><path class="cls-5" d="M33.47,97.67c.16.23.31.57.11.75s-.51,0-.73-.12-.2-.16-.19-.27c0-.28.58-.16.66-.42.08,0,.13.12.06.15Z"/><path class="cls-5" d="M51.12,80.65c.15.23.3.56.1.75s-.51,0-.73-.12-.2-.16-.19-.27c0-.28.58-.16.67-.43.07,0,.12.12.05.16Z"/><path class="cls-5" d="M21.91,99.22a.52.52,0,0,1,.06.3.84.84,0,0,1-.49-.59c-.06-.14-.1-.32,0-.42s.2-.07.3-.11.35-.32.55-.24a.25.25,0,0,1,.11.3.73.73,0,0,1-.19.3l-.52.57Z"/><path class="cls-5" d="M42.37,77.92a.54.54,0,0,1,.06.31c-.26-.07-.4-.35-.5-.6s-.09-.32,0-.42a.76.76,0,0,1,.3-.1c.19-.08.35-.33.54-.25a.26.26,0,0,1,.12.3.73.73,0,0,1-.19.3L42.2,78Z"/><path class="cls-5" d="M18.3,101.12c.06-.21-.27-.35-.45-.21a.8.8,0,0,0-.22.59.78.78,0,0,0,.79-.32Z"/><path class="cls-5" d="M4,94.89a.19.19,0,0,1-.26.07.35.35,0,0,1-.17-.24.28.28,0,0,1,0-.18.25.25,0,0,1,.33-.16.27.27,0,0,1,.15.34.3.3,0,0,1-.35.17Z"/><path class="cls-5" d="M32.16,88.2a.31.31,0,0,0,.3-.43.52.52,0,0,0-.33,0,.25.25,0,0,0-.12.29.16.16,0,0,0,.27.07Z"/><path class="cls-5" d="M24.81,96.52a.87.87,0,0,0,.24-.72l-.62.14a.58.58,0,0,0-.28.12.33.33,0,0,0,.07.5.48.48,0,0,0,.55,0Z"/><path class="cls-5" d="M77.1,63.75a.89.89,0,0,0,.24-.71l-.63.13a.66.66,0,0,0-.27.12.35.35,0,0,0,.06.51.48.48,0,0,0,.55,0Z"/><path class="cls-5" d="M32.72,96.19a.65.65,0,0,0,.36-.65.8.8,0,0,0-.55.07.53.53,0,0,0-.29.62c.09.24.5.27.57,0Z"/><path class="cls-5" d="M31.24,98.45a.37.37,0,0,1-.41.26l-.17-.56a.46.46,0,0,1,.68.17Z"/><path class="cls-5" d="M30.09,104.33l.11.21a1.4,1.4,0,0,1-.54,0,.45.45,0,0,1-.32-.39c0-.18.24-.33.39-.22a.86.86,0,0,1,.33.42Z"/><path class="cls-5" d="M11.14,108.74l.12.2a1.1,1.1,0,0,1-.54,0,.42.42,0,0,1-.32-.39c0-.18.24-.33.38-.22a1,1,0,0,1,.34.43Z"/><path class="cls-5" d="M12.63,108.74l.12.2a1.1,1.1,0,0,1-.54,0,.42.42,0,0,1-.32-.39c0-.18.24-.33.39-.22a1,1,0,0,1,.33.43Z"/><path class="cls-5" d="M16.74,98.92a.4.4,0,0,1-.37.22.4.4,0,0,1-.34-.26c0-.1,0-.23.1-.25a.25.25,0,0,1,.12,0l.53.21-.05.09Z"/><path class="cls-5" d="M96.85,46.67c-.47-.14.53-.14.12-.32Z"/><path class="cls-5" d="M107.76,40.29c-.06.13.1.27.24.27s.27-.08.41-.09c0,.06,1,.06.49.36a.36.36,0,0,1-.1.14,1.49,1.49,0,0,1-.72.41.7.7,0,0,1-.73-.28.54.54,0,0,1,.46-.83Z"/><path class="cls-5" d="M43.54,86.76c.25.12.47-.19.57-.45a.55.55,0,0,0,0-.5c-.13-.19-.42-.15-.64-.08l-.58.17a.3.3,0,0,0-.22.14.29.29,0,0,0,0,.22,2.79,2.79,0,0,0,.68,1Z"/><path class="cls-5" d="M36.42,90.6c2.07,1.31,3.38-1.25,1.92-2.76S34.61,89.46,36.42,90.6Z"/><path class="cls-5" d="M22.18,107.87c2.07,1.31,3.38-1.25,1.92-2.76S20.37,106.73,22.18,107.87Z"/><path class="cls-5" d="M17,111.68c2.07,1.31,3.38-1.25,1.92-2.76S15.17,110.54,17,111.68Z"/><path class="cls-5" d="M10,105.64c2.08,1.3,3.38-1.26,1.92-2.76S8.23,104.5,10,105.64Z"/><path class="cls-5" d="M106.2,41.16c1.21.76,2-.73,1.12-1.61S105.15,40.49,106.2,41.16Z"/><path class="cls-5" d="M21,102.52a.57.57,0,0,1-.88-.23,1.45,1.45,0,0,1,.76-.31c.28,0,.57.23.52.51l-.38.3Z"/><path class="cls-5" d="M93,50.12c.35-5.59-.65.41-.24.06Z"/><path class="cls-5" d="M128.28,26c.1-.47-5.9.53,0,.06Z"/><path class="cls-5" d="M21.06,81.48a1.28,1.28,0,0,0,.06-.55.45.45,0,0,0-.34-.39.39.39,0,0,0-.26,0,.51.51,0,1,0,.53.88Z"/><path class="cls-5" d="M35.12,88a.38.38,0,0,1-.39.5,1.2,1.2,0,0,1-.23-.37A.66.66,0,0,1,35,88Z"/><path class="cls-5" d="M20.68,107.62l-.12-.35a.62.62,0,0,0-.27.09.35.35,0,0,0,.34.35Z"/></g></g></g></svg>