<svg xmlns="http://www.w3.org/2000/svg" xmlns:xlink="http://www.w3.org/1999/xlink" viewBox="0 0 144.64 139.88"><defs><style>.cls-1{isolation:isolate;}.cls-2{opacity:0.71;}.cls-3{fill:url(#Безымянный_градиент_95);}.cls-4{fill:#974d8b;opacity:0.5;}.cls-4,.cls-6{mix-blend-mode:multiply;}.cls-10,.cls-5{fill:#5fcccc;}.cls-5,.cls-9{opacity:0.51;}.cls-5,.cls-7,.cls-9{mix-blend-mode:soft-light;}.cls-6{fill:#190024;opacity:0.1;}.cls-8{fill:#e9e9a8;}</style><radialGradient id="Безымянный_градиент_95" cx="57.58" cy="134.94" r="136.66" gradientUnits="userSpaceOnUse"><stop offset="0.59" stop-color="#42218e"/><stop offset="1" stop-color="#8657e8"/></radialGradient></defs><g class="cls-1"><g id="Слой_2" data-name="Слой 2"><g id="space"><g class="cls-2"><path class="cls-3" d="M139.87,71.84a70.29,70.29,0,0,1-8.24,31c-.2.39-.41.79-.64,1.17a69.24,69.24,0,0,1-17.26,20.43,68,68,0,0,1-6.63,4.71,69.56,69.56,0,0,1-15.64,7.29h0c-.39.14-.77.26-1.16.37a70,70,0,0,1-90-61.1c0-.42-.07-.86-.1-1.29A69.74,69.74,0,0,1,4.54,45.2c.34-.87.7-1.75,1.06-2.63a70.55,70.55,0,0,1,7-12.69,65.53,65.53,0,0,1,4.21-5.43c.24-.29.49-.59.75-.87A69.23,69.23,0,0,1,32.42,10.94c.39-.26.78-.49,1.17-.72,1.07-.66,2.16-1.28,3.26-1.87.35-.18.68-.38,1-.54a69.92,69.92,0,0,1,85.27,16.75c.39.45.77.91,1.13,1.37a69,69,0,0,1,5.22,7.35c.29.48.58,1,.86,1.46a69.2,69.2,0,0,1,6.81,16c.12.38.22.76.32,1.13a69.38,69.38,0,0,1,2.31,14.79C139.89,68.35,139.92,70.08,139.87,71.84Z"/><path class="cls-4" d="M138.3,84.71s-32.14,2.48-38.73-9.21S86.29,60.87,75.8,62.1s-23.67,9.67-36.4,6.27S2.47,51.63,2.47,51.63C.38,58.06,0,70.09,0,70.09s5.67,20.17,21.63,21.4,51.89,6.79,75.5,13.73,30.07,4.87,30.07,4.87A66.06,66.06,0,0,0,138.3,84.71Zm-114.92.62c-1.66-4.13,9-4.62,11-1.63S26.88,94.07,23.38,85.33Zm45-18.84c9.94-4,27.41,3.22,25.75,9.74S60.66,69.62,68.34,66.49Zm20,33.4c-.28-5.8,6.78-2,8.44,1S88.58,104.57,88.35,99.89Zm30.88-.14a2.29,2.29,0,1,1,4.57.12C123.72,103.25,119.14,101.35,119.23,99.75Z"/><path class="cls-5" d="M139.87,71.84s-23-14.44-41.26-18.14-38.37,7.76-61.69,3.75C24.85,55.37,13.61,48.61,5.6,42.58a70.64,70.64,0,0,1,7-12.7c4.25,4.26,16,15.35,27,19.35,13.73,5,26.39-.44,49.52.9,19.8,1.14,44.1,13.09,50.66,16.49C139.9,68.35,139.91,70.09,139.87,71.84Z"/><path class="cls-5" d="M28.15,106.86c-2.65,1.84-9.18-.17-8.62-1.46C20.61,103,30.81,105,28.15,106.86Zm5-3.8c1-1.43,6.91-.38,6.56.53S32.29,104.35,33.19,103.06Zm66.32,18.68c2-2.2,12.47,2,11.92,4.5S97.55,123.94,99.51,121.74Zm-48.7-16.83c-26.36-5.2-41-10.18-47.09-12.56a69.53,69.53,0,0,0,10,19.09c11.21.18,22.07-9.75,52.17-.45a200.49,200.49,0,0,1,41.25,18.17,65.14,65.14,0,0,0,6.63-4.7C102.67,119.83,77.88,110.26,50.81,104.91Z"/><path class="cls-6" d="M37.38,35.57C36.86,38.1,47,42.82,49,40S38.48,30.27,37.38,35.57Z"/><path class="cls-6" d="M40.86,43.89c.43,2,2.77,2,3.06,1.15S40.44,41.87,40.86,43.89Z"/><path class="cls-6" d="M99.49,69.26c2.82-2.87,4.13-1.25,4.78.25S98.61,70.15,99.49,69.26Z"/><path class="cls-6" d="M100.61,45.73c2.82-2.87,4.13-1.24,4.78.26S99.72,46.62,100.61,45.73Z"/><path class="cls-6" d="M62,121.38c2.82-2.87,4.13-1.24,4.78.26S61.08,122.27,62,121.38Z"/><path class="cls-6" d="M113,78.71c.33,1.46,2.87,1.73,2.71.07S112.41,76.24,113,78.71Z"/><path class="cls-6" d="M60.41,18.84c.33,1.46,2.87,1.73,2.71.07S59.84,16.37,60.41,18.84Z"/><path class="cls-5" d="M109.29,113.81c1.1.3,5,3,4.85,5.28s-9.94.3-9.59-1.82S107.76,113.39,109.29,113.81Z"/><path class="cls-5" d="M111.75,45.65c1.1.3,5,3,4.84,5.28s-9.93.3-9.58-1.82S110.22,45.23,111.75,45.65Z"/><path class="cls-5" d="M84.53,17.39c.27,1.11-.12,5.84-2.24,6.81s-5.12-8.52-3.1-9.25S84.15,15.85,84.53,17.39Z"/><g class="cls-7"><path class="cls-8" d="M99.84,34.65a7.35,7.35,0,0,0,.11-3.33,1.3,1.3,0,0,0-.18-.51,1,1,0,0,0-.94-.35A2.16,2.16,0,0,0,97,32a2.67,2.67,0,0,0,.58,2.4,1.81,1.81,0,0,0,1.19.69,1,1,0,0,0,1.07-.72.22.22,0,0,0-.36.06Z"/><path class="cls-8" d="M116.26,41.07a1.89,1.89,0,0,0-.59-1.75,2,2,0,0,0-1.33,1.28,1.21,1.21,0,0,0,.84,1.49c.63.12,1.26-.68.91-1.21Z"/><path class="cls-8" d="M114.36,35.28a2.11,2.11,0,0,0-.27-.59s0,0-.06-.06a.09.09,0,0,0-.08,0c-.2.11-.22.46-.45.47a.25.25,0,0,0-.12,0s0,.13,0,.18a.6.6,0,0,0,.91-.11v.1Z"/><path class="cls-8" d="M109.8,29.83a4.14,4.14,0,0,0-.51-1.11.27.27,0,0,0-.1-.11.19.19,0,0,0-.16,0c-.37.21-.42.87-.84.89a.36.36,0,0,0-.23,0c-.1.07,0,.24.05.33a1.11,1.11,0,0,0,1.71-.21l0,.19Z"/><path class="cls-8" d="M120.89,27.12a4.2,4.2,0,0,0-.51-1.12.27.27,0,0,0-.11-.1.17.17,0,0,0-.15,0c-.37.2-.42.87-.84.89-.08,0-.17,0-.23,0s0,.24,0,.33a1.12,1.12,0,0,0,1.71-.21l0,.19Z"/><path class="cls-8" d="M115.6,31.61a1,1,0,0,0-.25-.83.86.86,0,0,0-.28.29.35.35,0,0,0,0,.38c.12.14.34.11.52.06l-.08.13Z"/><path class="cls-8" d="M113.62,30.75a.37.37,0,0,0-.12-.22.49.49,0,0,0-.24,0,3.7,3.7,0,0,1-.66-.07l.7.86,0,.07c0,.1-.08.18-.11.28s.09.28.22.35C114.39,32.49,113.75,31.19,113.62,30.75Z"/><path class="cls-8" d="M103.09,26.81a.43.43,0,0,0-.12-.22.49.49,0,0,0-.24,0,4.93,4.93,0,0,1-.66-.07l.7.86,0,.07c0,.1-.09.18-.12.28s.1.28.23.35C103.86,28.55,103.22,27.24,103.09,26.81Z"/><path class="cls-8" d="M116.66,24.27l-.19-.26a.53.53,0,0,0-.19.58c.09.19.42.25.52.07s.13-.33.24-.26Z"/><path class="cls-8" d="M100.46,24a.46.46,0,0,1-.67.36.46.46,0,0,1,0-.75.46.46,0,0,1,.67.35Z"/><path class="cls-8" d="M104.32,27.23c.19.15.4.39.28.6s-.41.15-.64.08-.2-.08-.22-.17.44-.28.44-.53c.06,0,.14.07.08.12Z"/><path class="cls-8" d="M119.72,44.26a1.13,1.13,0,0,0-.56-.86.57.57,0,0,0-.81.4.42.42,0,0,0,.09.29.86.86,0,0,0,.14.13,1,1,0,0,0,.66.23.46.46,0,0,0,.42-.49Z"/><path class="cls-8" d="M127.16,48.27a.49.49,0,0,0-.28.13.93.93,0,0,0-.12.29c-.11.22-.38.31-.53.5s-.15.82,0,1.23c0,.09.08.2.18.22a.39.39,0,0,0,.21,0c.48-.19.79.27,1.23.21a1.31,1.31,0,1,0-.67-2.54Z"/><path class="cls-8" d="M115.8,35.23a.47.47,0,0,1,.13.24.73.73,0,0,1-.56-.37c-.08-.1-.16-.24-.09-.35s.14-.11.21-.16.21-.36.39-.34a.23.23,0,0,1,.18.22.62.62,0,0,1-.09.29c-.09.2-.19.4-.28.61Z"/><path class="cls-8" d="M113.31,37.74c0-.19-.32-.22-.42-.07a.66.66,0,0,0,0,.55.65.65,0,0,0,.56-.47Z"/><path class="cls-8" d="M112.74,35a.77.77,0,0,0-.1-.25.23.23,0,0,0-.24-.09c-.15,0-.17.24-.27.35s-.31.12-.37.25.06.3.21.33a.68.68,0,0,0,.43-.11.81.81,0,0,0,.29-.26.29.29,0,0,0,0-.37Z"/><path class="cls-8" d="M112.34,33.84a.17.17,0,0,1-.2.13.29.29,0,0,1-.2-.16.35.35,0,0,1-.06-.14.23.23,0,0,1,.24-.22.25.25,0,0,1,.21.25.26.26,0,0,1-.24.22Z"/><path class="cls-8" d="M99.88,36.27a.17.17,0,0,1-.2.13.29.29,0,0,1-.2-.16.35.35,0,0,1-.06-.14.22.22,0,1,1,.21.25Z"/><path class="cls-8" d="M113.44,33.4a.26.26,0,0,0,.13-.43.41.41,0,0,0-.25.13.21.21,0,0,0,0,.27.14.14,0,0,0,.24,0Z"/><path class="cls-8" d="M100.79,19.74a.26.26,0,0,0,.13-.43.41.41,0,0,0-.25.13.21.21,0,0,0,0,.27.15.15,0,0,0,.24,0Z"/><path class="cls-8" d="M96.86,28.51a.74.74,0,0,0,0-.65l-.48.27a.52.52,0,0,0-.19.17.29.29,0,0,0,.18.4.4.4,0,0,0,.44-.18Z"/><path class="cls-8" d="M102,30.4l.57.83c-.09.14-.31,0-.44-.07a.93.93,0,0,1-.3-.41c0-.17.06-.38.23-.38Z"/><path class="cls-8" d="M125.27,38.54a.36.36,0,0,0-.18-.57.53.53,0,0,0-.58.34.42.42,0,0,0,0,.31.36.36,0,0,0,.42.16,1,1,0,0,0,.42-.24Z"/><path class="cls-8" d="M103.31,26.2a.55.55,0,0,0,.13-.63.69.69,0,0,0-.43.2.45.45,0,0,0-.08.59c.13.17.48.09.48-.13Z"/><path class="cls-8" d="M102.68,28.45a.34.34,0,0,1-.28.32l-.28-.42a.39.39,0,0,1,.6,0Z"/><path class="cls-8" d="M121.25,41l-.48.65a.47.47,0,0,0-.1.2.44.44,0,0,0,0,.22c.11.27.29.58.57.56s.43-.39.56-.67c.25-.53,1.58-1.37,1.09-2.05S121.54,40.6,121.25,41Z"/><path class="cls-8" d="M123.88,37.35l.15.14a1,1,0,0,1-.45.13.37.37,0,0,1-.36-.24c0-.15.11-.33.26-.28a.81.81,0,0,1,.39.27Z"/><path class="cls-8" d="M111.45,36.32a.33.33,0,0,1-.25.27.34.34,0,0,1-.34-.12c-.06-.07-.07-.19,0-.23a.2.2,0,0,1,.11,0l.49,0,0,.08Z"/><path class="cls-8" d="M109,37.06c-.15-.06-.31.07-.41.19s-.24.27-.4.25a.16.16,0,0,1-.11-.07c0-.1.08-.19.15-.29a1.45,1.45,0,0,0,.11-.25.52.52,0,0,1,.52-.31.29.29,0,0,1,.14.29.29.29,0,0,1-.22.25Z"/><path class="cls-8" d="M108.55,35.49l-.07-.17a.22.22,0,0,0-.23.16.2.2,0,0,0,.16.23.16.16,0,0,0,.16-.2Z"/><path class="cls-8" d="M104.19,35.13l-.08-.17a.24.24,0,0,0-.23.17.19.19,0,0,0,.16.22.16.16,0,0,0,.16-.2Z"/><path class="cls-8" d="M114.66,32.79c0,.12.15.2.27.16a3.3,3.3,0,0,0,.32-.18.45.45,0,0,1,.36,0,.19.19,0,0,1,.13.17.2.2,0,0,1,0,.13,1.39,1.39,0,0,1-.49.53.62.62,0,0,1-.68,0,.48.48,0,0,1-.15-.45.47.47,0,0,1,.32-.36Z"/><path class="cls-8" d="M98.3,13c0,.12.15.19.27.15s.21-.13.32-.17a.41.41,0,0,1,.36,0,.19.19,0,0,1,.13.16.23.23,0,0,1,0,.14,1.29,1.29,0,0,1-.49.52.62.62,0,0,1-.68,0,.47.47,0,0,1-.15-.46.47.47,0,0,1,.32-.35Z"/><path class="cls-8" d="M115.91,29.78a.3.3,0,0,0-.17-.37.43.43,0,0,0-.43.09.16.16,0,0,0-.06.18.18.18,0,0,0,.12.05l.56.1Z"/><path class="cls-8" d="M98.19,19.18a1.52,1.52,0,0,0,.91-.7.25.25,0,0,0,0-.19c0-.14-.25-.1-.4-.11S98.27,18,98,18a.9.9,0,0,0-.56.25c-.24.19-.5.5-.33.75a.53.53,0,0,0,.41.19,2.93,2.93,0,0,0,1,0Z"/><path class="cls-8" d="M109.25,23.54c.23,0,.34-.28.35-.52a.48.48,0,0,0-.11-.42c-.15-.12-.38,0-.55.1l-.43.29a.25.25,0,0,0-.15.17.25.25,0,0,0,.08.18,2.31,2.31,0,0,0,.82.63Z"/><path class="cls-8" d="M106.66,30.84c2,.54,2.47-1.91.87-2.78S104.87,30.36,106.66,30.84Z"/><path class="cls-8" d="M115.91,38.19a.49.49,0,0,1-.78,0,1.26,1.26,0,0,1,.54-.46c.23-.07.54,0,.56.29l-.23.35Z"/><path class="cls-8" d="M110.21,42.11l-.2-.28a3.1,3.1,0,0,1-1.05.58,2.84,2.84,0,0,0-.58.2.6.6,0,0,0-.33.47c0,.38.47.57.85.55a1.64,1.64,0,0,0,1.24-.63,1.14,1.14,0,0,0,0-1.33l-.4.26Z"/><path class="cls-8" d="M108,39.52c.1-.12,0-.19-.17-.14a1.89,1.89,0,0,0-.48.26l-1,.73c-.19.13-.42.3-.45.45s.11.15.28.11a2.53,2.53,0,0,0,.52-.26c.58-.35,1.25-.83,1.38-1.25l-.33.07Z"/><path class="cls-8" d="M106.86,37.5a.13.13,0,0,1-.15.11.27.27,0,0,1-.18-.1.67.67,0,0,1-.09-.14.26.26,0,0,1,.13-.29.31.31,0,0,1,.32,0,.15.15,0,0,1,.09.13.1.1,0,0,1-.08.12Z"/><path class="cls-8" d="M110.89,27.33a4.43,4.43,0,0,0,.58-.73.26.26,0,0,0-.21-.12.85.85,0,0,0-.9.83.32.32,0,0,0,.07.19.23.23,0,0,0,.25,0,.72.72,0,0,0,.2-.19Z"/><path class="cls-8" d="M112.19,32.22l-.08-.17a.39.39,0,0,0-.25.16c0,.09,0,.23.11.21a.19.19,0,0,0,.1-.05l.27-.25Z"/><path class="cls-8" d="M97.64,24.89a1.27,1.27,0,0,0-.09-.47.4.4,0,0,0-.38-.24.36.36,0,0,0-.21.11.46.46,0,0,0,0,.64.47.47,0,0,0,.64-.05Z"/><path class="cls-8" d="M103.19,18.82a.33.33,0,0,1-.2.52,1,1,0,0,1-.28-.25.58.58,0,0,1,.36-.21Z"/><path class="cls-8" d="M105.13,22.39c.08-.12-.17-.23-.25-.12a.29.29,0,0,0,.1.37.3.3,0,0,0,.15-.33Z"/><path class="cls-8" d="M117,42.5c-.07-.09-.13-.18-.2-.26a.66.66,0,0,0-.2.14.31.31,0,0,0,.38.2Z"/><path class="cls-8" d="M144.64,40.31l-.2-.26a.48.48,0,0,0-.2.14.31.31,0,0,0,.38.21Z"/><path class="cls-8" d="M130.53,38.06a1.14,1.14,0,0,1,.38,1,.17.17,0,0,1-.26.15c-.42-.08-.92-.25-1-.66a.55.55,0,0,1,.71-.57l.1.34Z"/><path class="cls-8" d="M124.16,72.16a1.93,1.93,0,0,0-.59-1.76,2.05,2.05,0,0,0-1.34,1.29,1.21,1.21,0,0,0,.84,1.49c.63.12,1.26-.68.91-1.21Z"/><path class="cls-8" d="M122.25,66.37a2.11,2.11,0,0,0-.27-.59.08.08,0,0,0-.14,0c-.19.11-.22.46-.44.47,0,0-.09,0-.12,0s0,.13,0,.18a.59.59,0,0,0,.91-.11l0,.1Z"/><path class="cls-8" d="M128.78,58.21a3.91,3.91,0,0,0-.51-1.12.19.19,0,0,0-.1-.1.16.16,0,0,0-.15,0c-.38.2-.43.87-.85.89-.08,0-.16,0-.22,0s0,.24,0,.33a1.12,1.12,0,0,0,1.71-.21l0,.18Z"/><path class="cls-8" d="M123.5,62.69a1,1,0,0,0-.26-.82.94.94,0,0,0-.27.29.35.35,0,0,0,0,.38c.12.14.34.11.52.06l-.08.13Z"/><path class="cls-8" d="M121.51,61.84a.37.37,0,0,0-.12-.22.43.43,0,0,0-.23,0,4.76,4.76,0,0,1-.66-.07l.69.86,0,.07c0,.1-.08.18-.11.28s.09.28.22.35C122.29,63.58,121.65,62.27,121.51,61.84Z"/><path class="cls-8" d="M124.55,55.36l-.19-.26a.51.51,0,0,0-.18.58.32.32,0,0,0,.52.07c.06-.12.12-.33.24-.26Z"/><path class="cls-8" d="M127.62,75.34a1.13,1.13,0,0,0-.57-.85.58.58,0,0,0-.81.4.43.43,0,0,0,.1.29.53.53,0,0,0,.13.13,1,1,0,0,0,.67.23.47.47,0,0,0,.42-.49Z"/><path class="cls-8" d="M123.7,66.32a.51.51,0,0,1,.13.24c-.24,0-.42-.19-.57-.37s-.16-.24-.09-.35.14-.11.21-.16.22-.36.4-.35a.23.23,0,0,1,.17.23.79.79,0,0,1-.08.29l-.29.6Z"/><path class="cls-8" d="M121.34,64.49a.26.26,0,0,0,.13-.43.41.41,0,0,0-.26.13.24.24,0,0,0,0,.27.16.16,0,0,0,.25,0Z"/><path class="cls-8" d="M133.16,69.63a.36.36,0,0,0-.18-.57.52.52,0,0,0-.57.34.42.42,0,0,0,0,.31.36.36,0,0,0,.42.16,1,1,0,0,0,.42-.24Z"/><path class="cls-8" d="M129.14,72.08l-.47.64a.47.47,0,0,0-.1.2.46.46,0,0,0,.05.23c.1.27.28.58.56.56s.43-.4.56-.67c.25-.53,1.59-1.37,1.09-2.05S129.43,71.69,129.14,72.08Z"/><path class="cls-8" d="M131.78,68.44l.15.14a1.28,1.28,0,0,1-.45.13.37.37,0,0,1-.37-.24c0-.15.12-.33.26-.28a.81.81,0,0,1,.39.27Z"/><path class="cls-8" d="M122.56,63.88c0,.12.15.2.26.16a3.3,3.3,0,0,0,.32-.18.44.44,0,0,1,.37,0,.23.23,0,0,1,.13.17.35.35,0,0,1,0,.13,1.36,1.36,0,0,1-.48.53.62.62,0,0,1-.68,0,.49.49,0,0,1-.16-.45.47.47,0,0,1,.32-.36Z"/><path class="cls-8" d="M123.8,60.87a.29.29,0,0,0-.17-.37.41.41,0,0,0-.42.09s-.1.12-.06.17a.13.13,0,0,0,.12.06l.55.1Z"/><path class="cls-8" d="M123.81,69.28a.5.5,0,0,1-.79,0,1.29,1.29,0,0,1,.55-.46.43.43,0,0,1,.56.29l-.24.35Z"/><path class="cls-8" d="M124.85,73.59l-.19-.27a.8.8,0,0,0-.21.15.31.31,0,0,0,.38.2Z"/><path class="cls-8" d="M138.42,69.15a1.13,1.13,0,0,1,.38,1,.19.19,0,0,1-.05.13c-.05,0-.14,0-.21,0-.41-.08-.92-.25-1-.66a.54.54,0,0,1,.7-.57l.1.34Z"/><path class="cls-8" d="M116.59,58.25a1.12,1.12,0,0,1,.39,1,.2.2,0,0,1-.06.12.23.23,0,0,1-.2,0c-.42-.08-.92-.25-1-.66a.55.55,0,0,1,.71-.57l.1.34Z"/></g><g class="cls-9"><path class="cls-10" d="M35,12.08c-.87-.39-1.73-.77-2.61-1.14.39-.26.78-.49,1.17-.72l1.89.82,1.37.61A217.9,217.9,0,0,0,98.21,28.36q3.48.42,7,.76c5.62.59,11.44,1.19,17.08,2.33a72.83,72.83,0,0,1,7.24,1.83c.29.48.58,1,.86,1.46A73.89,73.89,0,0,0,122,32.55c-5.6-1.12-11.38-1.73-17-2.3-2.34-.25-4.66-.49-7-.77A218.84,218.84,0,0,1,36.4,12.67Z"/><path class="cls-10" d="M137.49,51.83c-5.54-.37-10.88-2.28-16.06-4.14-1-.37-2.07-.75-3.1-1.1-14-4.87-27.58-7.11-40.4-6.68-2.79.1-5.62.33-8.36.54a116.29,116.29,0,0,1-13,.57A61,61,0,0,1,20.8,28a36.46,36.46,0,0,1-4-3.58c.24-.29.49-.59.75-.87a35,35,0,0,0,3.92,3.58A59.89,59.89,0,0,0,56.64,39.9a121.85,121.85,0,0,0,12.84-.56c2.75-.23,5.61-.45,8.42-.54,12.94-.45,26.67,1.82,40.8,6.72l3.11,1.11c5,1.79,10.12,3.63,15.36,4.07C137.29,51.08,137.39,51.46,137.49,51.83Z"/></g><g class="cls-9"><path class="cls-10" d="M131.63,102.86c-.2.39-.41.79-.64,1.17l-2.24.15c-5.45.23-12.74-.59-16.53-5.86a24.06,24.06,0,0,1-2-3.5c-1-2.13-2-4.13-3.85-5.21a7.67,7.67,0,0,0-4.58-.74c-3,.35-5.74,1.79-8.59,3.3A32.39,32.39,0,0,1,86,95.31c-3.87,1-8,.45-11.62,0L74,95.25c-8.28-1-16.56-2-24.84-3.11a11.2,11.2,0,0,1-4.59-1.28,4.2,4.2,0,0,1-2.1-4.44A5.81,5.81,0,0,1,44,84a8.26,8.26,0,0,0,1.09-1.33c1-1.71.27-4-1-5.26a9.53,9.53,0,0,0-5.45-2.52c-5.17-.87-10.49.31-15.64,1.44-4.51,1-9.17,2-13.85,1.74a24.74,24.74,0,0,1-9-2.35c0-.42-.07-.86-.1-1.29A23.74,23.74,0,0,0,9.29,77c4.52.29,9.11-.73,13.54-1.71,5.25-1.17,10.68-2.37,16.06-1.45A10.64,10.64,0,0,1,45,76.64c1.54,1.61,2.41,4.4,1.1,6.61a8.79,8.79,0,0,1-1.23,1.52,4.87,4.87,0,0,0-1.33,1.93,3.11,3.11,0,0,0,1.61,3.2A10.11,10.11,0,0,0,49.24,91c8.28,1.07,16.57,2.09,24.86,3.11l.4.06c3.71.46,7.55.93,11.22,0a31.74,31.74,0,0,0,7-3c2.82-1.51,5.74-3.06,9-3.43a8.46,8.46,0,0,1,5.26.89c2.17,1.24,3.26,3.49,4.31,5.67a22,22,0,0,0,1.85,3.34c3.5,4.88,10.4,5.62,15.56,5.39C129.67,103,130.66,102.94,131.63,102.86Z"/></g><g class="cls-9"><path class="cls-10" d="M91.45,136.46c-.39.14-.77.26-1.16.37a31.46,31.46,0,0,1-2.82-4.45c-.21-.38-.44-.76-.65-1.14-4.32-7.5-9.83-13-16-15.92-7.07-3.35-15.19-3.56-22.92-3.3-9.12.31-19.47,1.43-27.19,7.26l-.67-.89c8-6,18.53-7.17,27.82-7.49,7.87-.27,16.16-.05,23.44,3.41,6.34,3,12,8.68,16.47,16.36.21.39.44.78.65,1.16A29.12,29.12,0,0,0,91.45,136.46Z"/></g><g class="cls-9"><path class="cls-10" d="M124.28,25.93l-1.86-.37a115,115,0,0,0-24.48-2.34,7.26,7.26,0,0,1-2.89-.35c-2-.79-2.79-2.84-3.51-4.82a16.52,16.52,0,0,0-1.07-2.49c-1.79-3.15-5.65-4.23-8.65-4.18A31.62,31.62,0,0,0,73,13.23l-1.42.44c-7.92,2.41-14.3,3.13-20.09,2.27A24.21,24.21,0,0,1,36.85,8.35c.35-.18.68-.38,1-.54a23,23,0,0,0,13.78,7c5.62.83,11.85.12,19.61-2.23l1.4-.43a32,32,0,0,1,9.14-1.91c3.31,0,7.62,1.18,9.64,4.74a19.06,19.06,0,0,1,1.15,2.66c.66,1.83,1.3,3.55,2.86,4.17a6.48,6.48,0,0,0,2.43.27,115.32,115.32,0,0,1,24.75,2.36l.51.1C123.54,25,123.92,25.47,124.28,25.93Z"/></g></g></g></g></g></svg>