<svg xmlns="http://www.w3.org/2000/svg" xmlns:xlink="http://www.w3.org/1999/xlink" viewBox="0 0 1072.44 400"><defs><style>.cls-1{fill:none;}.cls-2{isolation:isolate;}.cls-3{clip-path:url(#clip-path);}.cls-4{fill:url(#Безымянный_градиент_61);}.cls-5{fill:url(#Безымянный_градиент_160);}.cls-6{opacity:0.81;}.cls-32,.cls-33,.cls-37,.cls-6{mix-blend-mode:screen;}.cls-7{fill:#439fc2;}.cls-8{fill:url(#Безымянный_градиент_176);}.cls-9{fill:#3b40b9;}.cls-20,.cls-22,.cls-9{opacity:0.5;}.cls-22,.cls-42,.cls-9{mix-blend-mode:multiply;}.cls-10{fill:#79a5b9;}.cls-10,.cls-20,.cls-24,.cls-25,.cls-28,.cls-43,.cls-44{mix-blend-mode:soft-light;}.cls-11{fill:#0c1552;}.cls-12{fill:#000940;}.cls-13{fill:url(#Безымянный_градиент_160-2);}.cls-14{fill:url(#Безымянный_градиент_120);}.cls-15{fill:#fff;mix-blend-mode:overlay;}.cls-15,.cls-24,.cls-40{opacity:0.2;}.cls-16{fill:url(#Безымянный_градиент_120-2);}.cls-17{fill:#43b3f7;}.cls-18{fill:#43e0f7;}.cls-19{fill:url(#Безымянный_градиент_133);}.cls-20{fill:#ffb;}.cls-21{fill:url(#Безымянный_градиент_205);}.cls-22,.cls-42{fill:#190024;}.cls-23{fill:url(#Безымянный_градиент_208);}.cls-24,.cls-25,.cls-28{fill:#7ef1f6;}.cls-25,.cls-43{opacity:0.51;}.cls-26{fill:#ff72a7;}.cls-27{fill:#ffdede;}.cls-28{opacity:0.16;}.cls-29{fill:url(#Безымянный_градиент_205-2);}.cls-30{fill:#1d52b1;}.cls-31{fill:#1d3490;}.cls-32{fill:url(#Безымянный_градиент_225);}.cls-33{fill:url(#Безымянный_градиент_225-2);}.cls-34{fill:url(#Безымянный_градиент_112);}.cls-35{fill:url(#Безымянный_градиент_205-3);}.cls-36{fill:url(#Безымянный_градиент_205-4);}.cls-37{fill:url(#Безымянный_градиент_225-3);}.cls-38{fill:#040d4c;}.cls-39{fill:#000931;}.cls-41{fill:url(#Безымянный_градиент_98);}.cls-42{opacity:0.1;}.cls-43{fill:#5fcccc;}.cls-45{fill:#e9e9a8;}</style><clipPath id="clip-path" transform="translate(72.61)"><rect class="cls-1" width="900" height="400"/></clipPath><linearGradient id="Безымянный_градиент_61" x1="522.61" y1="308.67" x2="522.61" gradientUnits="userSpaceOnUse"><stop offset="0" stop-color="#009bbd"/><stop offset="0.53" stop-color="#4c009f"/><stop offset="0.99" stop-color="#19002a"/></linearGradient><linearGradient id="Безымянный_градиент_160" x1="783.24" y1="312.49" x2="783.24" y2="158.42" gradientUnits="userSpaceOnUse"><stop offset="0" stop-color="#1c98d6"/><stop offset="0.51" stop-color="#3744b5"/><stop offset="1" stop-color="#330995"/></linearGradient><linearGradient id="Безымянный_градиент_176" x1="522.61" y1="400" x2="522.61" y2="302.14" gradientUnits="userSpaceOnUse"><stop offset="0" stop-color="#0e002d"/><stop offset="1" stop-color="#142187"/></linearGradient><linearGradient id="Безымянный_градиент_160-2" x1="260.57" y1="302.14" x2="260.57" y2="177.31" xlink:href="#Безымянный_градиент_160"/><linearGradient id="Безымянный_градиент_120" x1="432.28" y1="302.14" x2="432.28" y2="198" gradientUnits="userSpaceOnUse"><stop offset="0" stop-color="#081e77"/><stop offset="1" stop-color="#120751"/></linearGradient><linearGradient id="Безымянный_градиент_120-2" x1="857.73" y1="302.14" x2="857.73" y2="198" xlink:href="#Безымянный_градиент_120"/><linearGradient id="Безымянный_градиент_133" x1="522.61" y1="302.14" x2="522.61" y2="287.33" gradientUnits="userSpaceOnUse"><stop offset="0" stop-color="#000856"/><stop offset="1" stop-color="#022463"/></linearGradient><linearGradient id="Безымянный_градиент_205" x1="253.2" y1="373.03" x2="253.2" y2="356.28" gradientUnits="userSpaceOnUse"><stop offset="0" stop-color="#16003b"/><stop offset="1" stop-color="#22279f"/></linearGradient><linearGradient id="Безымянный_градиент_208" x1="127.86" y1="368.1" x2="127.86" y2="239.97" gradientUnits="userSpaceOnUse"><stop offset="0" stop-color="#16003b"/><stop offset="1" stop-color="#2242b8"/></linearGradient><linearGradient id="Безымянный_градиент_205-2" x1="163.36" y1="369.74" x2="163.36" y2="339.63" xlink:href="#Безымянный_градиент_205"/><radialGradient id="Безымянный_градиент_225" cx="127.83" cy="310.19" r="17.09" gradientTransform="translate(398.29 111.69) rotate(76.12)" gradientUnits="userSpaceOnUse"><stop offset="0" stop-color="#ff006a"/><stop offset="0.12" stop-color="#d10057"/><stop offset="0.3" stop-color="#92003d"/><stop offset="0.48" stop-color="#5e0027"/><stop offset="0.64" stop-color="#350016"/><stop offset="0.78" stop-color="#18000a"/><stop offset="0.91" stop-color="#060003"/><stop offset="1"/></radialGradient><radialGradient id="Безымянный_градиент_225-2" cx="231.98" cy="346.7" r="18.84" gradientTransform="matrix(1, 0, 0, 1, 0, 0)" xlink:href="#Безымянный_градиент_225"/><linearGradient id="Безымянный_градиент_112" x1="660.45" y1="356.32" x2="660.45" y2="236.4" gradientUnits="userSpaceOnUse"><stop offset="0" stop-color="#16003b"/><stop offset="1" stop-color="#1b146d"/></linearGradient><linearGradient id="Безымянный_градиент_205-3" x1="748.47" y1="351.37" x2="748.47" y2="335.17" xlink:href="#Безымянный_градиент_205"/><linearGradient id="Безымянный_градиент_205-4" x1="519.22" y1="356.09" x2="519.22" y2="345.64" xlink:href="#Безымянный_градиент_205"/><radialGradient id="Безымянный_градиент_225-3" cx="700.09" cy="309.56" r="22.66" gradientTransform="matrix(1, 0, 0, 1, 0, 0)" xlink:href="#Безымянный_градиент_225"/><radialGradient id="Безымянный_градиент_98" cx="689.27" cy="212.47" r="73.46" gradientTransform="matrix(0.98, -0.21, 0.21, 0.98, -20.77, 126.52)" gradientUnits="userSpaceOnUse"><stop offset="0.59" stop-color="#5102ae"/><stop offset="1" stop-color="#798df1"/></radialGradient></defs><g class="cls-2"><g id="space"><g class="cls-3"><rect class="cls-4" x="72.61" width="900" height="308.67"/><polygon class="cls-5" points="924.84 158.42 911.32 175.92 908.32 185.92 908.32 189.42 899.81 202.42 899.81 212.42 893.55 216.67 890.8 222.67 885.29 225.49 881.54 237.67 879.53 239.92 871.02 222.67 865.52 227.42 859.26 228.17 852 225.49 840.74 231.42 826.72 228.17 812.46 225.49 808.2 229.17 790.43 212.92 779.92 217.42 779.92 222.17 774.91 235.92 759.89 248.17 745.38 253.17 713.34 269.92 694.06 269.92 678.55 283.25 659.36 286.92 641.64 312.49 924.84 309.51 924.84 158.42"/><g class="cls-6"><circle class="cls-7" cx="580.57" cy="129.1" r="0.46"/><circle class="cls-7" cx="674.3" cy="89.51" r="0.46"/><path class="cls-7" d="M653.61,100a.46.46,0,1,0,.45-.46A.45.45,0,0,0,653.61,100Z" transform="translate(72.61)"/><circle class="cls-7" cx="495.92" cy="209.24" r="0.46"/><path class="cls-7" d="M319.13,235.54a.46.46,0,0,0,.46.46.45.45,0,0,0,.46-.46.46.46,0,0,0-.46-.46A.47.47,0,0,0,319.13,235.54Z" transform="translate(72.61)"/><path class="cls-7" d="M465.27,236a.46.46,0,0,0,.92,0,.46.46,0,0,0-.92,0Z" transform="translate(72.61)"/><path class="cls-7" d="M266.24,192.37a.45.45,0,0,0,.46.46.46.46,0,0,0,.46-.46.47.47,0,0,0-.46-.46A.46.46,0,0,0,266.24,192.37Z" transform="translate(72.61)"/><path class="cls-7" d="M277.63,257.44a.46.46,0,1,0,.46-.46A.47.47,0,0,0,277.63,257.44Z" transform="translate(72.61)"/><path class="cls-7" d="M300,177.46a.46.46,0,1,0,.46-.46A.47.47,0,0,0,300,177.46Z" transform="translate(72.61)"/><path class="cls-7" d="M630.09,309.15a.45.45,0,0,0,.46.46.46.46,0,1,0,0-.91A.45.45,0,0,0,630.09,309.15Z" transform="translate(72.61)"/><path class="cls-7" d="M584.41,267.89a.47.47,0,0,0,.46.46.46.46,0,1,0,0-.92A.47.47,0,0,0,584.41,267.89Z" transform="translate(72.61)"/><path class="cls-7" d="M588.59,331.05a.46.46,0,1,0,.46-.46A.46.46,0,0,0,588.59,331.05Z" transform="translate(72.61)"/><path class="cls-7" d="M611,251.07a.46.46,0,1,0,.91,0,.46.46,0,1,0-.91,0Z" transform="translate(72.61)"/><path class="cls-7" d="M615.13,180.52a.46.46,0,1,0,.45-.46A.45.45,0,0,0,615.13,180.52Z" transform="translate(72.61)"/><path class="cls-7" d="M380.62,210.13a.46.46,0,0,0,.46.46.46.46,0,1,0-.46-.46Z" transform="translate(72.61)"/><path class="cls-7" d="M335.39,234.46a.46.46,0,1,0,.46-.46A.47.47,0,0,0,335.39,234.46Z" transform="translate(72.61)"/><path class="cls-7" d="M209.07,200.19a.46.46,0,1,0,.45-.46A.45.45,0,0,0,209.07,200.19Z" transform="translate(72.61)"/><path class="cls-7" d="M167.56,222.08a.46.46,0,0,0,.46.46.45.45,0,0,0,.46-.46.46.46,0,0,0-.46-.46A.47.47,0,0,0,167.56,222.08Z" transform="translate(72.61)"/><circle class="cls-7" cx="298.39" cy="199.1" r="0.46"/><path class="cls-7" d="M366,93.22a.75.75,0,1,0,1.5,0,.75.75,0,0,0-1.5,0Z" transform="translate(72.61)"/><path class="cls-7" d="M452.87,75a.75.75,0,1,0,1.49,0,.75.75,0,1,0-1.49,0Z" transform="translate(72.61)"/><path class="cls-7" d="M408.42,139.88a.75.75,0,1,0,.74-.75A.74.74,0,0,0,408.42,139.88Z" transform="translate(72.61)"/><circle class="cls-7" cx="297.56" cy="163.6" r="0.75"/><path class="cls-7" d="M516.37,145.23a.75.75,0,1,0,1.5,0,.75.75,0,0,0-1.5,0Z" transform="translate(72.61)"/><circle class="cls-7" cx="269.05" cy="130.6" r="0.46"/><circle class="cls-7" cx="127.88" cy="94.72" r="0.75"/><circle class="cls-7" cx="214.71" cy="76.5" r="0.75"/><circle class="cls-7" cx="170.26" cy="141.37" r="0.75"/><circle class="cls-7" cx="278.22" cy="146.73" r="0.75"/></g><rect class="cls-8" x="72.61" y="302.14" width="900" height="97.86"/><polygon class="cls-9" points="976.02 295.66 584.97 320.99 666.94 325.17 681.98 322.62 771.89 324.1 712.47 328.5 791.7 331.05 973.79 328.98 976.02 295.66"/><polygon class="cls-10" points="414.38 300.51 486.62 308.53 418.63 310.99 488.05 314 522.25 314.17 532.62 312.48 569.63 313.67 511.95 317.65 492.59 318.45 510.23 321.66 525.99 322.98 553.21 322.33 659.09 324.94 612.47 320.7 602.48 319.36 638.62 317.51 666.54 316.4 681.05 315.58 715.97 313.35 721.81 306.74 715.01 301.98 414.38 300.51"/><path class="cls-11" d="M357.88,359h0a1.18,1.18,0,0,1-.33.21c-2.83,1.38-8.62,5.19-24.39,3.89-6-.49-20.63-1.64-24.1-3.48h0c-.63-.33-.89-.66-.66-1,1.54-2,20.33-2.74,23.67-2.56s24.39,1.28,25.86,2.56C358,358.73,358,358.84,357.88,359Z" transform="translate(72.61)"/><path class="cls-12" d="M357.88,359h0l-.33.21s-17.91-3.06-27.91-2.48A150.47,150.47,0,0,0,309,359.58h0c-.63-.33-.89-.66-.66-1,1.54-2,20.33-2.74,23.67-2.56s24.39,1.28,25.86,2.56C358,358.73,358,358.84,357.88,359Z" transform="translate(72.61)"/><polygon class="cls-13" points="503.89 295.42 493.19 289.59 479.17 282.64 479.17 273.17 472.66 276.24 472.66 257.47 467.65 267.45 467.65 289.59 451.78 286.9 442.52 302.01 410.12 301 396.18 262.88 392.45 262.88 385.65 245.33 373.47 237.65 362.96 220.91 339.93 204.11 333.42 190.5 324.91 182.5 324.91 177.31 314.9 182 308.89 231.22 304.89 220.91 298.38 220.67 292.37 206 284.56 201.68 275.45 195.11 275.42 186.01 266.03 200 259.31 200 259.31 203.5 250.8 216.5 250.8 226.5 244.54 230.75 241.79 236.75 236.28 239.57 232.53 251.75 230.52 254 222.01 236.75 216.51 241.5 210.25 242.25 202.99 239.57 191.73 245.5 174.92 231.22 163.92 231.33 159.19 243.25 141.42 227 130.91 231.5 130.91 236.25 125.9 250 110.88 262.25 96.36 267.25 64.33 284 45.05 284 29.54 297.33 10.35 301 0 302.14 273.85 302.14 275.83 302.14 521.15 302.14 503.89 295.42"/><polygon class="cls-14" points="217.57 276.86 221.47 273.94 221.47 276.86 221.47 278.94 225.36 278.94 231.77 282.28 245.69 273.94 250.42 273.94 253.49 278.11 262.12 278.11 269.91 255.58 273.25 255.58 277.15 238.34 282.3 237.99 285.23 199.69 287.31 199.69 289.4 244.74 292.74 245.85 292.74 257.81 300.54 259.48 306.11 272.82 310.84 273.1 310.84 254.75 319.47 236.95 319.47 232.22 327.82 232.57 327.82 234.72 333.12 240.98 338.13 266.15 340.63 267.26 340.63 271.99 343.97 275.61 343.97 279.5 353.16 295.63 356.22 295.63 387.13 300.36 403.27 302.14 346.29 302.14 348.24 292.57 357.42 289.79 360.21 283.11 364.11 281.17 368.56 262.81 371.62 255.03 373.85 250.91 376.36 247.8 381.65 248.07 381.65 240.29 386.1 234.17 386.1 239.73 391.39 239.73 391.39 199.69 395.01 198 395.5 216.44 396.4 216.93 396.4 230.55 399.19 231.39 399.19 260.59 403.36 262.54 403.36 271.71 405.87 272.27 405.87 279.22 409.49 280.33 413.67 289.79 432.88 299.52 437.33 302.14 445.13 299.52 450.98 293.68 452.93 293.13 452.93 287.01 454.88 283.39 454.88 276.44 459.05 268.38 462.67 275.05 465.46 273.1 471.02 271.43 471.02 260.59 484.39 249.94 486.62 255.3 489.68 253.91 493.02 261.98 501.65 263.93 501.65 273.94 504.44 275.05 506.38 280.89 513.07 283.11 521.14 295.91 524.76 297.57 524.76 288.12 529.49 284.5 533.39 270.04 538.4 266.71 540.35 256.69 544.25 246.41 544.25 272.82 548.15 275.61 550.38 287.01 553.72 288.12 553.72 225.55 553.72 222.77 558.17 210.53 562.9 206.64 562.9 216.93 565.69 216.93 569.31 234.17 578.91 249.94 578.91 254.89 578.91 264.9 583.09 269.49 591.03 278.25 591.03 288.68 601.88 288.68 606.48 297.44 612.33 297.44 623.6 291.6 627.36 279.92 627.36 267.4 630.28 263.65 630.28 257.39 633.21 256.56 635.71 249.94 635.71 226.52 643.65 208.17 646.99 302.14 220.91 302.14 217.57 276.86"/><polygon class="cls-15" points="360.21 283.11 364.38 284.5 366.89 283.11 364.11 281.17 360.21 283.11"/><polygon class="cls-15" points="381.65 240.29 381.65 243.07 396.4 240.39 386.1 239.73 386.1 235.14 386.1 234.17 381.65 240.29"/><polygon class="cls-15" points="391.39 220.26 392.92 220.26 392.92 222.63 396.4 216.93 393.34 215.26 391.39 220.26"/><polygon class="cls-15" points="399.19 260.59 393.9 263.09 392.78 265.73 398.21 265.73 403.36 262.54 399.19 260.59"/><polygon class="cls-15" points="403.36 271.71 401.14 271.71 398.91 272.96 405.87 272.27 403.36 271.71"/><polygon class="cls-15" points="405.87 279.22 403.36 280.33 395.01 281.17 404.34 281.17 409.49 280.33 405.87 279.22"/><polygon class="cls-15" points="413.67 289.79 402.25 294.93 381.65 294.93 406.84 297.02 424.38 295.21 413.67 289.79"/><polygon class="cls-15" points="349.17 292.29 354.22 292.29 364.66 292.29 369.67 292.29 357.42 289.79 349.17 292.29"/><polygon class="cls-15" points="376.36 247.8 373.85 250.91 381.65 252.11 392.09 249.95 382.97 249.94 384.81 248.73 381.65 248.07 376.36 247.8"/><polygon class="cls-15" points="253.49 278.11 268.94 282.83 282.3 280.47 262.12 278.11 253.49 278.11"/><polygon class="cls-15" points="269.91 255.58 276.46 259.27 286.69 258.22 278.3 257.43 279.17 256.66 273.25 255.58 269.91 255.58"/><polygon class="cls-15" points="289.4 244.74 286.69 245.4 282.3 246.13 292.74 245.85 289.4 244.74"/><polygon class="cls-15" points="277.15 238.34 280.21 239.35 284.29 238.84 282.3 237.99 277.15 238.34"/><polygon class="cls-15" points="292.74 257.81 288.46 258.38 292.74 259.27 300.54 259.48 292.74 257.81"/><polygon class="cls-15" points="306.11 272.82 303.53 274.35 312.23 274.91 313.49 273.87 310.84 273.1 306.11 272.82"/><polygon class="cls-15" points="285.23 199.69 284.8 205.25 287.31 199.69 285.23 199.69"/><polygon class="cls-15" points="319.47 232.22 323.23 234.97 327.82 234.72 327.82 232.57 319.47 232.22"/><polygon class="cls-15" points="319.47 236.95 320.73 239.35 317.18 249.05 318.95 248.32 313.49 254.78 310.84 254.75 319.47 236.95"/><polygon class="cls-15" points="338.13 266.15 327.82 269.39 338.13 269.39 336.87 268.44 340.63 267.26 338.13 266.15"/><polygon class="cls-15" points="340.63 271.99 336.39 274.28 343.97 275.61 340.63 271.99"/><polygon class="cls-15" points="353.16 295.63 315.78 297.02 345.5 297.02 343.97 298.69 377.58 298.89 356.22 295.63 353.16 295.63"/><polygon class="cls-15" points="291.91 289.79 298.59 289.79 296.92 291.04 308.51 292.29 280.72 292.95 291.91 289.79"/><polygon class="cls-16" points="643.02 276.86 646.92 273.94 646.92 276.86 646.92 278.94 650.82 278.94 657.22 282.28 671.14 273.94 675.88 273.94 678.94 278.11 687.57 278.11 695.37 255.58 698.71 255.58 702.61 238.34 707.76 237.99 710.68 199.69 712.77 199.69 714.86 244.74 718.2 245.85 718.2 257.81 725.99 259.48 731.56 272.82 736.29 273.1 736.29 254.75 744.92 236.95 744.92 232.22 753.28 232.57 753.28 234.72 758.57 240.98 763.58 266.15 766.09 267.26 766.09 271.99 769.43 275.61 769.43 279.5 778.62 295.63 781.68 295.63 812.58 300.36 828.73 302.14 771.74 302.14 773.69 292.57 782.88 289.79 785.66 283.11 789.56 281.17 794.01 262.81 797.08 255.03 799.3 250.91 801.81 247.8 807.1 248.07 807.1 240.29 811.55 234.17 811.55 239.73 816.84 239.73 816.84 199.69 820.46 198 820.95 216.44 821.86 216.93 821.86 230.55 824.64 231.39 824.64 260.59 828.82 262.54 828.82 271.71 831.32 272.27 831.32 279.22 834.94 280.33 839.12 289.79 858.33 299.52 862.79 302.14 870.58 299.52 876.43 293.68 878.38 293.13 878.38 287.01 880.33 283.39 880.33 276.44 884.51 268.38 888.13 275.05 890.91 273.1 896.48 271.43 896.48 260.59 909.84 249.94 912.07 255.3 915.13 253.91 918.47 261.98 927.11 263.93 927.11 273.94 929.89 275.05 931.84 280.89 938.52 283.11 946.59 295.91 950.21 297.57 950.21 288.12 954.95 284.5 958.85 270.04 963.86 266.71 965.81 256.69 969.7 246.41 969.7 272.82 973.6 275.61 975.83 287.01 979.17 288.12 979.17 225.55 979.17 222.77 983.63 210.53 988.36 206.64 988.36 216.93 991.14 216.93 994.76 234.17 1004.37 249.94 1004.37 254.89 1004.37 264.9 1008.54 269.49 1016.48 278.25 1016.48 288.68 1027.34 288.68 1031.93 297.44 1037.78 297.44 1049.06 291.6 1052.81 279.92 1052.81 267.4 1055.74 263.65 1055.74 257.39 1058.66 256.56 1061.17 249.94 1061.17 226.52 1069.1 208.17 1072.44 302.14 646.36 302.14 643.02 276.86"/><polygon class="cls-15" points="678.94 278.11 694.39 282.83 707.76 280.47 687.57 278.11 678.94 278.11"/><polygon class="cls-15" points="695.37 255.58 701.91 259.27 712.14 258.22 703.75 257.43 704.62 256.66 698.71 255.58 695.37 255.58"/><polygon class="cls-15" points="714.86 244.74 712.14 245.4 707.76 246.13 718.2 245.85 714.86 244.74"/><polygon class="cls-15" points="702.61 238.34 705.67 239.35 709.74 238.84 707.76 237.99 702.61 238.34"/><polygon class="cls-15" points="718.2 257.81 713.92 258.38 718.2 259.27 725.99 259.48 718.2 257.81"/><polygon class="cls-15" points="731.56 272.82 728.99 274.35 737.69 274.91 738.94 273.87 736.29 273.1 731.56 272.82"/><polygon class="cls-15" points="744.92 232.22 748.68 234.97 753.28 234.72 753.28 232.57 744.92 232.22"/><polygon class="cls-15" points="744.92 236.95 746.18 239.35 742.63 249.05 744.4 248.32 738.94 254.78 736.29 254.75 744.92 236.95"/><polygon class="cls-15" points="778.62 295.63 741.24 297.02 770.96 297.02 769.43 298.69 803.03 298.89 781.68 295.63 778.62 295.63"/><polygon class="cls-15" points="717.36 289.79 724.04 289.79 722.37 291.04 733.96 292.29 706.17 292.95 717.36 289.79"/><polygon class="cls-15" points="371.62 269.39 378.44 271.71 384.92 270.55 371.62 269.39"/><polygon class="cls-15" points="462.67 275.05 473.53 278.11 487.73 274.42 471.02 271.43 465.46 273.1 462.67 275.05"/><polygon class="cls-15" points="471.02 260.59 484.84 260.59 482.55 258.95 486.62 255.3 484.39 249.94 471.02 260.59"/><polygon class="cls-15" points="493.02 261.98 484.63 263.96 501.65 263.93 493.02 261.98"/><polygon class="cls-15" points="459.05 268.38 454.88 276.44 460.51 273.76 459.05 268.38"/><polygon class="cls-15" points="454.88 283.39 459.47 285.86 465.84 286.9 452.93 287.01 454.88 283.39"/><polygon class="cls-15" points="478.82 297.02 499.56 295.98 493.14 297.96 478.82 297.02"/><polygon class="cls-15" points="506.38 280.89 498.83 282.83 490.17 283.39 507.92 284.5 506.77 283.39 513.07 283.11 506.38 280.89"/><polygon class="cls-15" points="504.44 275.05 496.95 274.77 501.65 273.94 504.44 275.05"/><polygon class="cls-15" points="524.76 288.12 534.23 287.01 531.1 286.1 535.13 285.2 529.49 284.5 524.76 288.12"/><polygon class="cls-15" points="578.91 264.9 584.76 274.77 585.74 275.05 591.03 278.25 578.91 264.9"/><polygon class="cls-15" points="569.31 234.17 560.4 238.62 566.94 238.62 564.85 240.29 573.21 243.07 578.91 249.94 569.31 234.17"/><polygon class="cls-15" points="544.25 272.82 540.49 275.05 548.15 275.61 544.25 272.82"/><polygon class="cls-15" points="533.39 270.04 540.49 268.38 538.4 266.71 533.39 270.04"/><polygon class="cls-15" points="558.17 210.53 553.72 222.77 560.4 216.65 558.45 216.65 558.17 210.53"/><polygon class="cls-15" points="562.9 216.93 561.53 216.93 566.07 218.72 565.69 216.93 562.9 216.93"/><polygon class="cls-15" points="557.06 278.11 577.45 278.25 569.66 281.17 563.8 280.89 557.06 278.11"/><polygon class="cls-15" points="550.38 287.01 553.72 288.12 566.07 291.04 553.72 289.79 550.38 287.01"/><polygon class="cls-15" points="591.03 288.68 580.59 291.04 598.34 292.29 601.88 288.68 591.03 288.68"/><polygon class="cls-15" points="627.36 267.4 636.13 270.04 639.89 267.4 630.28 263.65 627.36 267.4"/><polygon class="cls-15" points="627.36 279.92 633.63 292.29 630.49 291.04 623.6 291.6 627.36 279.92"/><polygon class="cls-15" points="633.21 256.56 630.28 257.39 636.13 258.33 643.02 258.33 633.21 256.56"/><polygon class="cls-15" points="635.71 226.52 643.02 222.04 640.93 222.04 643.65 208.17 635.71 226.52"/><polygon class="cls-15" points="557.06 259.62 566.07 258.33 570.98 259.62 557.06 259.62"/><polygon class="cls-15" points="450.98 293.68 459.38 295.98 462.67 294.83 452.93 293.13 450.98 293.68"/><polygon class="cls-15" points="785.85 283.11 790.03 284.5 792.53 283.11 789.75 281.17 785.85 283.11"/><polygon class="cls-15" points="807.29 240.29 807.29 243.07 822.05 240.39 811.75 239.73 811.75 235.14 811.75 234.17 807.29 240.29"/><polygon class="cls-15" points="817.04 220.26 818.57 220.26 818.57 222.63 822.05 216.93 818.99 215.26 817.04 220.26"/><polygon class="cls-15" points="824.83 260.59 819.54 263.09 818.43 265.73 823.86 265.73 829.01 262.54 824.83 260.59"/><polygon class="cls-15" points="829.01 271.71 826.78 271.71 824.55 272.96 831.51 272.27 829.01 271.71"/><polygon class="cls-15" points="831.51 279.22 829.01 280.33 820.65 281.17 829.98 281.17 835.13 280.33 831.51 279.22"/><polygon class="cls-15" points="839.31 289.79 827.89 294.93 807.29 294.93 832.49 297.02 850.02 295.21 839.31 289.79"/><polygon class="cls-15" points="774.81 292.29 779.87 292.29 790.31 292.29 795.32 292.29 783.07 289.79 774.81 292.29"/><polygon class="cls-15" points="802 247.8 799.5 250.91 807.29 252.11 817.73 249.95 808.61 249.94 810.46 248.73 807.29 248.07 802 247.8"/><polygon class="cls-15" points="778.81 295.63 741.43 297.02 771.15 297.02 769.62 298.69 803.22 298.89 781.87 295.63 778.81 295.63"/><polygon class="cls-15" points="797.27 269.39 804.09 271.71 810.56 270.55 797.27 269.39"/><polygon class="cls-15" points="888.32 275.05 899.17 278.11 913.38 274.42 896.67 271.43 891.1 273.1 888.32 275.05"/><polygon class="cls-15" points="896.67 260.59 910.49 260.59 908.19 258.95 912.26 255.3 910.03 249.94 896.67 260.59"/><polygon class="cls-15" points="918.66 261.98 910.28 263.96 927.3 263.93 918.66 261.98"/><polygon class="cls-15" points="884.7 268.38 880.52 276.44 886.16 273.76 884.7 268.38"/><polygon class="cls-15" points="880.52 283.39 885.12 285.86 891.48 286.9 878.57 287.01 880.52 283.39"/><polygon class="cls-15" points="904.47 297.02 925.21 295.98 918.79 297.96 904.47 297.02"/><polygon class="cls-15" points="932.03 280.89 924.48 282.83 915.81 283.39 933.56 284.5 932.41 283.39 938.71 283.11 932.03 280.89"/><polygon class="cls-15" points="930.08 275.05 922.6 274.77 927.3 273.94 930.08 275.05"/><polygon class="cls-15" points="950.4 288.12 959.87 287.01 956.74 286.1 960.78 285.2 955.14 284.5 950.4 288.12"/><polygon class="cls-15" points="1004.56 264.9 1010.41 274.77 1011.38 275.05 1016.67 278.25 1004.56 264.9"/><polygon class="cls-15" points="994.95 234.17 986.04 238.62 992.59 238.62 990.5 240.29 998.85 243.07 1004.56 249.94 994.95 234.17"/><polygon class="cls-15" points="969.89 272.82 966.14 275.05 973.79 275.61 969.89 272.82"/><polygon class="cls-15" points="959.04 270.04 966.14 268.38 964.05 266.71 959.04 270.04"/><polygon class="cls-15" points="983.82 210.53 979.36 222.77 986.04 216.65 984.1 216.65 983.82 210.53"/><polygon class="cls-15" points="988.55 216.93 987.17 216.93 991.71 218.72 991.33 216.93 988.55 216.93"/><polygon class="cls-15" points="982.7 278.11 1003.1 278.25 995.3 281.17 989.44 280.89 982.7 278.11"/><polygon class="cls-15" points="976.02 287.01 979.36 288.12 991.71 291.04 979.36 289.79 976.02 287.01"/><polygon class="cls-15" points="1016.67 288.68 1006.23 291.04 1023.98 292.29 1027.53 288.68 1016.67 288.68"/><polygon class="cls-15" points="1053.01 267.4 1061.78 270.04 1065.53 267.4 1055.93 263.65 1053.01 267.4"/><polygon class="cls-15" points="1053.01 279.92 1059.27 292.29 1056.14 291.04 1049.25 291.6 1053.01 279.92"/><polygon class="cls-15" points="1058.85 256.56 1055.93 257.39 1061.78 258.33 1068.67 258.33 1058.85 256.56"/><polygon class="cls-15" points="1061.36 226.52 1068.67 222.04 1066.58 222.04 1069.29 208.17 1061.36 226.52"/><polygon class="cls-15" points="982.7 259.62 991.71 258.33 996.62 259.62 982.7 259.62"/><polygon class="cls-15" points="876.62 293.68 885.03 295.98 888.32 294.83 878.57 293.13 876.62 293.68"/><polygon class="cls-17" points="623.6 291.6 627.36 279.92 627.36 267.4 630.28 263.65 630.28 257.39 633.21 256.56 635.71 249.94 635.71 226.52 643.65 208.17 637.7 225.68 637.7 250.29 635.18 256.91 637.7 258.01 635.71 258.97 631.9 257.65 630.38 265.5 631.84 268.75 628.61 268.35 628.3 281.78 623.6 291.6"/><polygon class="cls-17" points="687.57 278.11 695.37 255.58 698.71 255.58 702.61 238.34 707.76 237.99 710.68 199.69 708.52 238.32 709.74 238.84 706.17 239.92 703.75 239.18 699.12 256.21 704.05 256.56 700.91 258.33 698.17 257.16 696.47 256.21 687.57 278.11"/><polygon class="cls-17" points="736.34 271.71 736.29 254.75 744.92 236.95 744.92 232.22 746.18 232.65 746.18 237.83 737.52 254.37 736.34 271.71"/><polygon class="cls-18" points="789.75 281.17 794.01 262.81 797.96 253.1 798.97 251.97 802 247.8 807.29 248.07 801.49 246.13 795.32 255.07 791.99 265.73 789.75 281.17"/><polygon class="cls-17" points="562.9 206.64 561.07 211.97 559.05 211.41 555.32 222.24 553.88 278.5 553.7 221.61 558.17 210.53 562.9 206.64"/><polygon class="cls-17" points="524.76 288.12 529.49 284.5 533.39 270.04 534.23 269.48 538.4 266.71 540.35 256.69 544.25 246.41 541.46 256.74 539.19 267.03 539.96 268.08 533.85 270.82 531.32 281.34 530.39 285.03 524.76 288.12"/><polygon class="cls-17" points="501.65 263.93 493.13 263.1 493.02 261.98 501.65 263.93"/><polygon class="cls-17" points="501.65 273.94 500.55 274.03 504.44 275.05 501.65 273.94"/><polygon class="cls-17" points="489.68 253.91 486.25 254.41 484.39 249.94 471.02 260.59 471.02 271.43 472.05 261.13 483.67 252.33 486.62 255.3 489.68 253.91"/><polygon class="cls-17" points="465.46 273.1 470.89 272.8 471.02 271.43 465.46 273.1"/><polygon class="cls-17" points="459.05 268.38 454.88 276.44 454.88 283.39 452.93 287.01 452.93 293.13 453.69 287 456.82 283.88 455.49 276.15 459.5 274.25 459.05 268.38"/><polygon class="cls-17" points="413.67 289.79 409.49 280.33 405.87 279.22 405.87 272.27 404.02 270.95 403.36 262.54 399.19 260.59 399.19 231.39 398.07 261.69 401.39 263.76 401.14 271.71 398.91 272.96 403.36 272.91 404.32 272.91 404.32 280 403.36 280.33 396.3 280.75 404.34 281.17 407.69 280.63 413.67 289.79"/><polygon class="cls-17" points="395.49 215.92 392.92 220.26 395.17 218.94 395.55 230.68 397.05 232.92 399.06 234.92 399.19 231.98 399.19 231.39 396.4 230.55 396.4 216.93 395.49 215.92"/><polygon class="cls-17" points="393.83 198.36 395.49 215.92 395.01 198 393.83 198.36"/><polygon class="cls-17" points="322.81 232.55 324.99 235.54 333.12 240.98 336.99 266.15 334.23 267.38 327.17 269.39 336.87 268.44 340.63 267.26 338.04 265.73 334.23 240.31 328.42 234.17 327.82 232.57 322.81 232.55"/><polygon class="cls-17" points="340.63 271.99 337.79 273.53 343.97 275.61 340.63 271.99"/><polygon class="cls-17" points="289.4 244.74 286.69 245.4 292.74 245.85 289.4 244.74"/><polygon class="cls-17" points="285.23 199.69 289.21 240.57 287.31 199.69 285.23 199.69"/><polygon class="cls-19" points="72.61 302.14 872.61 302.14 972.61 302.14 928.62 299.79 907.37 297.54 904.53 293.78 872.61 288.83 841.94 297.13 829.94 300 802.28 300 785.51 300 770.21 296 734.7 297.13 726.94 300 709.94 297.13 696.78 293.04 675.04 296 675.04 300 659.48 300 620.28 300 610.11 287.33 599.44 288.83 596.78 291.33 593.11 291.67 591.11 293.67 584.77 296 576.78 300 531.78 300 518.78 300 507.28 300 498.11 298.25 460.11 294.75 446.36 297.13 399.05 300 382.61 298.25 371.35 298.25 351.87 298.25 339.78 300 322.11 300 295.91 294.33 291.29 295.36 263.88 296 200.62 300.33 182.36 291.02 156.28 291.33 152.3 293.65 109.06 296.61 84.28 290.68 72.61 288.62 72.61 302.14"/><polygon class="cls-20" points="678.99 297.7 696.78 299.08 703.24 296 696.78 293.04 675.04 296 678.99 297.7"/><polygon class="cls-20" points="734.7 297.13 751.61 299.08 766.44 297.7 770.21 296 734.7 297.13"/><polygon class="cls-20" points="599.44 288.83 607.11 290.58 611.96 289.64 610.11 287.33 599.44 288.83"/><polygon class="cls-20" points="593.11 291.67 597.28 293.91 600.94 292.79 603.28 292.57 596.78 291.33 593.11 291.67"/><polygon class="cls-20" points="460.11 294.75 461.28 299.68 479.13 300.56 482.44 298.73 498.11 298.25 460.11 294.75"/><polygon class="cls-9" points="435.35 333.22 316.19 345.09 224.16 347.04 767.44 350.41 424.89 361.74 360.23 350.41 341.59 351.07 325.51 351.07 258.62 357.68 235.57 362.13 309.92 365.57 555.93 385 777.16 400 72.61 400 72.61 325.67 435.35 333.22"/><polygon class="cls-21" points="252.42 363.24 256 363.24 263.14 365.86 274.39 367.73 288.06 365.49 355.02 368.11 220.71 373.03 161.89 369.74 163.81 367.73 151.39 365.72 167.69 356.28 175.13 358.78 252.42 363.24"/><polygon class="cls-22" points="226.84 369.74 215.47 370.28 220.71 373.03 161.89 369.74 163.81 367.73 163.81 367.73 151.39 365.72 172.04 362.05 186.46 367.84 218.35 367.08 226.84 369.74"/><path class="cls-23" d="M164.52,366.2s-45.26,2.24-49.38,1.86-15.71-6-15.71-6l-8.23-78.9L95.31,280V253.54l.11-.15c.68-1,4.6-6.42,10.37-13.42l5.61,10.63.88.23a126,126,0,0,1,21.63,7.94l.68.34,6.2,36.8.9,1.12,3,22,2.62.41Z" transform="translate(72.61)"/><polygon class="cls-22" points="167.92 253.54 167.92 279.97 179.54 288.18 181.3 288.42 176.95 264.61 174.61 257.28 167.92 253.54"/><polygon class="cls-22" points="163.81 283.14 167.92 288.71 170.35 289.69 169.37 291.64 173.44 292.91 176.95 343.56 178.07 344.26 178.07 349.21 181.3 351.63 186.46 367.84 172.04 362.05 163.81 283.14"/><polygon class="cls-22" points="195.04 314.08 195.04 318.78 198.13 322.93 202.81 367.73 200.47 365.86 192.52 331.91 190.55 330.51 188.73 299.51 191.4 307.5 195.04 314.08"/><path class="cls-24" d="M133.91,258.77H122.85l-8.72-3.24-3.67,1.75H102l-6.7-3.74.11-.15L105.79,240l5.61,10.63.88.23A126,126,0,0,1,133.91,258.77Z" transform="translate(72.61)"/><polygon class="cls-25" points="167.92 279.97 163.81 283.14 167.92 288.71 170.35 289.69 169.37 291.64 173.44 292.91 192.66 291.64 179.54 288.18 167.92 279.97"/><path class="cls-25" d="M122.43,314.08s3.7,2.82,5.43,2.82,10.29-1.44,11.55-2.82-7.53-7.47-11.55-10-11.74-4.53-11.74-4.53l1.51,4.53,1.16,3.46Z" transform="translate(72.61)"/><polygon class="cls-22" points="186.74 255.53 187.22 268.13 188.03 268.13 190.55 281.88 191.3 262.24 192.66 263.08 195.46 258.77 186.74 255.53"/><polygon class="cls-25" points="217.3 319.02 215.99 322.37 213 326.21 217.21 324.99 219.92 319.43 217.3 319.02"/><path class="cls-26" d="M118.49,302s2.4,6.47,3.66,9.61,4.07,3.93,6.39,4.14,8-.75,8.76-2.43S125.49,301.68,118.49,302Z" transform="translate(72.61)"/><path class="cls-27" d="M120.4,307.11s5,1.33,7.46,3.1a25,25,0,0,1,4.75,5.25s-5.21,1.11-8.14-.94S120.4,307.11,120.4,307.11Z" transform="translate(72.61)"/><path class="cls-28" d="M139.41,314.08l2.28,27.79-1.14,4.77-.16,12.63-10.19,6.45-4.68-42.79-3.09-4.15v-4.7s4.12,2.68,5.43,2.82S136.6,316.44,139.41,314.08Z" transform="translate(72.61)"/><polygon class="cls-28" points="181.3 351.63 195.46 344.47 200.47 365.86 186.46 365.86 181.3 351.63"/><polygon class="cls-28" points="217.21 324.99 226.56 349.21 227.67 347.9 229.83 352.49 233.07 355.17 219.92 319.43 217.21 324.99"/><path class="cls-29" d="M145.74,367.08V339.9s19.06-2.77,28.22,9.31l2.25,7.39,2.06.75L181,367.73s-22.39,2.34-25.92,2S145.74,367.08,145.74,367.08Z" transform="translate(72.61)"/><path class="cls-26" d="M172.29,350.43a3.44,3.44,0,0,1-1.5,1.14,14.83,14.83,0,0,1-10.33.82c-3.13-.84-7.06-3.6-9.88-6.16h0c-2.78-2.51-4.48-4.84-3.27-5C164.9,339.49,172.75,349.4,172.29,350.43Z" transform="translate(72.61)"/><path class="cls-27" d="M170.79,351.57a14.83,14.83,0,0,1-10.33.82c-3.13-.84-7.06-3.6-9.88-6.16h0s8.61-.37,13.94,1.77A25.4,25.4,0,0,1,170.79,351.57Z" transform="translate(72.61)"/><path class="cls-22" d="M145.74,339.9v27.18l8.49,2.66v-5.47l-1.12-.47-.58-9.12-1.1-3.05-2.62-5.43S146.92,345.57,145.74,339.9Z" transform="translate(72.61)"/><polygon class="cls-25" points="250.88 357.35 243.4 360.95 235.2 360.95 242.96 359.15 248.82 356.6 250.88 357.35"/><polygon class="cls-30" points="171.57 292.33 173.6 295.24 174.61 292.83 171.57 292.33"/><polygon class="cls-30" points="194.64 313.35 195.04 315.81 195.46 314.58 194.64 313.35"/><polygon class="cls-30" points="215.47 325.49 217.85 326.65 217.21 324.99 215.47 325.49"/><polygon class="cls-22" points="244.91 362.21 237.78 364.27 243.4 364.27 244.91 362.21"/><polygon class="cls-22" points="203.93 341.92 205.89 345.1 203.93 343.09 203.93 341.92"/><polygon class="cls-22" points="184.52 326.21 182.84 331.49 184.52 328.85 184.52 326.21"/><polygon class="cls-31" points="237.78 364.27 243.04 363.76 244.91 362.21 243.4 364.27 237.78 364.27"/><polygon class="cls-31" points="203.93 341.92 204.47 343.35 205.89 345.1 203.93 343.3 203.93 341.92"/><polygon class="cls-31" points="184.52 326.21 184.52 328.85 182.84 331.49 185.04 329.25 184.52 326.21"/><polygon class="cls-28" points="195.46 258.77 192.66 263.08 190.55 281.88 206.1 292.68 208.08 292.68 213.29 295.24 207.2 259.11 195.46 258.77"/><polygon class="cls-22" points="213 292.91 212.14 294.67 208.08 292.68 205.94 292.33 192.38 283.14 205.94 292.91 208.04 293.33 213.4 295.91 213 292.91"/><polygon class="cls-31" points="205.94 292.91 208.09 293.74 212.14 296.23 214.3 297.03 213.4 295.91 208.04 293.33 205.94 292.91"/><polygon class="cls-22" points="170.35 289.69 182.96 292.28 182.84 298.24 181.3 298.87 177.09 317.74 181.65 299.19 183.5 298.52 183.28 292.91 183.86 292.23 170.35 289.69"/><polygon class="cls-28" points="174.61 292.83 173.6 295.24 175.34 320.32 177.1 318.58 181.3 298.87 182.84 298.24 182.96 292.28 174.61 292.83"/><polygon class="cls-31" points="183.5 298.52 183.07 299.2 182.04 299.51 181.22 300.93 181.65 299.19 183.5 298.52"/><circle class="cls-32" cx="127.83" cy="310.19" r="17.09" transform="translate(-131.36 359.87) rotate(-76.12)"/><circle class="cls-33" cx="231.98" cy="346.7" r="18.84"/><path class="cls-34" d="M575.77,353.36l39.06,3,31.64-1.44-16-2.4,18.4-1.6h96.24l-37-3.1-7.44-8.54-13.19-2.75-6.44-1.43-10.13-2L675.48,287l-1.06-3.28V252l-15.66-15.6-5.13,14.88-10.27,8.37-9.2,40.86S619.44,304.19,611,314v21.17l-4,4.07-2.61,9-5.53,1.3Z" transform="translate(72.61)"/><polygon class="cls-22" points="683.61 314 688.12 320.08 688.12 326.51 693.48 328.74 693.48 349.1 684.86 345.04 683.61 335.17 683.61 314"/><polygon class="cls-22" points="677.01 348.2 683.61 353.81 652.32 353.65 677.01 348.2"/><polygon class="cls-22" points="706.77 300.51 717.45 305.01 720.37 336.93 723.06 288.93 723.06 265.21 715.97 259.65 706.77 300.51"/><polygon class="cls-22" points="726.24 251.28 729.64 252.29 727.94 280.24 733.05 251.23 728.4 245.02 726.24 251.28"/><path class="cls-25" d="M615.51,320.08s4.47.83,13.36-1.61,16-13.46,16-13.46l-10.68-4.5S622.51,302.23,611,314Z" transform="translate(72.61)"/><polygon class="cls-25" points="679.62 339.24 681.98 343.82 684.86 345.04 683.61 335.17 679.62 339.24"/><polygon class="cls-25" points="723.06 265.21 726.24 262.63 726.24 260.94 729.64 252.29 726.24 251.28 715.97 259.65 723.06 265.21"/><polygon class="cls-25" points="728.4 245.02 733.05 251.23 739.53 252.29 740.36 251.28 741.81 251.28 747.03 252 731.37 236.4 728.4 245.02"/><polygon class="cls-25" points="747.17 284.46 743.29 289.06 731.93 290.52 728.4 293.55 733.05 291.98 744.08 291.98 744.08 295.47 748.09 287.01 747.17 284.46"/><polygon class="cls-25" points="743.57 333.1 724.68 340.11 741.81 341.55 741.81 342.85 753.12 342.85 775.06 342.85 773.33 339.24 743.57 333.1"/><polygon class="cls-22" points="724.68 340.11 724.68 346.26 726.24 346.26 725.46 350.88 739.53 351.2 741.81 342.85 741.81 341.55 724.68 340.11"/><path class="cls-26" d="M640.69,305.31s-1.93,6.8-7.88,10.23-16.08,2.93-16.08,2.93-3.11-1.78-3-4.47,15.27-10.4,18.36-10.81S640.69,305.31,640.69,305.31Z" transform="translate(72.61)"/><path class="cls-27" d="M617.7,318.49a28.27,28.27,0,0,1,9.51-7.67,19.94,19.94,0,0,1,12-2.09s-1.14,3.54-6.4,6.81S617.7,318.49,617.7,318.49Z" transform="translate(72.61)"/><polygon class="cls-28" points="693.48 328.74 709.4 325.72 719.06 322.57 720.37 336.93 701.06 345.04 694.62 340.11 693.48 328.74"/><polygon class="cls-28" points="739.53 252.29 738.24 267.61 733.05 274.43 728.4 278.98 733.05 251.23 739.53 252.29"/><polygon class="cls-22" points="747.03 274.67 743.37 276.7 736.19 289.97 733.05 291.98 727.36 305.31 725.74 305.63 721.32 320.07 726.24 306.04 728.73 305.62 733.54 292.22 737.71 289.77 744.08 277.19 747.03 276.06 747.03 274.67"/><polygon class="cls-31" points="733.54 292.22 729.27 306.1 728.4 306.1 726.24 306.04 728.73 305.62 733.54 292.22"/><polygon class="cls-31" points="744.08 277.19 745.1 277.4 747.03 276.7 747.03 276.06 744.08 277.19"/><polygon class="cls-30" points="743.45 291.98 745.56 291.41 744.08 295.47 743.45 291.98"/><polygon class="cls-30" points="721.81 264.24 723.06 266.57 724.26 264.24 721.81 264.24"/><polygon class="cls-30" points="686.95 318.5 688.12 321.64 689.17 320.18 686.95 318.5"/><polygon class="cls-30" points="740.48 341.43 741.41 344.29 743.45 342.86 741.81 341.55 740.48 341.43"/><polygon class="cls-22" points="712.95 322.54 711.3 327.69 712.95 325.11 712.95 322.54"/><polygon class="cls-31" points="712.95 322.54 712.95 325.11 711.3 327.69 713.45 325.5 712.95 322.54"/><polygon class="cls-22" points="725.42 294.12 720.81 291.3 722.92 293.51 725.42 294.12"/><polygon class="cls-31" points="725.42 294.12 722.92 293.51 720.81 291.3 722.42 293.9 725.42 294.12"/><path class="cls-35" d="M767.79,351.37l-9.13-.3-29.32-.93h-.2l.46-.9s0,0,0,0c1.68-3.18,7.28-13.54,9.75-14h.27c2.71.36,20,7,21.23,8.17S767.79,351.37,767.79,351.37Z" transform="translate(72.61)"/><path class="cls-36" d="M541.07,354.3l-14.05.56s-8.82.73-14.29,1.06h0a30.84,30.84,0,0,1-4.21.13c-.66-.29-9.8-1.59-11.15-1.91,0,0,7-5,11-7.31a9.38,9.38,0,0,1,2.43-1.18c1.59-.12,12.19.61,13.59,1.1.56.19,1.1,1.3,1.54,2.56A35.12,35.12,0,0,1,527,353.4Z" transform="translate(72.61)"/><path class="cls-22" d="M512.72,355.92a30.84,30.84,0,0,1-4.21.13c-.66-.29-9.8-1.59-11.15-1.91,0,0,7-5,11-7.31l2.43-1.18-1.14,4.25,1.14.79-.56,2.75Z" transform="translate(72.61)"/><path class="cls-22" d="M758.66,351.07l-29.52-.18.2-.75c.07-.26.16-.56.26-.91,0,0,0,0,0,0,1.68-3.18,7.28-13.54,9.75-14h.27l-3.22,7.67,6.74,2.2.73,2.27Z" transform="translate(72.61)"/><path class="cls-25" d="M760.86,343.34s-1.53,1.29-7.55,1-16.9-1.46-16.9-1.46l3.22-7.67C742.34,335.53,759.64,342.13,760.86,343.34Z" transform="translate(72.61)"/><path class="cls-25" d="M525.9,349.31c-5.38.8-16.27.59-16.27.59l1.14-4.25c1.59-.12,12.19.61,13.59,1.1C524.92,346.94,525.46,348.05,525.9,349.31Z" transform="translate(72.61)"/><circle class="cls-37" cx="700.09" cy="309.56" r="22.66"/><path class="cls-38" d="M603.88,370.77l0,0a1.43,1.43,0,0,1-.33.39c-2.83,2.54-18.2,6.33-24.39,7.2-6,.85-20.63-3-24.1-6.45h0c-.63-.61-.89-1.21-.66-1.76,1.54-3.69,20.33-5.08,23.67-4.75s24.39,2.37,25.86,4.75A.55.55,0,0,1,603.88,370.77Z" transform="translate(72.61)"/><path class="cls-39" d="M603.88,370.77l0,0-.33.39s-17.2-4.41-27.2-3.35a152.7,152.7,0,0,0-21.29,4.1h0c-.63-.61-.89-1.21-.66-1.76,1.54-3.69,20.33-5.08,23.67-4.75s24.39,2.37,25.86,4.75A.55.55,0,0,1,603.88,370.77Z" transform="translate(72.61)"/><path class="cls-38" d="M57.72,375.28l0,0a1.43,1.43,0,0,1-.33.39c-2.83,2.54-18.2,6.33-24.39,7.2-6,.85-20.63-3-24.1-6.45h0c-.63-.61-.89-1.21-.66-1.77,1.54-3.68,20.33-5.08,23.67-4.74s24.39,2.36,25.86,4.74A.56.56,0,0,1,57.72,375.28Z" transform="translate(72.61)"/><path class="cls-39" d="M57.72,375.28l0,0-.33.39s-17.2-4.41-27.2-3.35a152.7,152.7,0,0,0-21.29,4.1h0c-.63-.61-.89-1.21-.66-1.77,1.54-3.68,20.33-5.08,23.67-4.74s24.39,2.36,25.86,4.74A.56.56,0,0,1,57.72,375.28Z" transform="translate(72.61)"/><path class="cls-11" d="M593.43,319.06l-.09.14a3.66,3.66,0,0,1-1.07.85c-3.21,1.84-11.46,3.25-13,3.52-4.72.86-12.95-1.38-15.7-3.1-.9-.57-1.21-1.08-.64-1.41C565.27,317.7,594.77,316.74,593.43,319.06Z" transform="translate(72.61)"/><path class="cls-12" d="M593.43,319.06l-.09.14-1.07.85s-1.92-1.56-2.55-1.56-12.81-.75-17.31,0a89.94,89.94,0,0,0-8.8,2h0c-.9-.57-1.21-1.08-.64-1.41C565.27,317.7,594.77,316.74,593.43,319.06Z" transform="translate(72.61)"/><path class="cls-11" d="M507.52,305l-.09.07a4.09,4.09,0,0,1-1.07.43c-3.21.92-11.46,1.62-13,1.76a56,56,0,0,1-15.7-1.55c-.9-.29-1.21-.54-.64-.71C479.36,304.28,508.86,303.8,507.52,305Z" transform="translate(72.61)"/><path class="cls-12" d="M507.52,305l-.09.07-1.07.43a12.53,12.53,0,0,0-2.55-.78c-.62,0-12.81-.38-17.31,0s-8.8,1-8.8,1h0c-.9-.29-1.21-.54-.64-.71C479.36,304.28,508.86,303.8,507.52,305Z" transform="translate(72.61)"/><path class="cls-11" d="M632.18,366.56a13,13,0,0,1-3.76.65,14.72,14.72,0,0,1-3.74-.72h0c-.67-.27-1-.58-.35-.91,1-.53,7.2-.47,8.21.31C632.82,366.13,632.63,366.36,632.18,366.56Z" transform="translate(72.61)"/><path class="cls-12" d="M632.18,366.56a15.18,15.18,0,0,0-2.2-.34,24.83,24.83,0,0,0-5.3.27h0c-.67-.27-1-.58-.35-.91,1-.53,7.2-.47,8.21.31C632.82,366.13,632.63,366.36,632.18,366.56Z" transform="translate(72.61)"/><path class="cls-11" d="M572.47,306.84a13.39,13.39,0,0,1-3.76.65,14.72,14.72,0,0,1-3.74-.72h0c-.67-.27-1-.58-.35-.91,1-.54,7.2-.47,8.21.31C573.11,306.41,572.92,306.64,572.47,306.84Z" transform="translate(72.61)"/><path class="cls-12" d="M572.47,306.84a15.18,15.18,0,0,0-2.2-.34,24.83,24.83,0,0,0-5.3.27h0c-.67-.27-1-.58-.35-.91,1-.54,7.2-.47,8.21.31C573.11,306.41,572.92,306.64,572.47,306.84Z" transform="translate(72.61)"/><path class="cls-11" d="M395,303.32a13,13,0,0,1-3.76.65,14.72,14.72,0,0,1-3.74-.72h0c-.67-.27-1-.58-.35-.91,1-.53,7.2-.47,8.21.31C395.59,302.89,395.4,303.12,395,303.32Z" transform="translate(72.61)"/><path class="cls-12" d="M395,303.32a15.18,15.18,0,0,0-2.2-.34,24.83,24.83,0,0,0-5.3.27h0c-.67-.27-1-.58-.35-.91,1-.53,7.2-.47,8.21.31C395.59,302.89,395.4,303.12,395,303.32Z" transform="translate(72.61)"/><path class="cls-11" d="M442.54,305.84a13,13,0,0,1-3.76.65,14.65,14.65,0,0,1-3.74-.71l0,0c-.67-.26-1-.58-.35-.9,1-.54,7.2-.48,8.21.3C443.18,305.41,443,305.64,442.54,305.84Z" transform="translate(72.61)"/><path class="cls-12" d="M442.54,305.84a16.69,16.69,0,0,0-2.2-.34,24.5,24.5,0,0,0-5.3.28l0,0c-.67-.26-1-.58-.35-.9,1-.54,7.2-.48,8.21.3C443.18,305.41,443,305.64,442.54,305.84Z" transform="translate(72.61)"/><path class="cls-38" d="M549.15,369.65c-2.76,1.18-8.79,1.93-11,1.91a43.2,43.2,0,0,1-11-2.1l-.11,0c-2-.79-2.85-1.71-1-2.66,3-1.58,21.09-1.39,24.05.9C551,368.4,550.46,369.07,549.15,369.65Z" transform="translate(72.61)"/><path class="cls-39" d="M549.15,369.65a48.12,48.12,0,0,0-6.45-1,72.11,72.11,0,0,0-15.53.8l-.11,0c-2-.79-2.85-1.71-1-2.66,3-1.58,21.09-1.39,24.05.9C551,368.4,550.46,369.07,549.15,369.65Z" transform="translate(72.61)"/><path class="cls-38" d="M148.86,381.52c-2.75,1.18-8.79,1.93-11,1.91a43,43,0,0,1-11-2.1l-.12,0c-2-.79-2.84-1.71-1-2.66,3-1.58,21.09-1.39,24.05.9C150.74,380.27,150.18,380.94,148.86,381.52Z" transform="translate(72.61)"/><path class="cls-39" d="M148.86,381.52a48,48,0,0,0-6.44-1,72.11,72.11,0,0,0-15.53.8l-.12,0c-2-.79-2.84-1.71-1-2.66,3-1.58,21.09-1.39,24.05.9C150.74,380.27,150.18,380.94,148.86,381.52Z" transform="translate(72.61)"/><path class="cls-11" d="M467.12,324.15a8.94,8.94,0,0,1-3.76,1,10.17,10.17,0,0,1-3.74-1.12l0,0c-.67-.42-1-.91-.35-1.42,1-.84,7.2-.74,8.21.48C467.76,323.48,467.57,323.84,467.12,324.15Z" transform="translate(72.61)"/><path class="cls-12" d="M467.12,324.15a10.9,10.9,0,0,0-2.2-.53,15.93,15.93,0,0,0-5.3.43l0,0c-.67-.42-1-.91-.35-1.42,1-.84,7.2-.74,8.21.48C467.76,323.48,467.57,323.84,467.12,324.15Z" transform="translate(72.61)"/><g class="cls-40"><path class="cls-41" d="M733.9,146.28a38,38,0,0,1-.81,17.24c-.06.23-.13.46-.2.69a37.28,37.28,0,0,1-6.76,12.69,34.53,34.53,0,0,1-3,3.22,37.32,37.32,0,0,1-7.39,5.61h0c-.19.12-.38.22-.57.33A37.63,37.63,0,0,1,661,164.17c-.07-.22-.13-.45-.2-.67a37.41,37.41,0,0,1-1-15.86c.08-.5.17-1,.26-1.5a37.58,37.58,0,0,1,2.25-7.47,36.38,36.38,0,0,1,1.6-3.33c.09-.18.18-.36.29-.54a37.32,37.32,0,0,1,6.36-8.32q.27-.27.54-.51c.48-.47,1-.92,1.5-1.36.16-.13.31-.27.48-.4a37.59,37.59,0,0,1,46.7-.87c.26.19.51.39.75.59a37,37,0,0,1,3.57,3.27c.21.22.42.44.62.67a37.47,37.47,0,0,1,5.39,7.61c.11.19.2.38.3.56a37.5,37.5,0,0,1,2.89,7.51Q733.63,144.9,733.9,146.28Z" transform="translate(72.61)"/><path class="cls-42" d="M675.94,138.85c0,1.39,5.89,2.72,6.59,1S675.91,136,675.94,138.85Z" transform="translate(72.61)"/><path class="cls-42" d="M678.71,142.83c.45,1,1.68.76,1.73.26S678.26,141.82,678.71,142.83Z" transform="translate(72.61)"/><path class="cls-42" d="M712.39,149.51c1.16-1.83,2-1.12,2.54-.41S712,150.08,712.39,149.51Z" transform="translate(72.61)"/><path class="cls-42" d="M710.31,137c1.16-1.83,2-1.12,2.54-.41S709.94,137.59,710.31,137Z" transform="translate(72.61)"/><path class="cls-42" d="M698.58,181.15c1.16-1.83,2-1.12,2.54-.41S698.22,181.72,698.58,181.15Z" transform="translate(72.61)"/><path class="cls-42" d="M720.55,153c.34.72,1.7.58,1.43-.28S720,151.71,720.55,153Z" transform="translate(72.61)"/><path class="cls-42" d="M686.13,127.45c.35.73,1.71.58,1.44-.27S685.56,126.22,686.13,127.45Z" transform="translate(72.61)"/><path class="cls-43" d="M722.59,171.8c.62,0,3,1,3.15,2.23s-5.19,1.29-5.24.13A2.52,2.52,0,0,1,722.59,171.8Z" transform="translate(72.61)"/><path class="cls-43" d="M716.15,135.71c.62,0,3,1,3.15,2.23s-5.19,1.29-5.25.13A2.54,2.54,0,0,1,716.15,135.71Z" transform="translate(72.61)"/><path class="cls-43" d="M698.64,124c.27.55.61,3.08-.4,3.83s-3.66-3.9-2.68-4.51A2.51,2.51,0,0,1,698.64,124Z" transform="translate(72.61)"/><g class="cls-44"><path class="cls-45" d="M708.65,131.29a4,4,0,0,0-.32-1.77.67.67,0,0,0-.16-.24.53.53,0,0,0-.53-.08,1.17,1.17,0,0,0-.79,1,1.43,1.43,0,0,0,.57,1.19.93.93,0,0,0,.71.23.55.55,0,0,0,.48-.5.12.12,0,0,0-.19.08Z" transform="translate(72.61)"/><path class="cls-45" d="M718,132.8a1,1,0,0,0-.5-.86,1.08,1.08,0,0,0-.56.83.65.65,0,0,0,.61.69c.34,0,.59-.5.34-.74Z" transform="translate(72.61)"/><path class="cls-45" d="M716.35,130a1.46,1.46,0,0,0-.21-.28.05.05,0,0,0,0,0s0,0,0,0-.06.27-.18.3l-.06,0s0,.07,0,.09a.32.32,0,0,0,.47-.16l0,0Z" transform="translate(72.61)"/><path class="cls-45" d="M713.33,127.62a2,2,0,0,0-.39-.52.18.18,0,0,0-.07,0,.1.1,0,0,0-.07,0c-.18.15-.13.5-.35.56a.21.21,0,0,0-.11,0c-.05,0,0,.13.06.17a.61.61,0,0,0,.88-.3l0,.09Z" transform="translate(72.61)"/><path class="cls-45" d="M718.85,124.94a2.5,2.5,0,0,0-.39-.53.1.1,0,0,0-.07,0,.13.13,0,0,0-.08,0c-.17.15-.12.51-.34.57,0,0-.09,0-.11,0s0,.13.06.17a.6.6,0,0,0,.87-.31l0,.1Z" transform="translate(72.61)"/><path class="cls-45" d="M716.58,127.9a.5.5,0,0,0-.23-.41.72.72,0,0,0-.11.19.17.17,0,0,0,.06.19c.08.06.19,0,.28,0l0,.08Z" transform="translate(72.61)"/><path class="cls-45" d="M715.44,127.67a.2.2,0,0,0-.08-.1.29.29,0,0,0-.13,0l-.36,0,.47.37,0,0s0,.11,0,.16.08.13.16.16C716.05,128.5,715.56,127.89,715.44,127.67Z" transform="translate(72.61)"/><path class="cls-45" d="M709.46,126.8a.2.2,0,0,0-.08-.1.19.19,0,0,0-.13,0,2.2,2.2,0,0,1-.36,0l.47.37,0,0s0,.1,0,.15.08.14.16.16C710.07,127.62,709.58,127,709.46,126.8Z" transform="translate(72.61)"/><path class="cls-45" d="M716.31,123.93l-.13-.12a.27.27,0,0,0,0,.32.16.16,0,0,0,.28,0c0-.07,0-.18.09-.16Z" transform="translate(72.61)"/><path class="cls-45" d="M707.77,125.64a.25.25,0,0,1-.31.26.23.23,0,1,1,.3-.28Z" transform="translate(72.61)"/><path class="cls-45" d="M710.16,126.88c.11.06.25.16.21.28s-.2.13-.32.12-.12,0-.14-.07.2-.2.17-.32.08,0,.06,0Z" transform="translate(72.61)"/><path class="cls-45" d="M720.18,134.08a.59.59,0,0,0-.39-.39.31.31,0,0,0-.38.31.29.29,0,0,0,.08.14l.09.05a.48.48,0,0,0,.37,0,.25.25,0,0,0,.17-.3Z" transform="translate(72.61)"/><path class="cls-45" d="M724.55,135.34s-.11,0-.13.1a.47.47,0,0,0,0,.17c0,.13-.16.21-.22.32a.69.69,0,0,0,.13.65s.07.1.12.1.07,0,.11-.05c.23-.15.44.05.67,0a.73.73,0,0,0,.4-.52A.76.76,0,0,0,724.55,135.34Z" transform="translate(72.61)"/><path class="cls-45" d="M717.1,129.78a.35.35,0,0,1,.1.11.4.4,0,0,1-.34-.13c-.06,0-.11-.11-.09-.17s.06-.07.09-.11.07-.22.17-.23a.15.15,0,0,1,.12.1.43.43,0,0,1,0,.16l-.08.35Z" transform="translate(72.61)"/><path class="cls-45" d="M716.07,131.38c0-.1-.19-.08-.23,0a.37.37,0,0,0,0,.29.34.34,0,0,0,.24-.31Z" transform="translate(72.61)"/><path class="cls-45" d="M715.46,130a.32.32,0,0,0-.08-.12.14.14,0,0,0-.14,0c-.07,0,0,.15-.1.22s-.14.09-.16.17.06.15.15.15a.36.36,0,0,0,.21-.11.41.41,0,0,0,.12-.17.17.17,0,0,0-.06-.19Z" transform="translate(72.61)"/><path class="cls-45" d="M715.12,129.44c0,.05,0,.09-.09.09a.14.14,0,0,1-.12-.06.18.18,0,0,1,0-.07.12.12,0,1,1,.14.11Z" transform="translate(72.61)"/><path class="cls-45" d="M708.85,132.13c0,.05,0,.09-.09.09a.12.12,0,0,1-.12-.06.18.18,0,0,1,0-.07.12.12,0,1,1,.14.11Z" transform="translate(72.61)"/><path class="cls-45" d="M715.65,129.09a.15.15,0,0,0,0-.25.4.4,0,0,0-.12.1.14.14,0,0,0,0,.15.08.08,0,0,0,.12,0Z" transform="translate(72.61)"/><path class="cls-45" d="M707.46,123.34a.15.15,0,0,0,0-.24.2.2,0,0,0-.12.1.11.11,0,0,0,0,.14.08.08,0,0,0,.13,0Z" transform="translate(72.61)"/><path class="cls-45" d="M706.38,128.4a.4.4,0,0,0-.06-.35l-.22.2a.31.31,0,0,0-.09.11.15.15,0,0,0,.14.19.23.23,0,0,0,.22-.14Z" transform="translate(72.61)"/><path class="cls-45" d="M709.29,128.81l.39.37c0,.09-.16.06-.24,0a.45.45,0,0,1-.21-.18.15.15,0,0,1,.08-.22Z" transform="translate(72.61)"/><path class="cls-45" d="M722.45,130.45a.19.19,0,0,0-.16-.28.27.27,0,0,0-.26.24.2.2,0,0,0,0,.17.21.21,0,0,0,.24,0,.77.77,0,0,0,.19-.17Z" transform="translate(72.61)"/><path class="cls-45" d="M709.51,126.45a.3.3,0,0,0,0-.34.39.39,0,0,0-.21.15.25.25,0,0,0,0,.32c.09.07.26,0,.24-.12Z" transform="translate(72.61)"/><path class="cls-45" d="M709.43,127.71a.18.18,0,0,1-.1.2l-.2-.19a.21.21,0,0,1,.31-.09Z" transform="translate(72.61)"/><path class="cls-45" d="M720.61,132.19c-.05.13-.11.26-.17.39a.18.18,0,0,0,0,.12.22.22,0,0,0,.05.11c.09.13.21.27.36.23s.18-.26.22-.42.68-.9.34-1.19S720.72,132,720.61,132.19Z" transform="translate(72.61)"/><path class="cls-45" d="M721.59,130l.09.05a.53.53,0,0,1-.22.12.2.2,0,0,1-.22-.08.12.12,0,0,1,.11-.18.43.43,0,0,1,.23.1Z" transform="translate(72.61)"/><path class="cls-45" d="M714.94,130.85a.19.19,0,0,1-.1.17.18.18,0,0,1-.2,0s-.06-.09,0-.12l.06,0,.26,0v.05Z" transform="translate(72.61)"/><path class="cls-45" d="M713.73,131.51c-.09,0-.16.07-.2.15s-.09.17-.18.18a.07.07,0,0,1-.06,0c0-.05,0-.11,0-.16a.8.8,0,0,0,0-.15.28.28,0,0,1,.24-.22.16.16,0,0,1,0,.29Z" transform="translate(72.61)"/><path class="cls-45" d="M713.32,130.74l-.06-.08a.12.12,0,0,0-.1.11.1.1,0,0,0,.11.1c.05,0,.09-.08.06-.12Z" transform="translate(72.61)"/><path class="cls-45" d="M711,131.05l-.05-.08a.11.11,0,0,0-.11.11.11.11,0,0,0,.11.1.09.09,0,0,0,.06-.13Z" transform="translate(72.61)"/><path class="cls-45" d="M716.23,128.63c0,.06.1.08.15.05a.93.93,0,0,0,.15-.13.21.21,0,0,1,.19,0,.1.1,0,0,1,.09.07.09.09,0,0,1,0,.07.72.72,0,0,1-.19.33.34.34,0,0,1-.37.06.27.27,0,0,1-.13-.22.25.25,0,0,1,.13-.22Z" transform="translate(72.61)"/><path class="cls-45" d="M705.38,120.07c0,.06.1.08.16.05a1.66,1.66,0,0,0,.14-.13.28.28,0,0,1,.2,0,.12.12,0,0,1,.09.08s0,0,0,.07a.66.66,0,0,1-.2.33.32.32,0,0,1-.36.06.25.25,0,0,1-.13-.22.26.26,0,0,1,.12-.22Z" transform="translate(72.61)"/><path class="cls-45" d="M716.54,126.9a.16.16,0,0,0-.13-.17.25.25,0,0,0-.22.09s0,.08,0,.1a.1.1,0,0,0,.07,0h.3Z" transform="translate(72.61)"/><path class="cls-45" d="M706,123.34a.76.76,0,0,0,.4-.46.14.14,0,0,0,0-.11c0-.07-.15,0-.23,0s-.27-.07-.41,0a.49.49,0,0,0-.26.19c-.11.13-.21.32-.09.44a.31.31,0,0,0,.23.05,1.61,1.61,0,0,0,.52-.14Z" transform="translate(72.61)"/><path class="cls-45" d="M712.33,124.38c.13,0,.15-.19.13-.31a.31.31,0,0,0-.11-.21c-.09,0-.2,0-.28.11l-.19.2a.17.17,0,0,0-.06.11.11.11,0,0,0,.06.09,1.54,1.54,0,0,0,.5.24Z" transform="translate(72.61)"/><path class="cls-45" d="M711.8,128.51c1.14.05,1.08-1.28.14-1.56S710.8,128.46,711.8,128.51Z" transform="translate(72.61)"/><path class="cls-45" d="M717.49,131.32a.27.27,0,0,1-.41.11.78.78,0,0,1,.24-.3.24.24,0,0,1,.33.09l-.09.21Z" transform="translate(72.61)"/><path class="cls-45" d="M714.94,134l-.13-.13a1.67,1.67,0,0,1-.49.43,1.31,1.31,0,0,0-.28.17.33.33,0,0,0-.12.29c0,.2.31.24.51.19a.94.94,0,0,0,.58-.47.63.63,0,0,0-.15-.71l-.17.18Z" transform="translate(72.61)"/><path class="cls-45" d="M713.47,132.93c0-.08,0-.1-.11-.06a1,1,0,0,0-.22.19l-.46.5c-.08.09-.18.21-.18.29s.08.06.16,0a1.33,1.33,0,0,0,.24-.19,1.74,1.74,0,0,0,.59-.82l-.17.08Z" transform="translate(72.61)"/><path class="cls-45" d="M712.66,132s0,.07-.07.07a.13.13,0,0,1-.1,0l-.07-.07a.13.13,0,0,1,0-.16.17.17,0,0,1,.17,0,.09.09,0,0,1,.06.06.08.08,0,0,1,0,.08Z" transform="translate(72.61)"/><path class="cls-45" d="M713.62,126.18a2.38,2.38,0,0,0,.23-.45.21.21,0,0,0-.13,0,.45.45,0,0,0-.38.54.18.18,0,0,0,.06.09.12.12,0,0,0,.13,0,.34.34,0,0,0,.09-.12Z" transform="translate(72.61)"/><path class="cls-45" d="M714.86,128.61l-.06-.08a.17.17,0,0,0-.11.11c0,.05,0,.12.08.1l0,0,.12-.16Z" transform="translate(72.61)"/><path class="cls-45" d="M706.39,126.41a.66.66,0,0,0-.11-.24.19.19,0,0,0-.22-.08.16.16,0,0,0-.1.08.24.24,0,0,0,.08.33.23.23,0,0,0,.33-.1Z" transform="translate(72.61)"/><path class="cls-45" d="M708.61,122.59a.17.17,0,0,1,0,.29.4.4,0,0,1-.18-.1.39.39,0,0,1,.16-.15Z" transform="translate(72.61)"/><path class="cls-45" d="M710,124.24c0-.07-.12-.1-.15,0s0,.15.1.18a.16.16,0,0,0,0-.19Z" transform="translate(72.61)"/><path class="cls-45" d="M718.53,133.47l-.13-.12a.28.28,0,0,0-.09.1.15.15,0,0,0,.22.06Z" transform="translate(72.61)"/><path class="cls-45" d="M732.83,129.18l-.14-.12-.09.1a.17.17,0,0,0,.22.07Z" transform="translate(72.61)"/><path class="cls-45" d="M725.16,129.6a.62.62,0,0,1,.32.49.12.12,0,0,1,0,.08s-.07,0-.11,0c-.22,0-.51,0-.59-.23a.3.3,0,0,1,.31-.38l.09.17Z" transform="translate(72.61)"/><path class="cls-45" d="M725.68,148.23a1,1,0,0,0-.51-.85,1.11,1.11,0,0,0-.56.83.66.66,0,0,0,.61.69c.35,0,.59-.5.34-.74Z" transform="translate(72.61)"/><path class="cls-45" d="M724,145.41a1.14,1.14,0,0,0-.21-.28l0,0s0,0,0,0-.06.27-.18.3l-.06,0s0,.07,0,.09a.32.32,0,0,0,.46-.16l0,0Z" transform="translate(72.61)"/><path class="cls-45" d="M726.53,140.38a2.55,2.55,0,0,0-.4-.53s0,0-.06,0a.11.11,0,0,0-.08,0c-.17.15-.12.51-.35.57,0,0-.08,0-.11,0s0,.13.06.17a.61.61,0,0,0,.88-.31l0,.09Z" transform="translate(72.61)"/><path class="cls-45" d="M724.26,143.34a.56.56,0,0,0-.23-.41.52.52,0,0,0-.11.19.17.17,0,0,0,.05.19c.08.06.19,0,.28,0l0,.08Z" transform="translate(72.61)"/><path class="cls-45" d="M723.12,143.11a.22.22,0,0,0-.09-.1.29.29,0,0,0-.13,0l-.35,0,.46.37s0,0,0,0,0,.1,0,.16.08.13.15.16C723.72,143.94,723.24,143.33,723.12,143.11Z" transform="translate(72.61)"/><path class="cls-45" d="M724,139.36l-.13-.11a.27.27,0,0,0,0,.32c.07.1.25.09.28,0s0-.18.1-.16Z" transform="translate(72.61)"/><path class="cls-45" d="M727.86,149.52a.62.62,0,0,0-.4-.39c-.18,0-.41.12-.38.31a.24.24,0,0,0,.09.14l.08,0a.5.5,0,0,0,.38,0,.24.24,0,0,0,.16-.3Z" transform="translate(72.61)"/><path class="cls-45" d="M724.77,145.22a.21.21,0,0,1,.1.11.42.42,0,0,1-.34-.13s-.11-.11-.09-.17.07-.07.1-.11.07-.22.16-.23a.13.13,0,0,1,.12.1.43.43,0,0,1,0,.16l-.08.35Z" transform="translate(72.61)"/><path class="cls-45" d="M723.33,144.53a.16.16,0,0,0,0-.25.24.24,0,0,0-.12.1.12.12,0,0,0,0,.15.09.09,0,0,0,.13,0Z" transform="translate(72.61)"/><path class="cls-45" d="M730.12,145.89a.19.19,0,0,0-.16-.28.27.27,0,0,0-.26.24.21.21,0,0,0,0,.16.2.2,0,0,0,.24,0,.63.63,0,0,0,.19-.17Z" transform="translate(72.61)"/><path class="cls-45" d="M728.29,147.63l-.18.39a.53.53,0,0,0,0,.12.37.37,0,0,0,0,.11c.09.13.22.27.36.23s.18-.26.22-.42.68-.9.34-1.19S728.4,147.39,728.29,147.63Z" transform="translate(72.61)"/><path class="cls-45" d="M729.26,145.42l.09.05a.43.43,0,0,1-.22.12.2.2,0,0,1-.22-.08c0-.08,0-.19.11-.18a.4.4,0,0,1,.23.1Z" transform="translate(72.61)"/><path class="cls-45" d="M723.9,144.07c0,.06.1.08.16.05a1.66,1.66,0,0,0,.14-.13.28.28,0,0,1,.2,0,.13.13,0,0,1,.08.08.09.09,0,0,1,0,.07.64.64,0,0,1-.19.33.32.32,0,0,1-.36.06.28.28,0,0,1-.14-.22.25.25,0,0,1,.13-.22Z" transform="translate(72.61)"/><path class="cls-45" d="M724.21,142.34a.15.15,0,0,0-.13-.17.22.22,0,0,0-.21.09s0,.08,0,.1,0,0,.07,0h.3Z" transform="translate(72.61)"/><path class="cls-45" d="M725.17,146.76a.27.27,0,0,1-.41.11.76.76,0,0,1,.23-.3.24.24,0,0,1,.33.09l-.08.21Z" transform="translate(72.61)"/><path class="cls-45" d="M726.2,148.91l-.13-.12a.43.43,0,0,0-.09.1.15.15,0,0,0,.22.06Z" transform="translate(72.61)"/><path class="cls-45" d="M732.83,145a.6.6,0,0,1,.32.49.15.15,0,0,1,0,.07.12.12,0,0,1-.11,0c-.23,0-.51,0-.59-.23a.29.29,0,0,1,.3-.38l.09.17Z" transform="translate(72.61)"/><path class="cls-45" d="M720.13,141.78a.62.62,0,0,1,.31.5.06.06,0,0,1,0,.07s-.07,0-.11,0c-.22,0-.51,0-.59-.24a.29.29,0,0,1,.31-.37l.09.16Z" transform="translate(72.61)"/></g></g><path class="cls-18" d="M396.42,205.79a7.49,7.49,0,0,0,1.13-3.24,1.32,1.32,0,0,0,0-.56,1.06,1.06,0,0,0-.81-.63,2.21,2.21,0,0,0-2.29,1,2.73,2.73,0,0,0-.17,2.53,1.82,1.82,0,0,0,1,1,1,1,0,0,0,1.27-.38.22.22,0,0,0-.37,0Z" transform="translate(72.61)"/><path class="cls-18" d="M280.24,44.86a7.64,7.64,0,0,0-3.34.8,1.42,1.42,0,0,0-.45.32,1.07,1.07,0,0,0-.09,1,2.21,2.21,0,0,0,2.05,1.4,2.71,2.71,0,0,0,2.22-1.22,1.8,1.8,0,0,0,.36-1.37,1,1,0,0,0-1-.87.22.22,0,0,0,.17.34Z" transform="translate(72.61)"/><path class="cls-18" d="M391.45,207.13a2,2,0,0,0,0-1.91,2.09,2.09,0,0,0-1.7.86,1.24,1.24,0,0,0,.36,1.72c.58.3,1.45-.28,1.27-.91Z" transform="translate(72.61)"/><path class="cls-18" d="M400.64,206.24a2.13,2.13,0,0,0-.08-.66.16.16,0,0,0,0-.07.09.09,0,0,0-.09,0c-.22.05-.36.38-.58.33a.18.18,0,0,0-.12,0c-.07,0-.06.12,0,.19a.6.6,0,0,0,.92.16v.11Z" transform="translate(72.61)"/><path class="cls-18" d="M407.68,204.11a4.38,4.38,0,0,0-.16-1.25.23.23,0,0,0-.07-.14.23.23,0,0,0-.16,0c-.43.09-.68.73-1.1.62-.08,0-.16-.07-.23,0s-.12.22-.06.34a1.16,1.16,0,0,0,1.75.32l0,.19Z" transform="translate(72.61)"/><path class="cls-18" d="M393.7,197.63a1,1,0,0,0,0-.89,1.1,1.1,0,0,0-.35.2.35.35,0,0,0-.1.38c.07.17.3.21.49.22l-.12.11Z" transform="translate(72.61)"/><path class="cls-18" d="M231.24,70.14a.41.41,0,0,0-.24.08.48.48,0,0,0-.1.23,4.88,4.88,0,0,1-.2.65c.33-.18.67-.35,1-.52a.13.13,0,0,1,.08,0c.11,0,.17.12.26.17s.3,0,.4-.15C233.16,69.74,231.71,70.1,231.24,70.14Z" transform="translate(72.61)"/><path class="cls-18" d="M408.89,188.49a.34.34,0,0,0-.06-.24.35.35,0,0,0-.21-.12,3.52,3.52,0,0,1-.63-.27l.42,1.06a.29.29,0,0,1,0,.09c0,.1-.13.15-.19.23s0,.3.11.41C409.11,190.44,408.88,189,408.89,188.49Z" transform="translate(72.61)"/><path class="cls-18" d="M240.39,47.42l-.33,0a.54.54,0,0,0,.44.45c.22,0,.43-.25.31-.44s-.23-.27-.11-.34Z" transform="translate(72.61)"/><path class="cls-18" d="M415.13,194.32a.46.46,0,1,1-.54-.6.49.49,0,0,1,.54.6Z" transform="translate(72.61)"/><path class="cls-18" d="M403.09,199.87c.14.21.28.51.09.68s-.45,0-.64-.12-.18-.13-.17-.24.52-.13.59-.37c.07,0,.11.1.05.13Z" transform="translate(72.61)"/><path class="cls-18" d="M392.79,201.25a.52.52,0,0,1,0,.27c-.23-.06-.35-.3-.44-.53s-.08-.28,0-.37a.73.73,0,0,1,.26-.09c.17-.07.32-.3.49-.22a.22.22,0,0,1,.1.27.62.62,0,0,1-.17.26l-.46.51Z" transform="translate(72.61)"/><path class="cls-18" d="M389.57,203c.06-.19-.24-.31-.39-.19a.64.64,0,0,0-.2.52.69.69,0,0,0,.7-.28Z" transform="translate(72.61)"/><path class="cls-18" d="M388.77,222.9a.65.65,0,0,0,0-.28.26.26,0,0,0-.21-.17c-.16,0-.24.19-.37.27s-.34,0-.44.13a.27.27,0,0,0,.1.39.72.72,0,0,0,.46,0,.74.74,0,0,0,.37-.17.29.29,0,0,0,.06-.37Z" transform="translate(72.61)"/><path class="cls-18" d="M265.65,88.25a.18.18,0,0,1,0,.24.29.29,0,0,1-.24.11.29.29,0,0,1-.16,0,.24.24,0,0,1-.09-.32.26.26,0,0,1,.33-.07.28.28,0,0,1,.09.33Z" transform="translate(72.61)"/><path class="cls-18" d="M376.83,197.39a.19.19,0,0,1-.24.07.35.35,0,0,1-.15-.22.29.29,0,0,1,0-.16.22.22,0,0,1,.29-.14.24.24,0,0,1,.13.31.26.26,0,0,1-.3.15Z" transform="translate(72.61)"/><path class="cls-18" d="M391,198.73a.27.27,0,0,0,.26-.38.42.42,0,0,0-.29.05.23.23,0,0,0-.11.25c0,.1.18.14.24.07Z" transform="translate(72.61)"/><path class="cls-18" d="M401.93,191.43a.26.26,0,0,0,.26-.38.52.52,0,0,0-.3,0,.22.22,0,0,0-.1.26.15.15,0,0,0,.24.06Z" transform="translate(72.61)"/><path class="cls-18" d="M395.37,198.85a.77.77,0,0,0,.22-.64l-.56.12a.47.47,0,0,0-.24.1.31.31,0,0,0,0,.46.42.42,0,0,0,.49,0Z" transform="translate(72.61)"/><path class="cls-18" d="M425,221.23l.3,1c-.13.12-.32-.05-.41-.2a.93.93,0,0,1-.17-.49c0-.18.18-.36.35-.31Z" transform="translate(72.61)"/><path class="cls-18" d="M420.58,216.19a.37.37,0,0,0,0-.62.55.55,0,0,0-.67.16.44.44,0,0,0-.1.3.39.39,0,0,0,.37.29,1.2,1.2,0,0,0,.48-.11Z" transform="translate(72.61)"/><path class="cls-18" d="M402.42,198.56a.59.59,0,0,0,.32-.58.7.7,0,0,0-.49.06.47.47,0,0,0-.26.55c.09.21.45.24.51,0Z" transform="translate(72.61)"/><path class="cls-18" d="M401.11,200.57a.35.35,0,0,1-.37.23c-.05-.16-.1-.33-.16-.5a.42.42,0,0,1,.61.15Z" transform="translate(72.61)"/><path class="cls-18" d="M400.07,205.81l.11.18a1.29,1.29,0,0,1-.48,0,.39.39,0,0,1-.29-.35c0-.17.22-.3.35-.2a.84.84,0,0,1,.29.38Z" transform="translate(72.61)"/><path class="cls-18" d="M388.18,201a.34.34,0,0,1-.63,0c0-.08,0-.21.08-.22a.17.17,0,0,1,.12,0l.47.19-.05.07Z" transform="translate(72.61)"/><path class="cls-18" d="M386.19,198.51c-.16.05-.2.26-.2.42s0,.37-.16.45a.14.14,0,0,1-.14,0c-.1-.05-.06-.21-.06-.32a.84.84,0,0,0-.08-.27.56.56,0,0,1,.22-.59.3.3,0,0,1,.3.14.3.3,0,0,1,0,.34Z" transform="translate(72.61)"/><path class="cls-18" d="M384.83,197.54l-.17-.1a.27.27,0,0,0-.08.29.21.21,0,0,0,.27.08.17.17,0,0,0,0-.27Z" transform="translate(72.61)"/><path class="cls-18" d="M381.1,200.07l-.17-.09a.22.22,0,0,0-.08.28.2.2,0,0,0,.27.08.17.17,0,0,0,0-.27Z" transform="translate(72.61)"/><path class="cls-18" d="M392.42,198.51c-.06.11.08.23.21.23s.24-.06.37-.07a.41.41,0,0,1,.35.12.2.2,0,0,1,.08.2.22.22,0,0,1-.09.12,1.35,1.35,0,0,1-.63.37.65.65,0,0,1-.66-.25.48.48,0,0,1,0-.49.49.49,0,0,1,.42-.25Z" transform="translate(72.61)"/><path class="cls-18" d="M219.84,28.94c.1.07.25-.05.27-.17s0-.25,0-.37a.44.44,0,0,1,.19-.33.23.23,0,0,1,.21,0,.21.21,0,0,1,.1.11,1.37,1.37,0,0,1,.24.69.64.64,0,0,1-.36.6.49.49,0,0,1-.49-.08.47.47,0,0,1-.16-.46Z" transform="translate(72.61)"/><path class="cls-18" d="M215.45,81.2c.11.08.25,0,.28-.16s0-.25,0-.38a.42.42,0,0,1,.19-.32.2.2,0,0,1,.21,0,.36.36,0,0,1,.1.11,1.37,1.37,0,0,1,.24.69.64.64,0,0,1-.36.6.51.51,0,0,1-.49-.08.5.5,0,0,1-.17-.46Z" transform="translate(72.61)"/><path class="cls-18" d="M401.56,184c-.06.12.08.24.21.24s.24-.07.37-.08a.44.44,0,0,1,.35.12.21.21,0,0,1,.08.2.22.22,0,0,1-.09.12,1.34,1.34,0,0,1-.64.37.62.62,0,0,1-.65-.24.52.52,0,0,1,0-.5.52.52,0,0,1,.43-.25Z" transform="translate(72.61)"/><path class="cls-18" d="M394.56,195.93a.3.3,0,0,0-.05-.42.48.48,0,0,0-.45,0,.17.17,0,0,0-.11.16.22.22,0,0,0,.1.09l.52.27Z" transform="translate(72.61)"/><path class="cls-18" d="M417.64,252.12a1.52,1.52,0,0,0,1.11-.39.27.27,0,0,0,.1-.18c0-.15-.21-.18-.36-.23s-.39-.37-.64-.46a1,1,0,0,0-.63.08c-.29.11-.65.34-.56.63a.58.58,0,0,0,.35.32,3,3,0,0,0,1,.26Z" transform="translate(72.61)"/><path class="cls-18" d="M409.06,197.76c.22.11.43-.17.51-.4a.46.46,0,0,0,0-.44c-.11-.18-.37-.14-.57-.08l-.51.15c-.08,0-.17,0-.2.13s0,.13,0,.2a2.64,2.64,0,0,0,.61.87Z" transform="translate(72.61)"/><path class="cls-18" d="M404.28,204.13c1.85,1.17,3-1.11,1.71-2.45S402.67,203.12,404.28,204.13Z" transform="translate(72.61)"/><path class="cls-18" d="M392,204.19a.5.5,0,0,1-.78-.2,1.21,1.21,0,0,1,.67-.28c.25,0,.51.21.46.45l-.33.28Z" transform="translate(72.61)"/><path class="cls-18" d="M442.4,189.64c.13-.1,0-.2-.13-.2a2,2,0,0,0-.55.12l-1.23.39a1.26,1.26,0,0,0-.58.31c-.06.11.07.18.24.19a2.18,2.18,0,0,0,.6-.09,3.41,3.41,0,0,0,1.73-.8l-.34,0Z" transform="translate(72.61)"/><path class="cls-18" d="M384.76,200.24a.13.13,0,0,1,0,.19.37.37,0,0,1-.21,0,.44.44,0,0,1-.16-.06.25.25,0,0,1-.08-.31.33.33,0,0,1,.28-.18.21.21,0,0,1,.15.05.1.1,0,0,1,0,.15Z" transform="translate(72.61)"/><path class="cls-18" d="M390.17,197.19l0-.2a.45.45,0,0,0-.3.09c-.07.07,0,.23.05.24a.14.14,0,0,0,.11,0l.34-.15Z" transform="translate(72.61)"/><path class="cls-18" d="M392,185.45a1.38,1.38,0,0,0,.06-.49.45.45,0,0,0-.3-.36.4.4,0,0,0-.24.05.46.46,0,0,0-.18.63.47.47,0,0,0,.65.15Z" transform="translate(72.61)"/><path class="cls-18" d="M404.56,191.27a.34.34,0,0,1-.35.45.94.94,0,0,1-.2-.33.55.55,0,0,1,.41-.1Z" transform="translate(72.61)"/><path class="cls-18" d="M391.7,208.74l-.12-.31a.55.55,0,0,0-.24.07.31.31,0,0,0,.31.32Z" transform="translate(72.61)"/><path class="cls-18" d="M166.29,69a7.5,7.5,0,0,0-3-1.72,1.44,1.44,0,0,0-.55-.08,1.07,1.07,0,0,0-.77.68,2.23,2.23,0,0,0,.52,2.43A2.78,2.78,0,0,0,165,71a1.89,1.89,0,0,0,1.2-.75,1,1,0,0,0-.13-1.32.22.22,0,0,0-.12.36Z" transform="translate(72.61)"/><path class="cls-18" d="M196.26,88.13a1.94,1.94,0,0,0-1.87-.32,2.05,2.05,0,0,0,.51,1.83,1.24,1.24,0,0,0,1.76,0c.41-.52,0-1.48-.66-1.42Z" transform="translate(72.61)"/><path class="cls-18" d="M187.36,84.13a1,1,0,0,0-.88-.16,1.38,1.38,0,0,0,.13.39.36.36,0,0,0,.35.16c.19,0,.27-.25.31-.43l.08.13Z" transform="translate(72.61)"/><path class="cls-18" d="M185.62,85.52a.39.39,0,0,0-.26,0,.47.47,0,0,0-.15.19,4.35,4.35,0,0,1-.38.57l1.11-.22a.27.27,0,0,1,.09,0c.11,0,.13.16.2.23s.3,0,.42,0C187.57,85.66,186.08,85.61,185.62,85.52Z" transform="translate(72.61)"/><path class="cls-18" d="M190.74,85.71a.45.45,0,0,1,.28,0,.78.78,0,0,1-.61.33c-.13,0-.29,0-.36-.09s0-.18,0-.27-.23-.37-.12-.52a.22.22,0,0,1,.28,0,.6.6,0,0,1,.23.22l.41.55Z" transform="translate(72.61)"/><path class="cls-18" d="M191.8,89.19c-.17-.09-.35.18-.26.35a.69.69,0,0,0,.48.29.66.66,0,0,0-.15-.73Z" transform="translate(72.61)"/><path class="cls-18" d="M211.25,93.72a.54.54,0,0,0-.28,0,.24.24,0,0,0-.2.17c0,.15.14.27.19.41s0,.34,0,.46a.26.26,0,0,0,.4,0,.74.74,0,0,0,.1-.44.7.7,0,0,0-.09-.4.28.28,0,0,0-.35-.13Z" transform="translate(72.61)"/><path class="cls-18" d="M187.8,88.18a.18.18,0,0,1,0,.24.36.36,0,0,1-.24.11.41.41,0,0,1-.16,0,.24.24,0,0,1-.09-.32.25.25,0,0,1,.33-.07.27.27,0,0,1,.09.33Z" transform="translate(72.61)"/><path class="cls-18" d="M184,100.66a.2.2,0,0,1,0,.25.31.31,0,0,1-.24.1.29.29,0,0,1-.16,0,.24.24,0,0,1-.09-.32.26.26,0,0,1,.33-.07.28.28,0,0,1,.09.33Z" transform="translate(72.61)"/><path class="cls-18" d="M187.94,87a.28.28,0,0,0-.33-.33.51.51,0,0,0,0,.3.23.23,0,0,0,.23.16.16.16,0,0,0,.11-.23Z" transform="translate(72.61)"/><path class="cls-18" d="M188.86,82.72a.76.76,0,0,0-.58-.33c0,.19,0,.38,0,.57a.58.58,0,0,0,.06.26.3.3,0,0,0,.45,0,.42.42,0,0,0,.06-.49Z" transform="translate(72.61)"/><path class="cls-18" d="M189.62,90.19a.34.34,0,0,1,.13.35.37.37,0,0,1-.28.26c-.1,0-.21,0-.21-.13a.21.21,0,0,1,0-.1l.27-.43.07.06Z" transform="translate(72.61)"/><path class="cls-18" d="M186.81,91.68c0,.16.21.24.38.28s.35.08.41.24a.12.12,0,0,1,0,.13c-.06.1-.21,0-.33,0a1.41,1.41,0,0,0-.28,0,.56.56,0,0,1-.54-.32.35.35,0,0,1,.2-.28.31.31,0,0,1,.33.08Z" transform="translate(72.61)"/><path class="cls-18" d="M185.6,92.83l-.12.15a.22.22,0,0,0,.26.13.2.2,0,0,0,.13-.25.16.16,0,0,0-.26,0Z" transform="translate(72.61)"/><path class="cls-18" d="M187.39,97l-.13.15a.24.24,0,0,0,.27.13.2.2,0,0,0,.13-.25.17.17,0,0,0-.27,0Z" transform="translate(72.61)"/><path class="cls-18" d="M188,85.56c.1.07.24,0,.27-.16s0-.25,0-.38a.45.45,0,0,1,.19-.33.2.2,0,0,1,.21,0,.18.18,0,0,1,.1.11,1.33,1.33,0,0,1,.24.69.64.64,0,0,1-.36.6.51.51,0,0,1-.49-.08.5.5,0,0,1-.17-.46Z" transform="translate(72.61)"/><path class="cls-18" d="M185.85,83a.31.31,0,0,0-.42,0,.43.43,0,0,0-.12.43c0,.07.06.15.13.14s.08,0,.11-.08l.36-.45Z" transform="translate(72.61)"/><path class="cls-18" d="M193.48,87.05a.51.51,0,0,1-.35.73,1.3,1.3,0,0,1-.14-.72c0-.24.3-.46.53-.37l.2.38Z" transform="translate(72.61)"/><path class="cls-18" d="M188.24,93.4a.14.14,0,0,1,.18.08.31.31,0,0,1,0,.21.29.29,0,0,1-.09.15.26.26,0,0,1-.32,0,.32.32,0,0,1-.12-.3.24.24,0,0,1,.07-.15.13.13,0,0,1,.16,0Z" transform="translate(72.61)"/><path class="cls-18" d="M186.26,87.52h-.2a.39.39,0,0,0,0,.3.15.15,0,0,0,.25,0,.2.2,0,0,0,0-.11l-.08-.37Z" transform="translate(72.61)"/><path class="cls-18" d="M213.9,52.7a2,2,0,0,0-1.88-.32,2.08,2.08,0,0,0,.52,1.83,1.25,1.25,0,0,0,1.76,0c.41-.52,0-1.48-.66-1.42Z" transform="translate(72.61)"/><path class="cls-18" d="M201.75,72.23a.31.31,0,0,0-.41.2A4.35,4.35,0,0,1,201,73l1.12-.22a.14.14,0,0,1,.09,0c.1,0,.12.16.19.23s.3,0,.43,0C203.7,72.38,202.21,72.32,201.75,72.23Z" transform="translate(72.61)"/><path class="cls-18" d="M207.94,75.91c-.17-.09-.35.18-.26.35a.69.69,0,0,0,.48.29.7.7,0,0,0-.15-.74Z" transform="translate(72.61)"/><path class="cls-18" d="M203.93,74.9a.16.16,0,0,1,0,.24.34.34,0,0,1-.24.11.3.3,0,0,1-.16,0,.22.22,0,0,1-.08-.31.23.23,0,0,1,.32-.07.25.25,0,0,1,.1.32Z" transform="translate(72.61)"/><path class="cls-18" d="M200.09,87.38a.16.16,0,0,1,0,.24.28.28,0,0,1-.24.11.3.3,0,0,1-.16,0,.23.23,0,0,1-.08-.32.25.25,0,0,1,.32-.07.26.26,0,0,1,.09.33Z" transform="translate(72.61)"/><path class="cls-18" d="M204.07,73.68a.27.27,0,0,0-.33-.33.51.51,0,0,0,0,.3.24.24,0,0,0,.24.15.14.14,0,0,0,.1-.22Z" transform="translate(72.61)"/><path class="cls-18" d="M205.75,76.9a.35.35,0,0,1-.15.62c-.09,0-.21,0-.21-.13a.18.18,0,0,1,0-.1l.28-.43.06.06Z" transform="translate(72.61)"/><path class="cls-18" d="M203,78.39c0,.17.21.25.37.29s.36.08.41.24a.15.15,0,0,1,0,.13c-.07.1-.22,0-.33,0a1.27,1.27,0,0,0-.28,0,.56.56,0,0,1-.54-.33.3.3,0,0,1,.2-.27.31.31,0,0,1,.33.08Z" transform="translate(72.61)"/><path class="cls-18" d="M201.73,79.55l-.12.15a.26.26,0,0,0,.26.13.19.19,0,0,0,.13-.25.17.17,0,0,0-.26-.06Z" transform="translate(72.61)"/><path class="cls-18" d="M203.52,83.69l-.12.15a.24.24,0,0,0,.26.13.2.2,0,0,0,.13-.25.16.16,0,0,0-.26,0Z" transform="translate(72.61)"/><path class="cls-18" d="M204.11,72.28c.1.07.25,0,.27-.17a2.29,2.29,0,0,0,0-.37.53.53,0,0,1,.19-.33.23.23,0,0,1,.21,0,.38.38,0,0,1,.11.11,1.47,1.47,0,0,1,.24.7.65.65,0,0,1-.37.6.49.49,0,0,1-.48-.08.5.5,0,0,1-.17-.47Z" transform="translate(72.61)"/><path class="cls-18" d="M204.38,80.12c.06,0,.14,0,.17.08a.31.31,0,0,1,0,.21.44.44,0,0,1-.08.15.26.26,0,0,1-.32,0,.33.33,0,0,1-.13-.31.2.2,0,0,1,.08-.14.1.1,0,0,1,.15,0Z" transform="translate(72.61)"/><path class="cls-18" d="M202.39,74.24h-.2a.46.46,0,0,0,0,.31c.06.08.22.1.25,0a.25.25,0,0,0,0-.12l-.08-.36Z" transform="translate(72.61)"/><path class="cls-18" d="M205.08,37.27a1.94,1.94,0,0,0-1.87-.32,2.08,2.08,0,0,0,.51,1.83,1.26,1.26,0,0,0,1.77,0c.41-.52,0-1.48-.66-1.42Z" transform="translate(72.61)"/><path class="cls-18" d="M194.44,34.66a.36.36,0,0,0-.25,0,.42.42,0,0,0-.16.19,4.35,4.35,0,0,1-.38.57l1.12-.22a.27.27,0,0,1,.09,0c.1,0,.12.16.19.23s.3,0,.43,0C196.39,34.8,194.9,34.75,194.44,34.66Z" transform="translate(72.61)"/><path class="cls-18" d="M234.54,31.55c-.17-.09-.35.18-.26.35a.71.71,0,0,0,.48.29.68.68,0,0,0-.15-.74Z" transform="translate(72.61)"/><path class="cls-18" d="M196.62,37.32a.16.16,0,0,1,0,.24.34.34,0,0,1-.24.11.44.44,0,0,1-.16,0,.23.23,0,0,1-.08-.32.24.24,0,0,1,.32-.07.26.26,0,0,1,.09.33Z" transform="translate(72.61)"/><path class="cls-18" d="M192.78,49.8a.17.17,0,0,1,0,.25.41.41,0,0,1-.4.08.23.23,0,0,1-.08-.32.25.25,0,0,1,.32-.07.26.26,0,0,1,.09.33Z" transform="translate(72.61)"/><path class="cls-18" d="M196.76,36.1a.28.28,0,0,0-.33-.33.51.51,0,0,0,0,.3.26.26,0,0,0,.24.16.16.16,0,0,0,.1-.23Z" transform="translate(72.61)"/><path class="cls-18" d="M198.44,39.33a.34.34,0,0,1,.13.35.36.36,0,0,1-.28.26c-.09,0-.21,0-.21-.13a.21.21,0,0,1,0-.1l.28-.43.06.06Z" transform="translate(72.61)"/><path class="cls-18" d="M195.64,40.82c0,.16.21.24.37.28s.36.08.41.24a.15.15,0,0,1,0,.13c-.07.1-.22,0-.33,0a1.27,1.27,0,0,0-.28,0,.55.55,0,0,1-.54-.32.33.33,0,0,1,.2-.28.31.31,0,0,1,.33.08Z" transform="translate(72.61)"/><path class="cls-18" d="M194.42,42l-.12.15a.23.23,0,0,0,.26.13.2.2,0,0,0,.13-.25.16.16,0,0,0-.26,0Z" transform="translate(72.61)"/><path class="cls-18" d="M196.21,46.11l-.12.15a.22.22,0,0,0,.26.13.2.2,0,0,0,.13-.25.16.16,0,0,0-.26,0Z" transform="translate(72.61)"/><path class="cls-18" d="M235.21,37.84c.1.08.25,0,.27-.16a2.44,2.44,0,0,0,0-.38.48.48,0,0,1,.19-.32.21.21,0,0,1,.21,0,.29.29,0,0,1,.11.11,1.33,1.33,0,0,1,.24.69.64.64,0,0,1-.37.6.49.49,0,0,1-.48-.08.48.48,0,0,1-.17-.46Z" transform="translate(72.61)"/><path class="cls-18" d="M197.06,42.54a.14.14,0,0,1,.18.08.31.31,0,0,1,0,.21.36.36,0,0,1-.08.15.26.26,0,0,1-.32,0,.33.33,0,0,1-.13-.31.2.2,0,0,1,.08-.14.12.12,0,0,1,.15,0Z" transform="translate(72.61)"/><path class="cls-18" d="M195.08,36.66h-.2a.44.44,0,0,0,0,.3c.06.09.22.1.25,0a.2.2,0,0,0,0-.11c0-.13-.05-.25-.08-.37Z" transform="translate(72.61)"/><path class="cls-18" d="M186,80.25a1.16,1.16,0,0,0-.47-.14.4.4,0,0,0-.41.23.39.39,0,0,0,0,.24.47.47,0,0,0,.59.29.48.48,0,0,0,.27-.61Z" transform="translate(72.61)"/><path class="cls-18" d="M197.9,88.19l-.34,0a.54.54,0,0,0,0,.25.32.32,0,0,0,.37-.24Z" transform="translate(72.61)"/><path class="cls-18" d="M289.47,105.18a7.5,7.5,0,0,0-3-1.72,1.25,1.25,0,0,0-.54-.08,1.07,1.07,0,0,0-.78.68,2.23,2.23,0,0,0,.52,2.43,2.75,2.75,0,0,0,2.46.64,1.84,1.84,0,0,0,1.2-.74,1,1,0,0,0-.13-1.32.22.22,0,0,0-.12.36Z" transform="translate(72.61)"/><path class="cls-18" d="M232.86,60.33A2,2,0,0,0,231,60a2.08,2.08,0,0,0,.52,1.83,1.25,1.25,0,0,0,1.76,0c.41-.52,0-1.48-.66-1.41Z" transform="translate(72.61)"/><path class="cls-18" d="M224,56.33a1,1,0,0,0-.87-.16,1.12,1.12,0,0,0,.13.39.37.37,0,0,0,.35.17c.19,0,.27-.26.31-.44l.08.13Z" transform="translate(72.61)"/><path class="cls-18" d="M222.21,57.72a.36.36,0,0,0-.25,0,.38.38,0,0,0-.16.19,3,3,0,0,1-.37.56l1.11-.21a.14.14,0,0,1,.09,0c.1,0,.12.16.2.24a.35.35,0,0,0,.42,0C224.17,57.86,222.68,57.81,222.21,57.72Z" transform="translate(72.61)"/><path class="cls-18" d="M217.81,51.82l-.33,0a.55.55,0,0,0,.44.44c.22,0,.43-.25.31-.44s-.23-.27-.11-.34Z" transform="translate(72.61)"/><path class="cls-18" d="M227.34,57.91a.45.45,0,0,1,.28,0,.77.77,0,0,1-.61.33c-.13,0-.29,0-.36-.08a.64.64,0,0,1,0-.28c0-.18-.23-.36-.13-.52a.24.24,0,0,1,.29,0,.66.66,0,0,1,.22.22l.42.55Z" transform="translate(72.61)"/><path class="cls-18" d="M228.4,61.39c-.17-.09-.35.18-.26.35a.72.72,0,0,0,.48.3.67.67,0,0,0-.15-.74Z" transform="translate(72.61)"/><path class="cls-18" d="M224.4,60.38a.18.18,0,0,1,0,.24.29.29,0,0,1-.24.11.29.29,0,0,1-.16,0,.24.24,0,0,1-.09-.32.26.26,0,0,1,.33-.07.28.28,0,0,1,.09.33Z" transform="translate(72.61)"/><path class="cls-18" d="M224.53,59.16a.26.26,0,0,0-.32-.32.41.41,0,0,0,0,.29.23.23,0,0,0,.23.16.16.16,0,0,0,.11-.23Z" transform="translate(72.61)"/><path class="cls-18" d="M219.41,47.1a.27.27,0,0,0-.33-.33.51.51,0,0,0,0,.3.24.24,0,0,0,.24.15.16.16,0,0,0,.1-.23Z" transform="translate(72.61)"/><path class="cls-18" d="M225.46,54.92a.76.76,0,0,0-.58-.33c0,.19,0,.38,0,.57a.55.55,0,0,0,.06.26.29.29,0,0,0,.45,0,.42.42,0,0,0,.06-.49Z" transform="translate(72.61)"/><path class="cls-18" d="M226.22,62.39a.34.34,0,0,1-.16.61c-.09,0-.2,0-.2-.12a.21.21,0,0,1,0-.11l.27-.43.07.06Z" transform="translate(72.61)"/><path class="cls-18" d="M225.69,65c-.12.11-.08.31,0,.47s.13.34,0,.48a.17.17,0,0,1-.12.06c-.11,0-.13-.16-.18-.27a1.74,1.74,0,0,0-.18-.22.56.56,0,0,1,0-.63.32.32,0,0,1,.34,0,.35.35,0,0,1,.12.32Z" transform="translate(72.61)"/><path class="cls-18" d="M224.06,64.61h-.19a.23.23,0,0,0,0,.29.19.19,0,0,0,.27,0,.17.17,0,0,0-.1-.25Z" transform="translate(72.61)"/><path class="cls-18" d="M221.62,68.41l-.2,0a.24.24,0,0,0,0,.29.19.19,0,0,0,.28,0,.17.17,0,0,0-.1-.25Z" transform="translate(72.61)"/><path class="cls-18" d="M224.58,57.76c.1.08.24,0,.27-.16s0-.25,0-.38a.42.42,0,0,1,.19-.32.2.2,0,0,1,.21,0,.27.27,0,0,1,.1.11,1.33,1.33,0,0,1,.24.69.64.64,0,0,1-.36.6.51.51,0,0,1-.49-.08.5.5,0,0,1-.17-.46Z" transform="translate(72.61)"/><path class="cls-18" d="M249,48.16a.31.31,0,0,0-.42,0,.45.45,0,0,0-.13.43c0,.06.07.14.13.13a.16.16,0,0,0,.12-.08l.36-.45Z" transform="translate(72.61)"/><path class="cls-18" d="M230.08,59.25a.51.51,0,0,1-.35.73,1.38,1.38,0,0,1-.15-.71c0-.25.31-.47.54-.38l.2.39Z" transform="translate(72.61)"/><path class="cls-18" d="M225.06,67.13a.14.14,0,0,1,0,.19.31.31,0,0,1-.18.11.5.5,0,0,1-.17,0,.26.26,0,0,1-.2-.25.32.32,0,0,1,.19-.28.23.23,0,0,1,.16,0A.13.13,0,0,1,225,67Z" transform="translate(72.61)"/><path class="cls-18" d="M222.86,59.73h-.2a.39.39,0,0,0,0,.3.15.15,0,0,0,.25,0,.22.22,0,0,0,0-.11l-.09-.37Z" transform="translate(72.61)"/><path class="cls-18" d="M222.56,52.46a1.36,1.36,0,0,0-.47-.15.43.43,0,0,0-.41.23.33.33,0,0,0,0,.24.45.45,0,1,0,.85-.32Z" transform="translate(72.61)"/><path class="cls-18" d="M234.49,60.39l-.33,0a.52.52,0,0,0,0,.25.32.32,0,0,0,.37-.24Z" transform="translate(72.61)"/><path class="cls-18" d="M226.22,70.47a2,2,0,0,0-1.88-.31,2.06,2.06,0,0,0,.52,1.83,1.25,1.25,0,0,0,1.76,0c.41-.52,0-1.48-.66-1.42Z" transform="translate(72.61)"/><path class="cls-18" d="M184,46.78a.53.53,0,0,1,.28,0,.76.76,0,0,1-.6.34c-.14,0-.3,0-.37-.09s0-.18,0-.27-.23-.37-.12-.52a.22.22,0,0,1,.28,0,.66.66,0,0,1,.23.21c.13.19.27.37.41.56Z" transform="translate(72.61)"/><path class="cls-18" d="M208.61,57.46c-.17-.09-.35.18-.26.35a.69.69,0,0,0,.48.29.7.7,0,0,0-.15-.74Z" transform="translate(72.61)"/><path class="cls-18" d="M217.75,70.53a.17.17,0,0,1,0,.24.36.36,0,0,1-.25.11.27.27,0,0,1-.15,0,.22.22,0,0,1-.09-.31.24.24,0,0,1,.33-.07.27.27,0,0,1,.09.33Z" transform="translate(72.61)"/><path class="cls-18" d="M219.58,72.53a.35.35,0,0,1-.16.62c-.09,0-.21,0-.2-.13a.18.18,0,0,1,0-.1l.27-.43.07.06Z" transform="translate(72.61)"/><path class="cls-18" d="M253.3,65.84c-.12.11-.08.31,0,.47s.13.34,0,.47a.15.15,0,0,1-.11.07c-.12,0-.14-.17-.19-.27a1,1,0,0,0-.18-.22.56.56,0,0,1,0-.63.32.32,0,0,1,.34,0,.32.32,0,0,1,.12.31Z" transform="translate(72.61)"/><path class="cls-18" d="M217.42,74.76l-.19,0a.23.23,0,0,0,0,.29.19.19,0,0,0,.28,0,.16.16,0,0,0-.1-.24Z" transform="translate(72.61)"/><path class="cls-18" d="M215,78.55h-.19a.23.23,0,0,0,0,.28.19.19,0,0,0,.28,0,.16.16,0,0,0-.1-.24Z" transform="translate(72.61)"/><path class="cls-18" d="M223.44,69.39a.52.52,0,0,1-.35.74,1.32,1.32,0,0,1-.15-.72c.05-.24.31-.46.54-.37.06.13.13.25.2.38Z" transform="translate(72.61)"/><path class="cls-18" d="M218.41,77.27a.13.13,0,0,1,0,.19.31.31,0,0,1-.18.11.37.37,0,0,1-.18,0,.27.27,0,0,1-.19-.26.32.32,0,0,1,.18-.27.21.21,0,0,1,.17,0,.11.11,0,0,1,.07.13Z" transform="translate(72.61)"/><path class="cls-18" d="M227.85,70.54l-.33,0a.54.54,0,0,0,0,.25.32.32,0,0,0,.37-.24Z" transform="translate(72.61)"/><path class="cls-18" d="M212.78,71l-.33,0a.52.52,0,0,0,0,.25.32.32,0,0,0,.37-.24Z" transform="translate(72.61)"/><path class="cls-18" d="M441.94,222.19a1.17,1.17,0,0,1,.07,1.13.19.19,0,0,1-.1.1c-.06,0-.14,0-.21,0-.38-.21-.83-.53-.76-1a.55.55,0,0,1,.86-.33v.36Z" transform="translate(72.61)"/><path class="cls-18" d="M225.33,153a7.52,7.52,0,0,0-1.81-2.92,1.35,1.35,0,0,0-.45-.33,1.06,1.06,0,0,0-1,.23,2.22,2.22,0,0,0-.69,2.39,2.73,2.73,0,0,0,1.86,1.73,1.86,1.86,0,0,0,1.41-.09,1,1,0,0,0,.51-1.23.22.22,0,0,0-.27.26Z" transform="translate(72.61)"/><path class="cls-18" d="M223.24,157.74a2,2,0,0,0-1.5-1.17,2.05,2.05,0,0,0-.41,1.86,1.24,1.24,0,0,0,1.56.81c.61-.27.7-1.31.09-1.56Z" transform="translate(72.61)"/><path class="cls-18" d="M228.34,150a2.36,2.36,0,0,0-.57-.35.11.11,0,0,0-.08,0s-.05,0-.06,0c-.11.21.07.53-.11.66s-.08.05-.1.09.06.12.12.13a.61.61,0,0,0,.72-.61l.07.07Z" transform="translate(72.61)"/><path class="cls-18" d="M231.11,143.23a4.58,4.58,0,0,0-1.07-.67.2.2,0,0,0-.15,0c-.06,0-.09.06-.12.11-.2.39.14,1-.21,1.24-.07.05-.15.08-.18.16s.1.22.23.25a1.16,1.16,0,0,0,1.35-1.15l.13.14Z" transform="translate(72.61)"/><path class="cls-18" d="M217.28,150a1,1,0,0,0-.69-.56,1.14,1.14,0,0,0-.07.41.36.36,0,0,0,.23.31c.18.05.35-.1.48-.24v.16Z" transform="translate(72.61)"/><path class="cls-18" d="M219.74,132.46a.41.41,0,0,0-.23-.11.5.5,0,0,0-.23.09,3.46,3.46,0,0,1-.6.32l1.09.34.08,0c.08.06,0,.2.06.3s.24.18.39.17C221.39,133.51,220.1,132.76,219.74,132.46Z" transform="translate(72.61)"/><path class="cls-18" d="M228.19,131.28a.45.45,0,1,1-.8,0,.47.47,0,0,1,.77-.07Z" transform="translate(72.61)"/><path class="cls-18" d="M224.93,144.13c.25,0,.57.1.58.35s-.26.37-.49.43a.32.32,0,0,1-.3,0c-.18-.17.22-.49.08-.69,0-.07.16,0,.14,0Z" transform="translate(72.61)"/><path class="cls-18" d="M219.52,153a.42.42,0,0,1,.24.12.76.76,0,0,1-.69,0c-.12,0-.27-.12-.28-.25s.07-.17.09-.26,0-.43.14-.52a.24.24,0,0,1,.28.09.65.65,0,0,1,.09.3c0,.23.07.46.11.68Z" transform="translate(72.61)"/><path class="cls-18" d="M218.81,156.57c-.11-.16-.39,0-.4.19a.72.72,0,0,0,.29.48.66.66,0,0,0,.21-.72Z" transform="translate(72.61)"/><path class="cls-18" d="M233.81,169.75a.73.73,0,0,0-.23-.16.23.23,0,0,0-.26.06c-.1.12,0,.3,0,.45s-.2.28-.18.43a.27.27,0,0,0,.37.16.67.67,0,0,0,.3-.34.77.77,0,0,0,.11-.39.28.28,0,0,0-.25-.28Z" transform="translate(72.61)"/><path class="cls-18" d="M206.47,163a.18.18,0,0,1-.09.23.36.36,0,0,1-.27,0,.31.31,0,0,1-.13-.1.23.23,0,0,1,.08-.32.24.24,0,0,1,.32.1.27.27,0,0,1-.08.33Z" transform="translate(72.61)"/><path class="cls-18" d="M216.45,152.78a.26.26,0,0,0-.13-.44.5.5,0,0,0-.15.25.24.24,0,0,0,.13.25c.1,0,.22-.05.2-.15Z" transform="translate(72.61)"/><path class="cls-18" d="M217.64,139.72a.27.27,0,0,0-.14-.44.45.45,0,0,0-.14.26.23.23,0,0,0,.13.24.15.15,0,0,0,.2-.15Z" transform="translate(72.61)"/><path class="cls-18" d="M219.27,149.48a.77.77,0,0,0-.35-.57l-.26.51a.48.48,0,0,0-.07.26.3.3,0,0,0,.38.24.42.42,0,0,0,.28-.41Z" transform="translate(72.61)"/><path class="cls-18" d="M255.33,140.52l1,.39c0,.17-.24.21-.42.19a.94.94,0,0,1-.49-.18.31.31,0,0,1,0-.46Z" transform="translate(72.61)"/><path class="cls-18" d="M248.62,140.81c.06-.24-.24-.47-.48-.39a.54.54,0,0,0-.3.62.45.45,0,0,0,.17.27.4.4,0,0,0,.46-.1,1.17,1.17,0,0,0,.21-.45Z" transform="translate(72.61)"/><path class="cls-18" d="M223.49,143.82a.59.59,0,0,0-.25-.61.65.65,0,0,0-.26.42.47.47,0,0,0,.26.55c.22.06.47-.2.34-.39Z" transform="translate(72.61)"/><path class="cls-18" d="M224.22,146.11a.34.34,0,0,1-.05.43l-.48-.19a.4.4,0,0,1,.49-.38Z" transform="translate(72.61)"/><path class="cls-18" d="M227.65,150.21l.2,0a1,1,0,0,1-.31.37.37.37,0,0,1-.45,0,.24.24,0,0,1,.07-.39.87.87,0,0,1,.48,0Z" transform="translate(72.61)"/><path class="cls-18" d="M216.41,156.42a.34.34,0,0,1,0,.37.37.37,0,0,1-.37.1c-.09,0-.17-.13-.13-.21a.23.23,0,0,1,.09-.08l.45-.25,0,.09Z" transform="translate(72.61)"/><path class="cls-18" d="M213.23,156.4c-.06.16.08.32.2.43s.28.24.25.41a.14.14,0,0,1-.07.11c-.1.05-.2-.08-.29-.15a.76.76,0,0,0-.26-.11.56.56,0,0,1-.32-.54.3.3,0,0,1,.31-.15.32.32,0,0,1,.25.23Z" transform="translate(72.61)"/><path class="cls-18" d="M211.62,156.85l-.18.07a.25.25,0,0,0,.17.24.19.19,0,0,0,.23-.16.17.17,0,0,0-.2-.17Z" transform="translate(72.61)"/><path class="cls-18" d="M211.24,161.34l-.18.08a.23.23,0,0,0,.17.23.19.19,0,0,0,.23-.15.17.17,0,0,0-.2-.18Z" transform="translate(72.61)"/><path class="cls-18" d="M217.15,151.56c.06.12.24.08.32,0a3.59,3.59,0,0,0,.17-.34.46.46,0,0,1,.32-.2.21.21,0,0,1,.2.07.23.23,0,0,1,0,.14,1.39,1.39,0,0,1-.11.73.65.65,0,0,1-.61.36.52.52,0,0,1-.39-.3.51.51,0,0,1,.07-.49Z" transform="translate(72.61)"/><path class="cls-18" d="M211.65,135.34c0,.12.24.08.31,0a3.65,3.65,0,0,0,.18-.34.46.46,0,0,1,.32-.2.21.21,0,0,1,.2.07.33.33,0,0,1,0,.14,1.4,1.4,0,0,1-.12.73.63.63,0,0,1-.6.36.49.49,0,0,1-.32-.79Z" transform="translate(72.61)"/><path class="cls-18" d="M216.5,148.28a.31.31,0,0,0-.36-.23.45.45,0,0,0-.31.32c0,.07,0,.16,0,.19a.18.18,0,0,0,.14,0l.53-.23Z" transform="translate(72.61)"/><path class="cls-18" d="M274.69,165.71a1.56,1.56,0,0,0,.39-1.11.29.29,0,0,0-.07-.19c-.12-.1-.28.05-.41.13s-.53.08-.76.22a1,1,0,0,0-.33.53c-.1.3-.15.72.14.84a.58.58,0,0,0,.46-.07,3.46,3.46,0,0,0,.82-.6Z" transform="translate(72.61)"/><path class="cls-18" d="M227.05,138.16c.22-.1.13-.44,0-.65s-.17-.28-.33-.29-.33.2-.41.39l-.21.5a.31.31,0,0,0,0,.23.28.28,0,0,0,.18.11,2.48,2.48,0,0,0,1.05.07Z" transform="translate(72.61)"/><path class="cls-18" d="M229,145.88c2.07-.7,1-3-.83-2.87S227.19,146.5,229,145.88Z" transform="translate(72.61)"/><path class="cls-18" d="M221.3,155.47a.51.51,0,0,1-.65.49,1.2,1.2,0,0,1,.21-.7.43.43,0,0,1,.64-.08v.43Z" transform="translate(72.61)"/><path class="cls-18" d="M241.72,107.14c0-.16-.13-.15-.24,0a2,2,0,0,0-.25.5c-.15.4-.31.8-.47,1.2a1.3,1.3,0,0,0-.13.64c.05.13.19.07.31-.06a2.84,2.84,0,0,0,.3-.52,3.34,3.34,0,0,0,.47-1.86l-.24.26Z" transform="translate(72.61)"/><path class="cls-18" d="M213.68,158.6c.07,0,.12.08.12.15a.34.34,0,0,1-.11.18.4.4,0,0,1-.15.1.26.26,0,0,1-.29-.14.33.33,0,0,1,0-.33.24.24,0,0,1,.13-.09.11.11,0,0,1,.13.08Z" transform="translate(72.61)"/><path class="cls-18" d="M214.71,152.48l-.17-.1a.39.39,0,0,0-.12.28c0,.1.14.19.22.12a.24.24,0,0,0,.05-.1l.09-.36Z" transform="translate(72.61)"/><path class="cls-18" d="M206.76,143.64a1.17,1.17,0,0,0-.35-.35.43.43,0,0,0-.46,0,.45.45,0,0,0-.12.21.47.47,0,0,0,.39.54.48.48,0,0,0,.52-.41Z" transform="translate(72.61)"/><path class="cls-18" d="M219.17,137.57a.34.34,0,0,1,.13.56.89.89,0,0,1-.39-.06.63.63,0,0,1,.19-.38Z" transform="translate(72.61)"/><path class="cls-18" d="M224.65,158.57l-.32-.12a.7.7,0,0,0-.09.24.32.32,0,0,0,.44,0Z" transform="translate(72.61)"/><path class="cls-18" d="M266.73,128a1.14,1.14,0,0,1,.91.66.22.22,0,0,1,0,.14c0,.07-.1.11-.17.14-.4.16-.92.31-1.22,0a.57.57,0,0,1,.29-.89l.27.24Z" transform="translate(72.61)"/></g></g></g></svg>